<?xml version="1.0" encoding="utf-8"?>
<!-- Generator: Adobe Illustrator 22.0.1, SVG Export Plug-In . SVG Version: 6.00 Build 0)  -->
<!DOCTYPE svg PUBLIC "-//W3C//DTD SVG 1.1//EN" "http://www.w3.org/Graphics/SVG/1.1/DTD/svg11.dtd">
<svg version="1.1" id="Layer_1" xmlns="http://www.w3.org/2000/svg" xmlns:xlink="http://www.w3.org/1999/xlink" x="0px" y="0px"
	 viewBox="0 0 320 218" style="enable-background:new 0 0 320 218;" xml:space="preserve">
<style type="text/css">
	.st0{fill:none;}
	.st1{fill:#EF604E;}
</style>
<path class="st0" d="M170.9-402.5"/>
<path class="st0" d="M170.9-402.5"/>
<path class="st0" d="M170.9-402.5"/>
<g>
	<path class="st1" d="M288.6,73.8h-3.5l-31.7,68.9h12.7l7.5-16.2h27.2l7.5,16.2H320L288.6,73.8z M278.3,116.5l8.9-19.2l8.9,19.2
		H278.3z"/>
	<polygon class="st1" points="77.7,75.2 90.4,75.2 108.7,120.5 127.7,75.2 139.4,75.2 110.1,144.2 106.6,144.2 	"/>
	<polygon class="st1" points="198.5,75.2 211.2,75.2 229.5,120.5 248.7,75.2 260.4,75.2 230.9,144.2 227.4,144.2 	"/>
	<rect x="149.5" y="75" class="st1" width="39.6" height="11"/>
	<rect x="149.5" y="103.6" class="st1" width="39.6" height="11"/>
	<rect x="149.5" y="132" class="st1" width="39.6" height="11"/>
	<polygon class="st1" points="301.2,75.9 299.6,75.9 299.6,75.2 303.6,75.2 303.6,75.9 301.9,75.9 301.9,80.2 301.2,80.2 	"/>
	<path class="st1" d="M304.3,75.2h0.9l1.6,2.3l1.6-2.3h0.9v4.9h-0.9v-2.3c0-0.5,0-0.7,0-1.2l0,0c-0.2,0.2-0.5,0.7-0.7,0.9l-0.9,1.4
		l-0.9-1.4c-0.2-0.2-0.5-0.7-0.7-0.9l0,0c0,0.2,0,0.7,0,1.2v2.3h-0.9V75.2z"/>
	<path class="st1" d="M54,73.8h-3.5l-19.5,42.7H4.8l7.7,10.1h13.8l-7.3,16.2h11.7l7.5-16.2h27.2l7.5,16.2h12.7L54,73.8z M43,116.5
		l8.9-19.2l8.9,19.2H43z"/>
</g>
</svg>
