<?xml version="1.0" encoding="utf-8"?>
<!-- Generator: Adobe Illustrator 22.0.1, SVG Export Plug-In . SVG Version: 6.00 Build 0)  -->
<!DOCTYPE svg PUBLIC "-//W3C//DTD SVG 1.1//EN" "http://www.w3.org/Graphics/SVG/1.1/DTD/svg11.dtd">
<svg version="1.1" id="Layer_1" xmlns="http://www.w3.org/2000/svg" xmlns:xlink="http://www.w3.org/1999/xlink" x="0px" y="0px"
	 viewBox="0 0 230 130" style="enable-background:new 0 0 230 130;" xml:space="preserve">
<style type="text/css">
	.st0{fill:#EF604E;}
</style>
<g>
	<path class="st0" d="M13.1,66c0,3.6-2.9,6.6-6.6,6.6C2.9,72.6,0,69.6,0,66c0-3.6,2.9-6.6,6.6-6.6C10.2,59.4,13.1,62.4,13.1,66
		 M38.2,39.8c-3.6,0-6.6,2.9-6.6,6.6c0,3.6,2.9,6.6,6.6,6.6c3.6,0,6.6-2.9,6.6-6.6C44.8,42.8,41.9,39.8,38.2,39.8 M76.4,66
		c0,3.6-2.9,6.6-6.6,6.6c-3.6,0-6.6-2.9-6.6-6.6c0-3.6,2.9-6.6,6.6-6.6C73.5,59.4,76.4,62.4,76.4,66 M38.2,79
		c-3.6,0-6.6,2.9-6.6,6.6c0,3.6,2.9,6.6,6.6,6.6c3.6,0,6.6-2.9,6.6-6.6C44.8,81.9,41.8,79,38.2,79 M68,42.1L38.2,59.9L8.5,42.1v12.2
		L28.1,66L8.5,77.8V90l29.7-17.9L68,90V77.8L48.4,66L68,54.3V42.1z"/>
	<path class="st0" d="M137.7,42.1v13.7l-10.7-13.7h-3v19.7h3.3V47.4l11.2,14.4h2.5V42.1H137.7z M187.6,51.6
		c0,5.7-4.4,10.1-10.1,10.1c-5.7,0-10.1-4.5-10.1-10.1c0-5.6,4.5-10.1,10.1-10.1C183.1,41.6,187.6,46,187.6,51.6 M184.2,51.6
		c0-3.8-2.8-6.9-6.7-6.9c-3.8,0-6.7,3.1-6.7,6.9c0,3.9,2.8,7,6.7,7C181.4,58.6,184.2,55.5,184.2,51.6 M155.6,42.1l-8.2,9.2v-9.2
		h-3.3v19.7h3.3v-9.4l8.4,9.4h4.5l-9.1-10.1l8.6-9.6H155.6z M101.8,56.1c0,4-3.1,5.7-7,5.7h-6.9V42.1H95c3.4,0,6.1,1.8,6.1,5.3
		c0,1.8-1,3.3-2.2,3.9C100.7,52.4,101.8,54,101.8,56.1 M91.2,50.2h3.7c1.7,0,2.9-1,2.9-2.6c0-1.7-1.4-2.5-3-2.5h-3.5V50.2z
		 M98.4,55.9c0-1.7-1.3-2.8-3.1-2.8h-4v5.6h3.4C97,58.8,98.4,57.7,98.4,55.9 M113.7,42h-3.3l-8,19.8h3.5l2.1-5.4h8l2.1,5.4h3.6
		L113.7,42z M109.2,53.4l2.9-7.4l2.8,7.4H109.2z M193.9,45.3V50h8.3v3.2h-8.3v8.5h-3.4V42.1H203v3.2H193.9z M128.8,69.8
		c-5.6,0-10.1,4.5-10.1,10.1c0,5.7,4.3,10.1,10.1,10.1c5.7,0,10.1-4.5,10.1-10.1C138.9,74.3,134.4,69.8,128.8,69.8 M128.8,86.9
		c-3.9,0-6.7-3.1-6.7-7c-0.1-3.8,2.9-6.9,6.7-6.9c3.9,0,6.7,3.1,6.7,6.9C135.4,83.7,132.6,86.9,128.8,86.9 M89.7,71.2
		c1.2-0.8,2.7-1.3,4.4-1.3c1.9,0,3.5,0.3,5,1V74H99c-1.6-0.8-3.4-1.1-4.7-1.1c-1.7,0-3.6,0.6-3.6,2.4c0,1.3,1,2,4.2,3
		c3.1,1,5.4,2.6,5.4,5.9c0,3.6-3.2,5.8-6.7,5.8c-2.4,0-4.5-0.8-5.7-1.4h-0.1v-3.4l0.1,0.1c1.3,0.8,3.4,1.7,5.6,1.7
		c1.7,0,3.5-0.8,3.5-2.7c0-1.9-1.9-2.5-4.3-3.3c-2.6-0.8-5.2-2.3-5.2-5.6C87.6,73.7,88.3,72.2,89.7,71.2 M219.9,70.3h-6.2V90h6.2
		c5.6,0,10.1-4.2,10.1-9.8C230,74.5,225.4,70.3,219.9,70.3 M219.9,86.9H217V73.5h2.9c3.9,0,6.7,2.9,6.7,6.7
		C226.5,83.9,223.8,86.9,219.9,86.9 M161.2,70.3v16.4h9.1l-1.5,3.2h-10.9V70.3H161.2z M207.1,70.3V84l-10.7-13.7h-3V90h3.2V75.6
		L207.8,90h2.5V70.3H207.1z M191.1,90h-3.6l-2.1-5.4h-8l-2.1,5.4h-3.5l8-19.7h3.3L191.1,90z M184.2,81.6l-2.8-7.4l-2.9,7.4H184.2z
		 M112.6,72.9c1.4,0,3.1,0.4,4.4,0.8v-3.3c-1-0.3-2.6-0.7-4.4-0.7c-6,0-10.5,4-10.7,9.8c0,0,0,0,0,0c0,0.1,0,0.1,0,0.2
		c0,0.1,0,0.1,0,0.2c0,0.1,0,0.1,0,0.2c0,0.1,0,0.1,0,0.2c0,0,0,0,0,0c0.1,5.8,4.6,9.8,10.7,9.8c1.8,0,3.4-0.4,4.4-0.7V86
		c-1.3,0.4-3,0.8-4.4,0.8c-4.3,0-7.3-3-7.3-6.8c0-0.1,0-0.1,0-0.2c0-0.1,0-0.1,0-0.2C105.3,75.9,108.2,72.9,112.6,72.9 M155.2,73.5
		h-6.1V90h-3.5V73.5h-6.1v-3.2h15.7V73.5z"/>
</g>
</svg>
