<?xml version="1.0" encoding="utf-8"?>
<!-- Generator: Adobe Illustrator 22.0.1, SVG Export Plug-In . SVG Version: 6.00 Build 0)  -->
<!DOCTYPE svg PUBLIC "-//W3C//DTD SVG 1.1//EN" "http://www.w3.org/Graphics/SVG/1.1/DTD/svg11.dtd">
<svg version="1.1" id="Layer_1" xmlns="http://www.w3.org/2000/svg" xmlns:xlink="http://www.w3.org/1999/xlink" x="0px" y="0px"
	 viewBox="0 0 320 215" style="enable-background:new 0 0 320 215;" xml:space="preserve">
<style type="text/css">
	.st0{fill:#EF604E;}
	.st1{fill:#99CC00;}
	.st2{opacity:0.75;fill:#EF604E;enable-background:new    ;}
	.st3{fill:#FFFF00;}
	.st4{opacity:0.5;fill:#EF604E;enable-background:new    ;}
	.st5{fill:#FFFFFF;}
</style>
<g>
	<path class="st0" d="M27.2,79c8.5-1.9,17-2.7,25-2.4c-4.3-6.8-7.8-14.5-10.5-22.7C50.4,55,58.5,57,66,60.1c-1.7-7.9-2.4-16.4-2-25
		c7.7,3.9,14.8,8.7,20.7,14.2c1-7.9,3.2-16.1,6.5-24c5.9,6.3,10.9,13.3,14.6,20.4c3.7-7.2,8.5-14.1,14.5-20.5
		c3.4,7.9,5.6,16.1,6.7,24.1c5.9-5.5,12.9-10.3,20.5-14.3c0.5,8.7-0.2,17.1-1.9,25c7.5-3.1,15.7-5.2,24.2-6.3
		c-2.5,8.3-6,16-10.4,22.8c8.1-0.4,16.4,0.4,24.8,2.3c5.6-7.4,10.6-16,14.6-25.1c-10-1.2-19.7-1.1-29.1,0.1c2.8-8.9,4.5-18.6,5-28.7
		c-9.8,2.3-19,5.6-27.3,10c-0.5-9.4-2.1-19-5-28.7c-8.3,5.5-15.9,11.9-22.2,18.7C116.8,16.5,111.8,8,105.8,0
		c-6,8-10.9,16.6-14.5,25.2C85,18.3,77.4,12,69.1,6.5c-2.9,9.6-4.5,19.2-5,28.6c-8.3-4.3-17.5-7.6-27.3-10
		c0.6,10.1,2.3,19.7,5.1,28.7c-9.4-1.2-19.1-1.2-29.2,0c3.9,9.3,8.8,17.7,14.6,25.1c-9.2,2.1-18.4,5.4-27.4,10
		c6.8,7.3,14.4,13.6,22.3,18.6c7.2-4.5,14.8-8.2,22.4-10.7C38.3,91.9,32.4,85.9,27.2,79z"/>
	<path class="st0" d="M44.7,118.3c-7.7-2.4-15.3-6-22.6-10.7c-7.7,5-15.3,11.3-22,18.6c8.8,4.5,18.1,7.8,27.2,9.9
		C32.6,129.1,38.3,123.2,44.7,118.3z"/>
	<path class="st0" d="M166.8,96.7C166.9,96.7,166.9,96.7,166.8,96.7C166.9,96.7,166.9,96.7,166.8,96.7c7.7,2.4,15.3,6,22.6,10.7
		c7.8-5,15.4-11.4,22.2-18.7c-8.9-4.5-18.1-7.8-27.3-9.9C179.1,85.8,173.3,91.8,166.8,96.7z"/>
	<path class="st0" d="M27.4,136.2c-5.6,7.4-10.5,15.9-14.5,25c9.9,1.2,19.6,1.1,28.8,0c2.5-8.3,6-15.9,10.4-22.7
		C44,138.9,35.7,138.1,27.4,136.2z"/>
	<path class="st0" d="M211.8,126c-6.8-7.3-14.4-13.6-22.3-18.6c-7.3,4.6-14.9,8.3-22.6,10.8c6.4,4.9,12.4,11,17.6,17.8
		c-8.4,1.9-16.9,2.7-25.1,2.5c4.3,6.8,7.8,14.5,10.5,22.7c-8.5-1.1-16.8-3.1-24.2-6.2c1.7,7.8,2.4,16.3,2,24.9
		c-7.7-3.9-14.8-8.7-20.7-14.2c-1.1,8-3.3,16.2-6.6,24.1c-5.9-6.3-10.9-13.3-14.6-20.4c-3.7,7.1-8.6,14-14.5,20.4
		c-3.3-7.9-5.5-16.1-6.6-24.1c-5.9,5.4-12.9,10.2-20.6,14.2c-0.4-8.6,0.3-17.1,2-24.9c-7.3,3.1-15.6,5.2-24,6.3
		c-2.8,8.9-4.5,18.6-5,28.5c9.8-2.3,19-5.6,27.3-10c0.4,9.4,2.1,19,5,28.7c8.3-5.5,15.9-11.8,22.2-18.7c3.6,8.6,8.5,17.2,14.6,25.2
		c6-8,10.9-16.6,14.5-25.2c6.3,6.9,13.9,13.3,22.3,18.7c2.9-9.6,4.5-19.2,5-28.7c8.3,4.3,17.6,7.6,27.4,10
		c-0.6-10.1-2.3-19.6-5.1-28.6c9.3,1.2,19.1,1.2,29.1,0c-3.9-9.3-8.8-17.7-14.6-25.1C193.6,133.8,202.8,130.5,211.8,126z"/>
	<path class="st1" d="M41.6,161.2C41.6,161.2,41.6,161.3,41.6,161.2c0,0.1,0.1,0.1,0.2,0.1c0,0,0,0,0-0.1
		C41.7,161.2,41.7,161.2,41.6,161.2z"/>
	<path class="st1" d="M184.4,78.8L184.4,78.8C184.4,78.8,184.3,78.8,184.4,78.8C184.3,78.8,184.3,78.8,184.4,78.8
		C184.3,78.8,184.4,78.8,184.4,78.8z"/>
	<path class="st1" d="M22.3,107.5c-0.1,0-0.1,0.1-0.2,0.1l0,0C22.2,107.6,22.2,107.5,22.3,107.5L22.3,107.5z"/>
	<path class="st1" d="M27.3,136.1l-0.1,0.1c0.1,0,0.1,0,0.2,0l0.1-0.1C27.4,136.1,27.4,136.1,27.3,136.1z"/>
	<path class="st2" d="M63.9,179.9c7.7-4,14.7-8.7,20.6-14.2c1.1,8,3.3,16.2,6.6,24.1c5.8-6.4,10.8-13.3,14.5-20.4
		c3.7,7.1,8.6,14.1,14.6,20.4c3.3-7.9,5.5-16.1,6.6-24.1c5.9,5.4,13,10.3,20.7,14.2c0.4-8.6-0.3-17.1-2-24.9
		c7.4,3.1,15.7,5.1,24.2,6.2c-2.6-8.2-6.1-15.9-10.5-22.7c8.2,0.2,16.7-0.6,25.1-2.5c-5.2-6.8-11.2-12.9-17.6-17.8
		c7.7-2.4,15.3-6.1,22.6-10.8c-7.3-4.6-14.9-8.2-22.5-10.7c-6,4.6-12.6,8.2-19.3,10.8c6.7,2.4,13.2,6,19.3,10.8
		c-7.2,2.3-14.6,3.5-21.8,3.5c5.5,4.7,10.4,10.3,14.5,16.7c-7.6-0.3-14.9-1.7-21.7-4.1c3.6,6.2,6.2,13.2,7.8,20.6
		c-7-2.9-13.5-6.7-19-11.4c1.2,7,1.3,14.5,0.3,22c-5.6-5.1-10.4-10.9-14-17.1c-1.3,7.1-3.7,14.1-7.2,20.8
		c-3.5-6.7-5.9-13.7-7.2-20.8c-3.6,6.2-8.3,12-14,17.1c-1-7.5-0.9-14.9,0.3-22C79.3,148.2,73,152,66,155c1.6-7.3,4.2-14.4,7.8-20.6
		c-6.7,2.4-14.1,3.8-21.6,4.1c4.1-6.4,8.9-12.1,14.5-16.7c-7.1-0.1-14.5-1.3-21.7-3.5c6-4.6,12.6-8.2,19.3-10.8
		c-6.8-2.4-13.3-6-19.3-10.7c7.2-2.3,14.6-3.5,21.8-3.5c-5.4-4.7-10.3-10.3-14.4-16.7c7.5,0.3,14.9,1.7,21.6,4.1
		c-3.6-6.2-6.2-13.2-7.8-20.6c7,2.8,13.5,6.6,19,11.3c0-0.1,0-0.2-0.1-0.3c0,0,0,0,0.1,0.1c-1.2-7-1.3-14.4-0.3-21.9
		c5.6,5.1,10.4,10.9,14,17.1c1.2-7,3.7-14,7.1-20.7c3.5,6.7,5.9,13.8,7.2,20.9c3.6-6.2,8.3-12.1,14-17.2c1,7.5,0.9,15-0.3,22.1
		c5.5-4.6,11.9-8.4,18.9-11.4c-1.6,7.4-4.2,14.4-7.8,20.6c6.7-2.5,14.1-3.9,21.6-4.2c-4,6.4-8.8,12.1-14.4,16.7
		c7.1,0.1,14.5,1.2,21.6,3.5c6.4-4.9,12.3-11,17.6-17.9h-0.1l0,0c-8.4-1.9-16.7-2.7-24.8-2.3c4.3-6.8,7.8-14.5,10.4-22.8
		c-8.5,1.1-16.7,3.2-24.2,6.3c1.7-7.9,2.4-16.3,1.9-25c-7.6,4-14.6,8.7-20.5,14.3c-1.1-8-3.3-16.2-6.7-24.1
		c-5.9,6.4-10.8,13.3-14.5,20.5c-3.7-7.1-8.6-14.1-14.6-20.4c-3.3,7.9-5.5,16.1-6.5,24C78.7,43.8,71.7,39,64,35.1
		c-0.4,8.6,0.3,17.1,2,25C58.5,57,50.4,55,41.7,53.9c2.6,8.2,6.1,15.9,10.5,22.7c-8-0.3-16.5,0.5-25,2.4
		c5.2,6.8,11.2,12.9,17.6,17.8c-7.6,2.4-15.2,6-22.4,10.7l0,0c-0.1,0-0.1,0.1-0.2,0.1c7.3,4.6,14.9,8.2,22.6,10.7
		c-6.4,4.9-12.2,10.9-17.5,17.8c0.1,0,0.1,0,0.2,0l-0.1,0.1c8.3,1.9,16.7,2.7,24.6,2.3c-4.3,6.8-7.8,14.5-10.4,22.7
		c0.1,0,0.1,0,0.2,0c0,0,0,0,0,0.1c8.4-1.1,16.7-3.2,24-6.3C64.2,162.8,63.5,171.3,63.9,179.9z"/>
	<path class="st3" d="M166.8,96.7L166.8,96.7L166.8,96.7C166.9,96.7,166.9,96.7,166.8,96.7C166.9,96.7,166.9,96.7,166.8,96.7z"/>
	<path class="st4" d="M166.8,96.7c-7.2-2.3-14.6-3.4-21.6-3.5c5.5-4.6,10.4-10.3,14.4-16.7c-7.5,0.3-14.9,1.7-21.6,4.2
		c3.6-6.2,6.2-13.2,7.8-20.6c-7,2.9-13.4,6.7-18.9,11.4c1.2-7.1,1.3-14.6,0.3-22.1c-5.6,5.1-10.4,11-14,17.2
		c-1.3-7.1-3.7-14.2-7.2-20.9c-3.4,6.7-5.9,13.7-7.1,20.7c-3.6-6.2-8.3-12-14-17.1c-1,7.4-0.9,14.8,0.3,21.9
		c5.3,4.5,10,9.9,13.4,15.9c-1.2-6.9-1.1-14,0.1-20.9c3.5,6,6,12.7,7.2,19.6c1.2-6.8,3.6-13.4,7.1-19.4c1.2,6.9,1.3,14,0.1,20.9
		c3.6-6.1,8.1-11.5,13.6-16c-1.2,6.8-3.5,13.5-7,19.6c5.4-4.5,11.5-7.9,18.1-10.4c-3.5,6.1-7.9,11.6-13.4,16.1
		c6.6-2.4,13.6-3.5,20.6-3.5c-5.3,4.5-11.4,8.1-18,10.6c7,0,13.9,1.3,20.5,3.7c-6.5,2.4-13.5,3.7-20.5,3.7c6.6,2.5,12.7,6,18,10.6
		c-7,0-14-1.1-20.6-3.5c5.4,4.6,9.9,10,13.4,16.1c-6.6-2.4-12.8-5.8-18.2-10.4c3.5,6.1,5.8,12.7,7,19.6c-5.3-4.4-10-9.8-13.5-15.9
		c1.2,6.9,1.1,13.9-0.1,20.8c-3.5-6.1-6-12.7-7.2-19.6c-1.2,6.8-3.7,13.5-7.2,19.5c-1.2-6.8-1.3-13.9-0.1-20.8
		c-3.5,6-8,11.4-13.5,15.9c1.2-6.9,3.5-13.6,7-19.7c-5.3,4.5-11.5,7.9-18.1,10.4c3.5-6.1,7.9-11.6,13.4-16.1
		c-6.6,2.4-13.6,3.5-20.6,3.5c5.4-4.5,11.5-8.1,18.1-10.6c-7,0-13.9-1.3-20.5-3.7c6.6-2.4,13.6-3.7,20.6-3.7
		c-6.6-2.5-12.7-6-18-10.6c6.9,0,13.9,1.1,20.5,3.5c-5.4-4.6-9.9-10-13.4-16.1c6.5,2.4,12.7,5.8,18.1,10.4
		c-3.5-5.9-5.7-12.5-6.9-19.3c-5.5-4.6-12-8.4-19-11.3c1.6,7.4,4.2,14.4,7.8,20.6c-6.7-2.4-14.1-3.8-21.6-4.1
		c4.1,6.4,8.9,12,14.4,16.7c-7.2,0-14.6,1.2-21.8,3.5c6,4.6,12.5,8.2,19.3,10.7C57.5,110,51,113.6,45,118.3
		c7.2,2.2,14.6,3.4,21.7,3.5c-5.5,4.6-10.4,10.3-14.5,16.7c7.5-0.3,14.9-1.7,21.6-4.1c-3.6,6.2-6.2,13.3-7.8,20.6
		c7-2.9,13.4-6.7,18.9-11.4c-1.2,7.1-1.3,14.5-0.3,22c5.6-5.1,10.4-10.9,14-17.1c1.3,7.1,3.7,14.1,7.2,20.8
		c3.5-6.7,5.9-13.7,7.2-20.8c3.6,6.2,8.3,12,14,17.1c1-7.5,0.9-15-0.3-22c5.5,4.6,12,8.4,19,11.4c-1.6-7.4-4.2-14.4-7.8-20.6
		c6.8,2.4,14.1,3.8,21.7,4.1c-4.1-6.4-8.9-12-14.5-16.7c7.2,0,14.6-1.2,21.8-3.5c-6.1-4.7-12.6-8.3-19.3-10.8
		C154.4,105,160.9,101.4,166.8,96.7L166.8,96.7L166.8,96.7z"/>
	<path class="st5" d="M85.2,71.2C85.1,71.1,85.1,71.1,85.2,71.2c0,0,0,0.1,0,0.2l0,0C85.2,71.3,85.2,71.2,85.2,71.2z"/>
</g>
<g id="Layer_2_1_">
	<g>
		<path class="st0" d="M265.3,107c0,7-2.5,16.5-12.3,16.5c-11.9,0-11.9-13.3-11.9-16.1s0-16.9,12.2-16.9
			C264.4,90.5,265.3,102.8,265.3,107z M241.4,70h-8v51.1l-0.2,7.6h7.6l0.2-6.4c0.8,1.3,1.8,2.7,4.1,4.3c3.6,2.5,7.4,2.7,9.5,2.7
			c5.8,0,11.5-2.5,14.9-7.3c2.2-2.7,4.1-7.3,4.1-15.5c0-9.3-2.8-13.6-5-16c-3.9-4.4-9.2-5.5-13.4-5.5c-9.7,0-12.8,5.4-13.9,7.3
			L241.4,70L241.4,70z"/>
		<path class="st0" d="M287.3,108.8c0-3.8,0-17.2,12.7-17.2c9.3,0,11.6,8,11.6,15.6c0,3.1-0.5,9.1-3.4,13.3c-2.7,3.8-7,4.1-9,4.1
			C288.1,124.5,287.3,113.9,287.3,108.8z M279.8,145h7.9v-21c2.3,3.8,6.8,6.4,13,6.4c10.1,0,19.4-7,19.4-22.8c0-15.7-8.7-22-17.8-22
			c-3.4,0-10.5,1-14.5,7.8l-0.1-7.1h-8c0.1,4.1,0.2,5.1,0.2,7L279.8,145L279.8,145z"/>
	</g>
</g>
</svg>
