<?xml version="1.0" encoding="utf-8"?>
<!-- Generator: Adobe Illustrator 22.0.1, SVG Export Plug-In . SVG Version: 6.00 Build 0)  -->
<!DOCTYPE svg PUBLIC "-//W3C//DTD SVG 1.1//EN" "http://www.w3.org/Graphics/SVG/1.1/DTD/svg11.dtd">
<svg version="1.1" id="Layer_1" xmlns="http://www.w3.org/2000/svg" xmlns:xlink="http://www.w3.org/1999/xlink" x="0px" y="0px"
	 viewBox="0 0 196 120" style="enable-background:new 0 0 196 120;" xml:space="preserve">
<style type="text/css">
	.st0{fill:#fd2e58;}
</style>
<g>
	<path class="st0" d="M20.9,94.4c0.1,0,0.1,0.1,0.1,0.1v2.3c0,0.1-0.1,0.1-0.1,0c-0.9-1.8-3.7-3.7-7.6-3.7c-5.6,0-9.6,3.9-9.6,9.8
		c0,6.6,5.1,9.5,9.6,9.5c3.3,0,6.5-1.3,7.8-3.9c0.1-0.1,0.1-0.1,0.1,0v2.2c0,0.2,0,0.2-0.1,0.2c-1.7,1.2-4.7,2.2-8,2.2
		c-5.6,0-11.1-3.4-11.1-10.5c0-6.2,4.7-10.4,11.1-10.4C17.2,92.4,19.6,93.6,20.9,94.4 M29.3,92.8C29.3,92.7,29.3,92.7,29.3,92.8
		l1.4-0.1c0.1,0,0.1,0,0.1,0.1v19.3h10.7c0,0,0.1,0,0.1,0.1v0.6c0,0.1,0,0.1-0.1,0.1H29.4c-0.1,0-0.1,0-0.1-0.1
		C29.3,112.8,29.3,92.8,29.3,92.8z M58.8,103.8h-8.4l-4,8.9c0,0.1-0.1,0.1-0.1,0.1h-0.7c-0.1,0-0.1-0.1-0.1-0.1L54.9,92
		c0.1-0.1,0.1-0.1,0.2,0l9.4,20.7c0,0.1,0,0.1-0.1,0.1H63c-0.1,0-0.1-0.1-0.1-0.1S58.8,103.8,58.8,103.8z M50.8,103.1h7.7l-3.9-8.4
		C54.6,94.7,50.8,103.1,50.8,103.1z M71.8,92.8C71.8,92.7,71.8,92.7,71.8,92.8l5.7-0.1c5.3,0,6.7,2.9,6.7,5c0,2.5-1.8,4.6-4.8,5.3
		c3.7,0.7,5.2,2.9,5.9,7c0.7,4.2,2.1,6.4,5.1,6.8c0.1,0,0.1,0.1,0,0.1c-4.7,0-5.8-2.8-6.5-6.8c-0.9-4.5-2.7-6.6-6.3-6.6h-4.2v9.3
		c0,0.1,0,0.1-0.1,0.1h-1.4c-0.1,0-0.1,0-0.1-0.1C71.8,112.8,71.8,92.8,71.8,92.8z M73.3,93.4v9.3h3.5c3.6,0,5.9-2,5.9-5
		c0-2.3-1.6-4.3-5.3-4.3H73.3z M96.3,92.8C96.3,92.7,96.3,92.7,96.3,92.8l1.4-0.1c0.1,0,0.1,0,0.1,0.1v19.9c0,0.1,0,0.1-0.1,0.1
		h-1.4c-0.1,0-0.1,0-0.1-0.1L96.3,92.8L96.3,92.8z M109.9,92.8C109.9,92.7,110,92.7,109.9,92.8l4.3-0.1c7.9,0,12.5,3.4,12.5,9.7
		c0,7.7-5.9,10.3-12.1,10.3H110c-0.1,0-0.1,0-0.1-0.1C109.9,112.6,109.9,92.8,109.9,92.8z M111.4,93.4V112h3.2
		c5.8,0,10.5-2.9,10.5-9.7c0-5.9-3.8-9-11.2-9h-2.5V93.4z M151.2,94.4c0.1,0,0.1,0.1,0.1,0.1v2.3c0,0.1-0.1,0.1-0.1,0
		c-0.8-1.8-3.6-3.7-7.5-3.7c-5.6,0-9,4-9,9.9c0,6.6,4.4,9.4,8.7,9.4c2.8,0,5.5-1,6.9-2.4v-7.2c0-0.1,0-0.1,0.1-0.1h1.4
		c0.1,0,0.1,0,0.1,0.1v7.7c0,0.2,0,0.2-0.1,0.2c-1.7,1.2-4.5,2.4-8.1,2.4c-5.6,0-10.6-3.2-10.6-10.3c0-6.2,4.1-10.5,10.5-10.5
		C147.7,92.4,149.9,93.6,151.2,94.4 M160.4,92.8C160.4,92.7,160.4,92.7,160.4,92.8l11-0.1c0,0,0.1,0,0.1,0.1v0.6
		c0,0.1,0,0.1-0.1,0.1h-9.5v8.2h8.2c0,0,0.1,0,0.1,0.1v0.6c0,0.1,0,0.1-0.1,0.1h-8.2v9.7H172c0,0,0.1,0,0.1,0.1v0.6
		c0,0.1,0,0.1-0.1,0.1h-11.5c-0.1,0-0.1,0-0.1-0.1V92.8z M177.1,95.9c0,0.1-0.1,0.1-0.1,0.1l-0.9-0.5c-0.1,0-0.1-0.1-0.1-0.2v-4.2
		c0-0.1,0.1-0.1,0.1-0.1l0.9,0.5c0.1,0,0.1,0.1,0.1,0.2V95.9z M182.7,97c0,5.4,11.3,3.8,11.3,10.3c0,3.3-2.5,5.8-7,5.8
		c-2.9,0-4.8-0.9-6.2-1.9c-0.1-0.1-0.1-0.1-0.1-0.2v-2.2c0-0.1,0.1-0.1,0.1,0c1.1,2.5,3.2,3.6,6.3,3.6c3.3,0,5.4-1.9,5.4-4.6
		c0-6-11.3-4-11.3-10.5c0-2.8,2.3-4.9,6.1-4.9c2.4,0,4.1,0.7,5.4,1.4c0.1,0,0.1,0.1,0.1,0.1v2.3c0,0.1-0.1,0.1-0.1,0
		c-0.9-2.2-3-3.1-5.2-3.1C184.4,93.1,182.7,94.7,182.7,97"/>
	<path class="st0" d="M88.4,70.5c0-0.2-0.2-0.4-0.4-0.4c-0.2,0-0.2,0.2-0.2,0.2c-0.2,0-0.4-0.4-0.4-0.8c0-0.6,0.4-1.3,0.8-1.3
		c0.2,0,0.4,0.2,0.4,0.4c0,0.4-0.2,0.6-0.2,0.6c0.2,0,0.8-0.4,0.8-1c0-0.4-0.4-0.8-0.8-0.8c-0.6,0-1.5,0.6-1.5,1.9
		c0,0.8,0.4,1.3,1,1.3C88.2,70.9,88.4,70.7,88.4,70.5 M97.4,8.5c0,0.4,0.4,0.8,0.8,0.8c0.4,0,0.8-0.4,0.8-0.8c0-0.4-0.4-0.8-0.8-0.8
		C97.8,7.7,97.4,8.1,97.4,8.5 M97.4,10.6c0,0.4,0.4,0.8,0.8,0.8c0.4,0,0.8-0.4,0.8-0.8s-0.4-0.8-0.8-0.8
		C97.8,10,97.4,10.2,97.4,10.6 M97.6,12.5c0,0.4,0.2,0.6,0.6,0.6c0.4,0,0.6-0.2,0.6-0.6c0-0.4-0.2-0.6-0.6-0.6
		C97.8,11.9,97.6,12.3,97.6,12.5 M95.1,8.5c0,0.4,0.2,0.6,0.6,0.6c0.4,0,0.6-0.2,0.6-0.6c0-0.4-0.2-0.6-0.6-0.6
		C95.3,7.9,95.1,8.1,95.1,8.5 M93,9.1c0,0.4,0.2,0.6,0.6,0.6c0.4,0,0.6-0.2,0.6-0.6c0-0.4-0.2-0.6-0.6-0.6C93.2,8.5,93,8.7,93,9.1
		 M91.1,10.2c0,0.4,0.2,0.6,0.6,0.6c0.4,0,0.6-0.2,0.6-0.6c0-0.4-0.2-0.6-0.6-0.6C91.3,9.6,91.1,9.8,91.1,10.2 M89.4,11.5
		c0,0.4,0.2,0.6,0.6,0.6c0.4,0,0.6-0.2,0.6-0.6s-0.2-0.6-0.6-0.6C89.6,10.8,89.4,11.2,89.4,11.5 M87.9,13.1c0,0.4,0.2,0.6,0.6,0.6
		c0.4,0,0.6-0.2,0.6-0.6c0-0.4-0.2-0.6-0.6-0.6C88.2,12.5,87.9,12.7,87.9,13.1 M86.7,14.8c0,0.2,0.2,0.6,0.6,0.6
		c0.4,0,0.6-0.2,0.6-0.6c0-0.2-0.2-0.6-0.6-0.6C87.1,14.4,86.7,14.6,86.7,14.8 M98.8,4.5c0-0.6,0.2-1.3,0.6-1.5h-2.1
		c0,0.4,0.4,1,0.2,1.5c-0.4,0-1-0.2-1.5-0.6v2.3c0.4-0.4,1-0.8,1.5-0.6c0,0.4-0.2,1.3-0.4,1.7c0.2-0.2,0.6-0.4,1-0.4
		c0.4,0,0.6,0.2,1,0.4C99,6.8,98.8,6,98.8,5.6c0.4,0,1,0.2,1.5,0.6V3.9C99.9,4.5,99,4.8,98.8,4.5 M89.6,18.4c0.4,0,0.6,0.2,1,0.6
		L90,16.9c-0.2,0.4-0.4,0.6-0.6,0.6c-0.2-0.8,0.2-1.3,0.4-1.9l-1.3,0.4c2.5-4,5.4-5.2,7.5-5.7l0.2,3.8h0.8c0.2,0.4,0.6,1,0.4,1.7
		c-0.4,0-1.3-0.2-1.5-0.8v2.7c0.4-0.6,1.3-1,1.7-1c0.2,1.3-0.6,2.5-2.1,2.5c-1,0-1.9-0.6-1.9-1.7v-0.2c0-0.4,0.4-0.6,0.6-0.4
		c0.2,0.2,0.2,0.4,0.2,0.8c0,0.4,0.2,0.6,0.6,0.6c0.2,0,0.4-0.2,0.2-0.2c-0.2,0-0.4-0.4-0.2-0.6c0.4-0.6,0-1.3-0.2-1.5
		c-0.4-0.2-0.8,0-1.3,0.4c-0.2,0.2-0.4,0.2-0.2,0c0-0.2,0-1.5-1.3-2.5c-0.4,1.5,0,2.7,0.2,2.9c0.2,0.2,0,0.4-0.2,0.2
		c-0.4-0.2-1-0.2-1.3,0.2c-0.2,0.2-0.2,1,0.4,1.5c0.4,0.2,0.4,0.6,0.2,0.6c-0.2,0.2,0,0.2,0.2,0c0.2-0.2,0.2-0.4,0.2-0.8
		c-0.2-0.4-0.2-0.6-0.2-0.8s0.4-0.2,0.8,0.2c0.2,0.2,0.2,0.4,0.2,0.8c0,0.8-0.4,1.9-1.5,1.9c-0.6,0-1.3-0.4-1.5-1.3L89.6,18.4
		L89.6,18.4z M98.2,20.7c3.6,0,5.7,1,6.9,1.9v0.2l-0.8,0.2l0.4,1v0.2c-1.9-1-4.4-1.3-6.3-1.3c-1.9,0-4.4,0.2-6.3,1.3V24l0.4-1
		l-0.8-0.2v-0.2C92.6,21.7,94.6,20.7,98.2,20.7 M98.2,17.7c0.4,1.3,1.5,1.9,2.5,1.9c0.8,0,1.7-0.4,2.1-1.3c0,1.3,0.6,2.3,2.1,2.3
		c0.4,0,0.6,0,1-0.2l-0.6,1.5c-1.7-1-3.8-1.9-7.1-1.9c-3.6,0-5.7,1-7.1,1.9l-0.6-1.5c0.4,0.2,0.6,0.2,1,0.2c1.3,0,1.9-1,2.1-2.3
		c0.4,0.8,1.3,1.3,2.1,1.3C96.7,19.8,97.8,19,98.2,17.7 M94.2,21.9c-0.6,0.2-1,0.4-0.8,0.6c0,0.2,0.6,0.4,1,0.2
		c0.6-0.2,1-0.4,0.8-0.6C95.3,21.9,94.9,21.7,94.2,21.9 M98.2,21.1l-1.3,1l1.3,0.8l1.3-1L98.2,21.1z M95.9,32.6h-0.6v41.5h0.6
		L95.9,32.6L95.9,32.6z M97.6,32.6H97v42.7h0.6V32.6z M100.5,73.9h0.6V32.6h-0.6V73.9z M98.8,75.3h0.6V32.6h-0.6V75.3z M80.4,55.7
		h13.8v-5.9H76.6l0.8,1v-0.6h1.3v1.9c0.2,0.2,0.4,0.6,0.4,0.8V50h1.3C80.4,50,80.4,55.7,80.4,55.7z M92.6,50.2h1.3V55h-1.3V50.2z
		 M90.9,50.2h1.3V55h-1.3V50.2z M89.2,50.2h1.3V55h-1.3V50.2z M87.5,50.2h1.3V55h-1.3V50.2z M85.9,50.2h1.3V55h-1.3V50.2z
		 M84.2,50.2h1.3V55h-1.3V50.2z M82.5,50.2h1.3V55h-1.3V50.2z M80.8,50.2h1.3V55h-1.3V50.2z M98.2,76.2C98.2,76,98.2,76,98.2,76.2
		c-0.4,2.7-1.5,3.8-2.7,3.8h-0.4c0,0.4,0.6,0.8,1.3,0.8c1,0,1-1,1.3-1V80c0,0.4-0.2,0.8-0.2,1.7c0,0.8,0.4,1.3,0.6,2.1
		c0.2-0.8,0.6-1.3,0.6-2.1c0-0.8-0.2-1.3-0.2-1.7v-0.2c0.2,0,0.2,1,1.3,1c0.6,0,1.3-0.4,1.3-0.8c0-0.2-0.2,0-0.4,0
		C99.5,80,98.6,78.9,98.2,76.2 M90.9,73.7c-2.7,0-4,1.3-4,2.3c0,0.8,0.6,1.3,1.5,1.3c0.6,0,1.5-0.4,1.5-1c0-0.2-0.2-0.4-0.4-0.4H89
		c-0.2,0-0.2,0-0.2-0.2c0-0.4,0.8-0.8,2.3-0.8c2.5,0,4.4,1.3,4.4,2.5c0,0.2,0,0.2-0.2,0.2c-0.2,0-0.2-0.4-0.6-0.4
		c-0.2,0-0.4,0.4-0.4,0.6c0,0.4,0.4,1,1.3,1c0.6,0,1.3-0.6,1.3-1.5C96.3,75.3,93.8,73.7,90.9,73.7 M84,34.7h-9.2v1
		c2.3,0.2,3.6,1.9,3.6,3.8c0,0.4-0.2,1-0.4,1.7c0.4,0.4,0.8,1,0.8,1.9c0.8-0.8,1.3-2.1,1.3-3.1c0-1.7-0.8-3.1-1.9-4h6.5
		c0.4,0,0.6-0.2,0.6-0.6c0-3.6,3.1-7.3,8.2-7.3c2.1,0,2.9,0.6,2.9,1.3c0,0.2,0,0.2-0.2,0.2c-0.2,0-0.2-0.2-0.6-0.2
		c-0.4,0-0.6,0.2-0.6,0.6c0,0.6,0.6,1.3,1.3,1.3c1,0,1.7-0.6,1.7-1.7c0-1.5-1.5-2.7-4.4-2.7C89.2,26.7,84.2,29.9,84,34.7
		 M115.2,66.1c1.3-0.4,0.4-0.8,0-0.8c-0.4,0-0.8-0.2-1.7-0.4c-0.4,0-1.3-0.6-1.7-0.8c-0.4-0.2-1.3-0.6-2.1-0.6c-0.8,0-1,0.2-1.3,0.4
		c-0.2,0.2,0,0.4-0.4,0.2c-0.2,0-0.6-0.8-0.6-1c0-0.2,0-0.4,0.2-0.6c0.2-0.2,0.8-0.6,1-0.6c0.6,0.2,1.5,0,1.7,0
		c0.2,0,0.2-0.2,0.2-0.4c0-0.2-0.4-0.2-0.6-0.2c-0.4,0-0.4-0.2-0.4-0.4c-0.2-0.2-0.4-0.4-0.8-0.4s-0.8,0.2-1,0.6
		c-0.2,0.2-0.8,0.6-1.5,1.5c-0.4,0.6,0,1.5,0.2,2.1c0,0.4,0.2,1,0.2,1.5c0,0.6,0.6,1.3,1.3,1.7c0.2,0.2,0.4,0.2,0.8,0.2
		c0.2,0.4,0.2,0.6,0,1c-0.2,0.2-0.4,0.8-0.6,1h-0.4c-0.2,0-0.4-0.2-0.6,0c-0.2,0-0.2,0.4,0,0.4h0.4c0,0.2-0.2,0.2-0.4,0.2
		c0,0.2,0,0.2,0.2,0.2c0.2,0,0.6-0.2,0.8-0.2s0.6,0.2,0.6,0.4c0,0,0,0.2,0.2,0c0.2,0,0.2-0.2,0.2-0.4c-0.2-0.2-0.2-0.2-0.4-0.2
		c-0.2-0.2,0-0.2,0-0.4s0.6-1.3,0.8-1.5c0,0,0-0.4-0.2-0.6h1c0,0.2,0.4,0.6,0.4,1s-0.2,0.8-0.2,1c0,0-0.4,0.2-0.6,0.2h-0.6
		c-0.2,0.2-0.2,0.4,0,0.4c0.2,0,0.4-0.2,0.4-0.2s-0.2,0.2-0.2,0.4c0,0.2,0.2,0.4,0.4,0.2c0.2-0.2,0.4-0.2,0.6-0.4
		c0.2,0,0.6,0,0.6,0.2c0,0.2,0.2,0,0.2,0s0.2-0.4,0-0.4c-0.2-0.2-0.2,0-0.4-0.2l-0.2-0.2c0,0,0.2-0.6,0.2-0.8c0.2-0.4,0-0.4,0-0.6
		l-0.4-0.8c0.4,0,1,0,1.7,0.8c1,0.8,2.1,0,2.3-0.2c0.2-0.2,0.8-0.4,0.8-0.4s0-0.2-0.4-0.4c-0.4-0.2-1.9-0.4-1.7-0.6
		C113.5,66.5,114.8,66.3,115.2,66.1 M90.9,40.8c0.6,0,1.3-0.6,1.3-1.3c0-0.6-0.6-1.3-1.3-1.3c-0.6,0-1.3,0.6-1.3,1.3
		c0,0.2,0,0.4,0.2,0.6h-5c0-0.2,0.2-0.4,0.2-0.6c0-0.6-0.6-1.3-1.3-1.3s-1.3,0.6-1.3,1.3c0,0.6,0.4,1.3,1.3,1.3v5.7h-0.6l0.8,1
		l0.8-1h-0.6V45h1.5v1.5H85l0.8,1l0.8-1h-0.6V45h1.5v1.5h-0.6l0.8,1l0.8-1h-0.6V45h1.5v1.5h-0.6l0.8,1l0.8-1h-0.6v-5.7H90.9z
		 M83.1,39.5c0-0.4,0.2-0.6,0.6-0.6c0.4,0,0.6,0.2,0.6,0.6c0,0.4-0.2,0.6-0.6,0.6C83.3,40.2,83.1,39.9,83.1,39.5 M85.9,44.3h-1.5
		v-1.5h1.5V44.3z M85.9,42.2h-1.5v-1.5h1.5V42.2z M88.2,44.3h-1.5v-1.5h1.5V44.3z M88.2,42.2h-1.5v-1.5h1.5V42.2z M90.2,39.5
		c0-0.4,0.2-0.6,0.6-0.6c0.4,0,0.6,0.2,0.6,0.6c0,0.4-0.2,0.6-0.6,0.6C90.7,40.2,90.2,39.9,90.2,39.5 M90.2,44.3h-1.5v-1.5h1.5V44.3
		z M90.2,42.2h-1.5v-1.5h1.5V42.2z M75,66.5c0-4.8,2.5-7.1,3.8-7.1c0.2,0,0.2,0,0.2,0.2c0,0.2-0.6,0.2-0.6,0.8c0,0.4,0.4,0.8,1,0.8
		s1.5-0.8,1.5-1.7s-0.6-1.5-1.7-1.5c-2.1,0-5.2,2.7-5.2,8.6c0,5.7,4.2,10.3,9.6,10.3c1.5,0,2.7-0.6,2.7-2.1c0-1-0.8-1.5-1.5-1.5
		c-0.6,0-1.3,0.4-1.3,1c0,0.4,0.4,0.6,0.6,0.6c0.4,0,0.4-0.2,0.6-0.2c0,0,0.2,0,0.2,0.2s-0.4,0.6-1.5,0.6C78.1,76,75,71.4,75,66.5
		 M112.2,40.2l-0.6,0.6v0.6l0.6-0.2l0.6-0.6v-0.4H112.2z M111.4,39.9l0.4-0.6v-0.4l-0.6,0.2l-0.4,0.6v0.6
		C110.8,40.4,111.4,39.9,111.4,39.9z M110.4,39.1l0.2-0.8l-0.2-0.4l-0.4,0.2l-0.2,0.8l0.2,0.4L110.4,39.1z M105.8,40.8l-0.4-0.6
		h-0.6v0.4l0.6,0.6l0.6,0.2C106,41.4,105.8,40.8,105.8,40.8z M106.4,40.2v-0.6l-0.4-0.6l-0.6-0.2v0.4l0.4,0.6
		C105.8,39.7,106.4,40.2,106.4,40.2z M107.4,39.3l0.2-0.4l-0.2-0.8l-0.4-0.2l-0.2,0.4l0.2,0.8L107.4,39.3z M108.9,38.5l0.4-0.4v-0.8
		l-0.4-0.4l-0.4,0.4v0.8L108.9,38.5z M111.4,45.2l0.4-0.2c-0.2-0.4-0.4-0.6-0.6-1c0.2-0.2,0.2-0.4,0.2-0.6c0-0.2,0-0.4-0.2-0.6
		c0-0.2,0-0.4,0.2-0.4c0-0.2,0-0.2,0.2-0.2l-0.4-0.2l-0.4,0.8c0,0-0.2,0-0.4-0.2c0.2-0.6,0.6-1.5,0.6-1.5l-0.4-0.2
		c0,0-0.4,0.6-0.6,1.5h-0.4c0-0.6,0.2-1.3,0.4-1.9l-0.4-0.2c0,0.2-0.2,0.4-0.2,0.6l-0.4-0.2v-1.5h-0.6v1.5l-0.4,0.2
		c0-0.2-0.2-0.6-0.2-0.6h-0.2c0.2,0.6,0.4,1.3,0.4,1.9h-0.4c-0.2-0.8-0.6-1.5-0.6-1.5l-0.4,0.2c0,0,0.4,0.6,0.6,1.5
		c-0.2,0-0.2,0.2-0.4,0.2c-0.2-0.4-0.2-0.8-0.4-0.8l-0.4,0.2c0,0.2,0.2,0.4,0.2,0.8c-0.2,0.2-0.2,0.4-0.2,0.6c0,0.2,0,0.4,0.2,0.6
		c0,0.4-0.2,0.6-0.6,1l0.4,0.2c0.4-0.4,0.6-0.6,0.6-1c0.2,0,0.2,0.2,0.4,0.2c-0.2,0.6-0.6,1.3-1,1.9l0.4,0.2c0.6-0.6,0.8-1.3,1-1.9
		h0.4c-0.2,0.6-0.4,1.7-0.8,2.5l0.4,0.2c0.2-0.4,0.4-0.8,0.4-1h0.6v1.7h0.6v-1.7h0.4c0.2,0.4,0.4,0.8,0.4,1l0.4-0.2
		c-0.4-0.8-0.8-1.9-0.8-2.5h0.4c0.2,0.6,0.6,1.3,1,1.9l0.4-0.2c-0.4-0.6-0.8-1.3-1-1.9c0.2,0,0.2-0.2,0.4-0.2
		C111,44.6,111.2,44.8,111.4,45.2 M108.9,44.1c-1.3,0-2.1-0.4-2.1-0.8c0-0.2,0.2-0.4,0.4-0.4c0,0.6,0.4,0.8,1.7,0.8
		c1.3,0,1.7-0.2,1.7-0.8c0.2,0,0.4,0.2,0.4,0.4C111,43.7,110.1,44.1,108.9,44.1 M78.7,55.4c0-3.1-5.2-5.2-5.2-10.3
		c0-1.7,0.8-2.9,2.3-2.9c0.2,0,0.4,0,0.4,0.2c0,0,0,0.2-0.2,0.2c-0.2,0-0.4,0.2-0.4,0.6c0,0.4,0.4,0.8,0.8,0.8
		c0.8,0,1.3-0.6,1.3-1.5c0-1-0.8-1.7-2.1-1.7c-1.9,0-3.4,1.7-3.4,4.2c0,4.8,5,7.5,5,10.3c0,0.4-0.2,0.6-0.4,0.6
		c-0.2,0-0.2-0.2-0.2-0.2c0-0.4-0.2-0.8-0.8-0.8c-0.4,0-0.8,0.4-0.8,1c0,0.8,0.8,1.5,1.7,1.5C78.1,57.5,78.7,56.7,78.7,55.4
		 M84.2,70.5c0,0.2,0.2,0.4,0.4,0.4c0.6,0,1-0.6,1-1.3c0-1.3-0.8-1.9-1.5-1.9c-0.4,0-0.8,0.2-0.8,0.8c0,0.6,0.6,1,0.8,1
		c0,0-0.2-0.2-0.2-0.6c0-0.2,0.2-0.4,0.4-0.4c0.4,0,0.8,0.4,0.8,1.3c0,0.4-0.2,0.8-0.4,0.8c-0.2,0-0.2-0.2-0.2-0.2
		C84.4,70.1,84.2,70.3,84.2,70.5 M86.3,71.8l0.6-0.6c-0.4-0.4-0.4-0.6-0.4-1.5s0.4-1.7,0.4-2.5c0-0.6-0.2-1.3-0.6-1.9
		c-0.4,0.6-0.6,1-0.6,1.9c0,0.6,0.4,1.7,0.4,2.5c0,0.8,0,1-0.4,1.5L86.3,71.8z M85,65.9c0-0.2-0.2-0.4-0.4-0.4
		c-0.2,0-0.2,0.2-0.2,0.2c-0.2,0-0.4-0.4-0.4-0.8c0-0.6,0.4-1.3,0.8-1.3c0.2,0,0.4,0.2,0.4,0.4c0,0.4-0.2,0.6-0.2,0.6
		c0.2,0,0.8-0.4,0.8-1c0-0.4-0.4-0.8-0.8-0.8c-0.6,0-1.5,0.6-1.5,1.9c0,0.8,0.4,1.3,1,1.3C84.8,66.3,85,66.3,85,65.9 M80.8,65.9
		c0,0.2,0.2,0.4,0.4,0.4c0.6,0,1-0.6,1-1.3c0-1.3-0.8-1.9-1.5-1.9c-0.4,0-0.8,0.2-0.8,0.8s0.6,1,0.8,1c0,0-0.2-0.2-0.2-0.6
		c0-0.2,0.2-0.4,0.4-0.4c0.4,0,0.8,0.4,0.8,1.3c0,0.4-0.2,0.8-0.4,0.8c-0.2,0-0.2-0.2-0.2-0.2C81,65.7,80.8,65.9,80.8,65.9
		 M82.9,67.2l0.6-0.6c-0.4-0.4-0.4-0.6-0.4-1.5c0-0.8,0.4-1.7,0.4-2.5c0-0.6-0.2-1.3-0.6-1.9c-0.4,0.6-0.6,1-0.6,1.9
		c0,0.6,0.4,1.7,0.4,2.5s0,1-0.4,1.5L82.9,67.2z M91.7,65.9c0-0.2-0.2-0.4-0.4-0.4s-0.2,0.2-0.2,0.2c-0.2,0-0.4-0.4-0.4-0.8
		c0-0.6,0.4-1.3,0.8-1.3c0.2,0,0.4,0.2,0.4,0.4c0,0.4-0.2,0.6-0.2,0.6c0.2,0,0.8-0.4,0.8-1c0-0.4-0.4-0.8-0.8-0.8
		c-0.6,0-1.5,0.6-1.5,1.9c0,0.8,0.4,1.3,1,1.3C91.5,66.3,91.7,66.3,91.7,65.9 M87.5,65.9c0,0.2,0.2,0.4,0.4,0.4c0.6,0,1-0.6,1-1.3
		c0-1.3-0.8-1.9-1.5-1.9c-0.4,0-0.8,0.2-0.8,0.8s0.6,1,0.8,1c0,0-0.2-0.2-0.2-0.6c0-0.2,0.2-0.4,0.4-0.4c0.4,0,0.8,0.4,0.8,1.3
		c0,0.4-0.2,0.8-0.4,0.8c-0.2,0-0.2-0.2-0.2-0.2C87.7,65.7,87.5,65.9,87.5,65.9 M89.6,67.2l0.6-0.6c-0.4-0.4-0.4-0.6-0.4-1.5
		c0-0.8,0.4-1.7,0.4-2.5c0-0.6-0.2-1.3-0.6-1.9c-0.4,0.6-0.6,1-0.6,1.9c0,0.6,0.4,1.7,0.4,2.5s0,1-0.4,1.5L89.6,67.2z M103.9,55
		h-1.3v-4.8h1.3V55z M105.5,55h-1.3v-4.8h1.3V55z M107.2,55H106v-4.8h1.3V55z M108.9,55h-1.3v-4.8h1.3V55z M110.6,55h-1.3v-4.8h1.3
		V55z M112.2,55H111v-4.8h1.3V55z M113.9,55h-1.3v-4.8h1.3V55z M115.6,55h-1.3v-4.8h1.3V55z M105.5,73.7c-2.9,0-5.4,1.7-5.4,3.6
		c0,0.8,0.6,1.5,1.3,1.5c0.8,0,1.3-0.6,1.3-1c0-0.4-0.2-0.6-0.4-0.6c-0.4,0-0.4,0.4-0.6,0.4c0,0-0.2,0-0.2-0.2c0-1,1.9-2.5,4.4-2.5
		c1.5,0,2.3,0.4,2.3,0.8c0,0,0,0.2-0.2,0.2h-0.4c-0.2,0-0.4,0.2-0.4,0.4c0,0.6,0.8,1,1.5,1c0.8,0,1.5-0.4,1.5-1.3
		C109.5,74.9,108.1,73.7,105.5,73.7 M112.5,34.7c-0.2-4.6-5.2-8-9.4-8c-2.7,0-4.4,1.3-4.4,2.7c0,1,0.4,1.7,1.7,1.7
		c0.8,0,1.3-0.6,1.3-1.3c0-0.4-0.2-0.6-0.6-0.6c-0.4,0-0.6,0.2-0.6,0.2s-0.2,0-0.2-0.2c0-0.6,0.8-1.3,2.9-1.3c4.8,0,8.2,3.6,8.2,7.3
		c0,0.4,0.2,0.6,0.6,0.6h6.5c-1,0.8-1.9,2.3-1.9,4c0,1,0.4,2.3,1.3,3.1c0-0.8,0.2-1.5,0.8-1.9c-0.2-0.6-0.4-1.3-0.4-1.7
		c0-1.7,1.3-3.6,3.6-3.8v-1C121.7,34.7,112.5,34.7,112.5,34.7z M121.5,66.5c0,4.8-3.1,9.2-8.4,9.2c-1,0-1.5-0.4-1.5-0.6
		c0,0,0-0.2,0.2-0.2c0.2,0,0.2,0.2,0.6,0.2c0.4,0,0.6-0.2,0.6-0.6c0-0.6-0.6-1-1.3-1s-1.5,0.6-1.5,1.5c0,1.3,1.3,2.1,2.7,2.1
		c5.2,0,9.6-4.6,9.6-10.3c0-5.7-3.4-8.6-5.2-8.6c-1,0-1.7,0.6-1.7,1.5c0,0.8,0.6,1.7,1.5,1.7c0.6,0,1-0.4,1-0.8
		c0-0.6-0.6-0.6-0.6-0.8l0.2-0.2C118.9,59.4,121.5,61.7,121.5,66.5 M97,13.5l-0.2-4c-2.9,0.4-6.3,1.9-9,6.7l0.2,0.2
		c0.2,0,0.2,0.2,0.4,0.8l3.1,8c1-0.6,2.9-1.5,6.5-1.5c3.8,0,5.7,0.8,6.5,1.5l3.1-8c0.2-0.6,0.4-0.8,0.4-0.8l0.2-0.2
		c-2.7-4.8-6.1-6.3-9-6.7l0.2,4H97L97,13.5z M101.4,8.5c0-0.4-0.2-0.6-0.6-0.6c-0.4,0-0.6,0.2-0.6,0.6c0,0.4,0.2,0.6,0.6,0.6
		C101.1,9.1,101.4,8.9,101.4,8.5 M103.4,9.1c0-0.4-0.2-0.6-0.6-0.6c-0.4,0-0.6,0.2-0.6,0.6c0,0.4,0.2,0.6,0.6,0.6
		C103.2,9.8,103.4,9.6,103.4,9.1 M105.3,10.2c0-0.4-0.2-0.6-0.6-0.6c-0.4,0-0.6,0.2-0.6,0.6c0,0.4,0.2,0.6,0.6,0.6
		C105.1,10.8,105.3,10.6,105.3,10.2 M107,11.5c0-0.4-0.2-0.6-0.6-0.6c-0.2,0-0.6,0.4-0.6,0.6c0,0.4,0.2,0.6,0.6,0.6
		C106.8,12.1,107,11.9,107,11.5 M108.5,13.1c0-0.4-0.2-0.6-0.6-0.6c-0.4,0-0.6,0.2-0.6,0.6c0,0.4,0.2,0.6,0.6,0.6
		C108.3,13.8,108.5,13.5,108.5,13.1 M109.7,14.8c0-0.2-0.2-0.6-0.6-0.6c-0.4,0-0.6,0.2-0.6,0.6c0,0.2,0.2,0.6,0.6,0.6
		C109.3,15.4,109.7,15.2,109.7,14.8 M106.4,19.2c-0.2,0.8-0.8,1.3-1.5,1.3c-1,0-1.5-1-1.5-1.9c0-0.2,0.2-0.6,0.2-0.8
		c0.2-0.4,0.6-0.4,0.8-0.2c0,0.2,0,0.4-0.2,0.8c-0.2,0.4,0,0.6,0.2,0.8h0.2c-0.2-0.2-0.2-0.4,0.2-0.6c0.8-0.8,0.8-1.5,0.4-1.7
		c-0.2-0.4-0.8-0.4-1.3-0.2c-0.2,0.2-0.4,0-0.2-0.2c0.2-0.2,0.6-1.3,0.2-2.9c-1.3,1-1.3,2.3-1.3,2.5c0,0.2-0.2,0.4-0.2,0
		c-0.2-0.4-0.8-0.6-1.3-0.4c-0.4,0.2-0.6,0.8-0.2,1.5c0.2,0.4,0,0.6-0.2,0.6s0,0.2,0.2,0.2c0.2,0,0.4-0.2,0.6-0.6
		c0-0.4,0-0.6,0.2-0.8s0.6,0,0.6,0.4v0.2c0,1-0.8,1.7-1.9,1.7c-1.5,0-2.3-1.3-2.1-2.5c0.4,0,1,0.4,1.5,1.3V15
		c-0.4,0.6-1.3,0.8-1.5,0.8c0-0.4,0.2-1.3,0.4-1.7h0.8l0.2-3.8c2.1,0.4,5.2,1.9,7.5,5.9l-1.3-0.4c0.4,0.6,0.6,1,0.4,1.9
		c-0.4,0-0.6-0.2-0.6-0.6l-0.6,2.1c0.4-0.4,0.6-0.8,1-0.6L106.4,19.2z M102,21.9c-0.6,0-1,0-1,0.2c0,0.2,0.4,0.6,0.8,0.6
		c0.6,0,1,0,1-0.2C103,22.3,102.6,21.9,102,21.9 M116,50.2h1.3v2.9c0.2-0.4,0.4-0.6,0.4-0.8v-1.9h1.3V51l0.8-1h-17.6v5.9H116
		C116,55.9,116,50.2,116,50.2z M117.7,55.4c0,1.3,0.6,2.1,1.7,2.1c0.8,0,1.7-0.6,1.7-1.5c0-0.6-0.4-1-0.8-1s-0.8,0.4-0.8,0.8
		c0,0.2,0,0.2-0.2,0.2c-0.2,0-0.4-0.2-0.4-0.6c0-2.7,5-5.4,5-10.3c0-2.3-1.5-4.2-3.4-4.2c-1,0-2.1,0.6-2.1,1.7
		c0,0.8,0.6,1.5,1.3,1.5c0.4,0,0.8-0.4,0.8-0.8c0-0.4-0.2-0.6-0.4-0.6c-0.2,0-0.2-0.2-0.2-0.2c0-0.2,0.2-0.2,0.4-0.2
		c1.5,0,2.3,1.3,2.3,2.9C122.9,50.2,117.7,52.5,117.7,55.4"/>
</g>
</svg>
