<?xml version="1.0" encoding="utf-8"?>
<!-- Generator: Adobe Illustrator 22.0.1, SVG Export Plug-In . SVG Version: 6.00 Build 0)  -->
<!DOCTYPE svg PUBLIC "-//W3C//DTD SVG 1.1//EN" "http://www.w3.org/Graphics/SVG/1.1/DTD/svg11.dtd">
<svg version="1.1" id="Layer_1" xmlns="http://www.w3.org/2000/svg" xmlns:xlink="http://www.w3.org/1999/xlink" x="0px" y="0px"
	 viewBox="0 0 100 118" style="enable-background:new 0 0 100 118;" xml:space="preserve">
<style type="text/css">
	.st0{fill:#EF604E;}
</style>
<g>
	<g>
		<path class="st0" d="M64.9,81.7c-0.1,0-0.2,0-0.3,0.1c-0.2,0.1-0.3,0.2-0.4,0.2c-0.1,0.1-0.2,0.1-0.3,0.2c0.4,0,0.7,0,0.8-0.1
			v-0.2L64.9,81.7z"/>
		<path class="st0" d="M26.3,86.6c-1.2,1.2-1.8,2.7-0.4,4.2c1.4,1.4,2.9,0.6,4-0.6c1.2-1.2,1.9-2.7,0.5-4.1
			C29,84.7,27.4,85.5,26.3,86.6z"/>
		<path class="st0" d="M62.3,95.6l-2.1-2.2l0,0l0.2,3C60.6,96.3,62,95.7,62.3,95.6z"/>
		<path class="st0" d="M60.7,24.6c3.2-2.8,7.4-4.1,11.7-3.6c0.2,0,0.5,0.1,0.7,0.1c-6.6-5-14.5-8-23.1-8c-2.1,0-4.2,0.2-6.2,0.5
			c2.2,4.3,3.6,10.4,2.9,16.9l-0.2,2.2L46,32.3c0,0.2,0,0.4,0,0.6c0,0.2,0.2,0.8,2,1.8c2.8,1.6,5.3,3.9,7.4,5.9
			C54.8,34.2,56.7,28.1,60.7,24.6z"/>
		<path class="st0" d="M50,7.3c-3.6,0-7.1,0.5-10.5,1.3c1.3,0.8,2.5,2.1,3.6,3.8c2.3-0.4,4.6-0.6,7-0.6c10,0,19.2,3.9,26.4,10.3
			c2.5,1,4.7,2.7,6.2,4.7c1.3,1.8,2.1,3.7,2.6,5.8c4.7,7.6,7.4,16.9,7.4,26.8C92.6,85.6,73.5,107,50,107C26.5,107,7.4,85.6,7.4,59.4
			c0-18.4,9.4-34.3,23-42.3c0.4-0.6,0.7-1.3,1.1-1.9c-0.6-0.3-1.2-0.7-1.5-1c-0.8,0-1.8-0.2-2.5-0.5c-14.6,8.8-24.5,26-24.5,45.7
			c0,28.7,21.1,52,47.1,52c26,0,47.1-23.3,47.1-52C97.1,30.7,75.9,7.3,50,7.3z"/>
		<path class="st0" d="M49.1,78.7c-1.9,0-3.9,1-4.5,1.6c0.1,0,0.1,0.1,0.2,0.1c0.1-0.1,0.3-0.2,0.6-0.3c0.6-0.2,1.6-0.4,2.3,0.2
			c0.4,0.1,1,0.3,1.3,0.8c0.4-0.4,0.9-0.6,1.5-0.6c0.2-0.2,0.5-0.4,0.8-0.5c0.7-0.3,1.7-0.2,2.6,0.2c0.5,0,1.9-0.5,2.2-0.8
			c0-0.1,0.2-1,0.3-2.3c0-2.8-0.3-6.9-0.4-7.5c-0.1-0.4-0.2-0.8-0.4-1.1c-0.3,0.1-0.6,0-0.9-0.2c-1.7-1.3-3-2.5-3.9-3.5
			c0.5,1.4,0.9,2.6,0.9,3.4c0,1.5-0.8,2.5-2.1,2.8c-0.1,0.9-0.8,1.7-1.5,2.5l-0.4,0.5c-0.3,0.4-0.7,0.9-1.1,1.3
			c0.9,0.1,2.1,0.2,3.4,1.1c0.2,0.2,1,0.7,0.7,1.5C50.5,78.7,49.6,78.7,49.1,78.7z"/>
		<path class="st0" d="M8.8,59.4c0,25.5,18.4,46.2,41.2,46.2c22.8,0,41.2-20.7,41.2-46.2c0-8.4-2-16.2-5.5-23c0,0.4,0,0.7,0,1.1
			c0,3.7-1.1,7-2.7,8l-1.7,1.1l0.2-2c0.1-0.7-0.2-1.8-0.7-2.8c0.4,3.2,0,7-2.1,8.8l-0.9,0.7c-0.1,1.3-0.4,2.5-1,3.4l-1.5,2l-0.1-0.6
			c-0.3,0.7-0.7,1.2-1.1,1.6L72,59.3l0.4-2.6c0-0.1,0-0.2,0-0.4c-0.2,0.8-0.6,1.5-1,2l-1.5,1.8l-0.2-2.4c0-0.1-0.1-0.3-0.2-0.6
			c-0.4,0.9-1,1.7-1.6,2l-1.7,1l0.1-2c0-0.3,0-0.7-0.1-1c-0.9,1.1-2.2,1.9-3.3,1.9h-1.8l1-1.5c0.2-0.4,0.4-0.8,0.4-1.1
			c-0.8,0.6-1.9,1.1-2.8,1.4c0.6,1.9,2.1,5.3,2.7,6.2c1,1.3,1.3,2.3,1,3.6L63,69.7c0.2,0.4,0.2,1.1,0,1.9c-0.4,1.5-0.7,2.7-0.8,3.8
			c1.3-0.3,2.9-0.4,4,0.1c0.8,0.3,0.8,0.9,0.8,1.2c-0.1,0.8-0.8,1-1.2,1.1c-0.7,0.2-2.8,0.9-2.8,2.5c0,0,0.1,0,0.1-0.1
			c0.2-0.1,0.3-0.2,0.6-0.3c0.8-0.4,1.8-0.3,2.5,0.1c0.9,0.1,1.7,0.5,2,1.2c0.2,0.4,0.5,1.4-0.5,2.6l-1.9,2.2l0.1-2.3
			c-0.4,0.3-1.1,0.4-2,0.4h-9.4c-0.5,0-0.9-0.1-1.1-0.3c-0.9,0.4-1.6,0.2-2,0c-0.3,0-0.5,0-0.7-0.1l-0.5,1.3L49,84c0,0,0,0,0,0
			l-1.7,2.8v-2.8c-0.5,0.2-1.3,0.2-1.9,0.2l-9.6,0c-0.6,0-0.9-0.1-1.2-0.3c-0.1,0-0.2,0.1-0.3,0.1c-0.8,0.3-1.5,0.3-2.1,0
			c-0.1,0-0.2,0-0.3,0l-0.2,2.4c1.2,1.8,1,3.9-0.3,5.3c-1.6,1.6-4.2,1.7-6.2-0.2c-1.9-1.9-2-4.6-0.4-6.2c1.6-1.6,4.2-1.7,6.2,0.2
			c0.2,0.2,0.4,0.5,0.6,0.7l-1.5-2.4c-0.7-1.2-0.3-2.1-0.1-2.4c0.4-0.6,1-0.9,1.8-0.9c0.2-0.2,0.3-0.3,0.6-0.4
			c0.7-0.3,1.5-0.3,2.2,0.1c0.4,0.2,0.4,0.2,0.9,0.1c0.1,0,0.2-0.1,0.3-0.1c1-0.3,2.2-0.8,2.6-1.2c0.2-0.2,0.8-1.5,3-7.2l0.2-0.5
			c0.2-0.4,0.3-0.9,0.5-1.4c0.2-0.7,0.4-1.3,0.7-1.8c-0.3-0.5-0.5-1.2-0.6-2.1c-1.7-1.8-4.8-6.5-5.5-8.8c-0.7-0.7-1.8-1.8-2.2-3
			c-2.3-1.1-6.8-5.3-8.8-11.3l-0.3,0.5l-0.8-2c-2-5,0.6-13.9,4.5-21.6C16.9,27.7,8.8,42.5,8.8,59.4z M75.1,78c0.6-1.1,1-1.8,1.6-3.3
			l2.7,1.4L79,76.8c-1.5-0.6-1.9-0.8-2.7,0.7l-0.5,1l-0.5,0.9l2.1,1.2l0.3-0.6c0.4-0.7,0.2-1.1-0.6-1.6L77,78.3l0.4-0.7l3.3,1.9
			l-0.4,0.7l-0.3-0.1c-0.8-0.5-1.3-0.3-1.7,0.3L78.1,81l2.3,1.4l0.8-1.3l0.5-0.9c0.7-1.3,0.1-1.8-1.4-2.7l0.3-0.8l2.9,1.5
			c-1,2.3-2.8,5.4-4.1,7.2l0,0L78.7,85l0.4-0.6c0.3-0.4,0.2-0.7-0.4-1l-3.8-2.3c-0.4-0.3-0.6-0.2-0.9,0.4l-0.3,0.5l-0.7-0.5
			C73.8,80,74.3,79.3,75.1,78z M68,86.6c0.6-0.5,1.5-1,2.2-1L70,85l0.5-0.6l2.1,2L72.1,87c-1-0.6-2.2-0.9-3.4,0.2
			c-1,0.9-0.7,2.5,0.4,3.8c1.3,1.5,2.8,1.6,3.8,0.7c0.9-0.9,1.1-1.8,0.5-2.5L73,89c-0.3-0.3-0.6-0.2-0.9,0.1l-0.5,0.5L71,88.9
			c0,0,0.8-0.7,1.5-1.5c0.7-0.7,1.6-1.7,1.6-1.7l0.6,0.6l-0.4,0.5c-0.4,0.4-0.4,0.5,0,0.9l1.9,1.9l-0.5,0.6L74.7,90
			c-0.1,1.2-0.8,2.1-1.4,2.7c-1.6,1.5-4,1.6-5.6-0.4C66.2,90.6,66.2,88.3,68,86.6z M59.1,98.8L59,92.2l1.6-0.7l4.7,4.7
			c0.4,0.4,0.8,0.3,1.3,0L67,97c0,0-0.9,0.5-1.9,1c-1,0.5-2,1-2,1l-0.3-0.8c0,0,0.7-0.3,0.9-0.4c0.2-0.1,0.3-0.2,0.3-0.3l-0.1-0.2
			l-0.8-1c-0.7,0.4-2.1,0.9-2.6,1.1l0.1,1.4l0,0.1c0,0.2,0.2,0.2,0.5,0.1c0.3-0.1,0.9-0.3,0.9-0.3l0.3,0.8c-1.4,0.5-2.4,0.8-3.8,1.2
			l-0.2-0.8C58.8,99.5,59.1,99.4,59.1,98.8z M45.5,100.4c0,0,0.5,0.1,0.9,0.1c0.4,0,0.5-0.1,0.5-0.4l0.2-5.1c0-0.3-0.1-0.4-0.5-0.4
			l-0.9-0.1l0.1-0.8c1.2,0.1,3.1,0.3,5.1,0.3c1.6,0,1.9,0.1,2.3,0.4c0.4,0.3,0.6,0.8,0.6,1.4c0,1.2-1.1,1.8-2.4,1.9l0,0
			c1,0,1.5,0.3,1.6,1.3c0.2,1.1,0.3,1.4,0.7,1.4c0.3,0,0.4-0.3,0.4-1l0-0.4l0.8-0.1l0,0.4c0.1,1.5-0.4,2.2-1.5,2.3
			c-1.2,0.2-1.7-0.5-1.8-1.4c-0.2-1-0.2-1.5-0.6-1.9c-0.3-0.2-0.7-0.3-1.6-0.3l-0.8,0l-0.1,2.3c0,0.3,0.1,0.4,0.4,0.5
			c0.3,0,0.5,0,1,0l0,0.8c-1.3,0-3.2-0.1-4.5-0.3L45.5,100.4z M34.3,95.3l1.9-3.7c0.2-0.3,0-0.6-0.5-0.9l-0.5-0.3l0.4-0.7
			c0,0,0.8,0.5,1.9,1.1c1,0.6,1.8,0.9,1.8,0.9L39,92.4l-0.4-0.2c-0.6-0.3-0.8-0.2-0.9,0.1L36,95.9c-0.4,1,0.2,1.8,1.3,2.3
			c1.1,0.5,2.2,0.4,2.6-0.6l1.3-3.5c0.2-0.5,0.1-0.6-0.5-0.9l-0.4-0.2l0.3-0.8c0,0,0.8,0.3,1.7,0.6c0.8,0.3,1.9,0.5,1.9,0.5
			l-0.2,0.8l-0.6-0.2c-0.5-0.1-0.7-0.1-0.8,0.4L41,98.1c-0.7,1.6-2.3,1.8-4.3,1C34.6,98.2,33.6,96.9,34.3,95.3z M24.8,76.9
			c0.3,0.8,0.5,1.8,0.4,2.8l0.8-0.2l0.5,0.7l-2.7,1.7l-0.5-0.7c0.9-0.8,1.5-2.2,0.8-3.6c-0.7-1.4-2.4-1.6-4-0.8
			c-1.9,0.9-2.2,2.7-1.6,3.8c0.6,1.4,2.2,1.9,3.4,1.4l0.5,0.9c-1.8,0.7-3.8-0.1-5-2.2c-0.9-1.7-0.9-4.4,1.8-5.8
			C21.4,73.7,23.8,74.6,24.8,76.9z"/>
		<path class="st0" d="M33.3,82.2L33.3,82.2c0.1,0,0.1,0,0.2-0.1c0.1,0,0.1-0.1,0.2-0.1c-0.1,0-0.2-0.1-0.3-0.2
			c-0.1,0-0.1-0.1-0.1-0.1L33.3,82.2z"/>
		<path class="st0" d="M50.3,97.1c0.6,0,1-0.1,1.2-0.2c0.3-0.3,0.4-0.6,0.4-1c0-0.9-0.7-1.1-1.7-1.1c-0.7,0-1,0-1.4,0
			c0,0.2-0.1,2.4-0.1,2.4S49.7,97.1,50.3,97.1z"/>
		<path class="st0" d="M45.8,82.2c0.1,0,0.2,0,0.3,0V82l0.2-0.2c0,0-0.1,0-0.1,0L46.1,82C46,82,45.9,82.1,45.8,82.2z"/>
		<path class="st0" d="M52,81.8l0,0.1l0.3,0.3c0,0,0.2,0,0.5-0.2c0.1-0.1,0.3-0.1,0.4-0.2C52.5,81.6,52,81.7,52,81.8z"/>
	</g>
	<g>
		<path class="st0" d="M44.9,43.9c0.6-0.2,1.3-0.5,1.9-1c-2.5,0.8-4.9,0.1-5.4-2.2c-1.9,0.1-3-1-3.3-2.8c-0.4,0.6-0.4,3.2,2.5,3.8
			c0.8,1.4,1.9,2.1,3.2,2.2c0.2,1.1,1.9,3.1,4.9,1.8C46.7,45.8,45.3,45.2,44.9,43.9z"/>
		<path class="st0" d="M81.8,27.4c-4.1-5.8-13.8-7.8-20.4-2C57,29.2,55.3,36.6,57,43.5c-2.3-2.3-5.7-5.8-9.4-7.9
			c-1.7-1-2.5-1.8-2.5-2.7c0-0.9,0.1-1.9,0.1-3.1l0.6,0.7c1.1-10-3-19.1-7.1-21.2c-2.3-2.7-5-3-5.6-2.5c-1-0.3-3.1-0.1-3.5,1
			c-0.7-0.3-1.7,0-1.9,1c-1.7,0.3-3.6,1.6-4.1,2.1c-0.8,0.8-0.5,1.1,0.1,0.9c1-0.4,2.1-0.3,3.3-0.1c-0.6,0.4-1.9,0.2-1.8,0.8
			c0.1,0.3,1.6,0.3,2.6,0.4c0.6,0.4,2.1,0.6,2.7,0.5c0.4,0.4,1.5,1.4,2.7,1.5c-6,9-9.8,20.8-7.6,26.2l0.4-0.8
			c1.4,7.6,7.6,12.8,9.3,13.2c0.2,1.2,1.4,2.5,2.2,3.2c0.5,2,3.9,7.4,5.6,8.9c0.2,1.9,0.4,2.2,0.9,2.2c-0.6,0.7-1,2.6-1.5,3.9
			c-0.3,0.8-2.7,7.4-3.4,8.1c-0.7,0.7-2.3,1.3-3.1,1.5c-0.7,0.2-1.2,0.5-2-0.1c-0.9-0.5-1.6,0-1.6,0.5c-1.1-0.2-2.2,0.5-1.4,1.7
			c0-0.6,0.3-0.5,0.7-0.4c0.3,0.1,0.6,0.2,0.9,0c0.3,0.5,0.9,0.4,1.4,0.2c0.4-0.2,0.5-0.3,0.7-0.3c0.5,0,0.4,0.4,1.2,0.4
			c0.8,0,8,0,9.6,0c1.6,0,1.8-0.1,1.8-0.6c0.6-0.4,1.2,0,1.2,0.6c0.9-1.5-0.5-2-1-2c-0.3-0.5-1.2-0.3-1.4-0.2
			c-0.6,0.2-0.4,0.5-1,0.4c-0.8-0.1-1.4-0.6-1.3-1.1c0.4-1.3,3.4-2.6,5.6-2.6c0.6,0,1,0,0.3-0.5c-2-1.4-4-0.7-4.2-1.2
			c-0.2-0.6,1.1-2,2-3.2c0.9-1.2,1.4-1.8,1.2-2.7c-0.2-0.9,0.8-1.4,0.9-1.9c0.1,0.2,0.4,1.1-0.5,1.9c1.4-0.2,1.6-1.3,1.7-1.9
			c0-1.3-1.7-4.8-1.7-6.2c1.2,0,2.5,2.8,6.3,5.6c0.1,0.1,0.2,0,0.2-0.1c0-0.1,0.1-0.2,0.2-0.2c1,0.8,1.2,1.8,1.3,2.2
			c0.1,0.7,0.4,4.8,0.4,7.6c0,1.5-0.3,2.5-0.4,2.8c-0.5,0.8-2.7,1.5-3.4,1.2c-1-0.5-2.2-0.4-2.5,0.4c-1.2-0.3-2.2,0.9-1.3,1.9
			c0.3-0.7,0.5-0.6,0.9-0.4c0.2,0.1,0.5,0.2,0.8,0c0.4,0.5,1,0.4,1.7,0c0.6-0.3,0.2,0.3,1.3,0.3h9.4c1.4,0,1.8-0.4,1.8-0.8
			c0.5-0.4,1.3-0.1,1.3,0.8c1.1-1.3,0.2-2.2-1.1-2.1c-0.3-0.4-1.1-0.5-1.7-0.2c-0.5,0.3-0.6,0.4-1,0.5C62.5,81.6,62,81,62,80.5
			c0-1.7,1.5-3,3.5-3.5c0.4-0.1,0.8-0.2,0.4-0.4c-1.3-0.6-3.5-0.2-4.7,0.5c0.1-1.9,0.4-3.5,0.9-5.6c0.4-1.6-0.6-1.8-0.4-2.4
			c0.2-0.6,0.3-1.2,0-2.2c0.3,0,0.4,0.1,0.8,0.7c0.2-0.9,0.1-1.7-0.8-2.8c-0.9-1.2-2.9-6.1-3.1-7.5c1.3-0.1,4.1-1.7,4.5-2.5
			c0.6,0.7,0.8,2.2,0,3.4c1.2,0,3.1-1.7,3.4-3c0.7,0.6,1.1,2.3,1,3.2c0.9-0.6,1.9-2.5,1.6-3.6c0.8,0.3,1.7,2.2,1.7,2.9
			c0.7-0.9,1.4-3.3,0.7-4.8c1.3,0.3,2.3,2.2,2,4c1-0.8,1.7-3.1,1-5c0.7,0.3,1.4,1,1.5,2.2c1.2-1.6,1-5.2-0.1-7.4
			c1.3,0.4,2.1,1.7,2.1,3.1c2.5-2.2,2.2-8.2,1-11.2l0,0c-1.1-4.1-4-6.7-7.6-7.4c-4.5-0.8-10.1,1.2-12.2,7.6c-1.6-9.2,4-15.3,12.3-15
			c8.2,0.3,14.3,8.1,11.4,17.6c1-9.2-4-15.1-11.5-15.3c-6.6-0.1-12.3,4.4-12.1,12.7c1-7.5,7.2-11.1,13.1-9.8c3.9,0.9,6.8,4,6.7,9.5
			c2.5,1.3,3.6,4.4,3.5,6.1c1.2-0.8,2.3-3.7,2.2-7.2C84.8,33.6,83.8,30.3,81.8,27.4z M34.2,9.7c0.1,0.3-0.2,0.5-0.5,0.6
			C33.2,10.4,33,10.3,33,10c-0.1-0.3,0.2-0.5,0.5-0.6C33.9,9.3,34.2,9.5,34.2,9.7z M32,37c-1.2,0.7-1.7,4.1-0.5,6.4
			c-1.2-0.8-3-3.6-2.8-5.8c-1.1,1.3-0.9,3.8-0.1,5.5c-3.8-3.8-2.4-12.2-0.9-13.1c-0.8-4.3,5.6-14.5,6.5-15.9
			c-0.3-0.4-0.5-0.9-0.6-1.2c-0.2-0.3-0.8-0.3-1.3-0.2c-0.5,0-1.5,0-1.8-0.4c-0.3-0.4-1.7-0.4-2.3-0.3c-0.6,0.1-1.2,0.3-1.4,0
			c-0.1-0.3,0.9-0.4,1.3-0.5c0.4-0.1,1.2-0.3,1.6-0.1c0.4,0.1,0.6-0.3,0.3-0.4c-0.2-0.1-0.7-0.2-1-0.4c-0.3-0.2-2.1-0.3-2.5,0
			c-0.4,0.3-1,0.1-1.5,0.2c-0.5,0.1-0.8-0.4,0.3-0.7c1.1-0.4,2.1-0.8,2.5-0.8c0.1,0.3,0.4,0.4,0.6,0.3C28.9,9.5,29,9.2,29,9
			c-0.1-0.3,0.7-0.5,1,0c0.3-0.5,1.4-1,1.9-0.3c0.4-0.3,1.6-0.6,1.8,0.2c-1.1,0-1.9,0.6-1.5,1.5c0.4,0.9,1.7,0.8,2.4,0.3
			c0.3-0.2,0.6,0,0.5,0.8c-0.2,1.7,0.5,2.1-0.3,3.2c-0.8,1.1-2.4,4-3.8,7.2c-1.6,3.9-2.7,8.3-0.8,10c-0.8-5.4,3.4-8.2,5.4-11.3
			c0.3,3.2-4.2,6.7-1.7,10.9c-0.1-5.4,3.4-6.3,5.2-9.4c0,3.9-3.5,6.4-1.3,9.6c0.2-3.6,2.6-3.6,3.6-6.5c0.3,0.8,0.5,2.1-0.4,3.7
			c-1.2,2.3-1,3.4-0.3,4.2c-1.9-0.4-3.6-0.2-5.1,2.1c-1.4,2.1-2,7,1.8,11.6C33.5,44.8,31.2,39.9,32,37z M43.2,73.8
			c-1,2.1-1.9,4.5-3.1,6.3c1-2.7,3.8-10.5,4.8-11.8C45.4,69.3,44.4,71.5,43.2,73.8z M35.6,53.5c3,1.1,8,2.5,13.8,2.3
			C48,57.1,39.8,57,35.6,53.5z M50.6,61.6c1,0.3,2,1,3.7,2.3c1.5,1.2,3,1.8,3.1,3.8C56.6,65.9,52.1,63.7,50.6,61.6z M58.3,79.7
			c-0.2-1.2-0.1-4-0.1-5.7c0-2.2-0.5-4.8-0.3-5.6C59,69.4,59,75.7,58.3,79.7z M59.4,62.4c-2.3-0.7-5.1-4-5.6-5.2
			c1.1,0.7,2.4,0.5,3.5,0.4C57.7,59.5,59,61.7,59.4,62.4z M60.9,45.1c3.1-5.5,13.6-6.1,13.3,3.2C72.9,42,65.3,40.8,60.9,45.1z
			 M60.1,42.9C62.1,37.5,72.9,34,75,42C70.5,36.4,62.8,39.5,60.1,42.9z M69.9,33.3c4.1,0.2,6.8,3.7,6.8,7.2
			C74.1,33.2,64,34,59.8,40.2C61.6,35.9,65.6,33,69.9,33.3z M60.2,48c0.1,1.1,0.7,2.1,1.6,2.8c-2.8,0.6-6.3,0-9.2-2
			c1.2,2.1,4.2,3.4,6.3,3.8c-2.9,0.4-5.6-0.7-7.1-1.7c0.6,1.6,3.2,2.6,4.7,3c-5.6,0.5-8.6-2.2-9.4-4.6c-3.2-1.2-6.1-3.8-7.4-6.3
			c-0.2,1.9,1,5.1,4,6.4c-6.6-1.4-7.5-8.4-7.2-10.8c0.4-3.1,2.6-3.9,3.6-2.6c0.8,1,0.1,2.1,1.4,2.5c0.9,0.3,1.8,0.4,2,1.4
			c0.1,0.8,0.9,1.2,1.7,1.1c0.7-0.1,1.2,0.1,1.4,0.6c0.2,0.5,0.2,0.8,1.1,1.1c0.9,0.3,1.1,0.5,1.3,1.2c0.2,0.7,0.6,1,1.8,1.2
			c1.2,0.2,0.7,1.1,1.2,1.5C54.1,49,58.1,49.3,60.2,48z"/>
	</g>
</g>
</svg>
