<?xml version="1.0" encoding="utf-8"?>
<!-- Generator: Adobe Illustrator 22.0.1, SVG Export Plug-In . SVG Version: 6.00 Build 0)  -->
<!DOCTYPE svg PUBLIC "-//W3C//DTD SVG 1.1//EN" "http://www.w3.org/Graphics/SVG/1.1/DTD/svg11.dtd">
<svg version="1.1" id="Layer_1" xmlns="http://www.w3.org/2000/svg" xmlns:xlink="http://www.w3.org/1999/xlink" x="0px" y="0px"
	 viewBox="0 0 328 140" style="enable-background:new 0 0 328 140;" xml:space="preserve">
<style type="text/css">
	.st0{fill:#fd2e58;}
</style>
<path class="st0" d="M62.4,77.2c2.8-14.5,5.4-28.6,8.1-42.7c0.8-3.9,1.8-7.7,2.7-11.6c0.3-1.2,0.8-1.8,2.2-1.8c2.5,0.1,5,0.1,7.4,0
	c1.4-0.1,2,0.5,2.2,1.8c1.2,5.9,2.6,11.8,3.6,17.8c2.9,16.8,5.6,33.6,8.5,50.5c0.3,1.5-0.2,1.8-1.5,1.8c-3.1-0.1-6.2-0.1-9.3-0.1
	c-1.3,0-1.9-0.6-2.1-1.7c-0.8-3.4-1.6-6.7-2.3-10.1c-0.4-1.9-0.7-2-3.8-2c-1.4,0-2.2,0.5-2.4,2c-0.5,3.2-1.2,6.5-1.7,9.7
	c-0.2,1.4-0.7,2.1-2.3,2c-3.3-0.1-6.6,0-9.9-0.1c-0.7,0-1.3-0.2-2.1-0.3c0.4-2,0.7-3.8,1-5.9c-0.7,0-1.4-0.1-2-0.1
	c-6.2,0-12.5,0-18.7,0c-2.7,0-2.8-0.1-2.8-2.8c0-20.1-0.1-40.3-0.1-60.4c0-2.5,0.5-3,3.1-2.8c2.1,0.1,4.2,0.1,6.2,0.1
	c1.6,0,2.3,0.6,2.3,2.4c0,17.4,0,34.7,0,52.1c0,1.6,0.4,2.3,2.1,2.2C54.7,77.1,58.6,77.2,62.4,77.2z M79.4,58.2
	c-0.3,0-0.5,0-0.8,0.1c-0.5,3.3-1,6.6-1.5,10c1.4,0,2.5,0,3.8,0C80.4,64.8,79.9,61.5,79.4,58.2z"/>
<path class="st0" d="M3,73.4c0.2,11.4,0.2,22.7,0.5,34.1c0.1,5.5,4.3,10.3,9.3,11c5.6,0.7,11.2,0.9,15.9-3.2c1.3,2,2.1,4.6,5.6,3
	c0-0.9,0-2.1,0-3.3c-0.1-9.3-0.2-18.6-0.3-27.9c-0.1-4.3-0.1-8.7-0.2-13c0-0.5-0.5-1.5-0.8-1.5c-3.8-0.1-7.6-0.1-11.6-0.1
	c0,0.9,0,1.5,0,2.1c0.1,10,0.2,20.1,0.3,30.1c0,2.1-1.1,3.3-2.9,3.4c-1.8,0-3-1.2-3.1-3.2c0-0.3,0-0.7,0-1
	c-0.1-17.1-0.3-34.3-0.4-51.4c0-6.1,0-12.2,0-18.4c0-2.1,1.3-3.3,3.3-3.1c1.8,0.1,2.7,1.4,2.7,3.8c0,8.4,0.1,16.7,0.1,25.1
	c0,0.5,0.1,1,0.1,1.7c3.9-0.6,7.7-1.2,11.4-1.9c0.3-0.1,0.7-0.8,0.7-1.3c0.1-1.4,0-2.9,0-4.3c-0.1-7.4-0.1-14.9-0.4-22.3
	c0-6.1-4.1-10.8-9.9-11.5c-3.3-0.4-6.8-0.4-10.2,0c-4.4,0.5-7.7,3-9,7.3c-0.8,2.6-1,5.4-1.2,8.1c-0.2,3.3,0,6.6,0,9.9L3,73.4z"/>
<path class="st0" d="M281.9,23.2c2.5,0,4.7,0,7,0c2.8,0,5.7,0.1,8.5,0c1.4-0.1,2,0.4,2.3,1.9c1.3,6,2.7,12,4.1,18
	c0.1,0.5,0.3,1,0.8,1.4c0.6-3.2,1.1-6.4,1.7-9.6c0.6-3.3,1.3-6.7,2-10c0.3-1.5,1-2.2,2.7-2.1c4,0.1,8.1,0,12.1,0
	c1.8,0,2.3,0.6,2,2.4c-0.1,0.6-0.3,1.1-0.5,1.6c-3.7,11.6-7.6,23.2-11.2,34.9c-0.9,2.9-1.2,6-1.3,9c-0.1,10.8-0.1,21.6,0,32.4
	c0,4.2,0.1,8.3,0.2,12.5c0.1,3.6-0.9,4.6-4.5,4.5c-3.3-0.1-6.7-0.3-10-0.5c-1.6-0.1-2.4-1-2.6-2.5c-0.2-2-0.2-3.9-0.2-5.9
	c0.2-12.6,0.3-25.2,0.5-37.7c0.1-3.4-0.4-6.6-1.4-9.9c-4-12.8-7.9-25.6-11.9-38.4C282.2,24.5,282.1,23.9,281.9,23.2z M304.9,101.6
	c0.2,0,0.4-0.1,0.5-0.1c0.1-0.4,0.3-0.7,0.3-1.1c0.7-4.7,1.4-9.3,2-14c0.2-1.6,0.3-3.2,0.2-4.8c-0.4-8.1-0.9-16.2-1.3-24.3
	c-0.1-1-0.3-1.5-1.4-1.4c-1.3,0.1-2.7,0.1-4,0c-1.5-0.1-1.8,0.6-1.8,2c0.2,5.5,0.5,11.1,0.5,16.6c0.1,8.5,1.3,16.7,3.8,24.8
	C304.1,100.1,304.5,100.8,304.9,101.6z M308.3,111.2c0-1.5,0-2.8,0-4.1c-0.1-3.4-0.4-3.6-3.8-3.3c-1.4,0.1-1.9,0.8-1.9,2.1
	c0,1.2-0.1,2.4-0.1,3.6c-0.1,1.2,0.3,2,1.7,1.8C305.5,111.3,306.8,111.3,308.3,111.2z"/>
<path class="st0" d="M185.7,57.3c-0.3,6-0.3,12-0.8,18c-0.3,3.4-1.1,7-2.4,10.2c-3.3,8.4-13.3,10-19.3,3.2c-3-3.4-4.4-7.5-4.8-11.9
	c-0.6-8.2-0.8-16.3-1.1-24.5c-0.2-6.5-0.2-13.1,1.8-19.4c0.9-2.8,2.1-5.7,3.9-8c4.5-5.9,13-5.5,17.4,0.5c3,4.2,4,9.1,4.6,14.1
	c0.3,3,0.5,6,0.6,9c0.1,2.9,0,5.9,0,8.8C185.7,57.3,185.7,57.3,185.7,57.3z M173.9,57.2c-0.1,0-0.2,0-0.3,0c0-8.9,0-17.9,0-26.8
	c0-0.7,0.1-1.5-0.3-2c-0.5-0.8-1.4-1.7-2.2-1.8c-0.7-0.1-1.7,0.9-2,1.6c-0.4,0.9-0.5,2-0.5,3c0,13.9,0.1,27.8,0.2,41.7
	c0,3.8,0.4,7.6,0.7,11.4c0.2,2.1,1.2,3.2,2.7,3c1.9-0.3,1.6-1.9,1.6-3.1C173.9,75.2,173.9,66.2,173.9,57.2z"/>
<path class="st0" d="M209.4,67.6c-0.2-7.3-0.5-14.5-0.7-21.8c-0.2-7.7-0.4-15.5-0.6-23.2c0-1.4,0.5-1.9,1.8-1.9c1.6,0,3.2-0.1,4.8,0
	c1.1,0,1.1,0.9,1.1,1.8c0,5.5,0,11-0.1,16.5c-0.1,17.4-0.2,34.8-0.3,52.1c0,2.4-0.3,2.7-2.2,2.8c-2.5,0.1-3.1-0.5-3.4-2.5
	c-0.2-1.2-0.5-2.4-1-3.5c-2.8-6.3-4.3-13.1-6.2-19.7c-2.3-7.9-4.8-15.8-7.2-23.6c0-0.1-0.1-0.1-0.4-0.4c-0.1,1.7-0.3,3.3-0.3,4.9
	c0.1,7.7,0.4,15.5,0.4,23.2c0,5.7-0.2,11.3-0.4,17c0,1.1,0.1,2.2,0,3.3c-0.1,0.5-0.6,1.3-1,1.4c-1.5,0.2-3,0.2-4.5,0.1
	c-1-0.1-1.7-0.4-1.7-1.8c0.2-23.2,0.3-46.4,0.4-69.7c0-1.2,0.3-1.8,1.7-1.7c1.4,0.1,2.8-0.2,4.1-0.2c1.8-0.1,2.8,0.6,3.3,2.5
	c2.9,11.7,6,23.3,9,35c0.8,3.3,1.8,6.5,2.7,9.7C209,67.7,209.2,67.7,209.4,67.6z"/>
<path class="st0" d="M239.5,49.1c4.6,2.8,7.1,6.3,6.7,11.6c-0.2,3,0,6.1,0,9.2c0,3.6-1.5,5.9-4.8,6.9c-2.5,0.8-5.1,1.2-7.6,1.4
	c-4,0.3-8.1,0.3-12.1,0.3c-2,0-2.3-0.3-2.3-2.3c0-17.7-0.1-35.4-0.1-53.1c0-1.5,0.4-2,1.9-1.9c4.3,0.1,8.5,0.1,12.8,0
	c5.3-0.1,11.8,4.4,11.2,11.4c-0.2,1.9-0.1,3.9-0.1,5.9C245.2,42.9,244.4,47,239.5,49.1z M229.2,36.9L229.2,36.9
	c0.1,2,0.1,3.9,0.1,5.9c0,0.1,0,0.1,0,0.2c0.2,0.4,0.3,1.1,0.7,1.2c1.8,0.7,4.7-1.4,4.8-3.4c0.1-2.3,0.1-4.6,0.1-6.9
	c-0.1-3-1.2-4-4.2-4c-1.1,0-1.6,0.4-1.5,1.5C229.2,33.2,229.2,35.1,229.2,36.9z M235.3,61.7h-0.1c0-0.8,0-1.6,0-2.4
	c-0.1-2.5-1.3-3.8-3.7-4.2c-1.5-0.3-2.1,0.3-2.1,1.8c0.1,3.6,0.1,7.2,0.1,10.9c0,1.1,0.5,1.4,1.5,1.3c2.3-0.1,3.7-1.4,4.1-3.7
	C235.3,64.1,235.2,62.9,235.3,61.7z"/>
<path class="st0" d="M108.5,88.6c-0.1,0.3-0.1,0.6-0.2,0.8c-0.7,3.4-4,4.9-7,3c-0.6-0.4-1.2-1.3-1.2-2c-0.1-6.6,0-13.1,0-19.7
	c0-1.5,0.2-3.1,0.2-4.8c0.9-0.1,1.7-0.3,2.5-0.4c3.5-0.2,3.9,0.1,3.9,3.6c0,3.9,0.3,7.7,2,11.3c1.9,3.9,4.8,6.6,9.3,7.1
	c2.8,0.3,4.7-0.9,5.1-3.7c0.2-1.5,0.1-3.3-0.4-4.7c-1.8-5.2-5.1-9.5-8.4-13.8c-3.2-4.2-6.5-8.4-9.4-12.8c-4.2-6.4-5.2-13.6-4.6-21.1
	c0.7-7.7,8.2-11.1,14.7-6.8c1.2,0.8,2.3,1.8,3.8,3c0.4-0.9,0.7-1.6,0.9-2.4c0.5-2,1.2-2.6,3.2-2.6c0.7,0,1.5,0.1,2.2,0.2
	c1.1,0.2,1.8,0.7,1.8,1.9c0.1,8.3,0.2,16.6,0.4,24.9c0,1.3-0.5,1.9-1.7,2c-0.6,0.1-1.3,0.1-1.9,0.1c-1.9,0-2.4-0.5-2.3-2.4
	c0.1-5-1.2-9.7-3.2-14.2c-1-2.4-2.6-4.5-5.2-5.2c-4.4-1.3-6.4-0.1-6.1,4.6c0.1,2.9,1.3,5.8,2.5,8.5c2.3,5,5.7,9.4,9.4,13.6
	c4.5,4.9,8.2,10.4,10,17c1.1,4,1.2,8,0.2,12c-1.1,4.3-4,6.6-8.3,7.1c-4.2,0.5-7.8-1.1-11-3.6c-0.3-0.2-0.5-0.4-0.8-0.6
	C108.9,88.6,108.7,88.6,108.5,88.6z"/>
<path class="st0" d="M148.6,63.8c0,9.3,0,18.6,0,27.9c0,1.7-0.5,2.5-2.2,2.5c-2.5-0.1-5-0.1-7.4-0.2c-1.2-0.1-1.2-1-1.2-1.9
	c0-4,0-8.1,0-12.1c0-14.7-0.1-29.4-0.1-44.2c0-2.4,0-2.4-2.4-2.4c-1.3,0-2.7,0-4,0c-1,0-1.6-0.5-1.6-1.6c0-2.6-0.1-5.2,0-7.8
	c0.1-2.3,0.6-2.6,2.9-2.7c7.2,0,14.3,0,21.5,0c2.3,0,2.5,0.2,2.6,2.6c0,2.6,0,5.2,0.1,7.8c0,1.3-0.6,1.8-1.8,1.7
	c-1.4,0-2.8-0.1-4.2-0.1c-2,0-2.3,0.3-2.3,2.3c0,9.4,0,18.7,0,28.1C148.4,63.8,148.5,63.8,148.6,63.8z"/>
<path class="st0" d="M284.1,65.4c5.1,2.3,3.3,7.7,5.6,11.4c-1.1,0.1-1.9,0.2-2.8,0.2c-3.5,0-7,0-10.5,0c-1.2,0-1.6-0.6-1.7-1.7
	c0-1.1-0.1-2.2-0.2-3.3c-0.5-2.7-2-4.2-4.7-4.4c-2.1-0.2-4.3-0.1-6.4-0.1c-1.1,0-1.2,0.5-1.2,1.4c0,2.2,0,4.5,0,6.7
	c0,1-0.3,1.3-1.3,1.3c-3.1,0-6.1,0-9.2-0.1c-1.3,0-1.9-0.4-1.9-2c0.1-7.1,0.1-14.2,0-21.3c0-1.3,0.3-1.8,1.7-1.8
	c9.6,0.1,19.3,0.1,28.9,0.1c1,0,2,0.2,2.9,0.4c3.3,0.8,5.1,3.1,5.3,6.4C288.8,62,287.6,63.9,284.1,65.4z M262.3,63c2.6,0,5,0,7.4,0
	c1.2,0,2.4,0,3.6-0.3c0.7-0.2,1.2-0.9,1.7-1.4c-0.7-0.5-1.3-1.3-2-1.4c-2.1-0.2-4.1-0.2-6.2-0.2c-1.5,0-3,0-4.5,0
	C262.3,60.9,262.3,61.7,262.3,63z"/>
<path class="st0" d="M110.9,109.5c5.3,2.3,10.7,1.9,15.9,2.2c0.9,0,1.7,0.1,2.6,0c0.4-0.1,0.8-0.5,1.1-0.8c-0.3-0.3-0.6-0.8-1-1
	c-0.6-0.2-1.2-0.2-1.9-0.3c-4.5-0.4-9-0.6-13.4-1.2c-2.8-0.4-4.9-2.1-5.7-4.9c-0.7-2.6-0.2-4.9,1.7-6.9c1.8-1.8,4.1-2.2,6.4-2.2
	c5.7,0,11.3-0.1,17,0.4c2.7,0.2,5.3,1.8,7.9,2.9c0.9,0.4,1,1.1,0.6,2c-0.7,1.4-1.3,2.9-1.9,4.3c-6.1-3.6-12.8-2.4-19.3-2.6
	c-0.3,0-0.7,0.3-1.2,0.9c0.6,0.3,1.2,0.7,1.8,0.7c4.1,0.4,8.3,0.6,12.4,1.1c4.2,0.5,7.1,3.1,7.9,6.9c0.8,3.8-1.1,6.9-4.9,7.7
	c-2,0.4-4,0.7-6,0.7c-4.9,0-9.8,0.1-14.7-0.6c-2.4-0.3-4.7-2-7-3.2c-0.3-0.2-0.7-1-0.5-1.4C109.4,112.6,110.1,111.1,110.9,109.5z"/>
<path class="st0" d="M236.3,119.3h-6.1c-1.9,0-3.7,0-5.8,0c0.3-0.6,0.4-1,0.7-1.4c4-7.1,8-14.2,12.2-21.3c0.3-0.6,1.3-1.2,2-1.2
	c2.8-0.1,5.7-0.1,8.5,0c0.6,0,1.4,0.5,1.6,0.9c3.8,7.3,7.5,14.5,11.2,21.8c0.1,0.2,0.1,0.4,0.2,0.9c-0.5,0.1-1,0.2-1.5,0.2
	c-3.3,0-6.6,0-9.9,0c-1.1,0-1.7-0.4-2-1.4c-0.3-1.3-1.1-1.6-2.3-1.5c-1.8,0.1-3.7,0-5.5,0c-1.2,0-2.4,0.1-2.6,2.1
	C236.9,119.3,236.3,119.3,236.3,119.3z M240,111.2c1.4,0,2.6,0,4,0c-0.6-1.5-1.1-2.8-1.8-4.6C241.2,108.4,240.6,109.7,240,111.2z"/>
<path class="st0" d="M104.3,95.3c0,2.3,0,4.3,0,6.3c0,1.2-0.9,1-1.6,0.9c-5-0.1-10-0.2-15-0.3c-0.7,0-1.5,0-2.2,0
	c-0.7,2.4-0.6,2.5,1.7,2.6c3.1,0.1,6.2,0.1,9.3,0.2c0.6,0,1.2,0.1,1.9,0.1c0,1.3,0,2.5,0,3.9c-4.4,0-8.7,0-13.2,0c0,0.9,0,1.7,0,2.8
	c5.7,0,11.3,0,16.9,0c2.2,0,2.2,0,2.2,2.3c0,1.6,0,3.2,0,4.9c-0.5,0.1-0.9,0.2-1.3,0.2c-9.3,0-18.6-0.1-27.9-0.1
	c-1,0-1.6-0.2-1.6-1.4c0.2-7.2,0.3-14.4,0.5-21.6c0-0.2,0.1-0.5,0.1-0.8C84.1,95.3,94.1,95.3,104.3,95.3z"/>
<path class="st0" d="M227.9,95.4c-3.4,8-6.6,15.6-9.9,23.2c-0.2,0.5-1,0.9-1.5,0.9c-3.6,0.1-7.3,0.1-10.9-0.1
	c-0.6,0-1.5-0.5-1.7-1.1c-3.2-7.3-6.3-14.6-9.5-21.9c-0.1-0.2-0.1-0.5-0.1-1.1c1.6,0,3.2,0,4.7,0c1,0,2,0,2.9,0
	c1.7,0,3.8-0.5,4.9,0.3c1.3,0.9,1.7,3,2.4,4.7c0.9,2.1,1.7,4.2,2.7,6.7c1.6-3.6,3.1-6.9,4.5-10.1c0.5-1.2,1.1-1.6,2.4-1.6
	C221.7,95.5,224.7,95.4,227.9,95.4z"/>
<path class="st0" d="M50.7,102.9c0.1,1,0.1,1.8,0.2,2.9c3.6,0,7.2,0,10.7,0c0.2,0.5,0.4,0.6,0.4,0.8c0,4,0.3,3.2-3.1,3.3
	c-2.1,0-4.3,0.1-6.4,0c-1.3,0-1.9,0.4-1.8,1.8c0.2,2.1,0.2,4.3,0.1,6.4c0,0.5-0.7,1.3-1.1,1.3c-3.6,0.1-7.1,0.1-10.7,0.1
	c-0.1-0.7-0.1-1-0.1-1.4c0-7.1,0.1-14.2,0.1-21.3c0-1.4,0.4-1.9,1.8-1.9c9.5,0.2,18.9,0.3,28.4,0.3c1.4,0,2,0.4,1.9,1.8
	s-0.1,2.9,0,4.3s-0.5,1.8-1.8,1.8c-5.5-0.1-11.1-0.2-16.6-0.3C52,102.9,51.4,102.9,50.7,102.9z"/>
<path class="st0" d="M267.8,23.9c3.7,0,7.4,0,11.6,0c-2.3,1.5-1.5,3.6-1.6,5.3c-0.2,4.6-0.1,9.2-0.2,13.8c-0.1,4.3-2,6.4-6.3,6.5
	c-5.7,0.1-11.3,0.1-17,0c-2.9,0-5-2.2-5.2-5.5c-0.2-3.4-0.1-6.8-0.1-10.2c0-1.6,0.1-3.1,0.1-4.7c0-1.9,0.7-4-1.7-5.3
	c3.6,0,7.3,0,11.1,0c-2.6,2.8-1.2,6.2-1.4,9.3c-0.2,2.7,0,5.4,0,8.1c0,1.3,0.6,2.1,1.9,2.2c2.7,0,5.4,0,8.1,0c1.7,0,2.4-1,2.4-2.7
	c-0.1-4.4,0-8.8,0-13.2C269.4,26.3,269.2,25,267.8,23.9z"/>
<path class="st0" d="M154.8,119.7c0-6,0-11.6,0-17.5c-2.6,0-5.1-0.1-7.5,0c-1.4,0-2-0.3-1.9-1.8c0.1-1.7,0-3.3,0-5
	c10.2,0,20.3,0,30.5,0c0,2.4,0,4.5,0,7.1c-3.1,0-6.3,0-9.7,0c0,6,0,11.6,0,17.2C162.2,119.7,158.6,119.7,154.8,119.7z"/>
<path class="st0" d="M270.9,119.6c0.7,0,1.3,0,1.9,0c5.5,0,11,0,16.4,0c0.9,0,1.6,0,1.6-1.2c-0.1-1.4-0.1-2.8-0.1-4.1
	c0-1.2-0.3-1.7-1.7-1.7c-3.8,0-7.6-0.1-11.4-0.1c-0.6,0-1.2-0.1-1.9-0.1c0-5.7,0-11.2,0-17.1c-3.6,0-7,0-10.5,0
	c-1,0-1.3,0.7-1.3,1.6c0,4.6,0,9.2,0,13.8c0,1.4,0,2.8,0,4.2v2.6c0,0-0.1,2.2,3.3,2.1c3.4,0,3.4,0,3.4,0L270.9,119.6z"/>
<path class="st0" d="M190.7,95.2c0,8.2,0,16,0,24.3c-3.5,0-7,0-10.4-0.1c-0.3,0-0.9-1-1-1.6c-0.1-6.2-0.1-12.5-0.1-18.7c0-4,0-4,4-4
	C185.8,95.2,188.2,95.2,190.7,95.2z"/>
<path class="st0" d="M277.3,80.5c-1-0.6-1.2,0.4-1.6,0.9c-1.1,1.6-2.5,2-4,1.3c-0.4,0.3-0.8,0.6-1.1,0.6c-0.3,0-0.9-0.5-1-0.4
	c-1.3,1.2-3.6,0.1-4.6,2.1c-0.1,0.2-0.6,0.3-1,0.7c0.6,0.1,1.3,0.1,1.9,0.2c0,0.1,0,0.2,0,0.3c-0.6,0.1-1.1,0.2-1.6,0.2
	c0.3,2.3,1.5,3.3,3.9,2.7c0.4-0.1,1,0.5,1.4,1.1c-0.6-0.2-1.3-0.3-1.9-0.5c-0.1,0.2-0.1,0.4-0.2,0.6c2.4,0.6,4.8,1.2,7.1,1.9
	c0,0.1,0,0.1,0,0.2c-2.6-0.4-5.3-0.7-7.9-1.1c-1-0.1-2-0.4-2.3,1c-0.1,0.3-0.9,0.6-1.3,0.6c-2.5,0-5-0.2-7.4-0.3
	c-2.1,0-4.3,0.1-6.4,0.2c-1.1,0.1-1.7-0.2-2-1.3c-0.5-1.6-1.3-1.8-2.8-1.2c-1.2,0.5-2.6,0.9-3.9,0.9c-1.5-0.1-2.8-0.1-3.9,1.1
	c-0.4,0.4-1.2,0.5-1.9,0.7c-0.1-0.2-0.2-0.4-0.3-0.5c1.3-0.8,2.4-1.9,3.8-2.5c0.9-0.4,2.1,0.1,3.2,0c1.4-0.2,2.7-0.5,4-1
	c0.6-0.3,1.1-1.1,1.8-1.8c0-0.1-0.2-0.4-0.3-0.8c-0.3,0.2-0.5,0.3-0.8,0.5c0-0.3-0.1-0.7,0-0.8c1-0.7,0.5-1.4-0.2-1.8
	c-1.6-0.9-3.3-1.8-5.1-2.5c-1-0.4-2.2-0.4-3.3-0.9c2.2,0.3,4.4,0.6,6.6,0.9c1.1,0.1,2.5,0.7,2.8-1.2c0-0.2,0.7-0.4,1.1-0.4
	c2.5,0.1,5.1,0.3,7.6,0.3c2.1,0,4.1,0,6.2-0.2c1.2-0.1,1.8,0.1,2.2,1.3c0.4,1.5,1.4,2,2.7,1.1c1.6-1.1,3.3-0.8,5-0.9
	c0.8,0,1.7-0.4,2.5-0.7C275.2,80.5,276.1,79.4,277.3,80.5L277.3,80.5z M261.3,87.9c0.6,1.8,1,3.2,1.6,5c-0.2-4.3-0.4-8.1-0.5-12.1
	c-0.8,1.5-0.1,3.4-1.5,4.7c-0.3,0.3-0.5,0.8-0.8,0.9c-0.2,0.1-0.6-0.4-0.9-0.7c-0.2-0.2-0.2-0.5-0.3-0.8c-0.6,0.2-1,0.3-1.5,0.5
	c0.2,0.5,0.3,0.9,0.5,1.3c-2.8,0.4-2-3.2-4.1-3.4c-0.8,1.5-1.9,1.7-3.2,0.8c-0.2,0.4-0.5,0.7-0.7,1c-0.5-1.6-1-3-1.6-4.8
	c0.2,4.3,0.4,8.1,0.5,11.9c0.1,0,0.1-0.1,0.1-0.1c0.4-1.6,0.8-3.2,1.2-4.8c0.1-0.3,0.6-0.6,0.9-0.7c0.2-0.1,0.6,0.2,0.8,0.4
	c0.2,0.3,0.2,0.7,0.4,1.2c0.6-0.2,1.2-0.4,1.7-0.5c-0.3-0.5-0.5-0.9-0.7-1.2c0.1-0.1,0.3-0.3,0.4-0.4c0.7,0.7,1.6,1.3,2.2,2
	c0.5,0.6,0.8,1.3,1.2,2c0.1-0.1,0.2-0.3,0.4-0.4c0.6-0.5,1.2-1.1,1.8-1.6c0.3,0.3,0.9,0.8,1.4,1.2C260.9,88.7,261.1,88.3,261.3,87.9
	z"/>
<path class="st0" d="M291.7,87.1c-2.2,0.7-4.4,1.4-6.6,1.9c-1.4,0.3-2.9,1.2-4.5,0.1c-0.2-0.1-0.7,0-1,0.2c-1.8,1.2-3.7,0.9-5.6,0.4
	c-1.5-0.3-3-0.7-4.5-1.4c1.6,0.3,3.2,0.6,4.8,1c3.3,0.8,3.7,0.6,5.3-2.3c0.6-1.1,1.5-2.1,2.5-3c-0.6,1.4-1.2,2.8-2,4.4
	c3-0.5,6-1,8.9-1.6c2.1-0.4,3.1,0,3.9,1.8c-2.5,1.6-15.7,4.7-17.6,4c0.8,0,1.6,0.1,2.4,0c1.8-0.4,3.5-0.8,5.2-1.3
	c2.5-0.7,4.9-1.3,7.4-2.1c0.6-0.2,1.1-0.9,1.7-1.3C292,87.5,291.8,87.3,291.7,87.1z"/>
<path class="st0" d="M219.2,86c3.2-0.9,6.4-2.1,9.7-2.5c1.5-0.2,3.2,0,4.4-0.5c-1.2,1.9-2.4,3.9-3.5,5.8c-0.1,0.2,0.2,0.6,0.3,0.8
	c0.4-0.2,0.9-0.3,1-0.6c0.6-1.9,2.1-2.6,3.9-3.4c-1.2,1.9-2.4,3.6-3.5,5.4c-2.9-2.3-2.9-2.3-0.3-6.3c-3.1,0.5-6,1.1-8.9,1.5
	C221.3,86.3,220.2,86.1,219.2,86L219.2,86z"/>
<path class="st0" d="M281.2,83c-1.5,1.5-3,3-4.4,4.6c-0.1-0.1-0.3-0.3-0.4-0.4c1.1-1.7,2.3-3.5,3.4-5.2
	C280.1,82.3,280.6,82.6,281.2,83z"/>
<path class="st0" d="M233.6,92.6c-0.4-0.3-0.8-0.7-1.3-1c1.1-1.2,2.3-2.4,3.4-3.7c0.2,0.1,0.3,0.2,0.5,0.4
	C235.3,89.7,234.4,91.2,233.6,92.6z"/>
<path class="st0" d="M277.3,80.5c0.6,0.2,1.1,0.5,1.8,0.7c-1.2,1.3-2.3,2.6-3.5,3.8c-0.2-0.1-0.3-0.2-0.5-0.4c0.5-0.9,1-1.7,1.5-2.6
	C276.9,81.6,277.1,81,277.3,80.5L277.3,80.5z"/>
<path class="st0" d="M219.2,86c-0.5-0.3-1-0.7-1.4-1c3.1-1.8,6-2.6,9.1-2.9l0,0c-0.6,0.3-1.3,0.6-1.9,0.8c-1.6,0.4-3.3,0.7-4.8,1.3
	C219.6,84.4,219.5,85.4,219.2,86L219.2,86z"/>
<path class="st0" d="M226.9,82.1c2.1-1.2,7.6-2.2,8.6-1.7C232.8,81,229.8,81.5,226.9,82.1C226.8,82.1,226.9,82.1,226.9,82.1z"/>
<path class="st0" d="M241.8,84.8c-1.8-0.4-3.7-0.8-5.5-1.2c0-0.1,0.1-0.3,0.1-0.4c1.8,0.4,3.6,0.8,5.5,1.2
	C241.9,84.5,241.8,84.6,241.8,84.8z"/>
</svg>
