<?xml version="1.0" encoding="utf-8"?>
<!-- Generator: Adobe Illustrator 22.0.1, SVG Export Plug-In . SVG Version: 6.00 Build 0)  -->
<!DOCTYPE svg PUBLIC "-//W3C//DTD SVG 1.1//EN" "http://www.w3.org/Graphics/SVG/1.1/DTD/svg11.dtd">
<svg version="1.1" id="Layer_1" xmlns="http://www.w3.org/2000/svg" xmlns:xlink="http://www.w3.org/1999/xlink" x="0px" y="0px"
	 viewBox="0 0 140 80" style="enable-background:new 0 0 140 80;" xml:space="preserve">
<style type="text/css">
	.st0{fill:#fd2e58;}
</style>
<g>
	<polygon class="st0" points="82.3,73.2 84.4,75.1 138.3,75.1 136.1,73.2 	"/>
	<polygon class="st0" points="77.8,69.3 79.9,71.3 133.8,71.3 131.6,69.3 	"/>
	<polygon class="st0" points="73.2,65.7 75.4,67.6 129.2,67.6 127.1,65.7 	"/>
	<polygon class="st0" points="68.2,61.6 70.4,63.5 124.2,63.5 122.1,61.6 	"/>
	<polygon class="st0" points="63.6,57.7 65.7,59.6 119.6,59.6 117.4,57.7 	"/>
	<polygon class="st0" points="59,53.9 61.1,55.8 114.9,55.8 112.8,53.9 	"/>
	<polygon class="st0" points="18.9,61.7 16.7,63.6 66.4,63.6 64.2,61.7 	"/>
	<polygon class="st0" points="23.4,57.7 21.3,59.6 61.7,59.6 59.6,57.7 	"/>
	<polygon class="st0" points="28,53.9 25.9,55.8 57.1,55.8 55,53.9 	"/>
	<polygon class="st0" points="13.8,65.7 11.6,67.6 65.4,67.6 67.3,65.7 	"/>
	<polygon class="st0" points="9.1,69.4 7,71.3 60.8,71.3 62.7,69.4 	"/>
	<polygon class="st0" points="4.7,73.2 2.5,75.2 56.3,75.2 58.2,73.2 	"/>
	<polygon class="st0" points="2.1,4.9 4.2,6.8 58.1,6.8 56,4.9 	"/>
	<polygon class="st0" points="6.6,8.7 8.7,10.7 62.6,10.7 60.4,8.7 	"/>
	<polygon class="st0" points="11.2,12.4 13.3,14.3 67.1,14.3 65,12.4 	"/>
	<polygon class="st0" points="16.2,16.4 18.3,18.4 72.1,18.4 70,16.4 	"/>
	<polygon class="st0" points="20.8,20.4 22.9,22.3 76.8,22.3 74.6,20.4 	"/>
	<polygon class="st0" points="25.4,24.2 27.6,26.1 81.4,26.1 79.3,24.2 	"/>
	<polygon class="st0" points="74,16.4 76.1,18.3 121.5,18.3 123.7,16.4 	"/>
	<polygon class="st0" points="78.6,20.4 80.8,22.3 116.9,22.3 119.1,20.4 	"/>
	<polygon class="st0" points="83.3,24.2 85.4,26.1 112.4,26.1 114.5,24.2 	"/>
	<polygon class="st0" points="75,12.4 73.1,14.3 126.6,14.3 128.8,12.4 	"/>
	<polygon class="st0" points="79.6,8.7 77.7,10.6 131.2,10.6 133.4,8.7 	"/>
	<polygon class="st0" points="84.1,4.8 82.2,6.7 135.7,6.7 137.9,4.8 	"/>
	<polygon class="st0" points="16.6,29.2 16.6,36.9 8.9,36.9 8.9,29.2 1.3,29.2 1.3,50.6 8.9,50.6 8.9,42.6 16.6,42.6 16.6,50.6
		24.2,50.6 24.2,29.2 	"/>
	<polygon class="st0" points="51.3,29.2 58.7,29.2 58.7,45.7 66,45.7 66,50.6 51.3,50.6 	"/>
	<rect x="67.2" y="29.2" class="st0" width="7.5" height="21.4"/>
	<polygon class="st0" points="77.7,29.2 92.6,29.2 92.6,33.7 85.1,33.7 85.1,37.6 92.5,37.6 92.5,42.2 85.1,42.2 85.1,50.6
		77.7,50.6 	"/>
	<path class="st0" d="M138.7,29.2h-7.9l-4.8,5.4l-4.5-5.4h-8.9l8.4,10.7l-6.7,8.4l-8.1-19.1h-6.6l-9.8,21.4h7.8l1.5-3.2h6.9l1.5,3.2
		H121l4.2-5.3l4.2,5.3h9.2L130.2,40L138.7,29.2z M101.1,43.3l1.8-4.6l1.5,4.6H101.1z"/>
	<path class="st0" d="M41.2,29.2h-6.6l-9.8,21.4h7.8l1.5-3.2H41l1.5,3.2h7.7L41.2,29.2z M35.9,43.3l1.8-4.6l1.5,4.6H35.9z"/>
</g>
</svg>
