<?xml version="1.0" encoding="utf-8"?>
<!-- Generator: Adobe Illustrator 22.0.1, SVG Export Plug-In . SVG Version: 6.00 Build 0)  -->
<!DOCTYPE svg PUBLIC "-//W3C//DTD SVG 1.1//EN" "http://www.w3.org/Graphics/SVG/1.1/DTD/svg11.dtd">
<svg version="1.1" id="Layer_1" xmlns="http://www.w3.org/2000/svg" xmlns:xlink="http://www.w3.org/1999/xlink" x="0px" y="0px"
	 viewBox="0 0 220 100" style="enable-background:new 0 0 220 100;" xml:space="preserve">
<style type="text/css">
	.st0{fill:#EF604E;}
</style>
<g>
	<g>
		<path class="st0" d="M153.1,4.6c-1.1,4.8-2.1,9.5-3.2,14.3c-2.2,9.3-4.4,18.6-6.6,28c-0.1,0.4-0.2,0.8-0.3,1.2
			c-3.8,0.4-3.8,0.4-4.6-3.1c-0.6-2.7-1.3-5.4-2.2-8.1c-0.9,3.7-1.8,7.5-2.6,11.1c-3.8,0.5-3.8,0.5-4.6-3c-3-12.8-6-25.6-9.1-38.5
			c-0.1-0.6-0.1-1.3-0.2-1.9c2.3,0,4.6,0,6.9,0c1.5,6.3,3,12.6,4.5,18.9c1.2-3.7,2.1-7.4,2.9-11c0.7-2.8,0.7-2.8,3.5-2.6
			c0.1,0,0.2,0.1,0.3,0.2c1.1,4.5,2.2,9.1,3.3,13.7c1.1-3.5,1.9-6.9,2.7-10.3c0.7-3,1.5-5.9,2.3-8.9C148.5,4.6,150.8,4.6,153.1,4.6z
			"/>
		<path class="st0" d="M24.6,4.6c0,2.3,0,4.7,0,7.2c-2.2,0-4.3-0.1-6.5,0c-0.8,0.1-2.1,0.5-2.4,1.1c-0.3,0.7-0.1,1.9,0.4,2.6
			c0.7,1.1,1.8,2,2.8,2.9c2.2,2,4.7,3.7,6.6,6c4.1,4.8,4.8,10.3,2.1,16c-2.8,5.7-7.6,8.5-14,8.3c-8.3-0.2-14.7-8-13.4-16.2
			C1,27.3,6.4,21.9,14.3,24c-0.8-0.7-1.3-1.2-1.9-1.8c-2.4-2.3-4-5-4-8.4c0-4.6,3-8.1,7.6-8.8c0.4-0.1,0.7-0.2,1.1-0.3
			C19.6,4.6,22.1,4.6,24.6,4.6z M13.5,34.1c0-0.3-0.1-0.6-0.1-0.8c-0.1-2.5-1.9-3.6-4.2-2.5c-1.5,0.8-2.2,2-2.2,3.7
			c0,4.6,4.2,7.9,8.9,6.9c3.1-0.6,5.1-2.6,5.9-5.6c0.7-2.7-0.1-5.5-1.9-7c0.2,1.6,0.4,3.4,0.6,5.2C18,34.1,15.7,34.1,13.5,34.1z"/>
		<path class="st0" d="M183.4,4.6c0,2.3,0,4.7,0,7.2c-3.6-0.1-7.1,0-10.4,2.8c3.7,0.2,7,0.3,10.4,0.5c0,9.3,0,18.6,0,27.9
			c-2.9,0.3-5.8,0.1-8.6-0.8c-8.6-2.7-14.2-11.2-13.3-20.2c1-9.2,8.2-16.3,17.3-17.2c0.3,0,0.5-0.2,0.8-0.2
			C180.9,4.6,182.1,4.6,183.4,4.6z M172.3,15.3c-3.3,2.8-4.7,8.1-3.2,12.5c1.2,3.6,3.6,6.1,7.3,7.5c0-4.7,0-9.2,0-13.8
			c-2,0.7-2.3-0.7-2.7-2C173.3,18.1,172.8,16.8,172.3,15.3z"/>
		<path class="st0" d="M201.5,4.6c0,12.8,0,25.5,0,38.4c-2.3,0-4.6,0-7,0c0-7.1,0-14.2,0-21.3c-1,0-1.8,0-2.7,0c0,7.1,0,14.2,0,21.3
			c-2.4,0-4.6,0-7,0c0-12.8,0-25.6,0-38.4c2.3,0,4.6,0,6.9,0c0,3.3,0,6.5,0,9.8c1,0,1.8,0,2.7,0c0-0.9,0-1.6,0-2.4
			c0-2.5,0.1-5,0.1-7.5C196.9,4.6,199.2,4.6,201.5,4.6z"/>
		<path class="st0" d="M56.6,4.6c0.1,2.3,0.2,4.6,0.3,7.1c-2.2,0-4.2,0-6.3,0c-0.1,0.5-0.1,0.9-0.1,1.5c0.7,0,1.2,0,1.8,0
			c3.8,0,3.8,0,5.1,3.6c0.4,1.1,0.7,2.2,1.1,3.4c-2.7,0-5.2,0-7.9,0c0,0.6-0.1,1.1-0.1,1.7c0,3.7,0.1,7.5,0,11.2
			c-0.1,4.1,1.6,6.8,5.2,8.4c0.9,0.4,1.2,0.9,1.2,1.8c-0.1,1.9,0,3.8,0,6.1c-1.3-0.5-2.4-0.9-3.5-1.3c-4.8-2.2-8.5-5.4-9.5-10.9
			c-0.2-1.1-0.3-2.3-0.3-3.4c0-4-0.1-8,0-11.9c0-1.5-0.3-2.7-1-3.9c-0.8-1.4-1.6-2.8-2.5-4.4c1.3-0.1,2.3-0.1,3.6-0.2
			c0-2.9,0-5.7,0-8.6C48,4.6,52.3,4.6,56.6,4.6z"/>
		<path class="st0" d="M219.7,4.6c0.1,2.3,0.2,4.6,0.3,7.1c-1.9,0-3.6,0-5.4,0c0,12.2,0,24.2,0,36.3c-2.4,0-4.6,0-7,0
			c0-12.1,0-24.1,0-36.3c-1.8,0-3.5,0-5.3,0c0-2.5,0-4.8,0-7.2C208.1,4.6,213.9,4.6,219.7,4.6z"/>
		<path class="st0" d="M113.6,4.6c0,2.3,0,4.7,0,7.1c-2.2,0-4.1,0-6.2,0c0,0.5-0.1,0.9-0.1,1.5c0.6,0,1,0,1.5,0c1.4,0,3.1-0.4,4,0.3
			c0.9,0.6,1,2.4,1.4,3.6c0.3,0.9,0.7,1.9,1,3c-2.7,0-5.2,0-7.9,0c0,7.7,0,15.2,0,22.8c-2.4,0-4.7,0-7,0c0-7.6,0-15.1,0-22.7
			c-1.4,0.3-1.6-0.6-2-1.5c-0.8-1.8-1.8-3.6-2.7-5.4c1.5,0,3.1,0,4.8,0c0-3,0-5.8,0-8.7C104.8,4.6,109.2,4.6,113.6,4.6z"/>
		<path class="st0" d="M37.3,4.6c0,0.6,0.1,1.2,0.1,1.9c0,9.2,0,18.4,0,27.6c0,0.6,0,1.1,0,1.9c1.8,0,3.5,0,5,0
			c0.9,2.5,1.7,4.7,2.5,7c-4.7,0-9.5,0-14.5,0c0-12.8,0-25.6,0-38.3C32.7,4.6,35,4.6,37.3,4.6z"/>
		<path class="st0" d="M160.6,4.6c0,0.5,0.1,0.9,0.1,1.4c0,11.9,0,23.8,0,35.7c0,0.4,0,0.8-0.1,1.2c-2.3,0-4.5,0-6.9,0
			c0-0.5-0.1-1-0.1-1.5c0-11.7,0-23.4,0-35.1c0-0.6,0.2-1.1,0.2-1.7C156.2,4.6,158.4,4.6,160.6,4.6z"/>
		<path class="st0" d="M7.3,4.6c0,5.9,0,11.8,0,17.7c0,0.3-0.3,0.9-0.5,1c-2.5,0.9-4.5,2.5-6.4,4.9c0-8.1,0-15.8,0-23.5
			C2.7,4.6,5,4.6,7.3,4.6z"/>
		<path class="st0" d="M80.2,43.8c-10.1,0-18.4-8.3-18.4-18.5c0-10.1,8.3-18.4,18.4-18.4c10.3,0,18.4,8.3,18.3,18.8
			C98.6,35.6,90.2,43.8,80.2,43.8z M68.9,25.4c0,6.3,5.1,11.4,11.3,11.4c6.3,0,11.4-5.1,11.3-11.4c0-6.3-5.1-11.4-11.3-11.4
			C74,14,68.9,19.1,68.9,25.4z"/>
	</g>
	<g>
		<path class="st0" d="M46,61.1c1,0,2,0,3.1,0c0-2.8,0-5.5,0-8.3c4.2,0,8.3,0,12.5,0c0,2,0,4,0,6.1c-2,0-4,0-6.1,0
			c0,0.8,0,1.5,0,2.2c1.5,0,2.9-0.1,4.3,0c0.4,0,1.1,0.4,1.3,0.8c0.7,1.7,1.2,3.5,1.9,5.4c-2.6,0-5,0-7.7,0c0,0.7,0,1.3,0,1.8
			c0,8.2,0,16.3,0,24.5c0,0.6-0.1,1.1-0.1,1.7c-2,0-4,0-6,0c0-9.3,0-18.5,0-27.8c-0.1,0-0.3,0.1-0.4,0.1c-0.3-0.4-0.8-0.8-1-1.2
			c-0.6-1.6-1.2-3.2-1.8-4.8C46,61.5,46,61.3,46,61.1z"/>
		<path class="st0" d="M153.5,67.5c-1,0-1.7,0-2.6,0c0,3.8,0,7.6,0,11.4c0,3.7,0,7.5,0,11.3c-2.1,0-4.1,0-6.3,0c0-7.5,0-15,0-22.6
			c-1-0.1-1.8-0.1-2.8-0.2c0.4-1.9,0.8-3.8,1.3-5.6c0.1-0.4,0.7-0.5,1.3-0.9c0-0.4,0-1.2,0.1-1.9c0.6-4,3.9-6.7,8-6.5
			c3.8,0.2,7,3.2,7.1,7.2c0.1,10.1,0,20.1,0,30.2c0,0.1-0.1,0.2-0.1,0.3c-2,0-3.9,0-6.1,0C153.5,82.6,153.5,75.1,153.5,67.5z
			 M154.1,61.4c-0.4-1.2-0.7-2.1-1.2-2.9c-0.2-0.3-1.5-0.3-1.6,0c-0.5,0.8-0.7,1.8-1,2.9C151.6,61.4,152.6,61.4,154.1,61.4z"/>
		<path class="st0" d="M133.4,68.7c0.8-3.4,1.6-6.9,2.5-10.3c0.4-1.6,0.7-3.3,1.2-4.9c0.1-0.3,0.6-0.8,0.9-0.8c1.9-0.1,3.7,0,5.8,0
			c-2.9,12.5-5.9,24.9-8.8,37.4c-1.1,0-2.2,0-3.3,0c-3-12.4-5.9-24.8-8.9-37.4c2.1,0,4,0,5.9,0c0.3,0,0.7,0.6,0.8,1.1
			c1.2,4.7,2.3,9.5,3.4,14.3c0.1,0.2,0.1,0.5,0.2,0.7C133.2,68.7,133.3,68.7,133.4,68.7z"/>
		<path class="st0" d="M77.9,90.2c-4.1,0-8.2,0-12.3,0c0-7.5,0-15,0-22.4c-1.2-0.5-2.5-3.5-3-6.6c0.9,0,1.8,0,2.9,0
			c0-2.8,0-5.5,0-8.3c4.3,0,8.4,0,12.6,0c0,2,0,3.9,0,6.1c-2,0-4,0-6.2,0c0,0.8,0,1.4,0,2.3c1.4,0,2.9-0.1,4.3,0
			c0.4,0,1.1,0.4,1.2,0.8c0.7,1.7,1.3,3.5,1.9,5.5c-2.6,0-5,0-7.5,0c0,5.6,0,11,0,16.5c2,0,3.9,0,5.9,0
			C77.9,86.1,77.9,88.1,77.9,90.2z"/>
		<path class="st0" d="M95.6,52.7c0,2.1,0,4,0,6.2c-1.9,0-3.8,0-5.7,0c-0.6,0-1.3,0-1.8,0.3c-1.1,0.5-1.3,1.6-0.7,3
			c2.2,4.9,4.5,9.9,6.7,14.8c3,6.5-1.4,13.2-8.5,13.2c-1.9,0-3.8,0-5.9,0c0-2.1,0-4,0-6.2c1.8,0,3.5,0,5.3,0c3.3,0,4.6-2,3.2-5
			c-2.2-4.7-4.3-9.4-6.5-14.1c-2.7-6,1.1-12.1,7.7-12.2C91.4,52.7,93.4,52.7,95.6,52.7z"/>
		<path class="st0" d="M102.4,58.9c-1.8,0-3.5,0-5.2,0c0-2.1,0-4.1,0-6.1c5.5,0,11,0,16.5,0c0,2,0,3.9,0,6.1c-1.7,0-3.3,0-5.2,0
			c0,10.5,0,20.8,0,31.3c-2.1,0-4.1,0-6.2,0C102.4,79.8,102.4,69.5,102.4,58.9z"/>
		<path class="st0" d="M168,52.8c0,10.4,0,20.7,0,31.2c2.1,0,4,0,6,0c0,2.1,0,4.1,0,6.1c-4.1,0-8.1,0-12.2,0c0-12.4,0-24.8,0-37.3
			C163.8,52.8,165.8,52.8,168,52.8z"/>
		<path class="st0" d="M121.5,90.2c-2.1,0-4.1,0-6.2,0c0-12.5,0-24.9,0-37.4c2.1,0,4.1,0,6.2,0C121.5,65.2,121.5,77.6,121.5,90.2z"
			/>
	</g>
</g>
</svg>
