<?xml version="1.0" encoding="utf-8"?>
<!-- Generator: Adobe Illustrator 22.0.1, SVG Export Plug-In . SVG Version: 6.00 Build 0)  -->
<!DOCTYPE svg PUBLIC "-//W3C//DTD SVG 1.1//EN" "http://www.w3.org/Graphics/SVG/1.1/DTD/svg11.dtd">
<svg version="1.1" id="Layer_1" xmlns="http://www.w3.org/2000/svg" xmlns:xlink="http://www.w3.org/1999/xlink" x="0px" y="0px"
	 viewBox="0 0 34 28" style="enable-background:new 0 0 34 28;" xml:space="preserve">
<style type="text/css">
	.st0{fill:#EF604E;}
	.st1{fill-rule:evenodd;clip-rule:evenodd;fill:#EF604E;}
</style>
<g>
	<path class="st0" d="M6.4,3.9l6.2,0.9l1,3.4l-1.4-0.1c0,0,3.6,11.4,3.7,11.8c0.4,1.3,0.7,2.6-1.2,3.3c-0.3,0.1-2.1,0.6-2.3,0.7
		c-1.1,0.3-2.6,0.3-3.1-1.5L7,15.2l2.8-0.2c0,0,1.2,3.6,1.2,3.9c0.3,0.8,0.4,1.1,1.2,0.9c0.6-0.1,0.6-0.4,0.4-0.9
		C12.6,18.7,9.2,7.8,9.2,7.8L7.6,7.7L6.4,3.9z"/>
	<path class="st0" d="M15.7,5.2c0.3,0,2.3,0.4,2.6,0.4C18.6,5.7,20.5,6,21,7.7c0.1,0.4,1.1,3.4,1.1,3.4l-2.4,0c0,0-0.4-1.5-0.5-1.7
		c-0.2-0.6-0.2-0.8-1-0.9c-0.7-0.1-0.7,0.2-0.5,0.7c0.1,0.3,2.2,7.4,2.3,7.7c0.3,0.8,0.3,1.1,1.1,1c0.7-0.2,0.5-0.5,0.4-1.1
		c-0.1-0.2-0.7-2.3-0.7-2.3l2.3-0.2c0,0,1.2,3.8,1.3,4c0.1,0.2,0.6,1.7-0.9,2.4c-0.2,0.1-0.2,0.1-0.4,0.2c-0.2,0.1-2.1,0.6-2.3,0.6
		c-0.2,0-2,0.6-2.6-1.2C18.2,20.1,14.4,7.6,14.2,7C13.9,5.9,14.2,5,15.7,5.2"/>
	<path class="st1" d="M3.4,0.9C3.9,1,26,4.6,26.6,4.7c0.6,0.1,2.7,0.3,3.6,2.8c0.2,0.5,2.9,8.8,3,9.2c0.5,1.5,0.3,3.1-1.7,3.8
		c-0.7,0.2-19.6,6.3-19.9,6.3C11.1,27,8.3,28.2,7.3,25C7.3,25,1.2,5.7,1,5.1C0.7,4.2,0.5,3.4,0.5,2.8C0.5,0.3,2.9,0.8,3.4,0.9
		 M3.9,1.9c1.2,0.2,21.4,3.5,22.3,3.6c0.9,0.2,2.4,0.4,3,2.2c0.1,0.4,2.9,8.6,3,9c0.1,0.4,0.9,2.2-1.3,2.9
		c-0.3,0.1-19.4,6.1-19.8,6.2c-0.5,0.1-2.3,0.9-3-1.7c0,0-5.8-18.4-6.1-19.3C1.8,4.2,1.6,3.7,1.6,3.3C1.5,1.7,2.4,1.7,3.2,1.8
		C3.5,1.8,3.7,1.9,3.9,1.9"/>
	<path class="st1" d="M30.8,16.2c-0.1-0.2-0.9-2.5-0.9-2.5c-0.4-1-1.7-1.2-1.7-1.2s1.1-0.6,0.7-1.8c-0.1-0.2-0.5-1.5-0.6-1.7
		c-0.2-0.6-0.9-1.9-2.5-2.1c-0.4-0.1-4.1-0.6-4.1-0.6l4.4,13.7c0,0,3.1-0.8,3.4-0.9C31.5,18.3,30.9,16.4,30.8,16.2z M25.7,11.4
		L24.9,9c0,0,0.9,0.1,1.1,0.1c0.2,0,0.4,0.1,0.5,0.3c0.1,0.1,0.4,1.1,0.4,1.2c0,0.1,0.2,0.7-0.3,0.7C26.6,11.4,25.7,11.4,25.7,11.4z
		 M28.4,16.5c-0.1,0-0.9,0.2-0.9,0.2L26.5,14c0,0,0.7,0,0.9,0c0.2,0,0.6,0,0.8,0.4c0.1,0.1,0.4,1.2,0.5,1.3
		C28.7,15.8,28.8,16.4,28.4,16.5z"/>
</g>
</svg>
