<?xml version="1.0" encoding="utf-8"?>
<!-- Generator: Adobe Illustrator 22.0.1, SVG Export Plug-In . SVG Version: 6.00 Build 0)  -->
<!DOCTYPE svg PUBLIC "-//W3C//DTD SVG 1.1//EN" "http://www.w3.org/Graphics/SVG/1.1/DTD/svg11.dtd">
<svg version="1.1" id="Layer_1" xmlns="http://www.w3.org/2000/svg" xmlns:xlink="http://www.w3.org/1999/xlink" x="0px" y="0px"
	 viewBox="0 0 180 80" style="enable-background:new 0 0 180 80;" xml:space="preserve">
<style type="text/css">
	.st0{fill:#fd2e58;}
</style>
<title>MON_Horizontal_4C</title>
<path class="st0" d="M177.5,52.5l-0.7,0.4l-0.9-0.1l-0.6-0.1h-0.1l-0.4,0.1h-0.4l-1.5,0.1l-1.5,0.1l-1.4,0.1l-1,0.1l-0.7,0.1
	l-0.5,0.2l-0.5-0.1l-0.4,0.4l-0.4,0.2l-0.5-0.1l0.1-1.2l0.1-1.1c0-0.4,0-0.8-0.1-1.3c0-0.3,0-1.5,0-1.5v-1.4l-0.2-1.6l-0.2-1.5
	l-0.1-1.1l-0.1-0.6l-0.1-1.5l-0.1-1.4l-0.1-1.2l0-1.2l-0.1-1.3v-1.3v-1.2v-1.3v-1.2v-1.2l0.3-1.1l0.2-0.9l1.1-0.5h1.5l1.6,0.1
	l0.8,0.1l1.3-0.3l1-0.2l1-0.2l0.7,0.1l-0.1-0.6h0.7l0.8,0.5h1.4l0.3,1l-0.7,0.2l0,1v1v1.6l0,1.5v3l0.3,1.4v1.4v1.3v1.3v1.3v1.3
	l0.1,1.1l0.2,1.5l0.1,1.3l-0.2,1.5l-0.1,1.4l-0.4,0.9L177.5,52.5z M176.5,50.7v-1.7l-0.1-0.9v-0.5l-0.2-0.9v-0.9l0.1-1v-1.1v-1.1
	v-1.2l0.2-0.9l-0.3-1.3l-0.2-1.1l-0.2-1.2v-1.4l0-1.6l-0.1-1.2l-0.1-1.3l-0.1-1.2l-0.1-1.1l-0.1-1.2h-1.7l-0.7,0.2l-1.3,0.2
	l-0.7,0.1l-0.7,0.2l-0.9,0.2l-1.2-0.3l-0.9-0.1l-0.3,1.3l-0.1,1.4l-0.1,1.5l-0.1,1.4l-0.1,1.5l-0.1,1l-0.1,1.1l0.3,0.9l0.3,1
	c0,0,0,0.5,0.1,1.1c0,0.4,0,0.9,0,1.2v2l0.2,1.3l0.1,1.4l-0.2,1.7l0.2,1.6l0.1,1.1l0.1,1.1l0.5,0.4l1.3-0.2l1.3-0.5l1-0.1l1-0.1
	l0.7-0.1l1.6,0.2l1.6,0.1L176.5,50.7z"/>
<path class="st0" d="M170.4,32.5c0.5-0.1,1-0.3,1.3-0.8c0.5-0.9,0.7-2,0.5-3v0l0,0c-0.8,0.3-1.4,0.9-1.8,1.6c-0.3,0.6-0.4,1.3-0.2,2
	l0,0l0,0L170.4,32.5L170.4,32.5L170.4,32.5z"/>
<path class="st0" d="M174.7,32.7h-0.1c-0.5-0.1-1,0-1.5,0.2c-0.7,0.6-1.1,1.4-1.1,2.3l0,0l0,0c0.3,0.2,0.7,0.2,1,0.1
	C174,34.8,174.6,32.8,174.7,32.7L174.7,32.7L174.7,32.7z"/>
<path class="st0" d="M172,39.4c0.6,0.1,1.1-0.1,1.6-0.5c0.6-0.7,0.9-1.7,0.8-2.6l0,0l0,0c-0.7,0-1.3,0.3-1.8,0.8
	C172.1,37.8,171.9,38.6,172,39.4L172,39.4L172,39.4z"/>
<path class="st0" d="M169,35.5c0.1,0.8,0.6,1.5,1.2,2c0.5,0.4,1.1,0.5,1.7,0.4l0,0l0,0c0.3-0.5,0.3-1.2,0-1.7
	C171.5,35.6,170.5,35.3,169,35.5L169,35.5L169,35.5z"/>
<path class="st0" d="M171.5,43.2c0.9,0.1,1.8-0.1,2.5-0.6c0.7-0.7,1-1.6,1-2.6l0,0l0,0c-0.5,0-1,0.1-1.4,0.3
	C172.5,40.9,171.7,42,171.5,43.2L171.5,43.2L171.5,43.2z"/>
<path class="st0" d="M168.2,38.5c-0.2,1,0.1,2,0.8,2.8c0.5,0.5,1.1,0.8,1.8,0.6l0,0l0,0c0.3-0.5,0.3-1.2,0.1-1.8
	C170.2,39.3,169.3,38.7,168.2,38.5L168.2,38.5L168.2,38.5z"/>
<path class="st0" d="M168.1,42.4c-0.1,1.1,0.3,2.1,1.1,2.9c0.5,0.4,1.2,0.6,1.8,0.3l0,0l0,0c0.2-0.5,0.2-1,0-1.4
	c-0.2-0.4-0.7-0.7-1.2-0.8l0,0C169.3,43.2,168.2,42.7,168.1,42.4L168.1,42.4z"/>
<path class="st0" d="M174.7,42.9c-3,1-3,3.1-2.7,4.2l0,0l0,0c0.5,0.2,1.1,0.1,1.6-0.2C174.4,46.3,174.8,44.9,174.7,42.9L174.7,42.9
	L174.7,42.9z"/>
<path class="st0" d="M172.8,48.5c-1.1-1.6-2.1-2.3-3.1-2.2s-1.7,1.2-1.9,1.7l0,0l0,0C169.9,49.4,172.8,48.6,172.8,48.5L172.8,48.5
	L172.8,48.5z"/>
<path class="st0" d="M175.6,46.6c-1.3,0.1-2.5,0.8-3.2,1.9c-0.5,0.9-0.6,1.9-0.3,2.9l0,0l0,0C173.3,51.3,175.2,49.9,175.6,46.6
	L175.6,46.6L175.6,46.6z"/>
<path class="st0" d="M168.2,32c0.3,0.9,0.9,1.6,1.7,2.1c0.3,0.1,0.6,0.2,1,0.2l0,0c0.2-0.1,0.5-0.1,0.7-0.1l0,0l0,0.1v-0.1
	c0.1-0.6-0.2-1.1-0.6-1.5C170.2,31.9,169.2,31.7,168.2,32L168.2,32L168.2,32z"/>
<path class="st0" d="M170.2,32.3c0.6,0,1.6,2.2,1.6,4.5c-0.1,1.7-0.5,3.3-1.2,4.9c-0.2,0.5-0.3,0.9-0.4,1.4c-0.2,0.9,0,1.8,0.6,2.5
	l0,0c0.7,1.1,1.4,2.1,2,3.3v0.1v-0.1l0.6-0.9l0,0l0,0c-0.6-0.6-1.2-1.3-1.6-2.1c-0.9-1.2-1-2.9-0.4-4.3v-0.1c0.5-1.3,0.9-2.6,1-4
	v-0.1l-0.1,0.1l-0.2,0.1h0.1c0.3-1.5,0.3-4.6-2.1-6h-0.1v0.1l0.1,0.6l0,0L170.2,32.3z"/>
<path class="st0" d="M173.2,48l-2-3l0,0l0,0l-0.4,0.2l0,0l0,0l0.5,0.9c0.5,0.7,0.9,1.4,1.6,2.7v0.1v-0.1L173.2,48L173.2,48L173.2,48
	z"/>
<path class="st0" d="M179.3,50.6c0.4,0,0.7,0.3,0.7,0.7s-0.3,0.7-0.7,0.7s-0.7-0.3-0.7-0.7S178.9,50.6,179.3,50.6L179.3,50.6z
	 M179.3,50.7c-0.3,0-0.6,0.2-0.6,0.5s0.2,0.6,0.5,0.6c0.3,0,0.6-0.2,0.6-0.5c0,0,0,0,0,0C179.8,51,179.6,50.7,179.3,50.7
	C179.3,50.7,179.3,50.7,179.3,50.7z M179.1,51.7H179V51h0.2c0.1,0,0.2,0,0.3,0.1c0,0,0.1,0.1,0.1,0.2c0,0.1-0.1,0.2-0.1,0.2l0,0
	c0.1,0,0.1,0.1,0.1,0.2c0,0.1,0,0.1,0,0.2h-0.2c0-0.1,0-0.1,0-0.2c0-0.1-0.1-0.1-0.1-0.1c0,0,0,0,0,0h-0.1L179.1,51.7z M179.1,51.3
	L179.1,51.3c0.2,0,0.2,0,0.2-0.1s0-0.1-0.2-0.1h-0.1L179.1,51.3z"/>
<path class="st0" d="M13.8,36.6h-0.2l-4.3,11H8.6l-4.3-11H4.2l-0.8,7.8c-0.2,1.5,0.2,2.5,1.8,2.5v0.6H0.1v-0.6c1.3,0,2-0.6,2.2-2.5
	l1-8.7c-0.5-0.5-1.3-0.7-2-0.6v-0.6h5l3.4,9.2l3.6-9.2h5.1V35c-1,0-1.9,0.3-1.9,1.5c0,0.2,0.1,1.1,0.1,1.3l0.6,6.4
	c0.2,2.4,1.1,2.6,2.3,2.7v0.6h-6.8v-0.6c1.3-0.1,1.9-0.3,1.9-1.9v-1L13.8,36.6z"/>
<path class="st0" d="M48.4,37.9c0-1.4,0-2.6-2.5-2.8v-0.6h4.5l8.4,9.7v-6.8c0-2-0.8-2.2-2.2-2.2v-0.6H62v0.6
	c-1.4,0.1-2.2,0.3-2.2,2.2v10.5h-1.3l-9.1-10.6v7.5c0,1.2,0.5,2.2,1.9,2.2h0.5v0.6h-5.6v-0.6c1.3-0.1,2.1-0.4,2.1-2.3V37.9z"/>
<path class="st0" d="M104.6,37.9c0-1.4,0-2.6-2.5-2.8v-0.6h4.5l8.4,9.7v-6.8c0-2-0.8-2.2-2.2-2.2v-0.6h5.4v0.6
	c-1.4,0.1-2.2,0.3-2.2,2.2v10.5h-1.3l-9.1-10.6v7.5c0,1.2,0.5,2.2,1.9,2.2h0.5v0.6h-5.6v-0.6c1.3-0.1,2.1-0.4,2.1-2.3L104.6,37.9z"
	/>
<path class="st0" d="M32.4,47.9c-5,0-7.7-3.4-7.7-6.9c0-3.7,2.9-6.9,7.6-6.9s8,2.9,8,6.9C40.3,44.5,37.3,47.9,32.4,47.9z M32.4,35.1
	c-3.2,0-4.9,2.6-4.9,5.9c0,3.5,1.9,5.8,4.9,5.8c2.2,0,5-1.4,5-5.9C37.4,36.2,34.5,35.1,32.4,35.1L32.4,35.1z"/>
<path class="st0" d="M148.8,47.8c-5,0-7.7-3.4-7.7-6.9c0-3.7,2.9-6.9,7.6-6.9s8,2.9,8,6.9C156.6,44.5,153.7,47.8,148.8,47.8z
	 M148.8,35.1c-3.2,0-4.9,2.6-4.9,6c0,3.5,1.9,5.8,4.9,5.8c2.2,0,5-1.4,5-5.9C153.8,36.2,150.8,35.1,148.8,35.1L148.8,35.1z"/>
<path class="st0" d="M131,44.7c0,2,0.8,2.1,2.1,2.3v0.6h-7v-0.6c1.4-0.1,2.2-0.3,2.2-2.3v-9.3h-1.8c-2.3,0-2.5,1.6-2.6,2.6h-0.7
	l0.2-4.2h0.6c0.2,0.5,0.9,0.6,2,0.6h7.3c1.2,0,1.8-0.2,2-0.6h0.6l0.2,4.2h-0.7c-0.1-1-0.3-2.6-2.6-2.6h-1.8L131,44.7z"/>
<path class="st0" d="M86.2,44.8c-0.1,0.3-0.2,0.7-0.3,1.1c0,1,1.1,1,1.6,1.1v0.6h-5v-0.6c1.5-0.1,1.9-0.7,2.7-2.8l3.8-10h2.4
	l3.7,10.1c0.8,2.1,1.1,2.6,2.8,2.7v0.7h-6.5v-0.6c0.8,0,1.6-0.1,1.6-0.8c0-0.3-0.1-0.6-0.2-0.9l-0.9-2.5H87L86.2,44.8z M91.5,41.7
	L89.6,36h-0.1l-2.1,5.7H91.5z"/>
<path class="st0" d="M77,37.9h-0.8c-0.2-1.6-1.5-2.9-3.1-2.9c-1.6,0-2.3,0.9-2.3,1.7c0,1.4,1.5,2,3.4,2.9c2.4,1.1,3.6,2.5,3.6,4.6
	c0,1.9-1.4,3.7-4.7,3.7c-1.9,0-2.6-0.7-3.4-0.7c-0.3,0-0.5,0.3-0.6,0.6h-0.6v-4.2h0.8c0.1,1.8,1.6,3.3,3.4,3.3
	c1.7,0,2.7-0.9,2.7-2.1s-0.7-2.1-3.5-3.4c-1.5-0.7-3.3-1.6-3.3-3.9c0-1.4,1.2-3.4,4.2-3.4c1,0.1,2.1,0.3,3.1,0.6
	c0.3,0,0.5-0.2,0.6-0.5H77L77,37.9z"/>
<g>
	<g>
		<path class="st0" d="M-287.8-63.2c-1.1,4.8-2.1,9.5-3.2,14.3c-2.2,9.3-4.4,18.6-6.6,28c-0.1,0.4-0.2,0.8-0.3,1.2
			c-3.8,0.4-3.8,0.4-4.6-3.1c-0.6-2.7-1.3-5.4-2.2-8.1c-0.9,3.7-1.8,7.5-2.6,11.1c-3.8,0.5-3.8,0.5-4.6-3c-3-12.8-6-25.6-9.1-38.5
			c-0.1-0.6-0.1-1.3-0.2-1.9c2.3,0,4.6,0,6.9,0c1.5,6.3,3,12.6,4.5,18.9c1.2-3.7,2.1-7.4,2.9-11c0.7-2.8,0.7-2.8,3.5-2.6
			c0.1,0,0.2,0.1,0.3,0.2c1.1,4.5,2.2,9.1,3.3,13.7c1.1-3.5,1.9-6.9,2.7-10.3c0.7-3,1.5-5.9,2.3-8.9
			C-292.5-63.2-290.1-63.2-287.8-63.2z"/>
		<path class="st0" d="M-416.3-63.2c0,2.3,0,4.7,0,7.2c-2.2,0-4.3-0.1-6.5,0c-0.8,0.1-2.1,0.5-2.4,1.1c-0.3,0.7-0.1,1.9,0.4,2.6
			c0.7,1.1,1.8,2,2.8,2.9c2.2,2,4.7,3.7,6.6,6c4.1,4.8,4.8,10.3,2.1,16c-2.8,5.7-7.6,8.5-14,8.3c-8.3-0.2-14.7-8-13.4-16.2
			c0.8-5.2,6.3-10.6,14.2-8.5c-0.8-0.7-1.3-1.2-1.9-1.8c-2.4-2.3-4-5-4-8.4c0-4.6,3-8.1,7.6-8.8c0.4-0.1,0.7-0.2,1.1-0.3
			C-421.3-63.2-418.8-63.2-416.3-63.2z M-427.5-33.8c0-0.3-0.1-0.6-0.1-0.8c-0.1-2.5-1.9-3.6-4.2-2.5c-1.5,0.8-2.2,2-2.2,3.7
			c0,4.6,4.2,7.9,8.9,6.9c3.1-0.6,5.1-2.6,5.9-5.6c0.7-2.7-0.1-5.5-1.9-7c0.2,1.6,0.4,3.4,0.6,5.2C-423-33.8-425.2-33.8-427.5-33.8z
			"/>
		<path class="st0" d="M-257.6-63.2c0,2.3,0,4.7,0,7.2c-3.6-0.1-7.1,0-10.4,2.8c3.7,0.2,7,0.3,10.4,0.5c0,9.3,0,18.6,0,27.9
			c-2.9,0.3-5.8,0.1-8.6-0.8c-8.6-2.7-14.2-11.2-13.3-20.2c1-9.2,8.2-16.3,17.3-17.2c0.3,0,0.5-0.2,0.8-0.2
			C-260.1-63.2-258.8-63.2-257.6-63.2z M-268.7-52.6c-3.3,2.8-4.7,8.1-3.2,12.5c1.2,3.6,3.6,6.1,7.3,7.5c0-4.7,0-9.2,0-13.8
			c-2,0.7-2.3-0.7-2.7-2C-267.7-49.7-268.2-51.1-268.7-52.6z"/>
		<path class="st0" d="M-239.5-63.2c0,12.8,0,25.5,0,38.4c-2.3,0-4.6,0-7,0c0-7.1,0-14.2,0-21.3c-1,0-1.8,0-2.7,0
			c0,7.1,0,14.2,0,21.3c-2.4,0-4.6,0-7,0c0-12.8,0-25.6,0-38.4c2.3,0,4.6,0,6.9,0c0,3.3,0,6.5,0,9.8c1,0,1.8,0,2.7,0
			c0-0.9,0-1.6,0-2.4c0-2.5,0.1-5,0.1-7.5C-244.1-63.2-241.8-63.2-239.5-63.2z"/>
		<path class="st0" d="M-384.3-63.2c0.1,2.3,0.2,4.6,0.3,7.1c-2.2,0-4.2,0-6.3,0c-0.1,0.5-0.1,0.9-0.1,1.5c0.7,0,1.2,0,1.8,0
			c3.8,0,3.8,0,5.1,3.6c0.4,1.1,0.7,2.2,1.1,3.4c-2.7,0-5.2,0-7.9,0c0,0.6-0.1,1.1-0.1,1.7c0,3.7,0.1,7.5,0,11.2
			c-0.1,4.1,1.6,6.8,5.2,8.4c0.9,0.4,1.2,0.9,1.2,1.8c-0.1,1.9,0,3.8,0,6.1c-1.3-0.5-2.4-0.9-3.5-1.3c-4.8-2.2-8.5-5.4-9.5-10.9
			c-0.2-1.1-0.3-2.3-0.3-3.4c0-4-0.1-8,0-11.9c0-1.5-0.3-2.7-1-3.9c-0.8-1.4-1.6-2.8-2.5-4.4c1.3-0.1,2.3-0.1,3.6-0.2
			c0-2.9,0-5.7,0-8.6C-393-63.2-388.7-63.2-384.3-63.2z"/>
		<path class="st0" d="M-221.3-63.2c0.1,2.3,0.2,4.6,0.3,7.1c-1.9,0-3.6,0-5.4,0c0,12.2,0,24.2,0,36.3c-2.4,0-4.6,0-7,0
			c0-12.1,0-24.1,0-36.3c-1.8,0-3.5,0-5.3,0c0-2.5,0-4.8,0-7.2C-232.8-63.2-227.1-63.2-221.3-63.2z"/>
		<path class="st0" d="M-327.3-63.2c0,2.3,0,4.7,0,7.1c-2.2,0-4.1,0-6.2,0c0,0.5-0.1,0.9-0.1,1.5c0.6,0,1,0,1.5,0
			c1.4,0,3.1-0.4,4,0.3c0.9,0.6,1,2.4,1.4,3.6c0.3,0.9,0.7,1.9,1,3c-2.7,0-5.2,0-7.9,0c0,7.7,0,15.2,0,22.8c-2.4,0-4.7,0-7,0
			c0-7.6,0-15.1,0-22.7c-1.4,0.3-1.6-0.6-2-1.5c-0.8-1.8-1.8-3.6-2.7-5.4c1.5,0,3.1,0,4.8,0c0-3,0-5.8,0-8.7
			C-336.1-63.2-331.7-63.2-327.3-63.2z"/>
		<path class="st0" d="M-403.6-63.2c0,0.6,0.1,1.2,0.1,1.9c0,9.2,0,18.4,0,27.6c0,0.6,0,1.1,0,1.9c1.8,0,3.5,0,5,0
			c0.9,2.5,1.7,4.7,2.5,7c-4.7,0-9.5,0-14.5,0c0-12.8,0-25.6,0-38.3C-408.3-63.2-406-63.2-403.6-63.2z"/>
		<path class="st0" d="M-280.4-63.2c0,0.5,0.1,0.9,0.1,1.4c0,11.9,0,23.8,0,35.7c0,0.4,0,0.8-0.1,1.2c-2.3,0-4.5,0-6.9,0
			c0-0.5-0.1-1-0.1-1.5c0-11.7,0-23.4,0-35.1c0-0.6,0.2-1.1,0.2-1.7C-284.8-63.2-282.6-63.2-280.4-63.2z"/>
		<path class="st0" d="M-433.6-63.2c0,5.9,0,11.8,0,17.7c0,0.3-0.3,0.9-0.5,1c-2.5,0.9-4.5,2.5-6.4,4.9c0-8.1,0-15.8,0-23.5
			C-438.2-63.2-435.9-63.2-433.6-63.2z"/>
		<path class="st0" d="M-360.7-24c-10.1,0-18.4-8.3-18.4-18.5c0-10.1,8.3-18.4,18.4-18.4c10.3,0,18.4,8.3,18.3,18.8
			C-342.4-32.2-350.7-24-360.7-24z M-372-42.5c0,6.3,5.1,11.4,11.3,11.4c6.3,0,11.4-5.1,11.3-11.4c0-6.3-5.1-11.4-11.3-11.4
			C-367-53.8-372-48.8-372-42.5z"/>
	</g>
	<g>
		<path class="st0" d="M-395-6.8c1,0,2,0,3.1,0c0-2.8,0-5.5,0-8.3c4.2,0,8.3,0,12.5,0c0,2,0,4,0,6.1c-2,0-4,0-6.1,0
			c0,0.8,0,1.5,0,2.2c1.5,0,2.9-0.1,4.3,0c0.4,0,1.1,0.4,1.3,0.8c0.7,1.7,1.2,3.5,1.9,5.4c-2.6,0-5,0-7.7,0c0,0.7,0,1.3,0,1.8
			c0,8.2,0,16.3,0,24.5c0,0.6-0.1,1.1-0.1,1.7c-2,0-4,0-6,0c0-9.3,0-18.5,0-27.8c-0.1,0-0.3,0.1-0.4,0.1c-0.3-0.4-0.8-0.8-1-1.2
			c-0.6-1.6-1.2-3.2-1.8-4.8C-395-6.4-395-6.6-395-6.8z"/>
		<path class="st0" d="M-287.5-0.4c-1,0-1.7,0-2.6,0c0,3.8,0,7.6,0,11.4c0,3.7,0,7.5,0,11.3c-2.1,0-4.1,0-6.3,0c0-7.5,0-15,0-22.6
			c-1-0.1-1.8-0.1-2.8-0.2c0.4-1.9,0.8-3.8,1.3-5.6c0.1-0.4,0.7-0.5,1.3-0.9c0-0.4,0-1.2,0.1-1.9c0.6-4,3.9-6.7,8-6.5
			c3.8,0.2,7,3.2,7.1,7.2c0.1,10.1,0,20.1,0,30.2c0,0.1-0.1,0.2-0.1,0.3c-2,0-3.9,0-6.1,0C-287.5,14.8-287.5,7.3-287.5-0.4z
			 M-286.9-6.4c-0.4-1.2-0.7-2.1-1.2-2.9c-0.2-0.3-1.5-0.3-1.6,0c-0.5,0.8-0.7,1.8-1,2.9C-289.3-6.4-288.4-6.4-286.9-6.4z"/>
		<path class="st0" d="M-307.6,0.9c0.8-3.4,1.6-6.9,2.5-10.3c0.4-1.6,0.7-3.3,1.2-4.9c0.1-0.3,0.6-0.8,0.9-0.8c1.9-0.1,3.7,0,5.8,0
			c-2.9,12.5-5.9,24.9-8.8,37.4c-1.1,0-2.2,0-3.3,0c-3-12.4-5.9-24.8-8.9-37.4c2.1,0,4,0,5.9,0c0.3,0,0.7,0.6,0.8,1.1
			c1.2,4.7,2.3,9.5,3.4,14.3c0.1,0.2,0.1,0.5,0.2,0.7C-307.8,0.9-307.7,0.9-307.6,0.9z"/>
		<path class="st0" d="M-363.1,22.3c-4.1,0-8.2,0-12.3,0c0-7.5,0-15,0-22.4c-1.2-0.5-2.5-3.5-3-6.6c0.9,0,1.8,0,2.9,0
			c0-2.8,0-5.5,0-8.3c4.3,0,8.4,0,12.6,0c0,2,0,3.9,0,6.1c-2,0-4,0-6.2,0c0,0.8,0,1.4,0,2.3c1.4,0,2.9-0.1,4.3,0
			c0.4,0,1.1,0.4,1.2,0.8c0.7,1.7,1.3,3.5,1.9,5.5c-2.6,0-5,0-7.5,0c0,5.6,0,11,0,16.5c2,0,3.9,0,5.9,0
			C-363.1,18.3-363.1,20.2-363.1,22.3z"/>
		<path class="st0" d="M-345.4-15.2c0,2.1,0,4,0,6.2c-1.9,0-3.8,0-5.7,0c-0.6,0-1.3,0-1.8,0.3c-1.1,0.5-1.3,1.6-0.7,3
			c2.2,4.9,4.5,9.9,6.7,14.8c3,6.5-1.4,13.2-8.5,13.2c-1.9,0-3.8,0-5.9,0c0-2.1,0-4,0-6.2c1.8,0,3.5,0,5.3,0c3.3,0,4.6-2,3.2-5
			c-2.2-4.7-4.3-9.4-6.5-14.1c-2.7-6,1.1-12.1,7.7-12.2C-349.6-15.2-347.5-15.2-345.4-15.2z"/>
		<path class="st0" d="M-338.6-8.9c-1.8,0-3.5,0-5.2,0c0-2.1,0-4.1,0-6.1c5.5,0,11,0,16.5,0c0,2,0,3.9,0,6.1c-1.7,0-3.3,0-5.2,0
			c0,10.5,0,20.8,0,31.3c-2.1,0-4.1,0-6.2,0C-338.6,11.9-338.6,1.6-338.6-8.9z"/>
		<path class="st0" d="M-273-15.1c0,10.4,0,20.7,0,31.2c2.1,0,4,0,6,0c0,2.1,0,4.1,0,6.1c-4.1,0-8.1,0-12.2,0c0-12.4,0-24.8,0-37.3
			C-277.1-15.1-275.2-15.1-273-15.1z"/>
		<path class="st0" d="M-319.5,22.3c-2.1,0-4.1,0-6.2,0c0-12.5,0-24.9,0-37.4c2.1,0,4.1,0,6.2,0C-319.5-2.6-319.5,9.8-319.5,22.3z"
			/>
	</g>
</g>
</svg>
