<?xml version="1.0" encoding="utf-8"?>
<!-- Generator: Adobe Illustrator 22.0.1, SVG Export Plug-In . SVG Version: 6.00 Build 0)  -->
<!DOCTYPE svg PUBLIC "-//W3C//DTD SVG 1.1//EN" "http://www.w3.org/Graphics/SVG/1.1/DTD/svg11.dtd">
<svg version="1.1" id="Layer_1" xmlns="http://www.w3.org/2000/svg" xmlns:xlink="http://www.w3.org/1999/xlink" x="0px" y="0px"
	 viewBox="0 0 100 60" style="enable-background:new 0 0 100 60;" xml:space="preserve">
<style type="text/css">
	.st0{clip-path:url(#SVGID_2_);fill:#EF604E;}
</style>
<g>
	<g>
		<defs>
			<path id="SVGID_1_" d="M70,27.2c-1.2,1-2.2,2.4-2.6,4.1c2.2-0.1,3.5-0.4,4.7-1.3c1-0.8,1.5-1.7,1.5-2.5c0-0.4-0.3-1.1-1.5-1.1
				C71.6,26.3,70.7,26.6,70,27.2 M22,19c-0.7,2.6-1.7,6.4-2.7,9.9c3.9,0,6.4-0.7,7.6-4.6c1-3.2,0.6-5.3-4.1-5.3H22z M51.1,24.3h12.4
				c-1.4,4.7-8.1,8.5-10,12.1h7.8l-0.8,3H47.9c0-4.8,8-10.3,9.5-12.6h-6.9L51.1,24.3z M89.8,24.1c2.7,0,3.2,1.6,3.2,2.9
				c0,1.5-1,2.5-2.3,2.5c-0.9,0-1.3-0.4-1.5-0.5c-0.4-0.4-0.5-0.8-0.5-1.2c-0.1-0.4-0.2-0.8-0.7-0.9c-0.7-0.1-1.3,0.2-1.9,0.7
				c-0.8,0.7-1.5,1.8-2,2.9c-0.3,0.7-0.6,1.4-0.7,1.9l-1.9,7.1h-5l4.1-15.1h4.8l-0.9,3C85.7,26,87.9,24.1,89.8,24.1 M62.2,34.1
				c0-5.5,4.9-10.1,10.2-10.1c2.6,0,4.9,1.2,4.9,3.3c0,2.1-1.7,4.4-4.3,5.2c-1.6,0.5-3.2,0.9-6,0.9c-0.1,0.6,0,0.8,0,1.1
				c0,1.5,1.2,2.7,3,2.7c2.3,0,4.5-2.1,4.8-2.4l0.9,2.3c-0.7,0.7-1.5,1.3-2.3,1.8c-1.4,0.7-3,1.1-4.7,1.1
				C64.8,39.9,62.2,37.6,62.2,34.1 M17.6,16.8h5.8c8.9,0,9.5,4.5,8.7,7.7c-0.9,4-3.3,6.8-13.5,6.8c-1,3.7-1.9,6.9-2.2,8.1h-5
				C12.4,36.1,17.6,16.8,17.6,16.8 M61.1,3c-5.3,0-11,0.6-16.7,1.8C20.9,9.7,3.6,23.5,3.6,36.6c0,1,0.1,2,0.3,3
				c1.7,8.1,10.2,13.9,22,16.3c2.5-9.6,8.2-31.7,8.2-31.7c1.1-4.4,1.8-6,2.9-7.9c1.5-2.5,3.8-4.5,7-4.8c1.8-0.2,4.4,0.1,5.9,1.1
				c1.4,1,1.6,2,1.5,2.9c-0.1,1.9-1.3,3.2-3.2,3.2c-1.9,0-2.5-1.4-2.5-2.4c0-1.3,0.7-1.5,0.7-2.4c0-0.5-0.4-1.2-1.7-1
				c-1.5,0.2-2.7,1.4-3.5,3.5c-0.2,0.5-0.4,1.1-0.7,2.2l-1.5,5.8h9.8c-1.3,4.6-3.4,12.9-4.1,15.1h-4.9l3.4-12.6h-4.8l-7.7,29.8
				c2.4,0.3,4.9,0.4,7.5,0.4h0.3c5.2,0,10.7-0.6,16.4-1.7c23.5-4.9,41.5-18.8,41.6-32c0-1-0.1-1.9-0.3-2.9C93.9,9.6,79.3,3,61.1,3
				L61.1,3z"/>
		</defs>
		<clipPath id="SVGID_2_">
			<use xlink:href="#SVGID_1_"  style="overflow:visible;"/>
		</clipPath>
		<rect x="3.6" y="3" class="st0" width="92.9" height="54"/>
	</g>
</g>
</svg>
