<?xml version="1.0" encoding="utf-8"?>
<!-- Generator: Adobe Illustrator 22.0.1, SVG Export Plug-In . SVG Version: 6.00 Build 0)  -->
<!DOCTYPE svg PUBLIC "-//W3C//DTD SVG 1.1//EN" "http://www.w3.org/Graphics/SVG/1.1/DTD/svg11.dtd">
<svg version="1.1" id="Layer_1" xmlns="http://www.w3.org/2000/svg" xmlns:xlink="http://www.w3.org/1999/xlink" x="0px" y="0px"
	 viewBox="0 0 120 80" style="enable-background:new 0 0 120 80;" xml:space="preserve">
<style type="text/css">
	.st0{fill:#ef604e;}
</style>
<path class="st0" d="M101.2,45.5c-1.6,0.6-3.4,1-5.3,1c-2.9,0-7.3-1.5-7.3-6.1c0-3.6,2.6-6.1,6.9-6.1c1.7,0,3.6,0.3,5.7,1.3v-3
	c-1.4-0.6-3.7-1.1-6.2-1.1c-7.7,0-12.8,3.5-12.8,9.1c0,5.4,5,8.8,13,8.8c1.9,0,4.1-0.3,6-1V45.5z"/>
<path class="st0" d="M103.5,45.4c2.1,1.1,4,1.4,6.5,1.4c1.5,0,3.6-0.4,3.6-1.8c0-1.7-2.8-2-5.7-3c-2.4-0.8-4.5-2.3-4.5-5
	c0-3.4,3-5.3,8.4-5.3c2,0,4.1,0.3,5.9,0.8v3c-1.5-0.7-3.3-1.3-5-1.3c-1.3,0-3,0.4-3,1.7c0,1.6,2.9,1.9,5.5,2.8
	c3.2,1,4.6,2.4,4.6,5.2c0,2.1-1.5,5.6-9.3,5.6c-2.2,0-4.9-0.4-7-1L103.5,45.4z"/>
<rect x="74.1" y="32" class="st0" width="6.2" height="17.1"/>
<path class="st0" d="M64.5,41.1c2.6-0.8,4.5-2.6,4.5-4.6c0-1.7-0.7-3.1-2.7-3.9c-1.5-0.6-3.8-0.6-5.5-0.6h-9.6v17.1l6.2,0V34.5h1.4
	c2.3,0,3.7,0.9,3.7,2.7c0,2.8-4.2,4.2-4.2,4.2c1.6,2.4,3.3,4.6,4.2,5.6c1.8,1.9,3.1,2.4,5.6,2.4c1.4,0,2.8-0.1,4.6-0.3
	C70.3,47.6,65.8,42.7,64.5,41.1"/>
<path class="st0" d="M0.3,40.5c0-8.4,4.8-15.6,11.8-19.1l3.1,7.8c-1.4,0.4-5.8,1.6-9,6.1c0,0,1.8-0.5,3.1,0.3c0,0-3.6,2.7-5.1,6.6
	c0,0-0.7,11.7,9.7,18.2C5.9,57.3,0.3,49.6,0.3,40.5 M14.2,20.5c1.9-0.7,4-1.2,6.2-1.3c0,0.2,0,0.5,0,0.7c0,1.7-1.4,3.1-3.1,3.1
	C15.8,23,14.5,21.9,14.2,20.5 M22.9,19.1c2.2,0.1,4.2,0.6,6.2,1.3C28.8,21.8,27.5,23,26,23c-1.7,0-3.1-1.4-3.1-3.1
	C22.9,19.7,22.9,19.3,22.9,19.1 M21.7,61.9c-0.5,0-0.9,0-1.4,0c0.1-0.4,0.6-1.9,0.1-4.4c-0.9-5.3-3.9-6.7-5.3-9.5
	c0,0-0.6,1.3-0.8,3.1c0,0-1.8-1.2-2-4.6c-0.2-2.4,0.9-8.2,5.8-10.7c0,0-4.9,5.2-2.1,10c0,0,0.4-0.9,1-1.6c0,0,0.3,1.8,3.4,4.6
	c2.4,2.1,6.7,5.7,6.1,12.6C25,61.7,23.4,61.9,21.7,61.9 M43.1,40.5c0,8.1-4.4,15.1-11,18.7c0.2-0.8,0.5-4-3.3-8.3
	c-3.1-3.4-8-4.2-9.3-8.9c-1.2-4.3,0.9-7.7,0.9-7.7s-2.1-0.5-2.1-2.9c0-1.6,1.2-2.4,1.2-2.4c-0.1,0.3-0.2,0.7-0.2,1.1
	c0,1.6,1.3,2.9,2.9,2.9c0.2,0,0.5,0,0.7-0.1c-0.2,0.4-5.2,8.6,5.6,13.7c1.6-0.5,3.5,0.1,4.7,2.1c0,0,2.3-1.7,1.8-4.9
	c-0.6,0.6-1.3,1.2-2.2,1.2c-1.8,0-3.2-1.4-3.2-3.1c0-1.8,1.4-3.2,3.2-3.2c1.5,0,2.7,1,3,2.4c1.9-1.3,2.1-3,2.1-3s1.2-0.4,1.7-1.4
	c0.1-0.2-0.1-0.4-0.1-0.4s-3.8-1.8-7.1-3.3c-0.3-0.1,0.2-0.6,0.5-1c0.5-0.9-2.9-2.4-4.7-2.8l3.1-7.9C38.3,24.8,43.1,32.1,43.1,40.5
	 M32.7,42c0,0,1.4,0.2,3.1,1.5c1.9,1.4,3.2,1.1,4.1,0.4c1-0.8,0.9-1.8,0.9-1.8s-1.3,0.6-2.4,0.6c-1.4,0-1.9-0.3-2.9-0.6
	C34.1,41.7,32.7,42,32.7,42"/>
<path class="st0" d="M29,33.5c0.8,0,1.5-0.5,1.7-1.3c0,0-0.7-0.4-1.6-0.7c-0.8-0.4-1.7-0.6-1.7-0.6C26.8,32.5,28,33.5,29,33.5"/>
<path class="st0" d="M29,33.5c0.8,0,1.5-0.5,1.7-1.3c0,0-0.7-0.4-1.6-0.7c-0.8-0.4-1.7-0.6-1.7-0.6C26.8,32.5,28,33.5,29,33.5"/>
</svg>
