<?xml version="1.0" encoding="utf-8"?>
<!-- Generator: Adobe Illustrator 22.0.1, SVG Export Plug-In . SVG Version: 6.00 Build 0)  -->
<!DOCTYPE svg PUBLIC "-//W3C//DTD SVG 1.1//EN" "http://www.w3.org/Graphics/SVG/1.1/DTD/svg11.dtd">
<svg version="1.1" id="Layer_1" xmlns="http://www.w3.org/2000/svg" xmlns:xlink="http://www.w3.org/1999/xlink" x="0px" y="0px"
	 viewBox="0 0 140 125" style="enable-background:new 0 0 140 125;" xml:space="preserve">
<style type="text/css">
	.st0{fill:#EF604E;}
</style>
<g>
	<g>
		<path class="st0" d="M19.3,105.6h0.8c2.5,0,5.5-0.4,5.5-3.8c0-3.2-3-3.8-5.5-3.8h-0.8V105.6z M36.4,122.1h-9.7l-7.4-11.4l0,0v11.4
			h-7.6V92.2h11.7c5.9,0,10.4,2.8,10.4,9.3c0,4.2-2.3,7.6-6.6,8.5L36.4,122.1z"/>
		<path class="st0" d="M73.5,102.3c-1.7-2.1-4.2-3.4-6.8-3.4c-4.9,0-8.1,3.6-8.1,8.3c0,4.7,3.2,8.3,8.1,8.3c2.5,0,5.1-1.3,6.8-3.2
			v9.3c-2.5,0.8-4.4,1.5-7,1.5c-4.2,0-8.3-1.7-11.2-4.4c-3.4-3-4.9-7-4.9-11.4c0-4,1.5-8.1,4.4-11c3-3,7.2-4.9,11.4-4.9
			c2.5,0,4.9,0.6,7.2,1.5V102.3L73.5,102.3z"/>
		<polygon class="st0" points="95.7,92.2 103.4,92.2 109.5,108.1 115.9,92.2 123.7,92.2 128.4,122.1 120.3,122.1 118.2,104.9
			118,104.9 110.8,122.1 108,122.1 101,104.9 101,104.9 98.3,122.1 90.4,122.1 		"/>
	</g>
	<path class="st0" d="M75,51c-0.3-0.2-0.6-0.6-0.8-1.1c-0.2,0.5-0.6,1.3-0.9,2.7c0,0,0.4,0.5,0.4,0.9C74.2,52.2,74.7,51.5,75,51
		 M71.9,52.8c0,0,0.4-0.3,0.8-0.4c0.1-0.4,0.2-0.9,0.3-1.3c-0.2-0.2-0.4-0.5-0.9-0.6C71.9,51.4,71.9,52,71.9,52.8 M61.6,55.5
		L61.6,55.5L61.6,55.5C61.6,55.4,61.6,55.4,61.6,55.5c0-0.1-0.1-0.2-0.1-0.2l0,0l0,0c-0.4,0.2-0.8,0.3-1.3,0.4L60,55.8l0,0l0,0
		c0,0,0,0.1,0.1,0.2l0,0l0,0l0,0c0.1,0,0.2-0.1,0.3-0.1C60.8,55.7,61.2,55.6,61.6,55.5 M67,48.8c-0.3-0.8-0.6-1.4-0.9-2
		c0,0.5,0,1.1-0.3,1.7c0,0.1,0,0.2,0,0.3c0.2,0.3,0.4,0.7,0.6,1.1C66.3,49.7,66.4,49.2,67,48.8 M74.8,46.5c0.2-0.5,0.7-0.6,0.7-0.6
		h0.1v-0.1c0,0,0.2-0.4,0.8-0.4c0.1,0,0.2,0,0.4,0c0.6,0.1,1,0.5,1.2,0.7c0.1,0.1,0.1,0.2,0.1,0.3s0.1,0.2,0.1,0.2
		c0,0.2,0.1,0.3,0.1,0.5c0,0.4,0,0.7-0.1,1.1c-0.1,0.2-0.1,0.5-0.2,0.7c0,0.1-0.1,0.3-0.1,0.4c-0.1,0.2-0.1,0.4-0.1,0.6
		s0,0.5,0.1,0.7l0.1,0.1c0.1,0,0.1-0.1,0.1-0.2c-0.1-0.3,0-0.6,0.2-1c0.1-0.1,0.1-0.2,0.2-0.4s0.2-0.5,0.3-0.7
		c0.2-0.4,0.3-0.8,0.3-1.3c0-0.2,0-0.4,0-0.6c0-0.1,0-0.2,0-0.3c0.1-0.1,0.3-0.1,0.4-0.1s0.1,0,0.2,0c0.3,0,0.6,0.2,0.7,0.4
		c0.1,0.1,0.1,0.3,0.2,0.4c-0.3-0.1-0.5-0.2-0.6-0.2s-0.1,0-0.2,0.1c0,0.1-0.1,0.1-0.1,0.2c0,0.1,0.1,0.3,0.3,0.3c0,0,0.4,0,0.6,0.6
		c0.1,0.3,0.1,0.6,0,0.9c-0.1,0.2-0.3,0.4-0.5,0.6c-0.1-0.2-0.2-0.5-0.4-0.6c0-0.1-0.1-0.1-0.2-0.1s-0.1,0-0.2,0.1s-0.1,0.3,0,0.4
		c0.1,0.1,0.2,0.3,0.3,0.6c0.1,0.5-0.1,0.8-0.5,1.1C79.1,51,79,51,79,51.1c-0.2,0.2-0.3,0.6-0.2,0.9l0,0v0.1
		c-0.7-0.1-1.4-0.4-1.9-0.9c-0.2-0.2-0.3-0.4-0.4-0.6c-0.4-0.9,0.2-1.5,0.2-1.5c0.1-0.1,0.1-0.3,0-0.4c-0.1-0.1-0.1-0.1-0.2-0.1
		s-0.1,0-0.2,0.1S76.1,49,76,49.2v0.1c0,0.1,0,0.1-0.1,0.2c0,0.1,0,0.2-0.1,0.3c0,0.1,0,0.2,0,0.2c0,0.1,0,0.2,0,0.3v0.1l-0.1,0.1
		c-0.3-0.3-0.6-0.8-0.7-1.4c-0.1-0.5,0-0.9,0.2-1.2c0.4-0.5,1-0.6,1.1-0.7c0.1,0,0.2-0.2,0.2-0.3s-0.1-0.2-0.3-0.2
		c-0.1,0-1,0.1-1.5,0.9v0.1h-0.1C74.8,47,74.8,46.7,74.8,46.5 M74.3,48.9c0.3,1.7,1.2,2.1,1.6,2.2c0.7,0.9,1.9,1.6,2.9,1.6
		c0.2,0,0.4,0,0.6-0.1c0.1,0,0.1-0.1,0.2-0.1c0.1-0.1,0.1-0.1,0.1-0.1l0.1-0.1v-0.1v-0.1V52l0-0.1l-0.2-0.2l0,0l-0.1-0.1
		c0-0.1,0-0.1,0-0.2c0,0,0.1-0.1,0.2-0.1c0.3-0.2,0.8-0.6,0.8-1.3c0.4-0.2,0.7-0.6,0.9-1c0.2-0.5,0.2-1,0-1.5c0.1-0.4,0.1-1-0.3-1.5
		c-0.3-0.5-0.8-0.7-1.3-0.8c-0.1,0-0.2,0-0.3,0c-0.4,0-0.7,0.1-0.9,0.2c-0.3-0.3-0.8-0.8-1.6-0.9c-0.2,0-0.4,0-0.5,0
		c-0.8,0-1.2,0.4-1.4,0.7c-0.2,0.1-0.7,0.4-0.9,0.9c-0.3,0.6-0.3,1.4,0.1,2.3C74.3,48.6,74.3,48.8,74.3,48.9 M70.2,52h0.7
		c0,0.2,0-0.9,0.1-1.3c-0.3,0-0.5,0.2-0.8,0.6L70.2,52z M73.8,46.8c-0.3,0.6-0.6,1.2-0.9,2c0.5,0.4,0.6,0.9,0.7,1.2
		c0.2-0.4,0.4-0.8,0.5-1.1c0-0.1,0-0.2,0-0.3C73.8,47.9,73.8,47.3,73.8,46.8 M67.3,41.4L67.3,41.4c0.5-0.6,0.9-0.9,1.5-0.9
		c0.2,0,0.5,0,0.7,0.1v0.1c0,0,0,0.1-0.1,0.2c0,0.1,0,0.2-0.1,0.3c0,0.2,0,0.4,0.1,0.6c0,0.1,0.1,0.2,0.1,0.3s0.1,0.1,0.1,0.3
		c0.1,0.2,0.1,0.3,0.2,0.4c0,0.1,0,0.1,0,0.2v0.1v0.1c0,0.1,0,0.2,0,0.3v0.2c0,0.2,0,0.4,0,0.6c0,0.2,0.1,0.4,0.2,0.5h0.1v-0.1
		c-0.2-0.3-0.1-0.6,0-0.9v-0.1c0-0.1,0.1-0.2,0.1-0.4v-0.1v-0.1c0-0.1,0-0.2,0-0.3c0-0.2-0.1-0.3-0.1-0.5v-0.1c0-0.1,0-0.2,0-0.2
		c0-0.1,0-0.1,0-0.2c0-0.1,0-0.3,0.1-0.4c0-0.1,0-0.1,0.1-0.2l0.1-0.1V41c0-0.1,0-0.2,0-0.3c0.2-0.1,0.4-0.1,0.7-0.1
		c0.5,0,1,0.3,1.4,0.8l0.1,0.1c0.1,0,0.7,0.4,0.6,1.3c-0.2-0.5-0.7-0.9-1.2-1.2h-0.1c-0.1,0-0.2,0.1-0.2,0.1c0,0.1,0,0.1,0,0.2
		c0,0.1,0.1,0.1,0.1,0.1c0.6,0.3,1,0.8,1.1,1.4c0.1,0.4,0,1-0.3,1.3c-0.1-0.5-0.2-0.9-0.5-1.2c0,0-0.1-0.1-0.2-0.1s-0.1,0-0.2,0.1
		c0,0-0.1,0.1-0.1,0.2c0,0.1,0,0.1,0.1,0.2c0.4,0.4,0.5,1.1,0.3,1.6c-0.1,0.3-0.3,0.5-0.6,0.6c0.1-0.3,0-0.7-0.1-1
		c0-0.1-0.1-0.1-0.2-0.1H71c-0.1,0.1-0.2,0.2-0.1,0.3c0.2,0.4,0.3,0.9-0.5,1.4c-0.1,0.1-0.3,0.2-0.4,0.3c-0.1-0.1-0.2-0.2-0.4-0.3
		c-0.8-0.5-0.7-1-0.5-1.4c0.1-0.1,0-0.3-0.1-0.3h-0.1c-0.1,0-0.2,0.1-0.2,0.1c-0.2,0.4-0.2,0.7-0.2,1.1c-0.3-0.2-0.4-0.4-0.5-0.7
		c-0.2-0.5-0.1-1.3,0.3-1.6c0.1-0.1,0.1-0.3,0-0.4c0,0-0.1-0.1-0.2-0.1s-0.1,0-0.2,0.1c-0.3,0.3-0.5,0.7-0.6,1.2
		c-0.2-0.4-0.3-0.9-0.3-1.3c0.1-0.6,0.5-1.2,1.1-1.4c0.1,0,0.1-0.1,0.1-0.1c0-0.1,0-0.1,0-0.2c0-0.1-0.1-0.1-0.2-0.1h-0.2
		c-0.5,0.2-0.9,0.7-1.2,1.1C66.7,41.9,67.2,41.5,67.3,41.4 M67.2,45.9c0.2,0.7,0.9,1.2,1.6,1.4c0.1,0.1,0.2,0.2,0.3,0.2
		c0.3,0.1,0.3,0.4,0.3,0.6v0.1l0.1,0.1l0.1,0.1h0.1h0.1h0.1H70l0.1-0.1l0.1-0.1c0,0,0,0,0.1-0.2v-0.1c0,0,0-0.3,0.3-0.5
		c0.1-0.1,0.2-0.2,0.4-0.3c0.8-0.2,1.4-0.7,1.6-1.4c0.8-0.6,0.9-1.6,0.9-1.9c0.9-1.8-0.2-2.8-0.6-3c-0.6-0.8-1.4-1-1.9-1
		s-0.9,0.2-1.2,0.3c-0.3-0.1-0.7-0.3-1.2-0.3s-1.3,0.2-1.9,1c-0.3,0.3-1.4,1.2-0.5,3C66.3,44.5,66.4,45.4,67.2,45.9 M72.8,49.2
		l-0.1,0.3c-0.1,0.2-0.1,0.3-0.2,0.6c0.5,0.3,0.7,0.8,0.7,1c0.1-0.4,0.2-0.7,0.3-1C73.3,49.8,73.2,49.5,72.8,49.2 M67.2,49.2
		c-0.5,0.3-0.7,0.6-0.8,0.9c0.1,0.3,0.2,0.7,0.3,1c0-0.2,0.2-0.7,0.7-1c-0.1-0.3-0.1-0.4-0.2-0.6V49.2z M66.8,51.2
		c0.1,0.4,0.2,0.8,0.3,1.3c0.3,0,0.8,0.4,0.8,0.4c0-0.9,0.1-1.4-0.2-2.3C67,50.7,66.8,50.9,66.8,51.2 M69.8,57.1
		c-2.1,0-4.6,0.5-4.8,0.7c-0.1,0.1-0.1,0.3,0,0.5c0.1,0.1,0.2,0.1,0.4,0.1c0.2-0.1,2.4-0.6,4.4-0.6l0,0c2.1,0,4.2,0.5,4.4,0.6h0.1
		c0.1,0,0.2,0,0.2-0.1c0.1-0.1,0.1-0.3,0-0.5S71.9,57.1,69.8,57.1L69.8,57.1z M69.8,54.2c-0.2,0-0.3-0.1-0.3-0.3s0.1-0.3,0.3-0.3
		c0.2,0,0.3,0.1,0.3,0.3C70.2,54.1,70,54.2,69.8,54.2 M75.3,55.2L75.3,55.2l0.4-0.7L74.7,54c0,0,0.4,0.3,0.2,0.9
		c-0.4-0.1-0.6-0.5-0.6-0.5L74.1,55l-0.2,0.6c0,0,0.3-0.2,0.8-0.1l0,0c-0.2,0.4-0.7,0.7-1.1,0.6c-0.4-0.1-0.6-0.3-0.7-0.7
		c0.1,0,0.2-0.1,0.2-0.2c0-0.1,0-0.2-0.2-0.3l0,0c0-0.2,0.2-0.3,0.4-0.2c0.2,0,0.3,0.2,0.2,0.4c0,0.1,0,0.1-0.1,0.2
		c0.2-0.1,0.3-0.2,0.4-0.4c0.1-0.3-0.1-0.6-0.4-0.7c-0.1,0-0.2,0-0.4,0c0,0,0-0.1,0-0.2c0.1-0.6-0.1-1.1-0.1-1.1s-0.5,0.3-0.6,0.9
		c0,0.1,0,0.1,0,0.2c-0.1-0.1-0.2-0.2-0.3-0.2c-0.3-0.1-0.6,0.1-0.6,0.4c-0.1,0.2,0,0.4,0.2,0.6c0-0.1,0-0.1,0-0.2
		c0-0.2,0.2-0.3,0.4-0.3c0.2,0,0.3,0.2,0.2,0.4h-0.1c-0.1,0-0.2,0.1-0.3,0.2c0,0.1,0,0.2,0.1,0.3c-0.2,0.2-0.6,0.3-0.9,0.3
		C70.4,55.4,70,55,70,54.3c0.8,0,0.9,0.4,0.9,0.4v-1.6c0,0-0.1,0.4-0.9,0.4c0-0.8,0.4-1,0.4-1h-1.5c0,0,0.4,0.2,0.4,1
		c-0.8,0-0.9-0.4-0.9-0.4v1.6c0,0,0.1-0.4,0.9-0.4c0,0.8-0.4,1.1-0.9,1.2c-0.3,0.1-0.7,0-0.9-0.3c0.1,0,0.1-0.1,0.1-0.3
		c0-0.1-0.1-0.2-0.3-0.2h-0.1c0-0.2,0.1-0.3,0.2-0.4c0.2,0,0.3,0.1,0.4,0.3c0,0.1,0,0.1,0,0.2c0.1-0.1,0.2-0.3,0.2-0.6
		c-0.1-0.3-0.4-0.5-0.6-0.4c-0.1,0-0.2,0.1-0.3,0.2c0-0.1,0-0.1,0-0.2c-0.1-0.6-0.6-0.9-0.6-0.9s-0.3,0.5-0.1,1.1c0,0.1,0,0.1,0,0.2
		c-0.1-0.1-0.2-0.1-0.4,0c-0.3,0.1-0.5,0.4-0.4,0.7c0,0.2,0.2,0.4,0.4,0.4c0,0-0.1-0.1-0.1-0.2c0-0.2,0.1-0.4,0.2-0.4
		c0.2,0,0.3,0.1,0.4,0.2l0,0c-0.1,0-0.2,0.1-0.2,0.3c0,0.1,0.1,0.2,0.2,0.2c-0.1,0.4-0.3,0.6-0.7,0.7c-0.5,0.1-0.9-0.2-1.1-0.6l0,0
		c0.4-0.2,0.8,0.1,0.8,0.1L65.3,55l-0.2-0.6c0,0-0.1,0.4-0.6,0.5c-0.1-0.6,0.2-0.9,0.2-0.9l-1.1,0.5l0.3,0.7h0.1
		c0.2,0,0.3,0.2,0.3,0.4c0,0.1-0.1,0.2-0.2,0.3l0.6,1.3c0,0,2.4-0.6,4.7-0.6c2.3,0,4.7,0.6,4.7,0.6l0.6-1.3
		c-0.1-0.1-0.2-0.2-0.2-0.3C74.9,55.4,75.2,55.2,75.3,55.2 M69.2,48.4C69.2,48.4,69.2,48.3,69.2,48.4l-0.1-0.2V48c0,0,0-0.1-0.1-0.1
		c-0.1-0.1-0.2-0.1-0.3-0.2l-0.2-0.1c0.1,0.3,0.1,0.7,0.2,1.2c0.5,0.3,0.8,0.7,0.9,1c0-0.6-0.1-1,0-1C69.3,48.8,69.3,48.6,69.2,48.4
		 M68.9,52h0.7v-0.7c-0.2-0.4-0.5-0.6-0.8-0.6C68.9,51.2,68.9,52.2,68.9,52 M68.8,49.2c0,0.1,0,0.2,0.1,0.3c0,0.2,0.1,0.4,0.1,0.6
		c0.5,0.3,0.7,0.7,0.8,1c0-0.4,0-0.8,0-1.1C69.4,49.7,68.9,49.3,68.8,49.2 M64.8,51c0.5,0.5,0.9,1.2,1.2,2.4c0-0.4,0.4-0.9,0.4-0.9
		c-0.3-1.3-0.7-2.2-0.9-2.7C65.3,50.4,65,50.8,64.8,51 M71.2,48.8c0.1-0.5,0.2-0.9,0.2-1.2l-0.2,0.1c-0.1,0.1-0.2,0.1-0.3,0.2
		c-0.1,0-0.1,0.1-0.1,0.1v0.2v0.1c0,0.1,0,0.1-0.1,0.1c-0.1,0.2-0.3,0.3-0.4,0.4c0,0,0,0.4,0,1C70.3,49.5,70.7,49,71.2,48.8
		 M59,47.9c0.2-0.6,0.6-0.6,0.6-0.6c0.1,0,0.3-0.1,0.3-0.3c0-0.1,0-0.1-0.1-0.2c0-0.1-0.1-0.1-0.2-0.1c0,0-0.3,0-0.6,0.2
		c0-0.1,0.1-0.3,0.2-0.4c0.2-0.3,0.4-0.4,0.7-0.4c0.1,0,0.1,0,0.2,0s0.3,0,0.4,0.1c0,0.1,0,0.2,0,0.3c0,0.2,0,0.4,0,0.6
		c0,0.4,0.1,0.9,0.3,1.3c0.1,0.3,0.2,0.5,0.3,0.7c0.1,0.1,0.1,0.2,0.2,0.4c0.2,0.4,0.3,0.7,0.2,1c0,0.1,0,0.1,0.1,0.2
		c0,0,0.1,0,0.1-0.1c0.1-0.2,0.1-0.4,0.1-0.7c0-0.2-0.1-0.4-0.1-0.6c0-0.1-0.1-0.3-0.1-0.4c-0.1-0.2-0.1-0.5-0.2-0.7
		c-0.1-0.3-0.1-0.7-0.1-1.1c0-0.2,0.1-0.3,0.1-0.5c0-0.1,0.1-0.2,0.1-0.2c0-0.1,0.1-0.2,0.1-0.3c0.2-0.3,0.6-0.6,1.2-0.7
		c0.1,0,0.3,0,0.4,0c0.6,0,0.8,0.4,0.8,0.4v0.1h0.1c0,0,0.5,0.1,0.7,0.6c0.1,0.2,0.1,0.5,0.1,0.9h-0.1v-0.1
		c-0.5-0.7-1.4-0.9-1.5-0.9s-0.2,0.1-0.3,0.2c0,0.1,0.1,0.3,0.2,0.3s0.8,0.2,1.1,0.7c0.2,0.3,0.3,0.7,0.2,1.2
		c-0.1,0.7-0.3,1.1-0.7,1.4l0-0.1V50c0-0.1,0-0.2,0-0.3s0-0.2,0-0.2c0-0.1,0-0.2-0.1-0.3c0-0.1,0-0.1-0.1-0.2v-0.1
		c-0.1-0.2-0.2-0.4-0.3-0.5c0,0-0.1-0.1-0.2-0.1s-0.1,0-0.2,0.1s-0.1,0.3,0,0.4c0,0,0.6,0.6,0.2,1.5c-0.1,0.2-0.2,0.4-0.4,0.6
		c-0.5,0.5-1.3,0.9-1.9,0.9v-0.1l0,0c0.1-0.3,0-0.7-0.2-0.9c-0.1-0.1-0.1-0.1-0.2-0.2c-0.4-0.3-0.7-0.6-0.5-1.1
		c0.1-0.2,0.2-0.4,0.3-0.6c0.1-0.1,0.1-0.3,0-0.4c-0.1,0-0.1-0.1-0.2-0.1s-0.1,0-0.2,0.1c-0.2,0.2-0.3,0.4-0.4,0.6
		c-0.2-0.2-0.4-0.3-0.5-0.6C58.8,48.5,58.8,48.2,59,47.9 M58.3,49.1c0.2,0.4,0.5,0.7,0.9,1c0.1,0.6,0.5,1,0.8,1.3
		c0.1,0.1,0.1,0.1,0.2,0.1c0,0,0.1,0.1,0,0.2l-0.1,0.1l0,0L60,51.9L59.8,52v0.1v0.1v0.1l0.1,0.1c0,0,0,0.1,0.1,0.1
		c0,0,0.1,0.1,0.2,0.1c0.2,0.1,0.4,0.1,0.6,0.1c1,0,2.3-0.7,2.9-1.6c0.5-0.1,1.4-0.6,1.7-2.2c0-0.2,0-0.3,0-0.5
		c0.4-0.9,0.4-1.7,0.1-2.3c-0.3-0.5-0.7-0.8-0.9-0.9c-0.2-0.2-0.6-0.7-1.4-0.7c-0.2,0-0.3,0-0.5,0c-0.8,0.2-1.3,0.6-1.6,0.9
		c-0.3-0.1-0.6-0.2-0.9-0.2c-0.1,0-0.2,0-0.3,0c-0.6,0.1-1,0.3-1.3,0.8s-0.3,1.1-0.3,1.5C58.2,48.1,58.2,48.6,58.3,49.1 M67.4,70.6
		c-0.5,0-0.8,0.4-0.8,0.9s0.4,0.9,0.9,0.8c0.5,0,0.8-0.4,0.8-0.9C68.3,71,67.9,70.6,67.4,70.6 M69.8,77.4c-0.5,0-0.9,0.4-0.9,0.9
		s0.4,0.9,0.9,0.9s0.9-0.4,0.9-0.9C70.7,77.7,70.2,77.4,69.8,77.4 M70.8,71.9c-0.5,0-0.8,0.4-0.8,0.9s0.4,0.9,0.9,0.8
		c0.5,0,0.8-0.4,0.8-0.9C71.7,72.2,71.2,71.8,70.8,71.9 M76.7,67.9c-0.5,0-0.9,0.4-0.9,0.9s0.4,0.9,0.9,0.9s0.9-0.4,0.9-0.9
		C77.4,68.3,77,67.9,76.7,67.9 M82.2,68.9L82.2,68.9c-1.9,0.7-3.8,1.1-5.7,1.2c-1.1,0-2.2-0.1-3.2-0.3c0.1-1,0.2-2,0.6-3
		c6.3-1.8,11-7.6,11-14.5c0-8.3-6.7-15-15-15s-15,6.7-15,15c0,5.1,2.6,9.6,6.5,12.3c-0.5,0.2-1,0.6-1.4,1l-0.9-0.7
		c-0.5-0.4-1.3-0.3-1.7,0.2c-0.2,0.3-0.3,0.6-0.2,0.9c0,0.3,0.2,0.6,0.5,0.8l1.1,0.8c-0.2,0.5-0.3,1.1-0.3,1.6c-5.4-3.7-9-9.9-9-17
		c0-11.3,9.2-20.6,20.6-20.6c11.3,0,20.6,9.2,20.6,20.6C90.4,59.2,87.2,65.1,82.2,68.9 M79,72.8c-0.2,0.1-0.4,0.2-0.6,0.3
		c-0.4,0.2-0.9,0.6-1.3,1c-0.8,0.8-1.6,1.6-2.9,1.6l0,0c-0.1,0-0.3,0-0.5,0c-0.3,0-0.7-0.1-1.1-0.1c-1.3-0.2-3.2-0.7-5.5-1.5
		c-0.3-0.1-0.5-0.2-0.8-0.3c-0.7-0.3-1.5-0.7-2.3-1.1c0.7-0.4,1.3-1.1,1.8-1.9s0.7-1.7,0.7-2.6c2.2,1.3,5.8,2.9,10,2.8
		c1.8,0,3.5-0.4,5.2-1C81.3,71.9,80,72.4,79,72.8 M74.8,79.9c-0.1,1-0.9,1.7-2,1.7c-0.3,0-0.5,0-0.8-0.1c-0.1,0-0.1,0-0.2,0
		s-0.3,0.1-0.4,0.2c-0.1,0.2-0.1,0.4,0,0.5c0.2,0.3,0.3,0.7,0.3,1c0,0.5-0.2,0.9-0.5,1.3c-0.4,0.4-0.9,0.6-1.4,0.6l0,0
		c-1.1,0-2-0.8-2-1.9c0-0.4,0.1-0.7,0.3-1c0.1-0.2,0.1-0.4,0-0.5s-0.2-0.2-0.4-0.2c-0.1,0-0.1,0-0.2,0c-0.2,0.1-0.5,0.2-0.8,0.2
		c-1,0-1.9-0.7-2-1.7c1.1-1,1.8-2.4,2.2-4.2c0.1-0.3,0.1-0.6,0.2-0.8c2.3,0.9,4.3,1.3,5.6,1.5c0.1,0.3,0.1,0.6,0.2,0.8
		C73.3,78.3,73.9,79.2,74.8,79.9 M69.8,65.1c-0.2,0-0.4,0-0.7-0.1c-0.3,0-0.6-0.1-0.9-0.1c-0.4,0-1.5-0.1-2.1,0.8
		c0,0.1-0.1,0.1-0.1,0.2c-0.3-0.5-0.7-0.9-1.2-1.2c-0.7-0.4-1.5-0.5-2.3-0.4c-4-2.5-6.7-6.9-6.7-12c-0.1-7.8,6.2-14.1,14-14.1
		s14.1,6.3,14.1,14.1c0,5.4-3,10-7.4,12.4c-0.5-0.3-1.4-0.5-2.4-0.3C72.4,64.9,70.4,65.1,69.8,65.1 M72.8,67.1
		c-0.2,0.8-0.3,1.7-0.4,2.5c-2.4-0.6-4.3-1.5-5.7-2.3c0-0.4,0.1-0.7,0.2-0.9c0.2-0.3,0.5-0.4,1.1-0.4c0.3,0,0.7,0,1,0.1
		c0.3,0,0.5,0.1,0.8,0.1s0.5,0,0.8,0c0.8,0,1.6-0.1,2.7-0.4c-0.1,0.2-0.2,0.3-0.2,0.5c0,0.1-0.1,0.2-0.1,0.2c0,0.1-0.1,0.2-0.1,0.2
		C72.8,66.8,72.8,67,72.8,67.1L72.8,67.1 M57.9,66.4c-0.1-0.1-0.2-0.2-0.2-0.3s0-0.3,0.1-0.4s0.2-0.2,0.4-0.2c0.1,0,0.2,0,0.3,0.1
		l3.3,2.5c0.1,0.1,0.2,0.2,0.2,0.3s0,0.3-0.1,0.4c-0.2,0.2-0.5,0.3-0.7,0.1L57.9,66.4z M61.8,72.1c-0.4,0-0.7-0.1-1-0.3
		c-1-0.6-1.3-1.9-1-3.2l1.2,0.9c0.2,0.2,0.5,0.2,0.7,0.2c0.4,0,0.7-0.2,1-0.5c0.2-0.3,0.3-0.6,0.2-0.9c0-0.3-0.2-0.6-0.5-0.8l-1.3-1
		c0.6-0.6,1.4-0.9,2.1-0.9c0.4,0,0.7,0.1,1,0.3c0.6,0.3,0.9,0.9,1.1,1.7c0.1,0.8,0,1.8-0.5,2.6C63.9,71.3,62.8,72.1,61.8,72.1
		 M69.8,31C58,31,48.4,40.6,48.4,52.4c0,7.6,4,14.3,9.9,18.1c0.2,1,0.8,1.9,1.7,2.5c0.9,0.5,2,0.6,3,0.2c1.1,0.6,2.1,1,3.1,1.4
		c0,0.4-0.1,0.7-0.2,1c-0.3,1.6-0.9,2.8-1.9,3.7l-0.4,0.3v0.5c0.1,1.5,1.4,2.6,3,2.7l0,0c0,0.2,0,0.3,0,0.5c0,1.6,1.3,2.8,2.9,2.9
		h0.1c0.8,0,1.6-0.3,2.1-0.9c0.6-0.6,0.9-1.3,0.9-2.1c0-0.2,0-0.3,0-0.5l0,0c1.6,0,2.9-1.2,3-2.7v-0.5l-0.3-0.3
		c-0.7-0.6-1.2-1.3-1.5-2.2c0-0.1-0.1-0.3-0.1-0.4c0.1,0,0.3,0,0.4,0l0,0c1.6,0,2.7-1,3.5-1.9c0.4-0.4,0.7-0.7,1.1-0.9
		c0.2-0.1,0.4-0.1,0.6-0.2c1.2-0.4,2.9-1.1,3.3-4c5.3-3.9,8.7-10.2,8.7-17.2C91.3,40.6,81.8,31,69.8,31 M60.6,57.2L60.6,57.2
		c0.1,0,0.2-0.1,0.3-0.1H61h-0.2c-0.1,0-0.2-0.1-0.3-0.3c0-0.1,0-0.3,0.1-0.4c0.1-0.1,0.2-0.2,0.4-0.3c0.1,0,0.2,0,0.3,0l0,0l0,0
		h0.1h0.1l0,0c0,0,0.1,0,0.1,0.1c0,0,0,0,0.1,0l0.1,0.1l0,0l0,0c0.1,0.1,0,0.2,0,0.3v0.1h0.1c0.1,0,0.2,0,0.3-0.1l0,0l0,0
		c0-0.1,0-0.2,0-0.4c0-0.1-0.1-0.2-0.2-0.2l0,0l0,0c-0.1,0-0.1-0.1-0.2-0.1l0,0l0,0c-0.3-0.1-0.5-0.1-0.7,0s-0.4,0.2-0.5,0.4
		s-0.2,0.4-0.1,0.6C60.3,57,60.4,57.1,60.6,57.2L60.6,57.2z M79.9,66.2c-0.5,0-0.9,0.4-0.9,0.9s0.4,0.9,0.9,0.9s0.9-0.4,0.9-0.9
		S80.4,66.2,79.9,66.2 M74.3,72.6c-0.5,0-0.8,0.4-0.8,0.9s0.4,0.8,0.9,0.8s0.9-0.4,0.8-0.9C75.2,73,74.8,72.6,74.3,72.6 M74.3,60.5
		l-0.1-0.2h0.1c0.1,0,0.2,0.1,0.4,0.1c0.3,0,0.6-0.1,0.9-0.2c0.9-0.4,1.2-1.5,1.5-2.7c0.2-0.6,0.3-1.3,0.6-1.8
		c0.6-1.2,1.4-1.3,1.6-1.3s0.8,0.2,1.5,0.4c-0.2,0.2-0.4,0.5-0.5,0.8c-0.1,0.2-0.1,0.3-0.2,0.5c-0.6,1.6-1.6,4.7-3.8,5.1
		c-0.2,0-0.3,0-0.5,0C75,61.2,74.7,61,74.3,60.5 M76.3,61.7c1.5-0.2,2.7-1.5,3.7-3.9c0.1,0.1,0.3,0.2,0.6,0.4
		c0.2,0.1,0.4,0.1,0.6,0.1s0.3,0,0.4-0.1s0.2-0.2,0.1-0.3c0-0.1-0.1-0.2-0.2-0.2h-0.2c-0.1,0-0.1,0-0.2,0s-0.1-0.1-0.2-0.2
		c0-0.3,0.2-0.4,0.5-0.7c0.1-0.1,0.2-0.1,0.2-0.2c0.2-0.1,0.3-0.3,0.4-0.4c0.2-0.2,0.3-0.5,0.3-0.7c0.1-0.7-0.3-1.1-0.7-1.2
		c-0.1,0-0.1,0-0.2,0c-0.8-0.1-2.3-0.5-2.4-0.5c-0.2,0-1.3,0.1-2.1,1.5c-0.3,0.6-0.5,1.3-0.7,2c-0.3,1-0.5,2-1.2,2.4
		c-0.3,0.1-0.5,0.2-0.7,0.2c-0.8,0-0.6-0.9-0.5-1.1l0,0c-0.1,0-0.3-0.1-0.5-0.1c-0.2,0.6-0.1,1.4,0.3,2.1c0.2,0.3,0.8,0.9,1.9,0.9
		C75.8,61.7,76,61.7,76.3,61.7 M67.4,62.2C67.4,62.3,67.3,62.3,67.4,62.2L67.4,62.2c-0.2,0.1-0.2,0-0.2,0c0.1-0.9,0.2-2.8,0.2-3.7
		c-0.4,0.1-0.6,0.1-0.6,0.1c-0.1,1.5,0.3,1.8,0.3,1.8s-0.1,1.4-0.1,1.7s0,0.6,0.4,0.6s0.4-0.4,0.5-0.6c0-0.2,0.1-1.2,0.1-1.6
		c0.2-0.1,0.3-0.4,0.3-0.7c-0.1,0.1-0.2,0.2-0.3,0.3c0,0,0.2-0.3,0.4-0.6c0-0.2,0-0.3,0-0.5c-0.1,0.1-0.3,0.2-0.4,0.3
		c0,0,0.2-0.4,0.5-0.7c0-0.1,0-0.2,0-0.3c-0.2,0-0.5,0.1-0.7,0.1C67.7,59.3,67.7,61.2,67.4,62.2 M62.4,57.6L62.4,57.6L62.4,57.6
		L62.4,57.6c-0.2,0-0.4,0.1-0.6,0.1l0,0c-0.1-0.2-0.1-0.3-0.2-0.5c0.2-0.1,0.4-0.1,0.7-0.2l0,0l0,0c0-0.1,0-0.1,0-0.2l0,0l0,0l0,0
		c-0.6,0.1-1.1,0.3-1.7,0.5l0,0l0,0c0,0,0,0.1,0.1,0.1l0,0l0,0c0.3-0.1,0.5-0.2,0.8-0.3c0.1,0.2,0.1,0.3,0.2,0.5v0.1
		c-0.2,0.1-0.4,0.1-0.7,0.2l0,0l0,0c0,0,0,0.1,0.1,0.1l0,0l0,0l0,0c0.6-0.2,1-0.3,1.5-0.4l0,0v-0.1C62.4,57.7,62.4,57.7,62.4,57.6
		 M70.3,59.9c0,0,0.3-0.5,0.6-0.8c0-0.1,0-0.1,0-0.2c-0.2,0.1-0.4,0.2-0.6,0.4c0,0,0.2-0.4,0.5-0.7c0-0.1,0-0.3,0-0.3s-0.3,0-0.6,0
		v4.2c0,0.1-0.1,0.2-0.2,0.2s-0.2-0.1-0.2-0.2v-4.2c-0.2,0-0.5,0-0.6,0c0,0,0,0.1,0,0.3c0.3,0.3,0.5,0.7,0.5,0.7
		c-0.2-0.2-0.4-0.3-0.6-0.4c0,0.1,0,0.1,0,0.2c0.3,0.3,0.6,0.8,0.6,0.8c-0.2-0.2-0.5-0.3-0.6-0.4c0,0.1,0,0.2,0,0.4
		c-0.1,0.6,0.6,1,0.6,1s0,1.3,0,1.7c0,0.5,0.5,0.5,0.5,0.5s0.5-0.1,0.5-0.5c0-0.5,0-1.7,0-1.7s0.7-0.4,0.6-1c0-0.1,0-0.2,0-0.4
		C70.8,59.5,70.4,59.7,70.3,59.9 M65.7,60.5c-0.3,0.5-0.8,0.7-1.6,0.7c-0.2,0-0.3,0-0.5,0c-2.2-0.4-3.3-3.4-3.8-5.1
		c-0.1-0.2-0.1-0.4-0.2-0.5c-0.1-0.3-0.3-0.6-0.5-0.8c0.7-0.2,1.4-0.4,1.5-0.4c0.2,0,1,0.1,1.6,1.3c0.3,0.5,0.5,1.2,0.6,1.8
		c0.3,1.2,0.6,2.3,1.5,2.7c0.3,0.2,0.6,0.2,0.9,0.2c0.1,0,0.2,0,0.4-0.1h0.1C65.8,60.3,65.7,60.5,65.7,60.5 M65.8,58.8L65.8,58.8
		c0.1,0.2,0.3,1.1-0.6,1.1c-0.2,0-0.5-0.1-0.7-0.2c-0.7-0.3-0.9-1.3-1.2-2.4c-0.2-0.7-0.4-1.4-0.7-2c-0.8-1.5-1.9-1.5-2.1-1.5
		c-0.1,0-1.5,0.4-2.4,0.5c-0.1,0-0.2,0-0.2,0c-0.4,0.1-0.7,0.5-0.7,1.2c0,0.3,0.1,0.5,0.3,0.7c0.1,0.1,0.2,0.3,0.4,0.4
		c0.1,0.1,0.2,0.1,0.2,0.2c0.3,0.2,0.5,0.4,0.5,0.7c0,0.1-0.1,0.2-0.2,0.2c0,0-0.1,0-0.2,0H58c-0.1,0-0.2,0.1-0.2,0.2
		c0,0.1,0,0.2,0.1,0.3c0.1,0,0.2,0.1,0.4,0.1s0.4,0,0.6-0.1c0.4-0.2,0.5-0.3,0.6-0.4c1,2.4,2.2,3.7,3.7,3.9c0.2,0,0.4,0,0.6,0
		c1.1,0,1.7-0.6,1.9-0.9c0.5-0.7,0.5-1.5,0.3-2.1L65.8,58.8 M79.8,56.2c-0.3-0.2-0.6-0.3-1-0.4c0.6-0.2,1.5-0.6,1.5-0.6l-1.5-0.4
		L78.6,55c0,0,0.9,0.2,1.1,0.3c-0.2,0.1-1.5,0.5-1.5,0.5s1.1,0.4,1.6,0.6V56.2z M78.9,57.9L78.9,57.9L78.9,57.9
		C79,57.8,79,57.8,78.9,57.9C79,57.8,79,57.8,78.9,57.9L78.9,57.9L78.9,57.9c-0.4-0.3-0.8-0.5-1.5-0.8l0,0v0.1v0.1l0,0l0,0
		C78,57.5,78.4,57.6,78.9,57.9 M77.2,58.4c0.1-0.2,0.2-0.6,0.6-0.6c0.1,0,0.2,0,0.3,0.1c0.2,0.1,0.4,0.2,0.4,0.4
		c0.1,0.2-0.1,0.4-0.1,0.6L77.2,58.4z M78.3,59.1L78.3,59.1c0,0,0.4-0.5,0.3-0.9c-0.1-0.2-0.2-0.4-0.6-0.5c-0.1-0.1-0.3-0.1-0.4-0.1
		c-0.7,0-0.8,0.9-0.8,0.9l0,0L78.3,59.1L78.3,59.1z M73,58.6c0,0-0.3-0.1-0.6-0.1c0,0.9,0.1,2.8,0.2,3.7c0,0.1,0,0.1-0.1,0.1l0,0
		c-0.1,0-0.1,0-0.1-0.1c-0.1-1-0.2-2.9-0.2-3.8c-0.2,0-0.4-0.1-0.7-0.1c0,0,0,0.1,0,0.3c0.3,0.3,0.5,0.7,0.5,0.7
		c-0.1-0.1-0.3-0.2-0.4-0.3c0,0.2,0,0.3,0,0.5c0.2,0.3,0.4,0.6,0.4,0.6c-0.1-0.1-0.2-0.2-0.3-0.3c0.1,0.3,0.2,0.6,0.3,0.7
		c0,0.3,0.1,1.4,0.1,1.6c0,0.2,0.1,0.6,0.5,0.6s0.4-0.3,0.4-0.6S73,60.4,73,60.4S73.2,60.1,73,58.6 M79.2,57.4L79.2,57.4L79.2,57.4
		c0.1-0.2,0.2-0.4,0.3-0.6l0,0l0,0c-0.1,0-0.1,0-0.2-0.1l0,0l0,0c-0.1,0.1-0.1,0.3-0.2,0.5C79,57.1,78.9,57,78.7,57
		c0-0.1,0-0.1,0.1-0.2c0-0.1,0.1-0.2,0.1-0.3l0,0h-0.1h-0.1l0,0l0,0c0,0.1-0.1,0.2-0.1,0.3s0,0.1-0.1,0.2c-0.1-0.1-0.3-0.1-0.4-0.2
		c0-0.1,0-0.1,0.1-0.2c0-0.1,0.1-0.2,0.1-0.3l0,0h-0.1c-0.1,0-0.1,0-0.2-0.1l0,0l-0.3,0.5l0,0l0,0C78.2,57,79.2,57.4,79.2,57.4
		 M70.2,51.2c0.1-0.3,0.3-0.7,0.8-1c0-0.2,0.1-0.4,0.1-0.6c0-0.1,0-0.2,0.1-0.3c-0.3,0-0.8,0.5-0.9,0.8S70.2,50.8,70.2,51.2
		 M81.3,9.9c0.4,0,0.8-0.3,0.8-0.8c0-0.4-0.3-0.8-0.8-0.8c-0.4,0-0.8,0.3-0.8,0.8C80.4,9.5,80.8,9.9,81.3,9.9 M83.4,11
		c0.4,0,0.8-0.4,0.8-0.8c0-0.4-0.3-0.8-0.8-0.8c-0.4,0-0.8,0.4-0.8,0.8C82.8,10.6,83,11,83.4,11 M69.9,21c-0.5,0-0.9-0.4-0.9-0.9
		s0.4-0.9,0.9-0.9s0.9,0.4,0.9,0.9S70.4,21,69.9,21 M83.8,21.8c0.2,0,0.4,0.1,0.5,0.2l0.9-1.8L82.3,19c0,0,0.9,0.7,0.6,2.2
		c-1.1-0.3-1.4-1.3-1.4-1.3L81,21.5L80.5,23c0,0,0.9-0.6,1.9-0.2l0,0c-0.6,1-1.7,1.7-2.9,1.4c-1-0.2-1.7-0.9-2-1.8
		c0.3,0,0.5-0.2,0.6-0.4c0.1-0.3-0.1-0.6-0.4-0.7h-0.1c0.1-0.4,0.5-0.7,1-0.6c0.4,0.1,0.7,0.6,0.6,1c0,0.2-0.1,0.3-0.2,0.4
		c0.5-0.1,0.9-0.5,1-1.1c0.2-0.8-0.3-1.5-1-1.7c-0.3-0.1-0.6,0-0.9,0.1c0-0.1,0.1-0.3,0.1-0.4c0.4-1.6-0.4-2.7-0.4-2.7
		s-1.2,0.7-1.5,2.3c0,0.1-0.1,0.3-0.1,0.4c-0.2-0.2-0.4-0.4-0.8-0.5c-0.7-0.2-1.5,0.3-1.6,1.1c-0.1,0.5,0.1,1.1,0.4,1.4
		c0-0.1,0-0.3,0-0.4c0.1-0.5,0.5-0.7,1-0.6c0.4,0.1,0.7,0.5,0.6,1h-0.1c-0.3-0.1-0.6,0.1-0.7,0.4s0.1,0.5,0.3,0.6
		c-0.6,0.6-1.4,0.9-2.2,0.8c-0.9-0.2-1.5-0.9-1.8-1.7l0,0c1.2,0,1.8,0.8,1.8,0.8v-3.3c0,0-0.6,0.8-1.8,0.8c0.2-1.6,1.3-1.9,1.3-1.9
		h-5.1c0,0,1.1,0.3,1.3,1.9c-1.2,0-1.8-0.8-1.8-0.8v3.3c0,0,0.6-0.8,1.8-0.8l0,0c-0.3,0.9-0.9,1.6-1.8,1.7c-0.8,0.2-1.6-0.2-2.2-0.8
		c0.2-0.1,0.4-0.4,0.3-0.6c-0.1-0.3-0.4-0.5-0.7-0.4h-0.1c-0.1-0.4,0.2-0.9,0.6-1s0.9,0.2,1,0.6c0,0.2,0,0.3,0,0.4
		c0.4-0.3,0.6-0.9,0.4-1.4c-0.2-0.8-0.9-1.2-1.6-1.1c-0.3,0.1-0.6,0.3-0.8,0.5c0-0.1,0-0.3-0.1-0.4c-0.4-1.6-1.5-2.3-1.5-2.3
		S61.7,17.5,62,19c0,0.1,0.1,0.3,0.1,0.4c-0.3-0.1-0.6-0.2-0.9-0.1c-0.7,0.2-1.2,0.9-1,1.7c0.1,0.5,0.5,0.9,1,1.1
		C61.1,22,61,21.9,61,21.7c-0.1-0.5,0.2-0.9,0.6-1s0.9,0.2,1,0.6h-0.1c-0.3,0.1-0.5,0.4-0.4,0.7s0.3,0.4,0.6,0.4
		c-0.3,0.9-1,1.6-2,1.8c-1.2,0.2-2.3-0.4-2.9-1.4l0,0c1.1-0.4,1.9,0.2,1.9,0.2l-0.5-1.5l-0.5-1.6c0,0-0.3,1-1.4,1.3
		C57,19.7,57.9,19,57.9,19l-2.9,1.2l0.9,1.7c0.1,0,0.2-0.1,0.3-0.1c0.5,0,0.9,0.4,0.9,0.9c0,0.3-0.2,0.6-0.4,0.8l1.4,2.8
		c0.1-0.1,0.3-0.2,0.4-0.3c0.2-0.1,4.3-2.5,11.6-2.5l0,0c7.2,0,11.4,2.4,11.6,2.5s0.3,0.2,0.4,0.3l1.4-2.8c-0.4-0.1-0.6-0.4-0.6-0.8
		C82.8,22.2,83.2,21.8,83.8,21.8 M78.9,9.7c0.4,0,0.8-0.4,0.8-0.8c0-0.4-0.3-0.8-0.8-0.8c-0.4,0-0.8,0.3-0.8,0.8S78.4,9.7,78.9,9.7
		 M86.8,16.3c0-0.4-0.3-0.8-0.8-0.8c-0.4,0-0.8,0.3-0.8,0.8c0,0.4,0.3,0.8,0.8,0.8C86.4,17.1,86.8,16.7,86.8,16.3 M74.4,10.8
		c0.4,0,0.8-0.3,0.8-0.8s-0.4-0.8-0.8-0.8s-0.8,0.3-0.8,0.8S73.9,10.8,74.4,10.8 M76.8,10.3c0.4,0,0.8-0.3,0.8-0.8
		c0-0.4-0.4-0.8-0.8-0.8s-0.8,0.4-0.8,0.8C75.8,9.9,76.2,10.3,76.8,10.3 M85,12.8c0.4,0,0.8-0.3,0.8-0.8s-0.4-0.8-0.8-0.8
		s-0.8,0.3-0.8,0.8S84.8,12.8,85,12.8 M69.8,28c0.7,0,1.3-0.5,1.3-1.1s-0.6-1.1-1.3-1.1c-0.7,0-1.3,0.5-1.3,1.1S69.2,28,69.8,28
		 M64.8,28.4c0.7,0,1.3-0.5,1.3-1.1s-0.7-1.1-1.3-1.1c-0.7,0-1.3,0.5-1.3,1.1C63.4,27.9,64,28.4,64.8,28.4 M86.3,18.6
		c0-0.4-0.3-0.8-0.8-0.8c-0.4,0-0.8,0.4-0.8,0.8s0.3,0.8,0.8,0.8C85.9,19.4,86.3,19,86.3,18.6 M75,28.4c0.7,0,1.3-0.5,1.3-1.1
		s-0.6-1.1-1.3-1.1c-0.7,0-1.3,0.5-1.3,1.1C73.8,27.9,74.3,28.4,75,28.4 M59,28.9c-0.1-0.1-0.2-0.3-0.3-0.5c-0.1-0.4,0.1-0.8,0.4-1
		c3.9-1.8,8-2.2,10.7-2.2s6.8,0.4,10.7,2.2c0.4,0.2,0.5,0.6,0.5,1c0,0.2-0.1,0.4-0.3,0.5l-0.8,0.7l0.8,0.7c0.2,0.2,0.3,0.5,0.3,0.9
		c-0.1,0.4-0.3,0.6-0.6,0.6c-0.1,0-0.2,0-0.4-0.1l-0.2-0.1c-4.2-1.9-7.7-2.3-10-2.3c-2.2,0-5.8,0.4-10,2.3l-0.2,0.1
		c-0.1,0-0.2,0.1-0.3,0.1c-0.3,0-0.6-0.2-0.7-0.6c-0.1-0.4,0-0.7,0.3-0.9l0.8-0.7L59,28.9z M57.9,31.3c0.2,1,1.2,1.5,2.1,1.1
		c0.5-0.2,4.6-2.3,9.8-2.3c5.2,0,9.4,2.1,9.8,2.3c0.2,0.1,0.5,0.1,0.7,0.1c0.7,0,1.3-0.5,1.5-1.3c0.2-0.7-0.1-1.4-0.6-1.7
		c0.3-0.2,0.5-0.6,0.6-1c0.2-0.8-0.2-1.6-0.9-2c-4-1.9-8.2-2.3-11-2.3s-7,0.4-11.1,2.3c-0.7,0.3-1.1,1.1-0.9,1.9
		c0.1,0.4,0.3,0.7,0.6,1C57.9,29.9,57.8,30.6,57.9,31.3 M80.8,15.2c-1.2-0.1-1.7,0-2.1-0.4l-0.1-0.1c-0.8-0.7-1.7-1.2-3.3-0.6
		c-0.6,0.2-1.1,0.5-1.4,0.7c-0.5,0.3-1.1,0.6-1.4,0.6v0.9c0.6,0,1.2-0.3,1.8-0.6c0.4-0.2,0.8-0.4,1.4-0.6c1.2-0.4,2.3,0,2.7,0.4
		l0.1,0.1c0.6,0.6,1,0.6,2.6,0.7c1.1,0.1,1.9,2,1.9,2l1.3,0.7v-0.1c1-2.3,0.9-4.5-0.2-6.3c-1.4-2.3-4.5-2.6-6.6-1.9
		c-1.6,0.6-3.3,1-5,1.1v1.4c1.9-0.1,3.7-0.5,5.5-1.2c1.5-0.6,3.7-0.3,4.6,1.2c0.7,1.1,1,2.4,0.7,3.9C82.8,16.2,81.8,15.2,80.8,15.2
		 M62.2,11.9c1.8,0.7,3.7,1.1,5.5,1.2v-1.4c-1.7-0.1-3.3-0.5-5-1.1c-2.1-0.8-5.2-0.4-6.6,1.9c-1.1,1.8-1.2,4-0.2,6.3v0.1l1.3-0.7
		c0,0,0.8-1.9,1.9-2c1.6-0.1,2-0.1,2.6-0.7l0.1-0.1c0.4-0.4,1.5-0.9,2.7-0.4c0.5,0.2,1,0.4,1.4,0.6c0.6,0.3,1.1,0.6,1.8,0.6v-0.9
		c-0.4,0-0.9-0.3-1.4-0.6c-0.5-0.2-0.9-0.5-1.5-0.7c-1.6-0.6-2.5-0.1-3.3,0.6l-0.1,0.1c-0.4,0.4-0.9,0.3-2.1,0.4
		c-1.2,0.1-1.9,1-2.4,1.8c-0.3-1.4,0-2.8,0.7-3.9C58.4,11.6,60.6,11.3,62.2,11.9 M54.4,17.8c-0.4,0-0.8,0.4-0.8,0.8s0.3,0.8,0.8,0.8
		s0.8-0.3,0.8-0.8S54.8,17.8,54.4,17.8 M61,9.7c0.4,0,0.8-0.4,0.8-0.8c0-0.4-0.4-0.8-0.8-0.8s-0.8,0.3-0.8,0.8S60.8,9.7,61,9.7
		 M54.8,12.8c0.4,0,0.8-0.3,0.8-0.8s-0.3-0.8-0.8-0.8c-0.4,0-0.8,0.3-0.8,0.8S54.4,12.8,54.8,12.8 M53.9,14.9c0.4,0,0.8-0.3,0.8-0.8
		c0-0.4-0.3-0.8-0.8-0.8c-0.4,0-0.8,0.4-0.8,0.8S53.6,14.9,53.9,14.9 M56.6,11c0.4,0,0.8-0.4,0.8-0.8c0-0.4-0.3-0.8-0.8-0.8
		c-0.4,0-0.8,0.4-0.8,0.8S56,11,56.6,11 M69.8,66.6c-0.5,0-0.9,0.4-0.9,0.9s0.4,0.9,0.9,0.9s0.9-0.4,0.9-0.9
		C70.8,66.9,70.3,66.6,69.8,66.6 M85.3,14.1c0,0.4,0.3,0.8,0.8,0.8c0.4,0,0.8-0.3,0.8-0.8c0-0.4-0.3-0.8-0.8-0.8
		C85.7,13.3,85.3,13.7,85.3,14.1 M53.9,17.1c0.4,0,0.8-0.3,0.8-0.8c0-0.4-0.3-0.8-0.8-0.8c-0.4,0-0.8,0.3-0.8,0.8
		C53.2,16.7,53.6,17.1,53.9,17.1 M63.3,10.3c0.4,0,0.8-0.3,0.8-0.8c0-0.4-0.3-0.8-0.8-0.8s-0.8,0.4-0.8,0.8
		C62.6,9.9,62.9,10.3,63.3,10.3 M58.8,9.9c0.4,0,0.8-0.3,0.8-0.8c0-0.4-0.4-0.8-0.8-0.8S58,8.6,58,9.1C57.9,9.5,58.3,9.9,58.8,9.9
		 M65.7,10.8c0.4,0,0.8-0.3,0.8-0.8s-0.5-0.8-0.8-0.8s-0.8,0.3-0.8,0.8S65.2,10.8,65.7,10.8 M71.8,9.1c-0.2,0.9-1,1.6-1.9,1.6l0,0
		c-1,0-1.7-0.7-1.9-1.6H71.8z M69.7,6.8v1.6h-1.5C68.3,7.6,68.8,6.9,69.7,6.8 M69.9,3.8c0.3,0,0.6,0.3,0.6,0.6
		c0,0.3-0.3,0.6-0.6,0.6c-0.3,0-0.6-0.3-0.6-0.6S69.8,3.8,69.9,3.8 M71.8,8.3h-1.6V6.7C71.2,6.9,71.8,7.5,71.8,8.3 M69.3,11.5
		c0.2,0.1,0.5,0.1,0.7,0.1l0,0c0.2,0,0.5,0,0.7-0.1c0,0.4-0.3,0.7-0.7,0.7S69.3,11.9,69.3,11.5 M69.9,14.5c-0.4,0-0.7-0.3-0.7-0.7
		s0.3-0.7,0.7-0.7c0.4,0,0.7,0.3,0.7,0.7S70.3,14.5,69.9,14.5 M67,8.7c0,1.1,0.6,2,1.4,2.5v5h0.8c0-0.4,0.3-0.7,0.7-0.7
		c0.4,0,0.7,0.3,0.7,0.7h0.8v-5c0.9-0.5,1.4-1.4,1.4-2.5c0-1.3-0.9-2.4-2.1-2.8c0.1-0.1,0.2-0.2,0.2-0.4S70.8,5.1,70.8,5l0,0
		c1.1-0.2,1.7,0.6,1.7,0.6V3c0,0-0.5,0.8-1.7,0.6l0,0c-0.2-1.1,0.6-1.7,0.6-1.7h-2.6c0,0,0.8,0.6,0.6,1.7l0,0
		C68.2,3.8,67.7,3,67.7,3v2.6c0,0,0.5-0.8,1.7-0.6l0,0C69.2,5.1,69,5.2,69,5.5c0,0.2,0.1,0.3,0.2,0.4C67.9,6.3,67,7.4,67,8.7
		 M52.4,60.8l1.2-0.6l0.6,1.1L53,61.9l0.4,0.8l3-1.6L56,60.3l-1.2,0.6l-0.6-1.1l1.2-0.6L55,58.4L52,60L52.4,60.8z M87.4,57.6
		c-0.6-0.2-0.9,0.1-1.2,0.5c-0.1,0.2-0.3,0.5-0.6,0.4c-0.2-0.1-0.2-0.3-0.2-0.5c0.1-0.3,0.3-0.5,0.6-0.6l-0.5-0.6
		c-0.4,0.2-0.6,0.6-0.8,1c-0.1,0.3-0.2,0.7,0,1c0.1,0.3,0.4,0.5,0.7,0.6c0.5,0.2,0.9-0.1,1.2-0.5l0.1-0.2c0.1-0.1,0.3-0.3,0.4-0.3
		c0.2,0.1,0.2,0.3,0.1,0.5s-0.2,0.4-0.4,0.5l0.5,0.6c0.3-0.2,0.5-0.6,0.6-0.9C88.3,58.5,88,57.9,87.4,57.6 M56.4,42.6
		c-0.3,0.4-0.9,0.5-1.4,0.2c-0.4-0.3-0.5-0.9-0.2-1.3c0.3-0.4,0.9-0.5,1.3-0.3C56.8,41.6,56.8,42.2,56.4,42.6 M56.8,40.5
		c-0.8-0.6-2-0.3-2.5,0.5c-0.6,0.8-0.5,2,0.3,2.6c0.9,0.7,2,0.5,2.6-0.4C57.8,42.2,57.6,41.1,56.8,40.5 M54.8,44.4
		c-0.5-0.2-0.9,0-1.2,0.4L53.4,45c-0.1,0.1-0.3,0.3-0.5,0.2s-0.2-0.3-0.1-0.5s0.3-0.4,0.4-0.4l-0.5-0.6c-0.3,0.2-0.6,0.6-0.7,0.9
		c-0.3,0.6-0.1,1.3,0.6,1.5c0.6,0.3,0.9,0,1.3-0.5c0.1-0.2,0.3-0.4,0.6-0.3c0.2,0.1,0.2,0.3,0.1,0.5c-0.1,0.3-0.4,0.5-0.6,0.6
		l0.5,0.6c0.4-0.2,0.7-0.6,0.8-0.9c0.1-0.3,0.2-0.7,0.1-1C55.4,44.7,55.2,44.5,54.8,44.4 M51.8,56.9c-0.1-0.5,0.2-1,0.6-1.2
		c0.6-0.1,1.1,0.2,1.2,0.7s-0.2,1-0.8,1.2C52.6,57.7,51.9,57.4,51.8,56.9 M53.2,58.5c1.1-0.3,1.6-1.2,1.4-2.3
		c-0.3-1.1-1.2-1.7-2.3-1.4c-1,0.2-1.5,1.3-1.3,2.3C51.3,58,52.2,58.7,53.2,58.5 M76.9,34.4l-1.3,1.5l-0.1-2l-0.7-0.3l-1.7,3
		l0.8,0.3l0.9-1.8l0,0l0,2.1l0.3,0.1l1.4-1.6l0,0l-0.4,1.9l0.8,0.3l0.6-3.4L76.9,34.4z M89.2,54.3l0.1-0.9l-3.4-0.5l-0.1,0.9
		l2.1,0.3l0,0l-2.3,1.3l-0.1,0.9l3.4,0.5l0.1-0.9l-2.1-0.3l0,0L89.2,54.3z M70.3,36.5h0.9l0.2-3.4h-0.9L70.3,36.5z M79.8,38.3
		l-0.6-0.4l0.9-0.7l0,0L79.8,38.3z M80.3,36.1l-3,2.1l0.8,0.5l0.5-0.4l1,0.7l-0.1,0.6l0.8,0.5l0.8-3.6L80.3,36.1z M83.3,61.1
		l0.7,0.4l0.5-0.9l0.5,0.3l-0.5,0.9l0.7,0.4l0.5-0.9l0.5,0.3l-0.5,0.9l0.7,0.4l1-1.7l-3-1.7L83.3,61.1z M87.4,44.1l-0.5-0.9
		l-1.1-0.1l0.5-1l-0.5-0.9l-0.9,2L83.5,44l0.5,0.8l1.4-0.8L87.4,44.1z M69.3,33l-0.9,0.1l0.2,1.8c0,0.4,0.1,0.9-0.5,1
		s-0.7-0.4-0.7-0.9l-0.2-1.8l-0.9,0.1l0.2,1.9c0,0.4,0.1,0.9,0.5,1.2c0.3,0.2,0.8,0.3,1.2,0.3c0.4,0,0.8-0.2,1.1-0.5
		c0.3-0.4,0.3-0.8,0.2-1.2L69.3,33z M64.8,36.1l-0.3-0.2l-0.7,0.4l0.7,0.3c-0.1,0.1-0.2,0.1-0.2,0.1c-0.5,0.2-1.1-0.1-1.3-0.6
		c-0.2-0.4,0.1-1,0.6-1.2c0.5-0.2,1.1,0.1,1.2,0.6C64.8,35.7,64.9,35.9,64.8,36.1 M65.8,35.2c-0.4-1-1.4-1.4-2.4-1.1
		c-0.9,0.3-1.5,1.3-1.2,2.3c0.4,1,1.4,1.5,2.4,1.1c0.3-0.1,0.6-0.3,0.8-0.5l0.4,0.2l0.7-0.4l-0.7-0.4C65.8,36.1,65.8,35.6,65.8,35.2
		 M53.9,53.1h-2.1l0,0l2.1-1.6v-0.9h-3.4v0.9h2.1l0,0l-2.1,1.6V54h3.4V53.1z M56.2,38.8l2.4,2.5l0.6-0.6l-2.4-2.5L56.2,38.8z
		 M85.8,52.4h0.8l-0.1-1.1h0.6l0.1,1l0.8-0.1l-0.1-1h0.6l0.1,1.1h0.8l-0.1-1.9L86,50.6L85.8,52.4z M82.8,38l-2.4,2.5l1.4,1.4
		l0.5-0.5l-0.8-0.7l1.9-1.9L82.8,38z M87.9,47.7L87.9,47.7c0.1,0.4,0.1,0.7-0.3,0.8c-0.4,0.1-0.5-0.2-0.6-0.5v-0.1L87.9,47.7z
		 M85.3,48.4l1.1-0.3l0.1,0.5c0.2,0.8,0.6,1.1,1.4,0.9c0.8-0.2,1-0.8,0.8-1.5l-0.3-1.3l-3.3,0.8L85.3,48.4z M59.8,36.9l-0.5-0.6
		l-1.9,1.4l0.5,0.6l0.6-0.4L60,40l0.7-0.5l-1.6-2.1L59.8,36.9z M54.3,49.1l-3.4-0.6l-0.2,0.9l3.4,0.6L54.3,49.1z"/>
	<polygon class="st0" points="43.8,66.4 11.6,66.4 11.6,62.7 41.8,62.7 	"/>
	<polygon class="st0" points="96,66.4 128.4,66.4 128.4,62.7 98,62.7 	"/>
</g>
</svg>
