<?xml version="1.0" encoding="utf-8"?>
<!-- Generator: Adobe Illustrator 22.0.1, SVG Export Plug-In . SVG Version: 6.00 Build 0)  -->
<!DOCTYPE svg PUBLIC "-//W3C//DTD SVG 1.1//EN" "http://www.w3.org/Graphics/SVG/1.1/DTD/svg11.dtd">
<svg version="1.1" id="Layer_1" xmlns="http://www.w3.org/2000/svg" xmlns:xlink="http://www.w3.org/1999/xlink" x="0px" y="0px"
	 viewBox="0 0 160 130" style="enable-background:new 0 0 160 130;" xml:space="preserve">
<style type="text/css">
	.st0{fill:#fd2e58;}
	.st1{opacity:0.0;fill:#ffffff;}
</style>
<g>
	<g>
		<path class="st0" d="M16.5,92c0,0.1,0,0.4,0,0.5c-0.1,0-0.3,0-0.3,0c-0.5,0-1.3,0-1.3,1.6v6.4c0,3.9-1.7,5.8-5.2,5.8
			c-3.9,0-5.8-1.6-5.8-4.9V94c0-1.6-0.8-1.6-1.6-1.6c0,0-0.1,0-0.2,0c0-0.1,0-0.4,0-0.5c0.1,0,5.7,0,5.9,0c0,0.1,0,0.4,0,0.5
			c-0.1,0-0.2,0-0.2,0c-0.7,0-1.6,0-1.6,1.6v6.9c0,3,1.2,4.4,3.8,4.4c2.5,0,3.8-1.6,3.8-4.5V94c0-1.6-0.9-1.6-1.5-1.6
			c0,0-0.2,0-0.3,0c0-0.1,0-0.4,0-0.5C12.1,92,16.3,92,16.5,92"/>
		<path class="st0" d="M22.8,105.4v0.5c0,0-4.8,0-5,0c0-0.1,0-0.4,0-0.5c0.1,0,0.2,0,0.2,0c1.6,0,1.8-1.2,1.8-2.6v-8.4
			c0-1.3-0.8-1.9-1.9-1.9h-0.2V92h3.9l8.5,10.4v-7.9c0-1.8-1.2-2-1.8-2c0,0-0.2,0-0.4,0c0-0.1,0-0.4,0-0.5c0.1,0,4.9,0,5,0
			c0,0.1,0,0.4,0,0.5c-0.1,0-0.2,0-0.2,0c-0.9,0-1.8,0.2-1.8,2.6v10.8l-0.7,0l-9.6-11.6l0,8.4c0,1.4,0.2,2.6,1.9,2.6"/>
		<path class="st0" d="M49.5,102.9l3.1-8.5c0.5-1.5,0.2-1.9-1.1-1.9h-0.3V92h4v0.5h-0.1c-0.4,0-0.9,0.1-1.3,1.1l-4.6,12.4h-0.9
			l-5-12.3c-0.4-1-0.9-1.2-1.7-1.2c0,0-0.1,0-0.1,0c0-0.1,0-0.4,0-0.5c0.1,0,5.6,0,5.8,0c0,0.1,0,0.4,0,0.5c-0.1,0-0.4,0-0.4,0
			c-1,0-1.2,0.6-0.9,1.4"/>
		<path class="st0" d="M74.8,92c3.1,0,4.6,1.1,4.6,3.5c0,2-1.5,3-2.8,3.5l-0.1,0l3.4,5.2c0.5,0.8,1,1.2,1.9,1.2c0,0.1,0,0.4,0,0.5
			c-0.1,0-3.6,0-3.6,0l-4.1-6.5h-1.5v4.3c0,1.6,0.7,1.7,1.7,1.7c0,0,0.2,0,0.3,0c0,0.1,0,0.4,0,0.5c-0.1,0-5.9,0-6,0
			c0-0.1,0-0.4,0-0.5c0.1,0,0.3,0,0.3,0c0.7,0,1.5-0.3,1.5-1.2V94.1c0-1.6-1-1.6-1.5-1.6c0,0-0.2,0-0.3,0c0-0.1,0-0.4,0-0.5
			C68.7,92,74.8,92,74.8,92 M72.7,92.6l0,6.2h1.2c2.2,0,3.1-1,3.1-3.2c0-1.8-1.2-3-3-3C73.6,92.5,73,92.6,72.7,92.6z"/>
		<path class="st0" d="M89.3,103.2c0-1.7-1.5-2.4-2.8-3.1c-1.6-0.8-3.4-1.7-3.4-4.2c0-2.5,1.9-4.1,4.6-4.1c1.1,0,2.4,0.2,2.9,0.3
			l0.2,2.7l-0.5,0.1c-0.2-1.4-1-2.5-2.6-2.5c-1.5,0-2.6,0.9-2.6,2.6c0,1.6,1.4,2.2,2.8,2.9c1.7,0.8,3.5,1.7,3.5,4.3
			c0,2.9-2.6,4.2-4.9,4.2c-0.9,0-2.2-0.2-3.3-0.8l-0.3-3l0.5-0.1c0.4,2,1.7,3.2,3.3,3.2C88.2,105.6,89.3,104.6,89.3,103.2"/>
		<path class="st0" d="M99.2,92c0,0.1,0,0.4,0,0.5c-0.1,0-0.2,0-0.2,0c-0.8,0-1.5,0.1-1.5,1.2v10.4c0,1.1,0.7,1.2,1.5,1.2
			c0,0,0.1,0,0.2,0c0,0.1,0,0.4,0,0.5c-0.1,0-5.7,0-5.8,0c0-0.1,0-0.4,0-0.5c0.1,0,0.2,0,0.2,0c0.8,0,1.5-0.1,1.5-1.2V93.7
			c0-1.1-0.7-1.2-1.5-1.2c0,0-0.1,0-0.2,0c0-0.1,0-0.4,0-0.5C93.5,92,99,92,99.2,92"/>
		<path class="st0" d="M40.6,92c0,0.1,0,0.4,0,0.5c-0.1,0-0.2,0-0.2,0c-0.8,0-1.5,0.1-1.5,1.2v10.4c0,1.1,0.7,1.2,1.5,1.2
			c0,0,0.1,0,0.2,0c0,0.1,0,0.4,0,0.5c-0.1,0-5.7,0-5.8,0c0-0.1,0-0.4,0-0.5c0.1,0,0.2,0,0.2,0c0.8,0,1.5-0.1,1.5-1.2V93.7
			c0-1.1-0.7-1.2-1.5-1.2c0,0-0.1,0-0.2,0c0-0.1,0-0.4,0-0.5C34.9,92,40.4,92,40.6,92"/>
		<path class="st0" d="M156.3,112l0,3.7c0,0-0.4,0.1-0.6,0.2c-0.1-1.6-0.5-2.9-3.1-2.9h-3.5v6.8h3c1.5,0,1.9-0.8,2-2.2
			c0.1,0,0.5,0,0.6,0c0,0.2,0,5.7,0,5.7l-0.6,0c-0.1-1.4-0.4-2.4-2-2.4h-3v6c0,1.7,1.5,1.7,3.1,1.7c2.9,0,4.2-0.2,5-3.1
			c0.1,0,0.6,0.1,0.6,0.1l-0.8,3.8c0,0-12.8,0-13,0c0-0.1,0-0.5,0-0.6c0.1,0,0.2,0,0.2,0c1,0,1.9-0.2,1.9-1.5v-13.1
			c0-1.4-0.9-1.5-1.9-1.5c0,0-0.1,0-0.2,0c0-0.1,0-0.5,0-0.6C144.3,112,156.3,112,156.3,112"/>
		<path class="st0" d="M85.8,112c3.9,0,5.8,1.4,5.8,4.3c0,2.5-1.9,3.7-3.5,4.4l-0.1,0l4.3,6.5c0.7,1.1,1.2,1.5,2.4,1.5
			c0,0.1,0,0.5,0,0.7c-0.2,0-4.5,0-4.5,0l-5.2-8.2h-1.9v5.4c0,2,0.9,2.1,2.1,2.1c0,0,0.2,0,0.3,0c0,0.1,0,0.5,0,0.6
			c-0.2,0-7.4,0-7.6,0c0-0.1,0-0.5,0-0.6c0.1,0,0.3,0,0.3,0c0.8,0,1.8-0.4,1.8-1.5v-12.7c0-2-1.2-2-1.8-2c0,0-0.2,0-0.3,0
			c0-0.1,0-0.5,0-0.6C78.1,112,85.8,112,85.8,112 M83.1,112.9l0,7.7h1.5c2.7,0,3.9-1.2,3.9-4c0-2.3-1.5-3.8-3.7-3.8
			C84.3,112.8,83.6,112.8,83.1,112.9z"/>
		<path class="st0" d="M103,112c0,0.1,0,0.5,0,0.6c-0.1,0-0.2,0-0.2,0c-1,0-1.9,0.2-1.9,1.5v13.1c0,1.4,0.9,1.5,1.9,1.5
			c0,0,0.1,0,0.2,0c0,0.1,0,0.5,0,0.6c-0.2,0-7.1,0-7.3,0c0-0.1,0-0.5,0-0.6c0.1,0,0.2,0,0.2,0c1,0,1.9-0.2,1.9-1.5v-13.1
			c0-1.4-0.9-1.5-1.9-1.5c0,0-0.1,0-0.2,0c0-0.1,0-0.5,0-0.6C95.9,112,102.8,112,103,112"/>
		<path class="st0" d="M102.2,92h9.2c0.5,0,1.1-0.1,1.1-0.7h0.4l-0.4,3.6l-0.5,0c0-0.8-0.2-2.1-1.5-2.1h-2.8v10.7
			c0,1.7,0.8,1.8,1.7,1.8c0,0,0.2,0,0.3,0c0,0.1,0,0.4,0,0.5c-0.1,0-6.2,0-6.3,0c0-0.1,0-0.4,0-0.5c0.1,0,0.3,0,0.3,0
			c1.1,0,1.7-0.1,1.7-1.8V92.8h-2.8c-1.4,0-1.6,0.6-1.9,2h-0.5l0.3-3.6c0,0,0.3,0,0.4,0C101.2,91.9,101.7,92,102.2,92"/>
		<path class="st0" d="M127.2,92v0.5c-0.8,0-1.3,0.6-1.6,1.1l-3.5,5.4v4.4c0,1.8,0.6,1.9,1.7,1.9c0,0,0.2,0,0.3,0c0,0.1,0,0.4,0,0.5
			c-0.1,0-6.2,0-6.3,0c0-0.1,0-0.4,0-0.5c0.1,0,0.3,0,0.3,0c1.1,0,1.7-0.3,1.7-1.7v-4.3l-3.8-5.5c-0.6-0.8-1-1.4-2-1.4h-0.1V92h5.7
			v0.5h-0.2c-1.1,0-1.2,0.6-0.7,1.3l3,4.6l2.6-4.2c0.6-0.9,0.8-1.7-0.7-1.7h-0.2l0-0.5"/>
		<path class="st0" d="M131.4,99c0-4.1,3.1-7.4,7.1-7.4c4.4,0,7.4,2.8,7.4,6.9c0,4.4-3.1,7.6-7.3,7.6
			C134.5,106.2,131.4,103.2,131.4,99 M134,98.3c0,3.4,1.5,7.1,4.8,7.1c3.1,0,4.5-2.1,4.5-6.5c0-3.2-1.7-6.6-4.9-6.6
			C134.4,92.4,134,96.9,134,98.3z"/>
		<path class="st0" d="M147.6,105.9c0-0.1,0-0.4,0-0.5c0.1,0,0.2,0,0.2,0c0.8,0,1.5-0.1,1.5-1.2V93.7c0-1.1-0.7-1.2-1.5-1.2
			c0,0-0.1,0-0.2,0c0-0.1,0-0.4,0-0.5h9.7l0,2.9c-0.1,0-0.4,0.1-0.5,0.1c-0.1-1.2-0.4-2.3-2-2.3h-3.2v5.4h2.8c1.2,0,1.3-0.9,1.3-1.6
			c0.1,0,0.4,0,0.5,0v0v4.5c-0.1,0-0.4,0-0.5,0c0-0.9-0.2-2-1.6-2h-2.5v5.2c0,1.2,1,1.2,2,1.2c0,0,0.1,0,0.2,0c0,0.1,0,0.4,0,0.5"/>
		<path class="st0" d="M3.2,120.8c0-2.6,1.1-5.1,2.9-6.8c1.7-1.5,3.9-2.4,6.4-2.4c2.2,0,4.1,0.4,5.9,1.3l0.2,4L18,117
			c-0.7-2.3-1.8-4.5-5.4-4.5c-3.8,0-6.2,3-6.2,7.8c0,4.3,1.9,8.4,6.5,8.4c2.6,0,4.4-1,5.8-2.8l0.5,0.9c-1.6,2-4,3.1-6.8,3.1
			C6.8,130,3.2,126.6,3.2,120.8"/>
		<path class="st0" d="M40.8,115.4l-0.6,10.8c-0.1,2.4,0.6,2.6,2.2,2.7h0.1v0.6h-5.9v-0.6H37c2-0.1,2.1-1.2,2.2-2.8l0.7-11
			c0.1-1.5-0.7-2.4-2.1-2.4c0,0-0.1,0-0.2,0c0-0.1,0-0.5,0-0.6c0.2,0,4.8,0,4.9,0c0.1,0.1,5.9,13.2,5.9,13.2s5.5-13.1,5.6-13.2
			c0.1,0,4.8,0,4.8,0v0.6h-0.1c-2,0-2.3,0.6-2.2,3.1l0.7,11.6c0.1,1.4,0.8,1.5,2.1,1.5c0,0.1,0,0.5,0,0.6c-0.2,0-7,0-7.2,0
			c0-0.1,0-0.5,0-0.6c0,0,0,0,0,0c1.2-0.1,2-0.1,2-1.3l0-1.3c0,0-0.5-11.2-0.5-11.2s-6,14.3-6,14.5c-0.1,0-0.4,0-0.5,0
			C47.1,129.5,40.8,115.4,40.8,115.4"/>
		<path class="st0" d="M105.8,129.5v-0.6h0.2c1,0,1.9-0.2,1.9-1.5v-13.1c0-1.4-0.9-1.5-1.9-1.5h-0.2V112l7.8,0c2.9,0,5.3,0.7,7,2.3
			c1.7,1.6,2.6,3.8,2.6,6.4c0,2.4-1,4.8-2.7,6.5c-1.7,1.7-4.1,2.3-6.5,2.3 M110.9,112.9l0,13.7c0,1.9,0.8,2.1,2.7,2.1
			c4.4,0,6.4-3.8,6.4-7.5c0-5.8-2.4-8.4-7.3-8.4C112.2,112.8,111.3,112.8,110.9,112.9z"/>
		<path class="st0" d="M138,128.6v-4.3c0-0.9-0.7-1.4-2-1.4h-0.2v-0.6h6.7v0.6h-0.2c-0.9,0-1.4,0.5-1.4,1.4l0,4.8
			c-1.6,0.5-3.7,0.9-6.1,0.9c-5.8,0-9.5-3.7-9.5-9.5c0-6.1,4.9-8.9,9.5-8.9c2.1,0,4.2,0.4,5.5,0.9l0.3,4.2l-0.6,0
			c-0.7-3-2.1-4.2-5.1-4.2c-4.1,0-6.5,3-6.5,7.8c0,4.4,2.1,8.8,6.7,8.8C136.2,129.1,137.3,128.9,138,128.6"/>
		<path class="st0" d="M67,120.5v6.1c0,1.7,0.5,2.2,2.3,2.2c2.1,0,3.7-1.7,3.7-4.1c0-2.7-1.6-4.2-4.4-4.2 M67,112.7v7h1.3
			c2.4,0,3.7-1.2,3.7-3.4c0-2.5-1.2-3.6-3.5-3.6H67z M70.6,120c2.2,0.2,3.4,0.6,4.3,1.7c0.8,0.8,1.2,1.8,1.2,2.9
			c0,2.7-2.5,4.9-5.8,4.9l-8.5,0v-0.6h0.3c0.8,0,1.8-0.4,1.8-1.5v-12.7c0-2-1.2-2-1.8-2h-0.3v-0.6l7.7,0c3.6,0,5.6,1.3,5.6,3.8
			C75.2,118.6,72.7,119.6,70.6,120"/>
		<path class="st0" d="M26.9,112c0,0-5.5,15.1-5.5,15.1c-0.4,1.1-1.1,1.7-2.2,1.7h-0.1l0,0.7h5.3l0-0.7h-0.2c-1.3,0-2.1-0.4-1.6-2.1
			l1.3-3.5h5.5l1.4,3.8c0.4,1.2-0.1,1.8-1.4,1.8h-0.2l0,0.6h6.8l0-0.6h-0.1c-0.9,0-1.5-0.5-1.9-1.7L28.3,112 M26.6,115.6l2.4,6.8
			h-4.9L26.6,115.6z"/>
		<path class="st0" d="M65.8,92l0,2.9c0,0-0.4,0.1-0.5,0.1c-0.1-1.3-0.4-2.3-2.5-2.3h-2.8v5.4h2.4c1.2,0,1.5-0.7,1.6-1.8
			c0.1,0,0.4,0,0.5,0c0,0.2,0,4.5,0,4.5l-0.5,0c-0.1-1.1-0.3-1.9-1.6-1.9h-2.4v4.8c0,1.4,1.2,1.4,2.5,1.4c2.3,0,3.3-0.1,4-2.4
			c0.1,0,0.5,0.1,0.5,0.1l-0.6,3.1c0,0-10.2,0-10.3,0c0-0.1,0-0.4,0-0.5c0.1,0,0.2,0,0.2,0c0.8,0,1.5-0.1,1.5-1.2V93.7
			c0-1.1-0.7-1.2-1.5-1.2c0,0-0.1,0-0.2,0c0-0.1,0-0.4,0-0.5C56.2,92,65.8,92,65.8,92"/>
	</g>
	<g>
		<g>
			<path class="st0" d="M55.6,7.7l-0.1-0.3l0-0.2c0-0.2,0.1-0.3,0.4-0.4c0.5-0.2,0.6-0.3,0.8-0.4l0.3-0.2l0,0c0.1,0,0.1,0.1,0.1,0.2
				c0,0.3-0.3,0.9-0.7,1.4c-0.2,0.4-0.4,0.7-0.5,0.7c-0.1,0-0.2-0.2-0.3-0.4"/>
			<path class="st0" d="M54.2,6.8L54.6,7c0.1,0.1,0.2,0.1,0.2,0.2l0,0.1c-0.1,0.2,0,0.4,0,0.5c0,0.4-0.3,0.4-0.5,0.4
				c-0.1,0,0-0.1-0.2-0.3l-0.5-0.6c-0.2-0.2-0.3-0.6-0.4-1.1l0-0.1c0-0.1,0-0.2,0.1-0.2c0.1,0,0.2,0.1,0.3,0.1"/>
			<path class="st0" d="M56.2,9L56,9l-0.4,0.2l-0.5,0l-0.1,0l-0.3,0c0,0-0.1-0.1-0.3-0.2C54.3,9,54.2,9,54.1,9
				c-0.2,0-0.4,0.1-0.4,0.3c0,0.2,0.1,0.5,0.3,1l0.3,0.8c0.3,0.7,0.5,0.9,0.9,0.9c0.3,0,0.3-0.3,0.6-0.8c0.5-1.2,0.7-1.4,0.7-1.8
				C56.5,9.1,56.5,9,56.2,9z M55.6,10.6l0,0.5c0,0.3-0.2,0.5-0.4,0.5c-0.2,0-0.3-0.1-0.4-0.4l-0.1-0.5l-0.1-0.6l0-0.1
				c0,0,0.1-0.1,0.1-0.1h0.3l0.4-0.1l0,0c0,0,0.1,0,0.1,0.1c0,0,0.1,0.1,0.1,0.1C55.7,10,55.7,10.2,55.6,10.6z"/>
			<g>
				<path class="st0" d="M69.6,21c0.1-0.3,0.1-0.4,0.1-0.7c0-0.3,0-0.7-0.1-1c-0.1-0.6-0.2-1-0.2-1.2c0-0.6-0.1-0.9-0.4-0.9
					c-0.1,0-0.2,0.1-0.2,0.2l-0.1,0.5c-0.1,0.3-0.4,0.5-0.8,0.5c-0.7,0-0.9-0.4-1.2-1.7c0-0.2-0.1-0.4-0.2-0.8l-0.1-0.4
					c0.5,0.1,0.8,0.1,1.1,0.1c1.5,0,2.5-1.1,2.5-2.7c0-1.6-1.3-3-3.3-3.7c-0.8-0.6-1.3-0.8-2.5-1c-0.4-0.4-0.7-0.6-1.7-0.9
					c-0.7-0.2-1-0.5-1-0.8c0-0.4,0.3-0.6,0.7-0.6c0.3,0,0.6,0.1,1.1,0.4c1.6,0.9,2.6,1.3,3.2,1.3c0.9,0,1.5-0.4,2.1-1.2
					c0.6-0.3,0.8-0.7,0.8-1.2c0-0.4-0.2-1-0.6-1.5c-0.4-0.5-0.8-0.9-1.1-0.9c-0.2,0-0.3,0.1-0.3,0.4c0,0.6-0.2,0.8-0.5,0.8
					c-0.2,0-0.3,0-0.5-0.1l-1-0.4C65,3.5,64,3.3,63.3,3.3c-2.1,0-3.8,1.5-3.8,3.5c0,2.6,1.6,4.1,5.5,5.2c1.9,0.5,2.5,0.8,2.5,1.1
					c0,0.1-0.1,0.1-0.1,0.2c-0.1,0.1-0.2,0.1-0.3,0.1c-0.3,0-0.6-0.1-1.8-0.4c-0.9-0.3-1.6-0.4-2.6-0.4l-1.6,0c-2.1,0-3.3-1-3.3-2.8
					c0-0.3,0-0.4,0.5-0.9c0.6-0.7,0.9-1.4,0.9-2c0-0.8-0.3-1.2-1.1-1.5V5.1l0-0.2c0-0.2-0.1-0.4-0.3-0.9c-0.1-0.2-0.1-0.3-0.2-0.4
					c0-0.1-0.1-0.1-0.1-0.1c0,0-0.1,0-0.3,0.1l-0.4,0.2c-0.2,0.1-0.3,0.2-0.5,0.4c0-0.1-0.1-0.1-0.1-0.2c-0.1-0.2-0.1-0.4-0.2-0.5
					c0-0.1-0.1-0.2-0.3-0.3c-0.4-0.4-0.4-0.4-0.5-0.6c-0.1-0.3-0.1-0.3-0.2-0.3c-0.1,0-0.1,0.1-0.2,0.2c0,0.1-0.1,0.2-0.1,0.2
					c0,0.1-0.1,0.2-0.2,0.4c-0.1,0.2-0.3,0.4-0.3,0.4C54,4,54,4,54,4.3l-0.1-0.1l-0.5-0.3l-0.4-0.4l-0.1,0c-0.3,0-0.5,0.8-0.5,1.8
					v0.2c-0.2-0.1-0.4-0.1-0.5-0.1c-0.7,0-1.2,0.5-1.2,1.3c0,0.6,0.4,1.3,1.2,2.2l0.5,0.6c0.2,0.2,0.2,0.3,0.2,0.5l0,0.4l0,0.6
					c0,0.1,0,0.3-0.1,0.7c0,0.3-0.1,0.5-0.1,0.8l0,0.4v0.2c0,1.2-0.5,2.3-1.2,2.3c-0.4,0-0.7-0.3-1-0.9c-0.3-0.6-0.4-1-0.4-1.4
					c0-0.3,0.1-0.6,0.2-0.8l0.5-0.7c0.3-0.5,0.5-1,0.5-1.5c0-0.6-0.3-1.2-1-1.7c0-0.2-0.1-0.4-0.1-0.5c-0.2-1.4-0.5-1.8-1.8-2.9
					c-0.6-0.5-1.3-0.9-1.5-0.9c-0.1,0-0.2,0-0.2,0.1c0,0.1,0.1,0.2,0.1,0.3c0.1,0.1,0.1,0.3,0.2,0.5c0.1,0.5,0.2,0.6,0.2,0.8
					c0,0.2,0,0.4-0.1,0.8l-0.2,0.9c-0.1,0.3-0.1,0.4-0.1,0.6c0,0.1,0,0.3,0,0.5c-0.8,0.2-1,0.3-1,0.6c0,0.1,0,0.1,0.2,0.4
					c0.2,0.2,0.3,0.5,0.4,0.9l0.1,0.5c0.1,0.3,0.2,0.5,0.4,0.9c-0.1,0.3-0.2,0.4-0.2,0.6c0,0.6,0.2,1,0.7,1.6l0,0.5
					c0,0.7,0.2,1.2,1,2.2c0,0.8,0.2,1.2,0.9,2c0.9,1.1,1.2,1.4,1.5,1.4c0.1,0,0.2-0.1,0.2-0.3l0-0.1l0-0.3c0-0.2,0.1-0.5,0.4-0.7
					c0.3-0.3,0.7-0.4,1-0.4c0.5,0,0.7,0.4,0.7,1c0,0.3-0.1,0.7-0.4,1.2c-0.7,1.1-1.2,1.6-1.7,1.6c-0.2,0-0.3,0-0.5-0.1l-0.5-0.2
					c-0.5-0.2-0.8-0.3-1.1-0.3c-0.4,0-1,0.3-1.5,0.6c-0.3,0.2-0.5,0.4-0.5,0.6c0,0.1,0.1,0.1,0.2,0.2c0.7,0.1,1.2,0.6,1.2,1.1
					c0,0.1,0,0.2-0.1,0.4l-0.4,0.7c-0.2,0.3-0.3,0.9-0.5,1.5l-0.1,0.6l0,0.2c0,0.2,0.1,0.3,0.1,0.3c0,0,0.1-0.1,0.2-0.2
					c0.4-0.4,0.6-0.6,1.3-0.7l0.9-0.2c0.2,0,0.5-0.1,0.6-0.2c0.1-0.1,0.2-0.1,0.3-0.1c0.2,0,0.6,0.3,1.1,0.8
					c0.1,0.1,0.1,0.1,0.2,0.1c0.1,0,0.2-0.3,0.4-0.8c0.3-0.9,0.5-1.3,0.7-1.5l0.7-0.7c0.1-0.1,0.3-0.4,0.6-0.7
					c0.1-0.2,0.2-0.4,0.3-0.5c0.1-0.2,0.2-0.3,0.2-0.3c0-0.1,0.2-0.1,0.3-0.3c0.4-0.3,0.9-0.7,1-1.1C56,21,56,20.8,56,20.8
					c0,0,0.1-0.1,0.2-0.2c0.4-0.3,0.7-0.7,1-1l0.5-0.6c0.1-0.1,0.1-0.2,0.1-0.2c0,0,0-0.1-0.1-0.1l-0.3-0.2c-0.1,0-0.1-0.1-0.1-0.2
					c0-0.1,0.2-0.3,0.5-0.5c0.6-0.3,1.3-0.6,1.7-0.6c0.2,0,0.4,0.1,0.4,0.3c0,0.1,0,0.1-0.1,0.2l-0.2,0.4c-0.1,0.2-0.3,0.7-0.3,1.1
					c0,0.6,0.2,1.1,0.9,1.9c0.4,0.6,0.6,0.9,0.6,1.2c0,0.5-0.5,0.9-1,0.9c-0.3,0-0.5-0.1-1.1-0.6c-0.4-0.3-0.8-0.5-1.2-0.5
					c-0.4,0-0.8,0.1-1.3,0.4c-0.3,0.2-0.5,0.4-0.5,0.5c0,0.1,0,0.1,0.1,0.1l0.4,0.1c0.3,0.1,0.6,0.4,0.7,0.8
					c-0.3,0.3-0.4,0.3-0.6,0.8c-0.4,0.6-0.7,1.5-0.7,1.9c0,0.1,0,0.1,0.1,0.2c0.1,0.1,0.1,0.1,0.2,0.1c0.1,0,0.1,0,0.2-0.1
					c0.3-0.1,0.9-0.2,1.3-0.2h0.8l0.3,0c0.2,0,0.3-0.1,0.4-0.1c0.2,0,0.3,0.1,0.3,0.4c0.1,0.4,0.3,0.6,0.5,0.6c0.1,0,0.1,0,0.2-0.1
					l0.2-0.4c0-0.1,0.2-0.2,0.5-0.4c0.2-0.1,0.4-0.3,0.6-0.5c0.3-0.3,0.4-0.5,0.5-0.6c0.1-0.2,0.2-0.3,0.2-0.3c0,0,0.1-0.1,0.3-0.2
					c0.6-0.4,1.1-1.1,1.3-1.9l0.2-0.3c0.5-0.7,0.7-1.1,0.8-1.4l0-0.4l0-0.1c0-0.1-0.1-0.2-0.2-0.2c0,0-0.1,0-0.2,0.1
					c-0.1,0-0.2,0-0.2,0c-0.4,0-0.7-0.3-0.7-0.7c0-0.3,0.1-0.4,0.3-0.4c0.1,0,0.2,0,0.8,0.4c0.3,0.2,0.7,0.4,0.9,0.4l1,0.4
					c0.5,0.2,0.7,0.4,0.7,0.7c0,0.3-0.3,0.6-0.8,0.7l-0.8,0.2c-0.2,0-0.4,0.2-0.6,0.4c-0.3,0.2-0.5,0.5-0.6,0.7l-0.2,0.6
					c-0.1,0.2-0.1,0.4-0.1,0.5c0,0.1,0.1,0.2,0.1,0.2l0.1,0c0.2,0,0.3,0,0.4,0c0.2,0,0.5,0.1,0.8,0.2C65,25.4,65,25.8,65,26.3
					c0,0.7,0.1,1,0.3,1c0.1,0,0.2-0.1,0.3-0.2c0.1-0.1,0.3-0.1,0.5-0.2c1.2-0.3,1.3-0.4,1.8-0.8c0.3,0.2,0.4,0.3,0.5,0.4l0.5,0.3
					l0.5,0.2c0,0,0.1-0.1,0.1-0.1c0-0.1,0-0.1-0.1-0.3c0-0.1-0.1-0.2-0.1-0.3c0-0.1,0-0.2,0.1-0.8c0-0.3,0.1-0.5,0.1-0.8
					c0-0.3,0-0.5-0.1-0.9c0.2-0.3,0.3-0.8,0.3-1.4C69.7,22.1,69.7,21.5,69.6,21z M49.5,9.7L49.5,9.7c0-0.2,0-0.3,0-0.4l0,0
					c0-0.2,0.1-0.3,0.1-0.4c0,0,0.1-0.1,0.1-0.1c0,0,0,0,0,0c0,0,0,0,0,0c0,0,0,0,0,0c0.1,0,0.1,0,0.2,0.1c0,0,0.1,0.1,0.1,0.2
					c0,0,0,0,0,0.1c0.1,0.2,0.1,0.3,0.1,0.4c0,0.2-0.1,0.4-0.1,0.6c0,0,0,0,0,0c0,0,0,0,0,0c0,0,0,0,0,0.1c-0.1,0.1-0.1,0.3-0.2,0.3
					c-0.1,0.1-0.2,0.2-0.3,0.2c0,0,0,0,0,0c0,0,0,0,0,0c-0.1,0-0.1-0.1-0.2-0.2c0-0.1-0.1-0.3-0.1-0.4C49.4,10.2,49.4,10.2,49.5,9.7
					z M52.5,17.2L52,17.3c-0.2,0-0.4,0.1-0.7,0.3c-0.4,0.2-0.6,0.4-0.6,0.5l-0.3,0.5c0,0.1-0.1,0.1-0.1,0.1c-0.1,0-0.4-0.2-0.6-0.7
					c-0.2-0.4-0.3-0.6-0.3-0.8c0-0.1,0.1-0.1,0.2-0.1h0l0.3,0l0.2,0l0.2,0c0.1,0,0.1-0.1,0.1-0.2c0-0.1,0-0.1-0.1-0.1l-1.1-0.4
					c-0.3-0.1-0.6-0.4-0.8-0.8c-0.3-0.6-0.4-0.9-0.4-1.1c0-0.1,0.1-0.2,0.2-0.2c0,0,0.1,0,0.2,0.1c0.1,0.1,0.2,0.1,0.3,0.1
					c0.1,0,0.2-0.1,0.2-0.1c0-0.1-0.1-0.2-0.2-0.3c-0.9-0.6-1.4-1.4-1.4-2c0-0.2,0-0.3,0.1-0.3l0.2,0l0.3,0h0c0.1,0,0.2-0.1,0.2-0.2
					c0-0.1-0.1-0.2-0.2-0.2c-0.2-0.1-0.3-0.2-0.4-0.2c-0.1-0.1-0.2-0.2-0.3-0.3c0-0.1-0.2-0.3-0.4-0.8l-0.3-0.6
					c-0.1-0.2-0.2-0.4-0.2-0.4c0,0-0.1-0.1-0.1-0.2c0.3-0.1,0.5-0.2,0.7-0.2c0.3,0,0.5,0.2,0.8,0.8c0.1,0.4,0.3,0.6,0.4,0.6
					c0,0,0.1-0.1,0.1-0.3c0-0.2,0-0.5-0.1-0.7C48,8.9,48,8.7,48,8.6l0-0.3l-0.3-0.1c-0.1,0-0.1-0.1-0.2-0.2
					c-0.1-0.2-0.2-0.4-0.2-0.5c0-0.1,0-0.3,0.1-0.4c0.2-0.9,0.3-1.2,0.3-1.5l0-0.2l0.2,0.2l0.3,0.3C48.7,6.3,49,7.2,49,8.4
					c0,0.3,0,0.5-0.1,1.2c0,0.4,0,0.7,0,1c0,2.9,0.9,5.1,2.2,5.1c0.4,0,0.6-0.2,1-0.8c0.1-0.1,0.2-0.2,0.2-0.2
					c0.1,0,0.1,0.1,0.1,0.2l0,0.5l0,0.4l0,0.5l0.1,0.4l0,0.1C52.6,17.1,52.6,17.2,52.5,17.2z M47.9,22.3l-0.2-0.2
					c0.3-0.3,0.6-0.4,1-0.4c0.2,0,0.5,0.1,0.9,0.2c0.2,0.1,0.4,0.2,0.4,0.2c0.2,0.1,0.4,0.1,0.7,0.2c-0.6,0.6-1,0.8-1.5,0.8
					c-0.1,0-0.3-0.1-0.4-0.1l-0.4-0.4L47.9,22.3z M56.8,23c0.4-0.2,0.6-0.3,0.8-0.3c0.3,0,0.6,0.1,0.8,0.3l0.3,0.2l0.3,0.2
					c0.1,0.1,0.1,0.1,0.1,0.2c0,0.1-0.1,0.2-0.5,0.2l-0.2,0c-0.1,0-0.3,0-0.3,0c-0.2,0-0.3,0-0.5-0.3C57.3,23.4,57,23.2,56.8,23z
					 M63.3,21.3c0.1,0.1,0.2,0.1,0.2,0.2c0,0,0,0.1-0.1,0.2l-0.2,0.4c-0.1,0.1-0.2,0.2-0.2,0.2c-0.1,0-0.1,0-0.2-0.1L62.7,22
					c0,0-0.1-0.1-0.2-0.1c-0.1,0-0.2,0.1-0.2,0.2c0,0.1,0,0.2,0.1,0.4c0.1,0.2,0.1,0.3,0.2,0.4c0,0.1,0.1,0.2,0.1,0.3
					c0,0.2-0.1,0.3-0.2,0.5L62.2,24c-0.1,0.2-0.3,0.3-0.3,0.3c-0.1,0-0.2,0-0.2-0.1l-0.1-0.3c0,0-0.1-0.1-0.1-0.1
					c-0.2,0-0.2,0.1-0.2,0.4v0.3v0.2c0,0.3-0.3,0.8-1,1.3c-0.3,0.2-0.3,0.3-0.5,0.6c-0.2-0.3-0.3-0.4-0.3-0.6c0-0.4,0.1-0.6,0.4-0.9
					c0.1-0.2,0.2-0.3,0.2-0.4c0-0.1,0-0.1-0.1-0.1l-0.1,0l-0.3,0.2L59.2,25c-0.3,0.1-0.5,0.3-0.8,0.7c-0.2,0.3-0.2,0.3-0.6,0.3
					l-0.1,0l-0.3,0c-0.6,0-0.7,0-1,0.2c0.2-0.9,0.6-1.5,1.4-1.7l1.1-0.3c1.7-0.4,2.6-1.1,2.6-2.1c0-0.3-0.2-0.8-0.5-1.3
					c-0.8-1.4-0.9-1.6-0.9-2.2c0-0.3,0.2-0.8,0.4-0.9l0.3-0.2l0.3-0.4l0.3-0.1l0.2-0.1l0.1,0c0.1,0,0.2,0.1,0.3,0.5
					c0,0,0.1,0.2,0.3,0.5c0.2,0.2,0.2,0.5,0.2,0.7c0,0.1,0,0.3-0.1,0.4l-0.2,0.4c0,0.1,0,0.2,0,0.3c0,0.7,0.3,1.3,0.7,1.5L63.3,21.3
					z M65.1,24.3l-0.1,0l-0.2,0l-0.2,0l-0.1,0c0.2-0.8,0.6-1.2,1.3-1.2c0.3,0,0.4,0.1,0.4,0.3C66.1,23.8,65.6,24.3,65.1,24.3z
					 M68.2,20.7l0.3,0.3l0.4,0.4c0.1,0.1,0.1,0.4,0.1,0.8c0,0.4-0.1,0.6-0.2,0.6c-0.1,0-0.1,0-0.2-0.1c-0.2-0.1-0.2-0.1-0.3-0.1
					c-0.1,0-0.2,0.1-0.2,0.2c0,0,0,0.1,0,0.2c0.1,0.2,0.1,0.3,0.2,0.4l0.3,0.4c0.1,0.1,0.2,0.4,0.2,0.7l0,0.3l-0.1,0.4l0,0.2
					c0,0.1,0,0.3,0.1,0.6c-0.5-0.2-0.7-0.4-0.8-0.7l-0.4-0.8c0-0.1-0.1-0.1-0.2-0.1c0,0-0.1,0-0.1,0.1c-0.1,0.1-0.2,0.3-0.2,0.5
					l0,0.1l0.1,0.5l0,0.1c0,0.2-0.2,0.4-0.3,0.5L66.2,26c-0.1,0-0.2,0.1-0.4,0.2c-0.1,0-0.1,0.1-0.3,0.1l0-0.2c0-0.9,0.3-1.5,1.3-3
					c0.5-0.7,0.7-1.2,0.7-1.7c0-0.8-0.4-1.1-1.7-1.6c-1.4-0.4-2.1-1.2-4.1-4.4c-0.3-0.5-0.7-0.9-0.9-0.9c0,0-0.1,0-0.1,0.1l0,0.1
					c0,0,0,0.1,0.1,0.2c0.2,0.3,0.4,0.6,0.4,0.7c0,0.2-0.2,0.4-0.4,0.4c-0.1,0-0.3,0-0.5-0.1c-0.1,0-0.3,0-0.4,0
					c-0.2,0-0.3,0-0.5,0.1l-0.8,0.3c-0.4,0.1-0.6,0.2-0.7,0.3c-0.2,0.1-0.3,0.1-0.4,0.1c-0.1,0-0.2-0.1-0.2-0.2c0-0.1,0-0.1,0.1-0.3
					c0-0.1,0.1-0.1,0.1-0.2c0-0.1-0.1-0.2-0.2-0.2c-0.1,0-0.2,0.1-0.5,0.7c-0.1,0.2-0.2,0.4-0.3,0.6c-0.2,0.4-0.3,0.5-0.3,0.8
					c0,0.3,0,0.3,0.3,0.5c0.1,0.1,0.2,0.2,0.2,0.3c0,0.1,0,0.1-0.1,0.2c-0.2,0.3-0.4,0.6-0.5,0.6c-0.1,0-0.1-0.1-0.2-0.2l-0.1-0.3
					c0,0-0.1-0.1-0.1-0.1c-0.2,0-0.2,0.1-0.2,0.6c0,0.4-0.1,0.7-0.2,1c-0.2,0.3-0.4,0.6-0.6,0.6c-0.1,0-0.3-0.1-0.3-0.3l-0.1-0.5
					c0,0-0.1,0-0.1,0c-0.1,0-0.2,0.1-0.2,0.3l0,0.1l0.1,0.4l0,0.3c0,0.2-0.1,0.4-0.2,0.6c-0.3,0.5-0.6,0.8-0.8,0.8
					c-0.1,0-0.2-0.1-0.2-0.2l-0.1-0.4c0,0-0.1-0.1-0.2-0.1c-0.1,0-0.2,0.1-0.2,0.2l0,0.2c0,0.2,0.1,0.5,0.1,0.7c0,0.5-0.1,0.8-0.2,1
					L51.8,25c-0.2,0.3-0.2,0.4-0.3,1c-0.5-0.3-0.8-0.7-0.8-1.2l0-0.2L51,24l0-0.1c0-0.1,0-0.1-0.1-0.1c-0.1,0-0.2,0.1-0.3,0.3
					c-0.1,0.1-0.2,0.2-0.4,0.3c-0.5,0.3-0.6,0.3-0.6,0.4l-0.1,0.3c-0.1,0.3-0.2,0.4-0.9,0.6c-0.3,0.1-0.4,0.1-0.8,0.3l0-0.3
					c0.1-1,0.4-1.5,1.3-1.9c2.5-1.2,4.8-3.9,4.8-5.7c0-0.2,0-0.4-0.1-0.6l-0.5-1.2c-0.2-0.6-0.5-1.9-0.5-2.9c0-1.6,0.1-1.9,0.5-1.9
					l0.2,0c0.1,0,0.2,0.1,0.3,0.1c0.1,0,0.2,0.1,0.2,0.1c0.1,0,0.1-0.1,0.1-0.1c0-0.1,0-0.1-0.3-0.5c-0.1-0.1-0.2-0.4-0.4-0.8
					c-0.1-0.3-0.2-0.6-0.3-0.9l-0.2-1.1l-0.2-0.9C52.6,7.1,52.5,7,52.4,7c-0.1,0-0.1,0.1-0.1,0.2l0,0.2l0.1,0.4l-0.1,0.5
					c0,0.1-0.2,0-0.2-0.1l-0.3-0.4c-0.2-0.3-0.4-0.8-0.4-1.2c0-0.4,0.2-0.7,0.6-0.7c0.1,0,0.2,0,0.3,0.1c0.1,0.1,0.2,0.1,0.3,0.1
					c0.1,0,0.2-0.1,0.2-0.3l0-0.1l0-0.4l0-0.4c0-0.1,0-0.2,0.1-0.4c0,0,0.1-0.1,0.1-0.2l0.2,0.2l0.4,0.3l0.3,0.3L54,5.3l0.1,0
					c0.1,0,0.1-0.1,0.1-0.2l0-0.1l0,0c0-0.1,0-0.2,0-0.3c0.1-0.2,0.1-0.4,0.2-0.5l0.3-0.3l0.2-0.2l0.1-0.2c0.5,0.3,0.8,0.8,0.8,1.3
					l0,0.1c0,0.2-0.1,0.3-0.1,0.4c0,0.1,0.1,0.1,0.1,0.1c0.1,0,0.2-0.1,0.4-0.3c0.2-0.2,0.4-0.4,0.9-0.7l0.1,0.3l0.1,0.2l0,0.3v0.3
					v0.3c0,0,0.1,0.1,0.2,0.1L58.1,6l0.5,0.9l0,0.1c0,0.1,0,0.3-0.1,0.5c-0.2,0.5-0.4,0.8-0.6,0.8c-0.1,0-0.1-0.2-0.1-0.4l0-0.2
					l0-0.3c0-0.3,0-0.4-0.2-0.4c-0.2,0-0.3,0.8-0.4,2c-0.1,0.9-0.2,1.5-0.4,1.8c-0.3,0.4-0.4,0.7-0.4,1c0,0.1,0,0.1,0.1,0.1
					c0,0,0.1,0,0.2-0.1l0.3-0.1l0.2,0c0.2,0,0.3,0.1,0.5,0.5l0.2,0.3c0.2,0.3,0.2,0.4,0.2,0.5c0,0.1-0.1,0.2-0.3,0.2
					c-0.2,0-0.3-0.1-0.5-0.2l-0.2-0.2c-0.1-0.1-0.1-0.1-0.2-0.1c-0.1,0-0.1,0.1-0.1,0.2l0,0.2l0,0.3l0,0.2c0,0.4-0.1,0.6-0.3,0.6
					l0,0c-0.1,0-0.1-0.1-0.3-0.2c-0.1-0.1-0.2-0.2-0.3-0.4c-0.1-0.2-0.2-0.4-0.2-0.4c0,0-0.1,0-0.1,0c-0.1,0-0.2,0.2-0.2,0.7
					c-0.1,0.6-0.4,1.2-0.6,1.2c-0.1,0-0.2,0-0.2-0.1l-0.3-0.6c-0.1-0.3-0.2-0.5-0.2-0.6c0-0.5-0.1-0.7-0.2-0.7c-0.1,0-0.1,0-0.2,0.3
					c0,0.1-0.1,0.3-0.3,0.6c-0.1,0.1-0.1,0.2-0.1,0.2c0,0,0,0.1,0.1,0.2l0.5,0.4c0.2,0.2,0.4,0.4,0.5,0.7c0.2,0.6,0.4,0.7,0.6,0.7
					c0.1,0,0.2-0.1,0.3-0.1c0,0,0.2-0.2,0.4-0.6c0.2-0.3,0.4-0.4,0.7-0.4l0,0l0.3,0l0.2,0c0.3,0,0.4,0,0.7-0.3
					c1.1-1.1,2.4-1.5,4.7-1.5c1.1,0,2,0.1,2.9,0.3c1,0.2,1.5,0.4,1.6,0.4c0.2,0,0.3,0,0.6,0c0.5,0,1-0.4,1-0.9
					c0-0.8-0.4-1.1-3.6-2.2c-3.3-1.1-4.6-2.3-4.6-4.2c0-1.7,1.4-2.9,3.2-2.9c0.6,0,1.2,0.1,2.5,0.5l1.5,0.5C67.5,5,67.6,5,67.7,5
					c0.3,0,0.5-0.2,0.5-0.5l0-0.3l0-0.2c0-0.1,0.1-0.2,0.1-0.2c0,0,0.1,0,0.2,0.1c0.2,0.3,0.4,0.8,0.4,1c0,0.4-0.3,0.8-0.8,0.8
					c-0.3,0-1.1-0.2-1.6-0.3l-1-0.4c-0.2,0-0.5-0.1-0.9-0.3c-0.1-0.1-0.2-0.1-0.3-0.1s-0.1,0-0.1,0.1c0,0.1,0.1,0.2,0.3,0.2
					c0.1,0,0.4,0.2,0.8,0.4c0.2,0.1,0.6,0.3,1.2,0.6c0.3,0.1,0.5,0.2,0.6,0.2l0.5,0.1l0.1,0c0,0,0.1,0.1,0.1,0.1c0,0,0,0.1-0.1,0.1
					c-0.1,0-0.2,0.1-0.3,0.1c-0.2,0.1-0.5,0.1-0.7,0.1c-0.3,0-0.9-0.2-1.3-0.4l-1.1-0.7c-0.6-0.4-1.3-0.6-1.8-0.6
					c-1,0-1.7,0.8-1.7,1.8c0,0.4,0.1,0.9,0.4,1.3c0.3,0.5,0.7,0.9,0.9,0.9c0.1,0,0.1-0.1,0.1-0.1c0-0.1-0.1-0.2-0.2-0.5
					C62,8.4,62,8.3,62,8.2c0-0.1,0-0.1,0.1-0.1c0.1,0,0.2,0,0.3,0.1c0.1,0,0.3,0.1,0.6,0.3c0.5,0.3,0.7,0.4,1,0.8l0.3,0.5l0.4,0.4
					c0.1,0.1,0.3,0.2,0.4,0.2c0.1,0,0.1,0,0.1-0.1c0,0,0-0.1-0.1-0.2l-0.2-0.4c-0.1-0.2-0.1-0.3-0.1-0.3c0-0.1,0.1-0.1,0.2-0.1
					c0.7,0,1.4,0.6,1.9,1.5c0.2,0.3,0.3,0.5,0.4,0.5c0.1,0,0.2-0.1,0.2-0.2l0,0l0-0.3c0-0.1,0.1-0.1,0.1-0.1c0.1,0,0.4,0.2,0.8,0.5
					c0.6,0.5,1,1.4,1,2.1c0,1.1-0.7,1.7-1.9,1.7c-0.4,0-0.9-0.1-1.6-0.3c-0.6-0.2-1-0.3-1.3-0.3l-0.8-0.1c-0.2,0-0.3,0-0.3,0.1
					c0,0.1,0.1,0.1,0.1,0.1l0.4,0c0.1,0,0.3,0.1,0.5,0.3c0.6,0.5,1,1,1.1,1.4l0.5,1.5c0.3,0.8,1.1,1.5,1.8,1.5l0.1,0l0.6-0.1l0.1,0
					c0.1,0,0.1,0,0.2,0.2l0.1,0.5l0.1,0.5l0,0.1c0,0.1,0,0.2-0.1,0.2l-0.1,0c-0.2-0.1-0.4-0.1-0.5-0.1c-0.1,0-0.2,0.1-0.2,0.2
					C68.1,20.5,68.1,20.6,68.2,20.7z"/>
			</g>
		</g>
		<polyline class="st1" points="79.8,83.5 87.4,79.8 87.6,79.7 87.5,79.6 87.5,44.9 87.5,44.7 87.7,44.8 114.9,44.8 115.2,44.8
			115.1,44.5 115.1,29.8 115.2,29.6 114.9,29.7 87.7,29.7 87.5,29.7 87.5,29.5 87.5,1.9 87.6,1.7 87.4,1.7 72.4,1.7 72.2,1.7
			72.3,1.9 72.3,29.5 72.3,29.7 72.1,29.7 45.1,29.7 44.8,29.6 44.9,29.8 44.9,44.7 44.8,44.8 45.1,44.8 72.1,44.8 72.3,44.7
			72.3,45 72.3,79.5 72.2,79.8 72.4,79.8 		"/>
		<g>
			<path class="st0" d="M99.6,7.7l-0.1-0.3l0-0.2c0-0.2,0.1-0.3,0.4-0.4c0.5-0.2,0.6-0.3,0.8-0.4l0.3-0.2l0,0c0.1,0,0.1,0.1,0.1,0.2
				c0,0.3-0.3,0.9-0.7,1.4c-0.2,0.4-0.4,0.7-0.5,0.7c-0.1,0-0.2-0.2-0.3-0.4"/>
			<path class="st0" d="M98.2,6.8L98.6,7c0.1,0.1,0.2,0.1,0.2,0.2l0,0.1c-0.1,0.2,0,0.4,0,0.5c0,0.4-0.3,0.4-0.5,0.4
				c-0.1,0,0-0.1-0.2-0.3l-0.5-0.6c-0.2-0.2-0.3-0.6-0.4-1.1l0-0.1c0-0.1,0-0.2,0.1-0.2c0.1,0,0.2,0.1,0.3,0.1"/>
			<path class="st0" d="M100.2,9L100,9l-0.4,0.2l-0.5,0l-0.1,0l-0.3,0c0,0-0.1-0.1-0.3-0.2C98.3,9,98.2,9,98.1,9
				c-0.2,0-0.4,0.1-0.4,0.3c0,0.2,0.1,0.5,0.3,1l0.3,0.8c0.3,0.7,0.5,0.9,0.9,0.9c0.3,0,0.3-0.3,0.6-0.8c0.5-1.2,0.7-1.4,0.7-1.8
				C100.5,9.1,100.4,9,100.2,9z M99.6,10.6l0,0.5c0,0.3-0.2,0.5-0.4,0.5c-0.2,0-0.3-0.1-0.4-0.4l-0.1-0.5l-0.1-0.6l0-0.1
				c0,0,0.1-0.1,0.1-0.1h0.3l0.4-0.1l0,0c0,0,0.1,0,0.1,0.1c0,0,0.1,0.1,0.1,0.1C99.6,10,99.6,10.2,99.6,10.6z"/>
			<g>
				<path class="st0" d="M113.6,21c0.1-0.3,0.1-0.4,0.1-0.7c0-0.3,0-0.7-0.1-1c-0.1-0.6-0.2-1-0.2-1.2c0-0.6-0.1-0.9-0.4-0.9
					c-0.1,0-0.2,0.1-0.2,0.2l-0.1,0.5c-0.1,0.3-0.4,0.5-0.8,0.5c-0.7,0-0.9-0.4-1.2-1.7c0-0.2-0.1-0.4-0.2-0.8l-0.1-0.4
					c0.5,0.1,0.8,0.1,1.1,0.1c1.5,0,2.5-1.1,2.5-2.7c0-1.6-1.3-3-3.3-3.7c-0.8-0.6-1.3-0.8-2.5-1c-0.4-0.4-0.7-0.6-1.7-0.9
					c-0.7-0.2-1-0.5-1-0.8c0-0.4,0.3-0.6,0.7-0.6c0.3,0,0.6,0.1,1.1,0.4c1.6,0.9,2.6,1.3,3.2,1.3c0.9,0,1.5-0.4,2.1-1.2
					c0.6-0.3,0.8-0.7,0.8-1.2c0-0.4-0.2-1-0.6-1.5c-0.4-0.5-0.8-0.9-1.1-0.9c-0.2,0-0.3,0.1-0.3,0.4c0,0.6-0.2,0.8-0.5,0.8
					c-0.2,0-0.3,0-0.5-0.1l-1-0.4c-0.6-0.2-1.7-0.4-2.4-0.4c-2.1,0-3.8,1.5-3.8,3.5c0,2.6,1.6,4.1,5.5,5.2c1.9,0.5,2.5,0.8,2.5,1.1
					c0,0.1-0.1,0.1-0.1,0.2c-0.1,0.1-0.2,0.1-0.3,0.1c-0.3,0-0.6-0.1-1.8-0.4c-0.9-0.3-1.6-0.4-2.6-0.4l-1.6,0c-2.1,0-3.3-1-3.3-2.8
					c0-0.3,0-0.4,0.5-0.9c0.6-0.7,0.9-1.4,0.9-2c0-0.8-0.3-1.2-1.1-1.5V5.1l0-0.2c0-0.2-0.1-0.4-0.3-0.9c-0.1-0.2-0.1-0.3-0.2-0.4
					c0-0.1-0.1-0.1-0.1-0.1c0,0-0.1,0-0.3,0.1l-0.4,0.2c-0.2,0.1-0.3,0.2-0.5,0.4c0-0.1-0.1-0.1-0.1-0.2c-0.1-0.2-0.1-0.4-0.2-0.5
					c0-0.1-0.1-0.2-0.3-0.3c-0.4-0.4-0.4-0.4-0.5-0.6c-0.1-0.3-0.1-0.3-0.2-0.3c-0.1,0-0.1,0.1-0.2,0.2c0,0.1-0.1,0.2-0.1,0.2
					c0,0.1-0.1,0.2-0.2,0.4c-0.1,0.2-0.3,0.4-0.3,0.4C98,4,97.9,4,97.9,4.3l-0.1-0.1l-0.5-0.3l-0.4-0.4l-0.1,0
					c-0.3,0-0.5,0.8-0.5,1.8v0.2c-0.2-0.1-0.4-0.1-0.5-0.1c-0.7,0-1.2,0.5-1.2,1.3c0,0.6,0.4,1.3,1.2,2.2l0.5,0.6
					c0.2,0.2,0.2,0.3,0.2,0.5l0,0.4l0,0.6c0,0.1,0,0.3-0.1,0.7c0,0.3-0.1,0.5-0.1,0.8l0,0.4v0.2c0,1.2-0.5,2.3-1.2,2.3
					c-0.4,0-0.7-0.3-1-0.9c-0.3-0.6-0.4-1-0.4-1.4c0-0.3,0.1-0.6,0.2-0.8l0.5-0.7c0.3-0.5,0.5-1,0.5-1.5c0-0.6-0.3-1.2-1-1.7
					c0-0.2-0.1-0.4-0.1-0.5c-0.2-1.4-0.5-1.8-1.8-2.9c-0.6-0.5-1.3-0.9-1.5-0.9c-0.1,0-0.2,0-0.2,0.1c0,0.1,0.1,0.2,0.1,0.3
					c0.1,0.1,0.1,0.3,0.2,0.5c0.1,0.5,0.2,0.6,0.2,0.8c0,0.2,0,0.4-0.1,0.8l-0.2,0.9c-0.1,0.3-0.1,0.4-0.1,0.6c0,0.1,0,0.3,0,0.5
					c-0.8,0.2-1,0.3-1,0.6c0,0.1,0,0.1,0.2,0.4c0.2,0.2,0.3,0.5,0.4,0.9l0.1,0.5c0.1,0.3,0.2,0.5,0.4,0.9c-0.1,0.3-0.2,0.4-0.2,0.6
					c0,0.6,0.2,1,0.7,1.6l0,0.5c0,0.7,0.2,1.2,1,2.2c0,0.8,0.2,1.2,0.9,2c0.9,1.1,1.2,1.4,1.5,1.4c0.1,0,0.2-0.1,0.2-0.3l0-0.1
					l0-0.3c0-0.2,0.1-0.5,0.4-0.7c0.3-0.3,0.7-0.4,1-0.4c0.5,0,0.7,0.4,0.7,1c0,0.3-0.1,0.7-0.4,1.2c-0.7,1.1-1.2,1.6-1.7,1.6
					c-0.2,0-0.3,0-0.5-0.1l-0.5-0.2c-0.5-0.2-0.8-0.3-1.1-0.3c-0.4,0-1,0.3-1.5,0.6c-0.3,0.2-0.5,0.4-0.5,0.6c0,0.1,0.1,0.1,0.2,0.2
					c0.7,0.1,1.2,0.6,1.2,1.1c0,0.1,0,0.2-0.1,0.4l-0.4,0.7c-0.2,0.3-0.3,0.9-0.5,1.5l-0.1,0.6l0,0.2c0,0.2,0.1,0.3,0.1,0.3
					c0,0,0.1-0.1,0.2-0.2c0.4-0.4,0.6-0.6,1.3-0.7l0.9-0.2c0.2,0,0.5-0.1,0.6-0.2c0.1-0.1,0.2-0.1,0.3-0.1c0.2,0,0.6,0.3,1.1,0.8
					c0.1,0.1,0.1,0.1,0.2,0.1c0.1,0,0.2-0.3,0.4-0.8c0.3-0.9,0.5-1.3,0.7-1.5l0.7-0.7c0.1-0.1,0.3-0.4,0.6-0.7
					c0.1-0.2,0.2-0.4,0.3-0.5c0.1-0.2,0.2-0.3,0.2-0.3c0-0.1,0.2-0.1,0.3-0.3c0.4-0.3,0.9-0.7,1-1.1c0.1-0.2,0.2-0.3,0.2-0.4
					c0,0,0.1-0.1,0.2-0.2c0.4-0.3,0.7-0.7,1-1l0.5-0.6c0.1-0.1,0.1-0.2,0.1-0.2c0,0,0-0.1-0.1-0.1l-0.3-0.2c-0.1,0-0.1-0.1-0.1-0.2
					c0-0.1,0.2-0.3,0.5-0.5c0.6-0.3,1.3-0.6,1.7-0.6c0.2,0,0.4,0.1,0.4,0.3c0,0.1,0,0.1-0.1,0.2l-0.2,0.4c-0.1,0.2-0.3,0.7-0.3,1.1
					c0,0.6,0.2,1.1,0.9,1.9c0.4,0.6,0.6,0.9,0.6,1.2c0,0.5-0.5,0.9-1,0.9c-0.3,0-0.5-0.1-1.1-0.6c-0.4-0.3-0.8-0.5-1.2-0.5
					c-0.4,0-0.8,0.1-1.3,0.4c-0.3,0.2-0.5,0.4-0.5,0.5c0,0.1,0,0.1,0.1,0.1l0.4,0.1c0.3,0.1,0.6,0.4,0.7,0.8
					c-0.3,0.3-0.4,0.3-0.6,0.8c-0.4,0.6-0.7,1.5-0.7,1.9c0,0.1,0,0.1,0.1,0.2c0.1,0.1,0.1,0.1,0.2,0.1c0.1,0,0.1,0,0.2-0.1
					c0.3-0.1,0.9-0.2,1.3-0.2h0.8l0.3,0c0.2,0,0.3-0.1,0.4-0.1c0.2,0,0.3,0.1,0.3,0.4c0.1,0.4,0.3,0.6,0.5,0.6c0.1,0,0.1,0,0.2-0.1
					l0.2-0.4c0-0.1,0.2-0.2,0.5-0.4c0.2-0.1,0.4-0.3,0.6-0.5c0.3-0.3,0.4-0.5,0.5-0.6c0.1-0.2,0.2-0.3,0.2-0.3c0,0,0.1-0.1,0.3-0.2
					c0.6-0.4,1.1-1.1,1.3-1.9l0.2-0.3c0.5-0.7,0.7-1.1,0.8-1.4l0-0.4l0-0.1c0-0.1-0.1-0.2-0.2-0.2c0,0-0.1,0-0.2,0.1
					c-0.1,0-0.2,0-0.2,0c-0.4,0-0.7-0.3-0.7-0.7c0-0.3,0.1-0.4,0.3-0.4c0.1,0,0.2,0,0.8,0.4c0.3,0.2,0.7,0.4,0.9,0.4l1,0.4
					c0.5,0.2,0.7,0.4,0.7,0.7c0,0.3-0.3,0.6-0.8,0.7l-0.8,0.2c-0.2,0-0.4,0.2-0.6,0.4c-0.3,0.2-0.5,0.5-0.6,0.7l-0.2,0.6
					c-0.1,0.2-0.1,0.4-0.1,0.5c0,0.1,0.1,0.2,0.1,0.2l0.1,0c0.2,0,0.3,0,0.4,0c0.2,0,0.5,0.1,0.8,0.2c-0.1,0.3-0.1,0.8-0.1,1.3
					c0,0.7,0.1,1,0.3,1c0.1,0,0.2-0.1,0.3-0.2c0.1-0.1,0.3-0.1,0.5-0.2c1.2-0.3,1.3-0.4,1.8-0.8c0.3,0.2,0.4,0.3,0.5,0.4l0.5,0.3
					l0.5,0.2c0,0,0.1-0.1,0.1-0.1c0-0.1,0-0.1-0.1-0.3c0-0.1-0.1-0.2-0.1-0.3c0-0.1,0-0.2,0.1-0.8c0-0.3,0.1-0.5,0.1-0.8
					c0-0.3,0-0.5-0.1-0.9c0.2-0.3,0.3-0.8,0.3-1.4C113.7,22.1,113.6,21.5,113.6,21z M93.5,9.7L93.5,9.7c0-0.2,0-0.3,0-0.4l0,0
					c0-0.2,0.1-0.3,0.1-0.4c0,0,0.1-0.1,0.1-0.1c0,0,0,0,0,0c0,0,0,0,0,0c0,0,0,0,0,0c0.1,0,0.1,0,0.2,0.1c0,0,0.1,0.1,0.1,0.2
					c0,0,0,0,0,0.1c0.1,0.2,0.1,0.3,0.1,0.4c0,0.2-0.1,0.4-0.1,0.6c0,0,0,0,0,0c0,0,0,0,0,0c0,0,0,0,0,0.1c-0.1,0.1-0.1,0.3-0.2,0.3
					c-0.1,0.1-0.2,0.2-0.3,0.2c0,0,0,0,0,0c0,0,0,0,0,0c-0.1,0-0.1-0.1-0.2-0.2c0-0.1-0.1-0.3-0.1-0.4C93.4,10.2,93.4,10.2,93.5,9.7
					z M96.4,17.2L96,17.3c-0.2,0-0.4,0.1-0.7,0.3c-0.4,0.2-0.6,0.4-0.6,0.5l-0.3,0.5c0,0.1-0.1,0.1-0.1,0.1c-0.1,0-0.4-0.2-0.6-0.7
					c-0.2-0.4-0.3-0.6-0.3-0.8c0-0.1,0.1-0.1,0.2-0.1h0l0.3,0l0.2,0l0.2,0c0.1,0,0.1-0.1,0.1-0.2c0-0.1,0-0.1-0.1-0.1l-1.1-0.4
					c-0.3-0.1-0.6-0.4-0.8-0.8c-0.3-0.6-0.4-0.9-0.4-1.1c0-0.1,0.1-0.2,0.2-0.2c0,0,0.1,0,0.2,0.1c0.1,0.1,0.2,0.1,0.3,0.1
					c0.1,0,0.2-0.1,0.2-0.1c0-0.1-0.1-0.2-0.2-0.3c-0.9-0.6-1.4-1.4-1.4-2c0-0.2,0-0.3,0.1-0.3l0.2,0l0.3,0h0c0.1,0,0.2-0.1,0.2-0.2
					c0-0.1-0.1-0.2-0.2-0.2c-0.2-0.1-0.3-0.2-0.4-0.2c-0.1-0.1-0.2-0.2-0.3-0.3c0-0.1-0.2-0.3-0.4-0.8l-0.3-0.6
					c-0.1-0.2-0.2-0.4-0.2-0.4c0,0-0.1-0.1-0.1-0.2c0.3-0.1,0.5-0.2,0.7-0.2c0.3,0,0.5,0.2,0.8,0.8c0.1,0.4,0.3,0.6,0.4,0.6
					c0,0,0.1-0.1,0.1-0.3c0-0.2,0-0.5-0.1-0.7C92,8.9,92,8.7,92,8.6l0-0.3l-0.3-0.1c-0.1,0-0.1-0.1-0.2-0.2
					c-0.1-0.2-0.2-0.4-0.2-0.5c0-0.1,0-0.3,0.1-0.4c0.2-0.9,0.3-1.2,0.3-1.5l0-0.2l0.2,0.2l0.3,0.3C92.7,6.3,93,7.2,93,8.4
					c0,0.3,0,0.5-0.1,1.2c0,0.4,0,0.7,0,1c0,2.9,0.9,5.1,2.2,5.1c0.4,0,0.6-0.2,1-0.8c0.1-0.1,0.2-0.2,0.2-0.2
					c0.1,0,0.1,0.1,0.1,0.2l0,0.5l0,0.4l0,0.5l0.1,0.4l0,0.1C96.6,17.1,96.6,17.2,96.4,17.2z M91.9,22.3l-0.2-0.2
					c0.3-0.3,0.6-0.4,1-0.4c0.2,0,0.5,0.1,0.9,0.2c0.2,0.1,0.4,0.2,0.4,0.2c0.2,0.1,0.4,0.1,0.7,0.2c-0.6,0.6-1,0.8-1.5,0.8
					c-0.1,0-0.3-0.1-0.4-0.1l-0.4-0.4L91.9,22.3z M100.8,23c0.4-0.2,0.6-0.3,0.8-0.3c0.3,0,0.6,0.1,0.8,0.3l0.3,0.2l0.3,0.2
					c0.1,0.1,0.1,0.1,0.1,0.2c0,0.1-0.1,0.2-0.5,0.2l-0.2,0c-0.1,0-0.3,0-0.3,0c-0.2,0-0.3,0-0.5-0.3C101.3,23.4,101,23.2,100.8,23z
					 M107.3,21.3c0.1,0.1,0.2,0.1,0.2,0.2c0,0,0,0.1-0.1,0.2l-0.2,0.4c-0.1,0.1-0.2,0.2-0.2,0.2c-0.1,0-0.1,0-0.2-0.1l-0.2-0.2
					c0,0-0.1-0.1-0.2-0.1c-0.1,0-0.2,0.1-0.2,0.2c0,0.1,0,0.2,0.1,0.4c0.1,0.2,0.1,0.3,0.2,0.4c0,0.1,0.1,0.2,0.1,0.3
					c0,0.2-0.1,0.3-0.2,0.5l-0.2,0.3c-0.1,0.2-0.3,0.3-0.3,0.3c-0.1,0-0.2,0-0.2-0.1l-0.1-0.3c0,0-0.1-0.1-0.1-0.1
					c-0.2,0-0.2,0.1-0.2,0.4v0.3v0.2c0,0.3-0.3,0.8-1,1.3c-0.3,0.2-0.3,0.3-0.5,0.6c-0.2-0.3-0.3-0.4-0.3-0.6c0-0.4,0.1-0.6,0.4-0.9
					c0.1-0.2,0.2-0.3,0.2-0.4c0-0.1,0-0.1-0.1-0.1l-0.1,0l-0.3,0.2l-0.4,0.2c-0.3,0.1-0.5,0.3-0.8,0.7c-0.2,0.3-0.2,0.3-0.6,0.3
					l-0.1,0l-0.3,0c-0.6,0-0.7,0-1,0.2c0.2-0.9,0.6-1.5,1.4-1.7l1.1-0.3c1.7-0.4,2.6-1.1,2.6-2.1c0-0.3-0.2-0.8-0.5-1.3
					c-0.8-1.4-0.9-1.6-0.9-2.2c0-0.3,0.2-0.8,0.4-0.9l0.3-0.2l0.3-0.4l0.3-0.1l0.2-0.1l0.1,0c0.1,0,0.2,0.1,0.3,0.5
					c0,0,0.1,0.2,0.3,0.5c0.2,0.2,0.2,0.5,0.2,0.7c0,0.1,0,0.3-0.1,0.4l-0.2,0.4c0,0.1,0,0.2,0,0.3c0,0.7,0.3,1.3,0.7,1.5
					L107.3,21.3z M109,24.3l-0.1,0l-0.2,0l-0.2,0l-0.1,0c0.2-0.8,0.6-1.2,1.3-1.2c0.3,0,0.4,0.1,0.4,0.3
					C110.1,23.8,109.6,24.3,109,24.3z M112.2,20.7l0.3,0.3l0.4,0.4c0.1,0.1,0.1,0.4,0.1,0.8c0,0.4-0.1,0.6-0.2,0.6
					c-0.1,0-0.1,0-0.2-0.1c-0.2-0.1-0.2-0.1-0.3-0.1c-0.1,0-0.2,0.1-0.2,0.2c0,0,0,0.1,0,0.2c0.1,0.2,0.1,0.3,0.2,0.4l0.3,0.4
					c0.1,0.1,0.2,0.4,0.2,0.7l0,0.3l-0.1,0.4l0,0.2c0,0.1,0,0.3,0.1,0.6c-0.5-0.2-0.7-0.4-0.8-0.7l-0.4-0.8c0-0.1-0.1-0.1-0.2-0.1
					c0,0-0.1,0-0.1,0.1c-0.1,0.1-0.2,0.3-0.2,0.5l0,0.1l0.1,0.5l0,0.1c0,0.2-0.2,0.4-0.3,0.5l-0.6,0.1c-0.1,0-0.2,0.1-0.4,0.2
					c-0.1,0-0.1,0.1-0.3,0.1l0-0.2c0-0.9,0.3-1.5,1.3-3c0.5-0.7,0.7-1.2,0.7-1.7c0-0.8-0.4-1.1-1.7-1.6c-1.4-0.4-2.1-1.2-4.1-4.4
					c-0.3-0.5-0.7-0.9-0.9-0.9c0,0-0.1,0-0.1,0.1l0,0.1c0,0,0,0.1,0.1,0.2c0.2,0.3,0.4,0.6,0.4,0.7c0,0.2-0.2,0.4-0.4,0.4
					c-0.1,0-0.3,0-0.5-0.1c-0.1,0-0.3,0-0.4,0c-0.2,0-0.3,0-0.5,0.1l-0.8,0.3c-0.4,0.1-0.6,0.2-0.7,0.3c-0.2,0.1-0.3,0.1-0.4,0.1
					c-0.1,0-0.2-0.1-0.2-0.2c0-0.1,0-0.1,0.1-0.3c0-0.1,0.1-0.1,0.1-0.2c0-0.1-0.1-0.2-0.2-0.2c-0.1,0-0.2,0.1-0.5,0.7
					c-0.1,0.2-0.2,0.4-0.3,0.6c-0.2,0.4-0.3,0.5-0.3,0.8c0,0.3,0,0.3,0.3,0.5c0.1,0.1,0.2,0.2,0.2,0.3c0,0.1,0,0.1-0.1,0.2
					c-0.2,0.3-0.4,0.6-0.5,0.6c-0.1,0-0.1-0.1-0.2-0.2l-0.1-0.3c0,0-0.1-0.1-0.1-0.1c-0.2,0-0.2,0.1-0.2,0.6c0,0.4-0.1,0.7-0.2,1
					c-0.2,0.3-0.4,0.6-0.6,0.6c-0.1,0-0.3-0.1-0.3-0.3l-0.1-0.5c0,0-0.1,0-0.1,0c-0.1,0-0.2,0.1-0.2,0.3l0,0.1l0.1,0.4l0,0.3
					c0,0.2-0.1,0.4-0.2,0.6c-0.3,0.5-0.6,0.8-0.8,0.8c-0.1,0-0.2-0.1-0.2-0.2l-0.1-0.4c0,0-0.1-0.1-0.2-0.1c-0.1,0-0.2,0.1-0.2,0.2
					l0,0.2c0,0.2,0.1,0.5,0.1,0.7c0,0.5-0.1,0.8-0.2,1L95.8,25c-0.2,0.3-0.2,0.4-0.3,1c-0.5-0.3-0.8-0.7-0.8-1.2l0-0.2L95,24l0-0.1
					c0-0.1,0-0.1-0.1-0.1c-0.1,0-0.2,0.1-0.3,0.3c-0.1,0.1-0.2,0.2-0.4,0.3c-0.5,0.3-0.6,0.3-0.6,0.4l-0.1,0.3
					c-0.1,0.3-0.2,0.4-0.9,0.6c-0.3,0.1-0.4,0.1-0.8,0.3l0-0.3c0.1-1,0.4-1.5,1.3-1.9c2.5-1.2,4.8-3.9,4.8-5.7c0-0.2,0-0.4-0.1-0.6
					l-0.5-1.2c-0.2-0.6-0.5-1.9-0.5-2.9c0-1.6,0.1-1.9,0.5-1.9l0.2,0c0.1,0,0.2,0.1,0.3,0.1c0.1,0,0.2,0.1,0.2,0.1
					c0.1,0,0.1-0.1,0.1-0.1c0-0.1,0-0.1-0.3-0.5c-0.1-0.1-0.2-0.4-0.4-0.8c-0.1-0.3-0.2-0.6-0.3-0.9l-0.2-1.1l-0.2-0.9
					C96.6,7.1,96.5,7,96.4,7c-0.1,0-0.1,0.1-0.1,0.2l0,0.2l0.1,0.4l-0.1,0.5c0,0.1-0.2,0-0.2-0.1l-0.3-0.4c-0.2-0.3-0.4-0.8-0.4-1.2
					c0-0.4,0.2-0.7,0.6-0.7c0.1,0,0.2,0,0.3,0.1c0.1,0.1,0.2,0.1,0.3,0.1c0.1,0,0.2-0.1,0.2-0.3l0-0.1l0-0.4l0-0.4
					c0-0.1,0-0.2,0.1-0.4c0,0,0.1-0.1,0.1-0.2l0.2,0.2l0.4,0.3l0.3,0.3L98,5.3l0.1,0c0.1,0,0.1-0.1,0.1-0.2l0-0.1l0,0
					c0-0.1,0-0.2,0-0.3c0.1-0.2,0.1-0.4,0.2-0.5l0.3-0.3l0.2-0.2l0.1-0.2c0.5,0.3,0.8,0.8,0.8,1.3l0,0.1c0,0.2-0.1,0.3-0.1,0.4
					c0,0.1,0.1,0.1,0.1,0.1c0.1,0,0.2-0.1,0.4-0.3c0.2-0.2,0.4-0.4,0.9-0.7l0.1,0.3l0.1,0.2l0,0.3v0.3v0.3c0,0,0.1,0.1,0.2,0.1
					l0.5,0.1l0.5,0.9l0,0.1c0,0.1,0,0.3-0.1,0.5c-0.2,0.5-0.4,0.8-0.6,0.8c-0.1,0-0.1-0.2-0.1-0.4l0-0.2l0-0.3c0-0.3,0-0.4-0.2-0.4
					c-0.2,0-0.3,0.8-0.4,2c-0.1,0.9-0.2,1.5-0.4,1.8c-0.3,0.4-0.4,0.7-0.4,1c0,0.1,0,0.1,0.1,0.1c0,0,0.1,0,0.2-0.1l0.3-0.1l0.2,0
					c0.2,0,0.3,0.1,0.5,0.5l0.2,0.3c0.2,0.3,0.2,0.4,0.2,0.5c0,0.1-0.1,0.2-0.3,0.2c-0.2,0-0.3-0.1-0.5-0.2l-0.2-0.2
					c-0.1-0.1-0.1-0.1-0.2-0.1c-0.1,0-0.1,0.1-0.1,0.2l0,0.2l0,0.3l0,0.2c0,0.4-0.1,0.6-0.3,0.6l0,0c-0.1,0-0.1-0.1-0.3-0.2
					c-0.1-0.1-0.2-0.2-0.3-0.4c-0.1-0.2-0.2-0.4-0.2-0.4c0,0-0.1,0-0.1,0c-0.1,0-0.2,0.2-0.2,0.7c-0.1,0.6-0.4,1.2-0.6,1.2
					c-0.1,0-0.2,0-0.2-0.1l-0.3-0.6c-0.1-0.3-0.2-0.5-0.2-0.6c0-0.5-0.1-0.7-0.2-0.7c-0.1,0-0.1,0-0.2,0.3c0,0.1-0.1,0.3-0.3,0.6
					c-0.1,0.1-0.1,0.2-0.1,0.2c0,0,0,0.1,0.1,0.2l0.5,0.4c0.2,0.2,0.4,0.4,0.5,0.7c0.2,0.6,0.4,0.7,0.6,0.7c0.1,0,0.2-0.1,0.3-0.1
					c0,0,0.2-0.2,0.4-0.6c0.2-0.3,0.4-0.4,0.7-0.4l0,0l0.3,0l0.2,0c0.3,0,0.4,0,0.7-0.3c1.1-1.1,2.4-1.5,4.7-1.5
					c1.1,0,2,0.1,2.9,0.3c1,0.2,1.5,0.4,1.6,0.4c0.2,0,0.3,0,0.6,0c0.5,0,1-0.4,1-0.9c0-0.8-0.4-1.1-3.6-2.2
					c-3.3-1.1-4.6-2.3-4.6-4.2c0-1.7,1.4-2.9,3.2-2.9c0.6,0,1.2,0.1,2.5,0.5l1.5,0.5c0.2,0.1,0.3,0.1,0.4,0.1c0.3,0,0.5-0.2,0.5-0.5
					l0-0.3l0-0.2c0-0.1,0.1-0.2,0.1-0.2c0,0,0.1,0,0.2,0.1c0.2,0.3,0.4,0.8,0.4,1c0,0.4-0.3,0.8-0.8,0.8c-0.3,0-1.1-0.2-1.6-0.3
					l-1-0.4c-0.2,0-0.5-0.1-0.9-0.3c-0.1-0.1-0.2-0.1-0.3-0.1s-0.1,0-0.1,0.1c0,0.1,0.1,0.2,0.3,0.2c0.1,0,0.4,0.2,0.8,0.4
					c0.2,0.1,0.6,0.3,1.2,0.6c0.3,0.1,0.5,0.2,0.6,0.2l0.5,0.1l0.1,0c0,0,0.1,0.1,0.1,0.1c0,0,0,0.1-0.1,0.1c-0.1,0-0.2,0.1-0.3,0.1
					c-0.2,0.1-0.5,0.1-0.7,0.1c-0.3,0-0.9-0.2-1.3-0.4l-1.1-0.7c-0.6-0.4-1.3-0.6-1.8-0.6c-1,0-1.7,0.8-1.7,1.8
					c0,0.4,0.1,0.9,0.4,1.3c0.3,0.5,0.7,0.9,0.9,0.9c0.1,0,0.1-0.1,0.1-0.1c0-0.1-0.1-0.2-0.2-0.5C106,8.4,106,8.3,106,8.2
					c0-0.1,0-0.1,0.1-0.1c0.1,0,0.2,0,0.3,0.1c0.1,0,0.3,0.1,0.6,0.3c0.5,0.3,0.7,0.4,1,0.8l0.3,0.5l0.4,0.4
					c0.1,0.1,0.3,0.2,0.4,0.2c0.1,0,0.1,0,0.1-0.1c0,0,0-0.1-0.1-0.2l-0.2-0.4c-0.1-0.2-0.1-0.3-0.1-0.3c0-0.1,0.1-0.1,0.2-0.1
					c0.7,0,1.4,0.6,1.9,1.5c0.2,0.3,0.3,0.5,0.4,0.5c0.1,0,0.2-0.1,0.2-0.2l0,0l0-0.3c0-0.1,0.1-0.1,0.1-0.1c0.1,0,0.4,0.2,0.8,0.5
					c0.6,0.5,1,1.4,1,2.1c0,1.1-0.7,1.7-1.9,1.7c-0.4,0-0.9-0.1-1.6-0.3c-0.6-0.2-1-0.3-1.3-0.3l-0.8-0.1c-0.2,0-0.3,0-0.3,0.1
					c0,0.1,0.1,0.1,0.1,0.1l0.4,0c0.1,0,0.3,0.1,0.5,0.3c0.6,0.5,1,1,1.1,1.4l0.5,1.5c0.3,0.8,1.1,1.5,1.8,1.5l0.1,0l0.6-0.1l0.1,0
					c0.1,0,0.1,0,0.2,0.2l0.1,0.5l0.1,0.5l0,0.1c0,0.1,0,0.2-0.1,0.2l-0.1,0c-0.2-0.1-0.4-0.1-0.5-0.1c-0.1,0-0.2,0.1-0.2,0.2
					C112,20.5,112.1,20.6,112.2,20.7z"/>
			</g>
		</g>
		<path class="st0" d="M69.3,67c0.2-0.5,0.2-0.6,0.2-1.1c0-0.3,0-0.6-0.1-1c-0.1-0.5-0.1-0.9-0.1-1.1l0-0.4c0-0.2-0.1-0.3-0.3-0.3
			l-0.1,0l-0.3,0.3c-0.1,0.1-0.3,0.2-0.5,0.2c-0.6,0-1-0.5-1-1.5l0-1c0-0.3-0.1-0.6-0.3-1.1l0.5,0c1.7,0,2.8-1,2.8-2.7
			c0-1.5-1.1-3-2.4-3.3l-0.6-0.2c-0.1,0-0.2-0.1-0.4-0.2c-0.6-0.3-1.3-0.5-2-0.5c-0.1,0-0.3,0-0.5,0.1c-0.5-0.2-0.6-0.3-1-0.4
			l-1.1-0.3c-0.5-0.2-0.8-0.5-0.8-1c0-0.5,0.3-0.8,0.8-0.8c0.3,0,0.7,0.1,1.2,0.5l1.1,0.8c0.6,0.4,1.4,0.7,2.1,0.7
			c0.8,0,1.2-0.2,1.7-0.7c0-0.1,0.1-0.1,0.2-0.2c0.9-0.2,1.3-0.8,1.3-1.7c0-0.6-0.1-0.9-0.5-1.3c-0.3-0.3-0.5-0.5-0.7-0.5
			c-0.2,0-0.3,0.2-0.3,0.5c0,0.5-0.1,0.7-0.4,0.7c-0.3,0-0.5-0.1-1.7-0.8c-1.3-0.7-2.1-1-3-1c-2,0-3.6,1.5-3.6,3.6
			c0,2.9,1.7,4.4,6.1,5.3c1.9,0.4,2.2,0.5,2.2,1c0,0.3-0.2,0.5-0.7,0.5c-0.4,0-1-0.1-2-0.4c-1.9-0.6-2.4-0.7-4-0.8
			c-2.6-0.3-3.3-0.9-3.3-3c0-0.2,0.1-0.3,0.3-0.6c0.8-0.9,1.2-1.6,1.2-2.4c0-0.8-0.4-1.2-1.1-1.3c0-0.4,0-0.5-0.2-1
			c-0.2-0.8-0.2-0.9-0.3-0.9c0,0-0.1,0-0.2,0.1c0,0-0.2,0.1-0.4,0.2c-0.1,0-0.2,0.1-0.4,0.2c-0.1,0-0.2,0.1-0.3,0.2l-0.1-0.2
			c-0.1-0.2-0.2-0.4-0.3-0.4l-0.4-0.5c-0.2-0.2-0.3-0.3-0.4-0.3c-0.1,0-0.5,0.3-0.8,0.7c-0.2,0.2-0.3,0.4-0.4,0.8
			c-0.2-0.1-0.3-0.2-0.5-0.2c-0.2-0.1-0.4-0.1-0.4-0.2c-0.1-0.1-0.2-0.1-0.2-0.1c-0.1,0-0.3,0.4-0.4,0.9c-0.1,0.3-0.1,0.5-0.1,0.6
			l0,0.2l-0.3,0c-0.6,0-1,0.4-1,1.1c0,0.6,0.2,1,0.9,1.8l0.7,0.8c0.2,0.2,0.2,0.3,0.2,0.5l0,0.3c-0.1,0.5-0.1,1.1-0.2,1.8
			c-0.1,1.3-0.3,1.7-0.8,1.7c-0.3,0-0.6-0.3-0.9-0.8c-0.3-0.5-0.5-1.1-0.5-1.5c0-0.3,0.1-0.6,0.4-1.1c0.4-0.6,0.4-0.6,0.4-0.9
			c0-0.2-0.1-0.6-0.4-0.9l-0.3-0.4c-0.1-0.1-0.2-0.3-0.2-0.4c0,0,0-0.1,0-0.3l0-0.2c0-0.6-0.6-1.6-1.4-2.2c-0.3-0.2-0.6-0.4-1-0.6
			c-0.1-0.1-0.2-0.1-0.3-0.1c-0.1,0-0.1,0-0.1,0.1c0,0,0,0.1,0.1,0.2c0,0.1,0,0.2,0.1,0.4c0,0.2,0,0.4,0,0.4c0,0.1,0,0.3-0.1,0.5
			c-0.1,0.4-0.1,0.7-0.1,1.1l0,0.6l-0.5,0c-0.1,0-0.1,0-0.5,0.1c-0.3,0.1-0.5,0.2-0.5,0.3c0,0,0,0.1,0.1,0.2
			c0.2,0.3,0.4,0.6,0.5,1.2c0.3,0.9,0.3,1,0.6,1.3c0,0.2-0.1,0.2-0.1,0.3c0,0.8,0.3,1.6,0.9,2.3c0,0.1,0.1,0.2,0.1,0.3
			c0.2,1,0.5,1.6,1,2c0.1,0.1,0.2,0.2,0.2,0.2c0,0,0.1,0.1,0.1,0.3c0.1,0.2,0.2,0.4,0.4,0.6l0.6,0.7c0.5,0.6,0.6,0.7,0.8,0.7
			c0.1,0,0.2-0.1,0.2-0.2L52,61c0.3-0.5,0.8-0.8,1.5-0.8c0.5,0,1,0.2,1.4,0.4c0.6,0.4,1.1,1.2,1.1,1.6c0,0.1,0,0.2-0.1,0.4
			c-0.1,0.1-0.2,0.2-0.3,0.2c-0.2,0-0.4-0.1-0.7-0.4c-0.5-0.4-0.7-0.5-1.1-0.5c-0.3,0-0.7,0.1-1.1,0.4c-0.4,0.3-0.8,0.6-0.8,0.7
			c0,0,0.1,0.1,0.1,0.2l0.3,0.1c0,0,0.1,0.1,0.2,0.2c0.2,0.2,0.2,0.3,0.4,0.4c-0.5,0.8-0.8,1.5-0.8,2.3c0,0.4,0.1,0.7,0.3,0.7
			c0,0,0.1,0,0.2-0.1c0.3-0.2,0.8-0.3,1.3-0.3l0.2,0l0.3,0c0.1,0,0.2,0,0.3-0.1c0.1,0.4,0.2,0.6,0.3,0.8c0.1,0.1,0.2,0.2,0.4,0.4
			c0.2,0.3,0.4,0.4,0.5,0.4c0.1,0,0.1-0.1,0.2-0.4c0.1-0.5,0.3-0.8,0.9-1.6c0.4-0.5,0.4-0.6,0.5-1.1c0.7-0.3,1.1-0.8,1.3-1.7
			c0.7-0.5,1.2-1.3,1.2-1.9c0-0.2,0-0.2-0.2-0.3c-0.1-0.1-0.2-0.2-0.2-0.2c0-0.1,0.2-0.3,0.5-0.5c0.3-0.2,0.5-0.2,0.7-0.2
			c0.2,0,0.3,0,0.5,0.1c-0.5,0.2-0.9,1.1-0.9,1.9c0,0.3,0.1,0.8,0.5,1.6c0.5,1.1,0.7,1.7,0.7,2.2c0,0.3-0.1,0.5-0.4,0.5
			c-0.2,0-0.3,0-0.6-0.1c-0.6-0.2-1-0.3-1.3-0.3c-0.5,0-1,0.2-1.4,0.5c-0.1,0.1-0.2,0.2-0.4,0.5c-0.1,0.2-0.2,0.3-0.2,0.4
			c0,0.1,0,0.1,0.2,0.1c0.3,0,0.7,0.3,1.2,0.6c-0.4,0.6-0.7,1.4-0.7,2.1l0,0.5c0,0.2,0,0.2,0.1,0.2c0.1,0,0.2-0.1,0.5-0.2
			c0.1-0.1,0.3-0.1,0.6-0.2c0.5-0.1,0.6-0.1,0.8-0.3c0,0.3,0.1,0.5,0.3,0.8c0.4,0.5,0.8,0.8,1,0.8c0.1,0,0.2-0.1,0.2-0.4
			c0-0.2,0.2-0.5,0.4-0.7l0.5-0.6c0.2-0.3,0.3-0.5,0.5-0.9c0.7-0.5,1-0.9,1.1-1.5c0.4-0.3,0.5-0.4,0.8-0.8c0.3-0.4,0.4-0.7,0.4-0.9
			c0-0.2-0.2-0.3-0.5-0.4c-0.3-0.1-0.4-0.2-0.4-0.5c0-0.2,0.2-0.3,0.4-0.3c0.3,0,0.6,0.1,1,0.5c0.6,0.5,0.8,0.9,0.8,1.6
			c0,0.9-0.3,1.4-1,1.8c-1.6,0.9-2.2,1.5-2.2,2.2c0,0.3,0.1,0.7,0.2,1.1c0.2,0.4,0.5,0.8,0.7,0.8c0.1,0,0.1,0,0.1-0.1l0.1-0.3
			c0.1-0.2,0.2-0.3,0.4-0.3c0.2,0,0.4,0.2,0.5,0.6c0.5,1.6,0.9,2.4,1.3,2.4l0,0c0.1,0,0.1-0.1,0.1-0.1c0,0,0.1-0.2,0.1-0.5
			c0-0.2,0.2-0.4,0.4-0.7c0.3-0.4,0.5-0.7,0.6-0.9c0.2-0.7,0.3-0.8,0.5-0.8c0.1,0,0.2,0.1,0.3,0.3c0.1,0.1,0.2,0.2,0.3,0.2
			c0.1,0,0.1-0.1,0.1-0.2l0-0.1c0-0.3,0-0.6,0.1-1.1c0.1-0.4,0.1-0.7,0.1-0.9c0-0.2,0-0.4-0.1-0.8c0.2-0.3,0.3-0.6,0.3-1.1
			C69.6,68,69.5,67.5,69.3,67z M50.7,53c0,0.1-0.1,0.2-0.2,0.4c-0.1,0.1-0.1,0.2-0.2,0.3l-0.3,0.5c0,0.1-0.1,0.1-0.1,0.1
			c-0.1,0-0.2-0.2-0.2-0.5c0-0.5,0.2-1.2,0.3-1.5C50.5,52.4,50.7,52.7,50.7,53z M52.5,59.7c-0.3,0.1-0.6,0.3-0.8,0.5
			c-0.1,0.2-0.3,0.2-0.3,0.2c-0.1,0-0.3-0.1-0.4-0.4l-0.2-0.3c-0.1-0.1-0.1-0.2-0.1-0.3c0-0.2,0.1-0.2,0.4-0.3
			c0.2,0,0.2-0.1,0.2-0.2c0-0.1-0.1-0.2-0.3-0.2h-0.4c-0.4,0-0.7-0.2-1-0.7c-0.3-0.4-0.5-0.7-0.5-0.9c0-0.1,0-0.2,0.1-0.2l0.2,0
			c0,0,0.1-0.1,0.1-0.1c0-0.1-0.1-0.2-0.2-0.3l-0.4-0.3L48.5,56l-0.2-0.7c-0.1-0.4-0.2-0.6-0.2-0.7c0-0.1,0.1-0.1,0.1-0.1l0.5,0
			c0.1,0,0.1,0,0.1-0.1c0,0,0-0.1-0.1-0.2c0-0.1-0.1-0.1-0.1-0.1l-0.5-0.4L47.6,53l-0.4-0.9l-0.1-0.3c0.2,0,0.3,0,0.4,0
			c0.3,0,0.6,0.1,0.9,0.4c0.1,0.1,0.2,0.1,0.2,0.1c0,0,0.1-0.1,0.1-0.2l0-0.1c0-0.1,0-0.2-0.1-0.5c-0.1-0.4-0.2-0.8-0.2-1.2l0-0.5
			c0.1-0.3,0.1-0.5,0.1-0.6c0,0,0-0.1,0-0.3c0.8,0.6,1.4,1.3,1.4,1.9l0,0.3c0,0.1-0.1,0.5-0.3,1.2c-0.1,0.5-0.2,1-0.2,1.4
			c0,0.4,0.1,0.9,0.2,1.3c0.5,1.7,1.5,3,2.3,3c0.3,0,0.6-0.2,0.8-0.5c0.1-0.1,0.1-0.2,0.2-0.2c0.1,0,0.2,0.2,0.2,0.5
			c0,0.4,0.1,0.7,0.4,1.2c0.1,0.1,0.1,0.2,0.1,0.3C53.5,59.4,53.3,59.5,52.5,59.7z M52.7,62.8c0.4-0.3,0.7-0.4,1-0.4
			c0.1,0,0.4,0.2,0.6,0.3l0.3,0.2c0.1,0.1,0.2,0.2,0.2,0.3c0,0.1-0.1,0.1-0.2,0.2c-0.2,0.1-0.7,0.2-0.9,0.2c-0.2,0-0.3,0-0.7-0.5
			c0,0-0.1-0.1-0.2-0.2C52.8,62.9,52.8,62.9,52.7,62.8z M58.2,67.1c0.3-0.3,0.7-0.6,1.2-0.6c0.2,0,0.3,0,0.9,0.3
			c0.1,0.1,0.2,0.1,0.4,0.1c0.2,0,0.3,0.1,0.3,0.1c0,0.1-0.1,0.1-0.2,0.2l-0.5,0.2l-0.5,0.2c-0.1,0-0.2,0-0.3,0c-0.2,0-0.3,0-0.4,0
			c0,0-0.2-0.1-0.4-0.2C58.5,67.2,58.4,67.2,58.2,67.1z M64.3,66.1l0,0.1l-0.1,0.2l-0.2,0.3c-0.1,0.1-0.1,0.1-0.2,0.1
			c-0.1,0-0.1-0.1-0.2-0.2c-0.1-0.2-0.1-0.2-0.2-0.2c-0.1,0-0.2,0.1-0.2,0.2l0,0.3l0,0.3c0,0.3-0.1,0.6-0.3,0.8
			c-0.1,0.1-0.2,0.2-0.3,0.2c-0.1,0-0.1,0-0.2-0.1l-0.1-0.2c0,0-0.1-0.1-0.1-0.1c-0.1,0-0.2,0.2-0.2,0.5v0.4c0,0.3-0.1,0.6-0.5,1.2
			c-0.3,0.4-0.3,0.5-0.4,0.8c-0.3-0.4-0.4-0.7-0.4-1.2c0-0.3,0-0.4,0-0.5l0.1-0.3l0-0.1l-0.2,0.1l-0.2,0.1c-0.1,0-0.1,0.1-0.1,0.2
			l-0.1,0.3c-0.1,0.2-0.3,0.4-0.6,0.4l-0.4,0.1c-0.1,0-0.2,0.1-0.3,0.1c-0.1,0-0.1,0.1-0.2,0.1c0.2-1.2,0.9-1.9,2.2-2.4
			c1.2-0.4,1.5-0.8,1.5-1.7c0-0.4-0.1-0.8-0.6-2c-0.3-0.8-0.5-1.5-0.5-1.9c0-0.7,0.5-1.3,1.1-1.3c0.2,0,0.2,0.1,0.3,0.3
			c0.1,0.3,0.2,0.6,0.3,0.8c0.3,0.6,0.4,1,0.4,1c0.1,0.2,0.1,0.6,0.1,1.3c0,0.9,0.2,1.4,0.7,1.7C64.2,66,64.3,66,64.3,66.1z
			 M64.9,71.4c-0.5,0-0.6,0.1-0.8,0.5C64,71.6,64,71.4,64,71.3c0-0.5,0.4-1.1,0.9-1.3l0.7-0.3c0.1,0,0.2-0.1,0.4-0.2
			c0.1-0.1,0.1-0.1,0.2-0.1c0,0,0.1,0.1,0.1,0.1C66.1,70.2,65.5,71.3,64.9,71.4z M67.9,66.6c0,0.1,0.1,0.2,0.3,0.4
			c0.3,0.4,0.5,0.9,0.5,1.3c0,0.3-0.1,0.6-0.2,0.6c-0.1,0-0.2-0.1-0.4-0.2c0,0-0.1,0-0.1,0c-0.1,0-0.1,0.1-0.1,0.2s0.1,0.2,0.3,0.5
			c0.3,0.4,0.5,1,0.5,1.6l0,0.4l0,0.3c-0.3-0.1-0.3-0.1-0.6-0.4l-0.4-0.4c-0.1-0.1-0.1-0.1-0.2-0.1c-0.1,0-0.2,0.1-0.2,0.3
			c0,0.1,0,0.2,0.1,0.4c0.1,0.3,0.1,0.5,0.1,0.8c0,0.5-0.1,0.9-0.4,1.2l-0.3,0.4L66.5,74c-0.1-0.2-0.2-0.3-0.2-0.4
			c0-0.1-0.1-0.2-0.2-0.5C66,72.5,66,72.3,66,72c0-0.3,0.1-0.7,0.3-1.3c0.6-1.8,0.9-3.1,0.9-4.2c0-1.1-0.4-1.7-1.6-2.4
			c-1.4-0.8-1.5-0.9-2-2.4c-0.5-1.9-1.1-3-1.5-3c-0.1,0-0.1,0-0.1,0.1c0,0.1,0,0.2,0.2,0.3c0.1,0.1,0.1,0.2,0.1,0.3c0,0,0,0.1,0,0.1
			c0,0.1-0.1,0.1-0.1,0.1c-0.1,0-0.1,0-0.2-0.1c-0.3-0.2-0.5-0.3-0.9-0.3c-0.3,0-0.9,0.2-1.6,0.5c-0.1,0.1-0.3,0.1-0.4,0.1
			c-0.2,0-0.2-0.1-0.2-0.3c0-0.1,0-0.3,0.1-0.4c0-0.1,0.1-0.2,0.1-0.3c0-0.1-0.1-0.2-0.1-0.2l-0.1,0c0,0-0.1,0.2-0.2,0.5l-0.2,0.6
			c0,0.1-0.1,0.2-0.1,0.3c0,0.4,0.3,0.9,0.8,1.3c0.1,0.1,0.2,0.1,0.2,0.2c0,0.1-0.1,0.4-0.3,0.7c-0.1,0.2-0.2,0.3-0.3,0.3
			c-0.1,0-0.1,0-0.2-0.1l-0.2-0.1c0,0-0.1,0-0.1,0c0,0-0.1,0-0.1,0c-0.1,0.1-0.1,0.1-0.1,0.2c0,0.1,0,0.1,0.1,0.3
			c0,0.1,0.1,0.2,0.1,0.3c0,0.1,0,0.3-0.1,0.5c-0.1,0.3-0.3,0.5-0.3,0.5c0,0-0.1-0.1-0.2-0.2c-0.1-0.2-0.1-0.2-0.2-0.2
			c-0.1,0-0.1,0-0.2,0.1c-0.1,0.1-0.1,0.2-0.1,0.3l0.1,0.5l0,0.1c0,0.3-0.3,0.9-0.6,1.4c-0.2,0.3-0.4,0.5-0.4,0.6c0,0,0,0.1-0.1,0.3
			c-0.3-0.4-0.4-0.7-0.4-1.3c0-0.3,0-0.6,0.1-0.8c0-0.1,0-0.2,0-0.2c0-0.1-0.1-0.1-0.1-0.1c0,0-0.1,0-0.1,0.1L55,64.8
			c0,0-0.1,0.1-0.3,0.2c-0.1,0.1-0.2,0.1-0.2,0.2v0.2c0,0.3-0.2,0.5-0.5,0.5l-0.3,0l-0.1,0c-0.2,0-0.3,0-0.7,0.1
			c0.2-1.1,0.5-1.5,1.1-1.7l0.8-0.3c1.3-0.5,2.1-1.1,2.1-1.8c0-0.5-0.4-1.3-1-1.7l-1.1-0.9c-0.7-0.6-1.4-2-1.4-3
			c0-0.8,0.2-1.1,0.6-1.1l0.2,0c0.3,0.1,0.5,0.2,0.5,0.2c0.1,0,0.1-0.1,0.1-0.1c0-0.1-0.1-0.2-0.4-0.4c-0.2-0.1-0.4-0.4-0.6-0.9
			c-0.2-0.3-0.2-0.6-0.3-0.9l-0.1-0.9c-0.1-0.8-0.3-1.5-0.5-1.5c-0.1,0-0.1,0.1-0.1,0.2c0,0.1,0,0.2,0.1,0.4l0,0.3
			c0,0.2,0,0.3-0.1,0.3c-0.1,0-0.3-0.2-0.5-0.5c-0.4-0.7-0.5-0.9-0.5-1.2c0-0.4,0.3-0.6,0.7-0.6c0.1,0,0.2,0,0.3,0.1
			c0.1,0.1,0.1,0.1,0.1,0.1l0,0c0.1,0,0.1-0.1,0.1-0.2l0-0.2v-0.2l0-0.4c0-0.1,0.1-0.2,0.1-0.5l0-0.2c0.5,0.2,0.7,0.3,1,0.7
			c0.1,0.1,0.2,0.2,0.2,0.2c0,0,0.1-0.1,0.1-0.2l0-0.4l0.3-0.7l0.3-0.4l0.1-0.2c0.1,0.1,0.1,0.1,0.1,0.1c0.5,0.6,0.6,0.8,0.6,1.1
			l0,0.1c0,0.4,0,0.4,0.2,0.4c0.1,0,0.1,0,0.2-0.1l0.3-0.3l0.4-0.3l0.3-0.2l0.2-0.1l0,0.2l0.1,0.5l0,0.5l0,0.3
			c0,0.2,0.1,0.3,0.2,0.3c0,0,0.1,0,0.2,0l0.2,0c0.4,0,0.7,0.3,0.7,0.8c0,0.1,0,0.3-0.1,0.4l-0.2,0.5c-0.1,0.3-0.2,0.4-0.3,0.4
			c-0.1,0-0.1-0.2-0.1-0.5l0-0.2l0-0.1c0-0.2-0.1-0.4-0.1-0.4c0,0-0.1,0.1-0.1,0.1c-0.1,0.4-0.3,1.2-0.4,1.6l-0.1,0.8
			c-0.1,0-0.2,0.3-0.2,0.7c0,0.2-0.1,0.5-0.3,0.6c-0.3,0.2-0.5,0.5-0.5,0.6s0.1,0.2,0.2,0.2l0.1,0l0.2-0.1l0.3-0.1
			c0.1,0,0.1,0,0.2,0c0.1,0,0.2,0.1,0.2,0.3c0.2,0.5,0.3,0.8,0.5,0.9c0.2,0.3,0.3,0.4,0.3,0.4c0,0.1,0,0.1-0.1,0.2
			c-0.1,0.1-0.2,0.1-0.2,0.1c-0.1,0-0.2,0-0.3-0.1c-0.2-0.1-0.3-0.2-0.4-0.3c-0.1-0.1-0.1-0.1-0.2-0.1c-0.1,0-0.1,0-0.1,0.2l0,0.4
			l0,0.1c0,0.4-0.2,0.7-0.4,0.7c-0.1,0-0.2,0-0.2-0.1c-0.1-0.1-0.2-0.2-0.3-0.4C56,57.4,56,57.3,56,57.2c-0.1-0.4-0.2-0.5-0.3-0.5
			c-0.1,0-0.2,0.1-0.3,0.5c0,0.1-0.1,0.2-0.2,0.3c-0.1,0.2-0.3,0.3-0.3,0.3c-0.2,0-0.4-0.3-0.5-0.7l-0.2-0.7c0-0.1-0.1-0.2-0.2-0.2
			c-0.1,0-0.2,0.2-0.2,0.4c0,0.5,0.1,1.1,0.4,1.6c0.2,0.4,0.4,0.7,0.6,0.7c0,0,0.1-0.1,0.2-0.2c0.1-0.1,0.3-0.2,0.5-0.2
			c0.2,0,0.6,0.1,0.8,0.3l0.3,0.3c0.1,0.1,0.1,0.1,0.2,0.1c0.1,0,0.2-0.1,0.3-0.2c0.8-1.1,2-1.7,3.8-1.7c1,0,2.1,0.2,3.1,0.4
			c1.5,0.4,2.3,0.6,2.4,0.7c0.2,0,0.4,0,0.6,0c0.9,0,1.5-0.4,1.5-1.1c0-0.8-0.8-1.3-2.5-1.6c-4.5-1-6-2-6-4.4c0-1.7,1.4-3.1,3.1-3.1
			c0.8,0,1.8,0.4,2.9,1.1c1.1,0.7,1.5,0.9,1.9,0.9c0.2,0,0.3,0,0.4-0.2c0.1-0.1,0.1-0.1,0.2-0.2c0-0.1,0.1-0.1,0.1-0.2l0.1-0.5
			l0.1-0.1c0,0,0.1,0,0.1,0.1l0.1,0.2c0.1,0.1,0.1,0.3,0.1,0.4c0,0.7-0.5,1.2-1.2,1.2c-0.7,0-1.4-0.3-2.6-1.1
			c-0.5-0.3-0.8-0.5-1-0.6l-0.6-0.3c-0.1,0-0.1,0-0.2,0c-0.1,0-0.1,0-0.1,0.1c0,0.1,0.1,0.1,0.7,0.5c0.2,0.1,0.5,0.3,0.9,0.6
			l1.2,0.9c0.2,0.2,0.6,0.3,1,0.4c0.1,0,0.2,0.1,0.2,0.1c0,0-0.1,0.1-0.2,0.2c-0.1,0.1-0.3,0.1-0.4,0.1c-0.7,0-1.3-0.2-1.9-0.6
			l-1.2-0.9c-0.4-0.3-1.1-0.6-1.6-0.6c-0.8,0-1.5,0.7-1.5,1.6c0,0.8,0.4,1.4,1.3,2.1c0.6,0.4,0.9,0.6,1,0.6c0.1,0,0.1,0,0.1-0.1
			c0-0.1-0.1-0.2-0.3-0.4c-0.1-0.1-0.2-0.2-0.2-0.3c0,0,0-0.1,0-0.1c0,0,0.1-0.1,0.2-0.1c0.5,0,1.3,0.5,1.7,0.9
			c0.5,0.6,0.6,0.6,0.7,0.6l0,0c0,0,0.1,0,0.1-0.1l0-0.1c0-0.1-0.1-0.2-0.2-0.4c-0.1-0.1-0.1-0.2-0.1-0.3c0-0.1,0.1-0.2,0.3-0.2
			c0.5,0,1.3,0.4,1.6,0.9l0.4,0.6c0,0.1,0.1,0.1,0.2,0.1c0.1,0,0.1,0,0.1-0.1l0-0.1L67.7,55l0-0.3l0.1,0l0,0
			c0.2,0.1,0.4,0.2,0.6,0.4c0.7,0.7,1.1,1.5,1.1,2.3c0,1.1-0.9,1.9-2,1.9c-0.7,0-1.5-0.2-2.4-0.6c-0.2-0.1-0.4-0.1-0.4-0.1
			c-0.1,0-0.2,0.1-0.2,0.1c0,0.1,0.1,0.2,0.5,0.3c0.6,0.2,1.2,1.2,1.4,2.6c0.3,2,0.8,2.7,2,2.7h0.2c0.2,0,0.3,0.1,0.3,0.6l0,0.4
			l0,0.3c0,0.7-0.1,1-0.3,1c0,0-0.1,0-0.2-0.1c-0.1-0.1-0.2-0.1-0.3-0.1c-0.1,0-0.2,0.1-0.2,0.2C67.8,66.6,67.9,66.6,67.9,66.6z"/>
		<path class="st0" d="M105.8,50.7c0.4,0,0.7,0.1,1.2,0.4c1.6,1,2.1,1.2,3,1.2c0.8,0,1.4-0.3,1.9-1c0.7-0.1,1.2-0.7,1.2-1.4
			c0-0.4-0.1-0.8-0.3-1.2c-0.2-0.4-0.5-0.7-0.8-0.7c-0.2,0-0.3,0.1-0.3,0.5c0,0.4-0.2,0.6-0.5,0.6c-0.2,0-0.2,0-1.7-0.6
			c-1.2-0.4-2-0.6-2.8-0.6c-2.2,0-3.8,1.6-3.8,3.8c0,1.9,1,3.1,3.1,4l2,0.8c1.4,0.6,1.9,0.9,1.9,1.2c0,0.2-0.2,0.3-0.5,0.3
			c-0.3,0-0.8-0.1-1.4-0.3c-1.1-0.4-1.8-0.6-1.9-0.6c-0.6-0.2-1.2-0.3-1.9-0.4c-2.9-0.4-3.4-0.8-3.4-2.7c0-0.2,0-0.3,0.1-0.6
			c0.9-0.6,1.5-1.7,1.5-2.5c0-0.6-0.4-1.2-0.9-1.2l-0.2,0l0-0.1c0-0.3,0-0.4-0.1-0.6l-0.3-0.6l-0.1-0.5c0-0.1-0.1-0.2-0.1-0.2
			c0,0-0.1,0-0.1,0.1c-0.1,0.1-0.2,0.1-0.3,0.2l-0.4,0.2l-0.2,0.1c-0.1-0.4-0.1-0.6-0.3-0.7L99,47l-0.3-0.4
			c-0.1-0.1-0.1-0.1-0.2-0.1c-0.1,0-0.2,0.1-0.5,0.4c-0.4,0.4-0.6,0.7-0.7,1.2c-0.1-0.1-0.2-0.2-0.2-0.2c0,0-0.1-0.1-0.2-0.2
			c-0.1-0.1-0.2-0.2-0.3-0.3c-0.1-0.1-0.1-0.1-0.1-0.1c-0.1,0-0.3,0.3-0.5,0.8c-0.2,0.6-0.2,0.6-0.3,1.1c-0.2-0.1-0.3-0.1-0.5-0.1
			c-0.7,0-1.2,0.5-1.2,1.3c0,0.6,0.2,1,0.9,1.8c0.6,0.7,0.8,1.1,0.8,1.4c0,0.1,0,0.4-0.1,0.6c-0.1,0.3-0.1,0.6-0.1,0.8L95.5,56
			c-0.1,1-0.5,1.6-1.2,1.6c-0.7,0-1.1-0.7-1.1-1.9c0-0.8,0.1-1.1,0.8-1.8c0.4-0.3,0.5-0.6,0.5-1c0-0.5-0.3-1-0.9-1.5l0-0.5
			c0-1-0.2-1.5-0.9-2.1c-0.7-0.7-1.6-1.2-2-1.2c-0.1,0-0.1,0-0.1,0.1c0,0.1,0,0.1,0.1,0.2l0.2,0.5c0.1,0.2,0.1,0.4,0.1,0.7
			c0,0.1,0,0.2-0.1,0.6c-0.1,0.3-0.2,0.6-0.2,0.9c0,0.2,0,0.3,0.1,0.5l-0.3,0c-0.4,0-0.7,0.1-0.7,0.3c0,0,0,0.1,0.1,0.1
			c0.1,0.2,0.2,0.4,0.3,1c0.2,1,0.3,1.2,0.5,1.5l0,0.3l-0.1,0.3l0,0.3c0,0.5,0.1,0.7,0.3,1c-0.1,0.4-0.2,0.6-0.2,0.8
			c0,0.6,0.1,1,0.4,1.5l0,0.6c0,0.4,0.1,0.7,0.2,1.2c0.1,0.3,0.2,0.6,0.3,0.8c0.2,0.4,0.5,0.8,0.6,0.8c0.1,0,0.1-0.1,0.2-0.2
			l0.2-0.4c0-0.1,0.1-0.2,0.2-0.3c0.4-0.3,0.8-0.5,1.2-0.5c0.9,0,1.5,0.6,1.5,1.5c0,0.3-0.1,0.7-0.3,1.1c-0.2,0.4-0.5,0.6-0.8,0.6
			c-0.1,0-0.2,0-0.3-0.1L93.3,63c-0.4-0.3-0.8-0.4-1.2-0.4c-0.4,0-0.8,0.1-1.4,0.5c-0.2,0.1-0.4,0.3-0.6,0.5
			C90,63.7,90,63.8,90,63.8c0,0,0,0.1,0.1,0.1l0.5,0.1c0.1,0,0.2,0.1,0.4,0.3c0.1,0.1,0.1,0.2,0.1,0.3c0,0.1-0.1,0.2-0.1,0.4
			l-0.7,0.9c-0.2,0.3-0.3,0.8-0.3,1.4c0,0.8,0.1,1.2,0.3,1.2c0,0,0.1,0,0.1-0.1l0.3-0.4c0.2-0.2,0.6-0.5,0.9-0.5l0.5-0.1l0.1,0
			c0.1,0,0.2,0.1,0.2,0.2l0.2,0.4c0.1,0.1,0.1,0.2,0.2,0.3c0.2,0.2,0.4,0.4,0.5,0.4c0.1,0,0.1,0,0.3-0.4c0-0.1,0.1-0.2,0.3-0.4
			c0.4-0.5,0.6-0.7,0.7-1.1c0.8-0.1,1.2-0.4,1.6-1.3c0.6-0.1,0.9-0.5,1.2-1.2c0.4-0.2,0.6-0.4,1-0.9l0.3-0.5
			c0.1-0.1,0.1-0.2,0.1-0.3c0,0,0-0.1,0-0.2c0-0.1-0.1-0.2-0.1-0.2c0-0.1,0.1-0.2,0.2-0.2l0.4-0.2l0.4-0.2c0.3-0.1,0.5-0.2,0.6-0.4
			c0.1-0.1,0.2-0.2,0.3-0.2c0,0,0.1,0,0.1,0.1c0,0.1-0.2,0.4-0.4,0.5c-1,0.7-1.7,1.9-1.7,2.8c0,0.4,0.1,0.7,0.2,1.1
			c0.2,0.6,0.2,0.8,0.2,0.9c0,0.5-0.2,0.8-0.7,1.3c-0.4,0.4-0.8,0.5-1.3,0.5l-0.1,0l-0.8,0l-0.2,0c-1.5,0-2.5,0.9-2.5,2.2l0,0.2
			c-0.9,0.9-1.1,1.4-1.1,2.2c0,0.3,0.1,0.8,0.2,1.3c0.1,0.2,0.2,0.4,0.3,0.4l0.1,0l0.2-0.4c0.1-0.2,0.6-0.5,1.2-0.6
			c0.4-0.1,0.7-0.2,0.8-0.2c0,0,0.2-0.1,0.4-0.3c0,0,0.1-0.1,0.2-0.1c0.1,0.5,0.4,0.7,0.6,0.7c0.1,0,0.2-0.1,0.3-0.3
			c0-0.1,0.1-0.2,0.1-0.2c0,0,0.2-0.2,0.5-0.4c0.5-0.3,0.8-0.8,0.8-1.2h0.1c0.4,0,1-0.4,1.3-0.9l0.1-0.2c0.8-0.3,1.3-0.7,1.6-1.4
			c0.5-0.1,0.7-0.3,1.2-0.9c0.2-0.3,0.4-0.5,0.4-0.5c0.1-0.1,0.1-0.2,0.1-0.2c0,0,0-0.1-0.1-0.1c0,0-0.1-0.1-0.1-0.1l-0.4-0.1
			c-0.3-0.1-0.5-0.5-0.5-1c0-0.4,0.1-0.9,0.4-1.4l0.7-1.2c0.5-0.9,0.7-1.5,0.7-2.1l0-0.1l0-0.3c0-0.1,0-0.2,0.1-0.2
			c0.1,0,0.2,0.1,0.6,0.5c0.4,0.5,0.6,0.7,1,0.8c0.5,0.2,0.8,0.2,0.8,0.3c0.1,0,0.2,0.2,0.2,0.3c0,0.3-0.2,0.5-0.5,0.5
			c-0.1,0-0.2,0-0.4-0.1c-0.3-0.1-0.5-0.1-0.6-0.1c-0.6,0-1.4,0.6-1.6,1.2l-0.3,0.8c-0.1,0.1-0.1,0.3-0.1,0.3c0,0.1,0,0.1,0.1,0.1
			c0,0,0.1,0,0.2,0c0.2-0.1,0.4-0.1,0.8-0.2c-0.1,0.3-0.2,0.5-0.2,0.8c0,0.3,0,0.6,0.1,0.8l0.2,0.8c0.1,0.4,0.2,0.6,0.4,0.6
			c0,0,0.1,0,0.1-0.1l0.3-0.3c0.1-0.1,0.2-0.1,0.4-0.3l0.4-0.3l0.3-0.2c0,0,0.1-0.1,0.1-0.1c0,0.3,0.3,0.6,0.5,0.6
			c0.2,0,0.2-0.1,0.3-0.3c0.1-0.3,0.3-0.6,0.6-1c0.2-0.3,0.4-0.5,0.4-0.7c0.1-0.1,0.1-0.4,0.2-0.8l0-0.2c0.1-0.1,0.1-0.1,0.2-0.1
			c0.5-0.3,0.6-0.6,0.6-1.2V63v-0.2l0.1-0.1l0.3-0.3l0.2-0.4l0.1-0.5c0-0.1,0.1-0.2,0.1-0.4c0.1-0.2,0.1-0.4,0.1-0.4
			c0-0.1,0-0.1-0.2-0.1c-0.1,0-0.2,0-0.3,0c-0.2,0.1-0.5,0.1-0.6,0.1c-0.5,0-1.1-0.4-1.5-0.9c0.7,0.2,1.4,0.3,1.8,0.3
			c1.4,0,2.7-1.3,2.7-2.8c0-1.3-1.3-2.9-2.7-3.3c-0.8-0.7-1.7-1.1-2.5-1.1c-0.1,0-0.2,0-0.4,0.1c-0.2-0.2-0.3-0.3-0.8-0.4
			c-0.8-0.2-1.1-0.5-1.1-0.9C104.8,51.1,105.3,50.7,105.8,50.7z M93.2,53.7l0-0.4l0.1-0.4l0-0.4c0-0.3,0.1-0.5,0.2-0.5
			c0.1,0,0.3,0.2,0.3,0.3c0.1,0.1,0.1,0.2,0.1,0.3c0,0.2-0.1,0.6-0.3,0.7l-0.2,0.2l-0.2,0.2V53.7z M95.3,59.2l0,0.4
			c0,0.2,0,0.3-0.1,0.3c0,0-0.1,0-0.2-0.1c-0.2-0.1-0.7-0.1-1.1-0.1c-0.4,0-1.1,0.2-1.5,0.5c-0.1,0.1-0.1,0.1-0.2,0.1
			c-0.1,0-0.3-0.2-0.4-0.6l-0.1-0.4c0-0.1,0-0.2,0-0.4c0-0.2,0-0.2,0.3-0.2l0.2,0c0.1,0,0.2,0,0.2,0c0.1,0,0.2-0.1,0.2-0.2
			c0-0.1,0-0.2-0.1-0.2c0,0-0.2-0.1-0.5-0.2c-0.1,0-0.2-0.1-0.4-0.3c-0.1-0.2-0.2-0.3-0.3-0.4l-0.1-0.6l0-0.3c0-0.1,0.1-0.2,0.2-0.2
			c0.1,0,0.1,0,0.2,0c0.1,0,0.2,0.1,0.2,0.1c0.1,0,0.1-0.1,0.1-0.2c0-0.1,0-0.2-0.1-0.2l-0.2-0.2c-0.1,0-0.1-0.1-0.2-0.3
			c-0.1-0.2-0.1-0.4-0.1-0.6c0-0.3,0.1-0.5,0.2-0.5l0.1,0l0.2,0c0.1,0,0.2-0.1,0.2-0.2c0-0.1,0-0.2-0.5-0.6
			c-0.4-0.4-0.4-0.4-0.6-1.2c-0.1-0.3-0.1-0.4-0.3-0.8l0.4,0c0.4,0,0.5,0.1,0.7,0.3l0.2,0.3c0,0,0.1,0.1,0.1,0.1
			c0.1,0,0.1-0.1,0.1-0.2c0-0.2-0.1-0.5-0.2-0.8c-0.3-0.5-0.3-0.7-0.3-1.1c0-0.1,0-0.2,0.1-0.5c0-0.2,0.1-0.3,0.1-0.4l0-0.3v-0.2
			c0.9,0.5,1.3,1.3,1.3,2.1c0,0.1,0,0.4-0.1,0.7c-0.2,1.4-0.4,2.7-0.4,3.5c0,2.1,0.6,3.3,1.7,3.3c0.4,0,0.7-0.1,1.1-0.5
			c0,0,0.1-0.1,0.2-0.2v0.3l-0.1,0.5L95.3,59.2z M91.1,63.5c0.3-0.2,0.6-0.3,1-0.3c0.2,0,0.3,0,0.5,0.1c0.2,0.1,0.4,0.2,0.6,0.3
			c0.3,0.2,0.5,0.3,0.5,0.4c0,0-0.1,0.1-0.2,0.1l-0.2,0.1l-0.3,0.1c-0.1,0-0.2,0-0.3,0c-0.4,0-0.6-0.1-0.9-0.5
			C91.4,63.7,91.4,63.6,91.1,63.5z M96,68.8c0.5,0,0.7,0.1,0.7,0.2c0,0.1-0.2,0.3-0.6,0.5c0,0-0.3,0.1-0.7,0.4
			c-0.5,0.3-0.6,0.3-1,0.5l0-0.3C94.3,69.4,95.1,68.8,96,68.8z M102.6,62.9c-0.9,1.2-1.2,1.9-1.2,2.7c0,0.6,0.2,1.2,0.5,1.6
			c0.1,0.1,0.1,0.1,0.1,0.2c0,0.1-0.1,0.2-0.2,0.3c0,0.1-0.1,0.1-0.1,0.2c-0.2,0.3-0.3,0.4-0.4,0.4c-0.1,0-0.2-0.1-0.2-0.2l-0.1-0.3
			c0-0.1-0.1-0.1-0.1-0.1c0,0-0.1,0-0.1,0.1c-0.1,0.1-0.1,0.2-0.1,0.3v0.4c0,0.2-0.1,0.3-0.2,0.5c-0.1,0.1-0.2,0.2-0.3,0.4
			c-0.1,0.1-0.2,0.1-0.2,0.1c-0.1,0-0.1-0.1-0.2-0.2l-0.1-0.5c0-0.1-0.1-0.1-0.1-0.1c-0.1,0-0.1,0.1-0.2,0.3c-0.1,0.5-0.1,0.9-0.3,1
			l-0.3,0.3c-0.1,0.1-0.2,0.2-0.3,0.2s-0.1,0-0.1-0.1l-0.2-0.4c0,0-0.1-0.1-0.1-0.1c-0.1,0-0.2,0.2-0.2,0.5
			c-0.1,0.8-0.3,1.2-0.7,1.6c-0.4,0.3-0.4,0.3-0.6,0.7c-0.2-0.3-0.3-0.6-0.3-0.9c0-0.2,0-0.3,0.1-0.4c0.1-0.2,0.2-0.3,0.2-0.4
			c0-0.1,0-0.1-0.1-0.1c0,0-0.1,0-0.1,0.1c-0.1,0.1-0.2,0.2-0.3,0.2c-0.4,0.2-0.5,0.3-0.6,0.8c-0.1,0.6-0.4,0.9-1.1,1.1
			c-0.8,0.2-0.8,0.2-1.1,0.4l0-0.4c0-1.1,0.4-1.6,2-2.4c3.2-1.6,4.9-3.1,4.9-4.2c0-0.2-0.1-0.6-0.3-1.3c-0.1-0.4-0.2-0.8-0.2-1
			c0-0.5,0.4-1.3,1-1.8l0.4-0.4c0.2-0.2,0.4-0.5,0.4-0.7l0-0.1l0-0.1c0-0.2,0.1-0.3,0.3-0.3l0.2,0c0.1,0,0.2,0,0.2,0
			c0.1,0,0.1,0,0.2,0.1l0.1,0.2l0.2,0.2c0.1,0.1,0.1,0.1,0.2,0.1c0,0,0.1,0,0.2-0.1c0.1-0.1,0.2-0.1,0.3-0.1c0.1,0,0.2,0.1,0.2,0.2
			C103.4,61.5,103.1,62.2,102.6,62.9z M104.5,64.3c-0.2,0-0.3,0.1-0.6,0.2c0.4-0.9,0.8-1.2,1.6-1.2c0.4,0,0.6,0.1,0.6,0.2
			c0,0.1,0,0.1-0.5,0.4c-0.1,0.1-0.3,0.2-0.3,0.2c-0.1,0.1-0.2,0.2-0.3,0.2L104.5,64.3z M104.8,52.9c0.3,0.4,0.8,0.8,0.9,0.8
			c0.1,0,0.1-0.1,0.1-0.1l0-0.1c-0.1-0.1-0.1-0.2-0.1-0.2c0-0.1,0.1-0.1,0.1-0.1h0c0.1,0,0.3,0,0.4,0.1c0.4,0.2,0.9,0.5,1.1,0.8
			c0.3,0.5,0.4,0.6,0.5,0.6c0.1,0,0.1-0.1,0.1-0.1l0,0c0-0.1-0.1-0.3-0.2-0.4c-0.1-0.1-0.1-0.2-0.1-0.3c0-0.1,0-0.1,0.1-0.1
			c0.1,0,0.5,0.1,0.7,0.3c0.7,0.4,1,0.7,1.2,1.2c0.1,0.4,0.3,0.7,0.4,0.7c0.1,0,0.1-0.1,0.1-0.2c0-0.1,0-0.1,0-0.2
			c0-0.1-0.1-0.2-0.1-0.3c0-0.1,0.1-0.1,0.1-0.1c0.1,0,0.3,0.1,0.4,0.3c0.7,0.8,0.9,1.3,0.9,1.9c0,1.1-0.9,2-2.1,2
			c-0.6,0-1.7-0.2-2.4-0.5c-0.7-0.3-1.1-0.4-1.2-0.4c-0.1,0-0.2,0.1-0.2,0.1c0,0.1,0.1,0.1,0.1,0.2l0.5,0.4c0,0,0.3,0.5,0.6,0.8
			l0.7,0.8c0.3,0.3,0.9,0.6,1.3,0.6l0.3,0l0.1,0c0.1,0,0.1,0,0.1,0.1c0,0,0,0.1-0.1,0.4c-0.1,0.4-0.2,0.5-0.4,0.5
			c-0.1,0-0.1,0-0.2-0.1c-0.1-0.1-0.2-0.2-0.3-0.2c-0.1,0-0.1,0.1-0.1,0.1c0,0.1,0,0.1,0.1,0.2c0.1,0.3,0.2,0.5,0.2,0.7
			c0,0,0,0.1,0,0.2c-0.1,0.3-0.2,0.4-0.3,0.4c-0.1,0-0.1-0.1-0.2-0.2c-0.1-0.1-0.2-0.2-0.2-0.2h0c0,0-0.1,0-0.1,0.1c0,0,0,0.1,0,0.1
			c0,0.1,0,0.1,0.1,0.2c0.1,0.2,0.1,0.3,0.1,0.5c0,0.5-0.1,0.9-0.4,1.2c-0.2,0.2-0.2,0.3-0.3,0.4l-0.1,0.3l-0.1,0.3
			c-0.3-0.5-0.3-0.7-0.3-1v-0.1l0-0.1c0-0.2,0-0.4-0.1-0.4c-0.1,0-0.2,0.1-0.3,0.4l-0.2,0.5l-0.2,0.5l-0.4,0.4l-0.4,0.2l-0.2,0.2
			c-0.1-0.4-0.2-0.9-0.2-1.2c0-0.5,0.3-1,0.6-1.2l0.8-0.5c0.6-0.4,0.9-1,0.9-1.8c0-0.4-0.1-0.5-0.4-0.6l-1-0.2
			c-0.5-0.1-1.1-0.7-1.5-1.4c-0.3-0.5-0.5-0.8-0.5-0.9c0-0.1-0.1-0.1-0.2-0.1c-0.1,0-0.1,0-0.1,0.1c0,0.1,0.1,0.2,0.1,0.4
			c0.1,0.1,0.1,0.2,0.1,0.3c0,0.1,0,0.1-0.1,0.2c-0.1,0.1-0.1,0.1-0.2,0.1c-0.1,0-0.1,0-0.2-0.1c-0.5-0.2-0.8-0.3-1.1-0.3
			c-0.5,0-0.7,0.1-1.7,0.6c-0.2,0.1-0.4,0.2-0.5,0.3l-0.6,0.2c-0.1,0-0.2,0-0.2,0c-0.1,0-0.2,0-0.2-0.1v-0.2v-0.2l0-0.3
			c0-0.1,0-0.1-0.1-0.1c-0.1,0-0.1,0-0.1,0.1c0,0.1-0.1,0.3-0.3,0.6c-0.2,0.4-0.4,0.8-0.4,1.1c0,0.1,0,0.2,0,0.2l0.2,0.3
			c0,0.1,0.1,0.2,0.1,0.2c0,0.1,0,0.2-0.1,0.2L98,62.8c-0.2,0.3-0.3,0.4-0.4,0.4c-0.1,0-0.1-0.1-0.2-0.2c-0.2-0.3-0.3-0.5-0.4-0.5
			c-0.1,0-0.1,0.1-0.1,0.1l0,0L97,63l0,0.4c0,0.3-0.2,0.6-0.5,0.9c-0.1,0.1-0.1,0.1-0.2,0.1l0,0c-0.1,0-0.1,0-0.1-0.1
			C96.1,64.2,96,64,95.9,64c0,0-0.1,0.1-0.1,0.1l0,0.3c0,0.1,0,0.2-0.1,0.4c-0.1,0.2-0.1,0.3-0.2,0.4c-0.1,0.1-0.2,0.2-0.4,0.3
			c-0.1,0.1-0.2,0.1-0.2,0.1c0,0-0.1,0-0.1-0.1c0,0-0.1-0.1-0.1-0.1c0-0.2,0-0.2-0.1-0.2c-0.1,0-0.1,0.1-0.1,0.5
			c0,0.2-0.2,0.6-0.6,1.1c-0.2,0.3-0.3,0.4-0.4,0.5c0,0-0.1,0.1-0.1,0.3C93.1,67.2,93,67,93,66.7c0-0.2,0.1-0.4,0.2-0.6
			c0.1-0.2,0.2-0.3,0.2-0.4c0-0.1,0-0.1-0.1-0.1c-0.1,0-0.2,0.1-0.4,0.3l-0.4,0.4c-0.1,0.1-0.2,0.2-0.3,0.3c-0.1,0-0.2,0.1-0.4,0.1
			l-0.4,0.1C91,66.8,91,66.8,90.7,67c0.1-1.2,0.6-1.8,1.5-2l1.5-0.4c1.5-0.4,2.3-1.5,2.3-3c0-0.2-0.1-0.6-0.2-1.1
			c-0.1-0.6-0.2-1.1-0.1-1.4l0.2-1.9l0.2-1.3c0-0.3,0.3-0.6,0.5-0.6c0.1,0,0.2,0,0.3,0.1c0.1,0.1,0.2,0.1,0.3,0.1
			c0.1,0,0.1,0,0.1-0.1c0-0.1-0.1-0.1-0.2-0.3c-0.5-0.4-0.8-1.2-0.9-2.3c-0.2-1.2-0.3-1.9-0.6-1.9c-0.1,0-0.1,0-0.1,0.1l0,0l0,0.3
			l0,0.4l0,0c0,0.1,0,0.1-0.1,0.1c-0.1,0-0.5-0.4-0.7-0.7c-0.2-0.3-0.3-0.6-0.3-0.8c0-0.4,0.3-0.7,0.7-0.7c0.2,0,0.2,0,0.5,0.2
			C96,50,96,50,96.1,50c0.1,0,0.1-0.1,0.1-0.4c0-0.4,0.1-0.7,0.3-1.1l0.1-0.2c0.1,0.1,0.1,0.1,0.2,0.2c0.2,0.2,0.4,0.3,0.4,0.3
			l0.3,0.4c0.1,0.1,0.1,0.1,0.2,0.1h0c0.1,0,0.1-0.1,0.1-0.2v-0.3c0-0.5,0.3-1,0.8-1.5c0.4,0.3,0.7,1,0.7,1.4c0,0.1,0,0.3-0.1,0.5
			l0,0.1c0,0.1,0,0.1,0.1,0.1c0.1,0,0.2,0,0.5-0.4c0.1-0.1,0.2-0.2,0.3-0.3l0.4-0.2l0.2-0.1l0.1,0.2l0.1,0.3l0.1,0.6l0,0.3l0,0.2
			c0,0.1,0.1,0.1,0.2,0.1l0.2,0l0.2,0c0.1,0,0.2,0.1,0.4,0.2c0.1,0.2,0.2,0.3,0.2,0.5c0,0.3-0.1,0.8-0.3,1l-0.3,0.3l-0.3,0.1l0-0.1
			l0-0.1c0-0.1,0-0.2,0.1-0.3c0.1-0.1,0.1-0.2,0.1-0.3c0-0.1,0-0.2-0.1-0.2c0,0-0.1,0.1-0.1,0.1c-0.3,0.4-0.4,0.7-0.5,1.4
			c-0.1,1.2-0.5,1.9-1.1,2.4c-0.1,0.1-0.2,0.2-0.2,0.3c0,0.1,0,0.1,0.1,0.1l0.2,0c0.3-0.1,0.5-0.1,0.5-0.1l0.1,0l0.1,0
			c0,0,0.1,0.1,0.1,0.2c0,0.1,0.1,0.3,0.2,0.5c0.1,0.4,0.3,0.6,0.4,0.8c0.1,0.1,0.1,0.2,0.1,0.2c0,0-0.1,0.1-0.2,0.2
			c-0.1,0.1-0.1,0.1-0.2,0.1c-0.1,0-0.2,0-0.3-0.1c-0.1-0.1-0.2-0.1-0.3-0.2c-0.1-0.2-0.1-0.2-0.2-0.3c0,0-0.1-0.1-0.1-0.1
			c-0.1,0-0.2,0.2-0.2,0.4c-0.1,0.7-0.2,1-0.4,1c-0.1,0-0.2-0.1-0.3-0.2c-0.2-0.2-0.3-0.5-0.4-0.8c-0.1-0.4-0.1-0.5-0.2-0.5
			c-0.1,0-0.1,0.1-0.2,0.3c-0.2,0.8-0.4,1.2-0.6,1.2c-0.3,0-0.6-0.6-0.6-1.3l0-0.1l0-0.1c0-0.3-0.1-0.4-0.2-0.4c0,0-0.1,0-0.1,0.1
			c0,0,0,0.2-0.1,0.4l-0.1,0.5l0,0.4c0,0.3,0,0.5,0.1,0.6c0,0.2,0.1,0.4,0.2,0.6c0.2,0.3,0.5,0.6,0.7,0.6c0.1,0,0.1-0.1,0.2-0.1
			l0.2-0.3c0.1-0.2,0.4-0.3,0.6-0.3c0.1,0,0.3,0.1,0.5,0.2c0.2,0.1,0.3,0.1,0.3,0.1c0.1,0,0.2,0,0.3-0.2c1-1,2.2-1.5,4-1.5
			c1.1,0,2.3,0.2,4.2,0.8c0.8,0.2,1.2,0.3,1.5,0.3c0.8,0,1.3-0.3,1.3-0.9c0-0.6-0.6-1.1-2.3-1.8l-2-0.8c-1.9-0.8-2.9-1.9-2.9-3.3
			c0-1.6,1.6-3.1,3.3-3.1c0.7,0,1.4,0.2,2.5,0.6c1.2,0.5,1.7,0.6,2.1,0.6c0.5,0,0.7-0.2,0.7-0.6l0-0.1l0-0.2c0-0.1,0-0.2,0.1-0.2
			c0,0,0.1,0,0.1,0.1c0.1,0.1,0.1,0.2,0.1,0.3c0.1,0.2,0.1,0.5,0.1,0.7c0,0.5-0.4,0.9-0.9,0.9c-0.5,0-1.1-0.2-2.1-0.8
			c-0.5-0.3-0.9-0.4-1.1-0.5l-0.9-0.3c-0.2,0-0.3,0-0.3,0c-0.1,0-0.1,0-0.1,0.1c0,0,0,0.1,0.1,0.1l1,0.4l1.1,0.7
			c0.5,0.3,1.2,0.6,1.5,0.7l0.5,0l0.1,0l0,0c0,0.1-0.1,0.2-0.4,0.2c-0.4,0.1-0.6,0.1-0.7,0.1c-0.5,0-1.2-0.3-1.8-0.6l-1-0.6
			l-0.8-0.4c-0.2-0.1-0.4-0.1-0.6-0.1c-1,0-1.8,0.8-1.8,1.7C104.2,52,104.4,52.5,104.8,52.9z"/>
		<path class="st0" d="M53.6,50.8l-0.1-0.4l0-0.1c0,0,0-0.1,0.1-0.1c0.1,0,0.2,0.1,0.3,0.1c0.1,0.1,0.2,0.1,0.3,0.1
			c0.6,0.2,0.8,0.3,0.8,0.6l0,0.4l-0.1,0.4c0,0.1-0.1,0.2-0.2,0.2c-0.1,0-0.5-0.3-0.5-0.4L54,51.4"/>
		<path class="st0" d="M56.5,51.4l-0.3,0.5C56.1,52,56.1,52,56.1,52l0,0c-0.1,0-0.3-0.3-0.3-0.6l0-0.5c0-0.2,0.2-0.3,0.4-0.3
			c0.2,0,0.4-0.1,0.5-0.1c0.2-0.2,0.3-0.2,0.4-0.3l0,0c0.1,0,0.1,0,0.1,0.1l0,0L57,50.8"/>
		<path class="st0" d="M96.8,50.1l0.3,0.2c0.2,0.1,0.3,0.2,0.5,0.3c0.4,0.1,0.5,0.2,0.5,0.3c0,0.1,0,0.2,0,0.3
			c0,0.1-0.1,0.2-0.1,0.3c0,0.3-0.2,0.4-0.4,0.4c-0.2,0-0.3-0.2-0.6-0.7c-0.1-0.2-0.3-0.6-0.4-0.9l0-0.1
			C96.6,50.1,96.7,50.1,96.8,50.1"/>
		<path class="st0" d="M100,50.9l-0.5,0.5c-0.2,0.3-0.2,0.5-0.2,0.5c0,0-0.1,0.1-0.2,0.1l0,0c-0.1,0-0.2-0.1-0.2-0.2l0-0.4l0-0.4v0
			c0-0.2,0.1-0.2,0.2-0.3l0.5-0.1l0.5-0.3c0.1-0.1,0.2-0.1,0.2-0.1c0.1,0,0.1,0.1,0.1,0.1c0,0,0,0.1-0.1,0.1"/>
		<path class="st0" d="M56.4,52.7c-0.1,0-0.1,0-0.2,0.1L55.9,53c-0.1,0.1-0.3,0.1-0.4,0.1c-0.2,0-0.4-0.1-0.6-0.2l-0.2-0.1
			c-0.1,0-0.2-0.1-0.3-0.1c-0.3,0-0.4,0.2-0.4,0.5c0,0.2,0.1,0.4,0.2,0.7c0.5,0.9,0.9,1.4,1.3,1.4c0.2,0,0.5-0.4,0.8-0.9
			c0.3-0.5,0.5-0.9,0.5-1.1C56.8,52.9,56.6,52.7,56.4,52.7z M55.8,53.7l-0.1,0.4c-0.1,0.5-0.2,0.8-0.3,0.8c-0.1,0-0.1,0-0.2-0.1
			c-0.2-0.3-0.4-0.8-0.4-1c0-0.2,0.1-0.3,0.2-0.3l0,0l0.3,0l0.3,0l0.1,0C55.8,53.5,55.8,53.5,55.8,53.7L55.8,53.7z"/>
		<path class="st0" d="M99.3,52.5c-0.1,0-0.1,0-0.2,0.1l-0.3,0.1c-0.2,0.1-0.4,0.1-0.6,0.1c-0.1,0-0.2,0-0.3-0.1l-0.4-0.3
			c-0.1-0.1-0.2,0-0.3,0c-0.2,0-0.3,0.2-0.3,0.4c0,0.3,0.1,0.7,0.4,1.3c0.4,0.8,0.6,1,0.8,1c0.2,0,0.3-0.1,0.5-0.4l0.3-0.5
			c0.4-0.5,0.6-0.9,0.6-1.2C99.6,52.7,99.5,52.5,99.3,52.5z M98.7,53.9c-0.1,0.5-0.2,0.8-0.5,0.8c-0.2,0-0.3-0.2-0.3-0.4l0-0.4
			l0-0.1c0-0.3,0.1-0.4,0.2-0.4l0.1,0h0.2l0.1,0c0.2,0,0.3,0,0.3,0.2C98.8,53.6,98.7,53.6,98.7,53.9z"/>
		<path class="st0" d="M115.2,0.1c-4.5,0.2-7.6,0.3-9.6,0.3h-4l-1.8,0H60.2l-1.8,0h-4c-1.9,0-5.2-0.1-9.6-0.3L43.1,0
			c0.3,2.4,0.3,3.5,0.3,6.7l0,5.3l0,5v1.4v26.7c0,18.8,5.6,24.9,23.1,33.5c3.2,1.6,7.2,3.4,11.3,5.5l1,0.5l1,0.5l1-0.5l1-0.5
			c1-0.5,10.8-5.4,11.6-5.8c19.1-9.4,23.1-15.5,23.1-33.2V18.4V17l0-5l0-5.3c0-1.8,0.1-3.2,0.3-6.7L115.2,0.1z M87.5,1.7l0.3,0.1
			h27.1l0.3-0.1l-0.1,0.2v27.6l0.1,0.2l-0.3-0.1l-27.1,0l-0.3,0.1l0-0.2V1.9L87.5,1.7z M110.4,32.3c-0.1-0.1-0.2-0.2-0.2-0.2
			l-0.2-0.2l-0.1-0.1l0.2-0.2l0.2-0.2l0.2-0.2l0.1-0.2l0.2,0.2l0.2,0.2l0.2,0.2l0.2,0.2l-0.1,0.1l-0.2,0.2l-0.2,0.2l-0.1,0.1l0,0.2
			c0,1.9,0.6,3.6,1.6,4.1c0.1,0.1,0.2,0.1,0.2,0.2l0,0l-0.2,0h-0.2c-0.3,0-0.8-0.1-1.1-0.2l-0.2,1.7h-0.3l-0.2-1.7
			c-0.4,0.1-0.8,0.2-1.2,0.2c-0.3,0-0.3,0-0.3-0.1c0-0.1,0.1-0.1,0.2-0.2c0.2-0.1,0.5-0.4,0.7-0.8c0.4-0.6,0.6-1.1,0.6-1.4
			c0-0.5,0.1-0.9,0.2-0.9l0-0.9L110.4,32.3C110.5,32.4,110.4,32.3,110.4,32.3z M105.9,37.5l-0.2-0.2l-0.2-0.2l-0.1-0.1
			c0.1-0.1,0.1-0.1,0.2-0.2c0.3-0.3,0.4-0.4,0.5-0.6c0.1,0.1,0.1,0.1,0.2,0.2c0.1,0.1,0.2,0.2,0.2,0.2c0,0,0.1,0.1,0.2,0.2
			c0,0,0.1,0.1,0.2,0.2c0,0-0.1,0.1-0.1,0.1c-0.1,0.1-0.2,0.2-0.2,0.2c-0.1,0.1-0.2,0.2-0.2,0.2c0,0,0,0-0.1,0.1l0,0.3l0,0.9
			c0.1,1.3,0.7,2.7,1.5,3.1C108,42,108,42,108,42.1l0,0l-0.2,0h-0.2c-0.3,0-0.8-0.1-1.1-0.2l-0.2,1.7H106l-0.3-1.7
			c-0.3,0.1-0.8,0.2-1.2,0.2c-0.2,0-0.3,0-0.3-0.1c0-0.1,0.1-0.1,0.2-0.2c0.2-0.1,0.5-0.4,0.7-0.8c0.4-0.6,0.6-1.2,0.6-1.4
			c0-0.5,0.1-0.9,0.1-0.9l0-0.9L105.9,37.5L105.9,37.5z M101.4,32.3c-0.3-0.3-0.3-0.3-0.5-0.5l0.2-0.2l0.2-0.2l0.2-0.2l0.1-0.2
			l0.2,0.2l0.2,0.2l0.2,0.2l0.2,0.2l-0.1,0.1l-0.2,0.2l-0.2,0.2l-0.1,0.1l0,0.2c0,1.9,0.6,3.6,1.6,4.1c0.1,0.1,0.2,0.1,0.2,0.2l0,0
			l-0.2,0h-0.2c-0.3,0-0.8-0.1-1.1-0.2l-0.2,1.7h-0.3l-0.2-1.7c-0.4,0.1-0.8,0.2-1.2,0.2c-0.3,0-0.3,0-0.3-0.1
			c0-0.1,0.1-0.1,0.2-0.2c0.2-0.1,0.5-0.4,0.7-0.8c0.4-0.6,0.6-1.1,0.6-1.4c0-0.5,0.1-0.9,0.2-0.9l0-0.9L101.4,32.3
			C101.4,32.4,101.4,32.3,101.4,32.3z M96.9,37.5l-0.2-0.2l-0.2-0.2L96.4,37c0.1-0.1,0.1-0.1,0.2-0.2c0.3-0.3,0.4-0.4,0.5-0.6
			c0.1,0.1,0.1,0.1,0.2,0.2c0.1,0.1,0.2,0.2,0.2,0.2c0,0,0.1,0.1,0.2,0.2c0,0,0.1,0.1,0.2,0.2l-0.1,0.1l-0.2,0.2l-0.2,0.2l-0.1,0.1
			l0,0.3l0,0.9c0.1,1.3,0.7,2.7,1.5,3.1C98.9,42,99,42,99,42.1l0,0l-0.2,0h-0.2c-0.3,0-0.8-0.1-1.1-0.2l-0.2,1.7h-0.3L96.7,42
			c-0.3,0.1-0.8,0.2-1.2,0.2c-0.2,0-0.3,0-0.3-0.1c0-0.1,0.1-0.1,0.2-0.2c0.2-0.1,0.5-0.4,0.7-0.8c0.4-0.6,0.6-1.2,0.6-1.4
			c0-0.5,0.1-0.9,0.1-0.9l0-0.9L96.9,37.5L96.9,37.5z M92.4,32.3l-0.2-0.2L92,31.9l-0.1-0.1c0.1-0.1,0.2-0.1,0.2-0.2
			c0,0,0.1-0.1,0.2-0.2l0.2-0.2l0.2-0.2l0.2,0.2l0.2,0.2c0.1,0.1,0.2,0.2,0.2,0.2c0,0,0.1,0.1,0.2,0.2l-0.1,0.1L93,32.1l-0.2,0.2
			l-0.1,0.1l0,0.2c0,1.9,0.6,3.6,1.6,4.1c0.1,0.1,0.2,0.1,0.2,0.2l0,0l-0.2,0h-0.2c-0.3,0-0.8-0.1-1.1-0.2l-0.2,1.7h-0.3l-0.2-1.7
			c-0.3,0.1-0.8,0.2-1.1,0.2h-0.2c-0.1,0-0.2,0-0.2-0.1c0-0.1,0.1-0.1,0.2-0.2c0.9-0.5,1.6-2.2,1.6-4.1L92.4,32.3L92.4,32.3z
			 M82.4,10.4l0.3-0.3c0.3-0.2,0.4-0.4,0.8-1.2c0.2-0.3,0.3-0.6,0.3-0.8c0-0.5,0.1-0.9,0.1-0.9l0-0.8l0-0.3L84,6l-0.2-0.2
			c-0.1-0.1-0.2-0.2-0.2-0.2c0,0-0.1,0-0.1-0.1c0.1-0.1,0.1-0.1,0.2-0.2c0.1-0.1,0.2-0.2,0.2-0.2c0,0,0.1-0.1,0.2-0.2
			c0,0,0.1-0.1,0.2-0.2c0.2,0.3,0.2,0.3,0.5,0.6c0,0,0.1,0.1,0.2,0.2l-0.1,0.1l-0.2,0.2L84.4,6l-0.1,0.1l0,0.3l0,0.8
			c0.1,1.2,0.8,2.7,1.5,3.1c0.1,0.1,0.2,0.1,0.2,0.2c0,0.1,0,0.1-0.1,0.1l-0.3,0l-0.5,0c-0.1,0-0.2,0-0.4-0.1l-0.2,0l-0.2,1.7H84
			l-0.2-1.7l-0.3,0l-0.4,0.1l-0.4,0l-0.2,0h0c-0.1,0-0.2,0-0.2-0.1C82.3,10.5,82.3,10.5,82.4,10.4z M82.4,25.1l0.4-0.3
			c0.3-0.2,0.4-0.4,0.8-1.2c0.2-0.3,0.3-0.6,0.3-0.8c0-0.5,0.1-0.9,0.1-0.9l0-0.9l0-0.3l-0.1-0.1l-0.2-0.2l-0.2-0.2l-0.1-0.1
			c0.1-0.1,0.1-0.1,0.2-0.2c0.3-0.3,0.4-0.4,0.5-0.6c0.1,0.1,0.1,0.1,0.2,0.2c0.1,0.1,0.2,0.2,0.2,0.2c0,0,0.1,0.1,0.2,0.2
			c0,0,0.1,0.1,0.2,0.2c-0.1,0.1-0.1,0.1-0.1,0.1l-0.2,0.2l-0.2,0.2l-0.1,0.1l0,0.3l0,0.9c0.1,1.3,0.6,2.3,1.5,3.1l0.2,0.2l-0.2,0.1
			l-0.2,0l-0.4,0l-0.4-0.1l-0.2,0l-0.2,1.7H84l-0.3-1.8c-0.4,0.1-0.4,0.2-0.6,0.2l-0.5,0l-0.2,0l0,0c-0.1,0-0.1,0-0.1-0.1
			S82.3,25.2,82.4,25.1z M78.2,17.7c0.2-0.1,0.5-0.4,0.7-0.8c0.4-0.6,0.6-1.1,0.6-1.4c0-0.5,0.1-0.9,0.2-0.9l0-0.9l0-0.3
			c0,0-0.1-0.1-0.1-0.1c-0.1-0.1-0.2-0.2-0.2-0.2L79.2,13l-0.1-0.1l0.2-0.2l0.2-0.2c0.1-0.1,0.2-0.2,0.2-0.2c0,0,0.1-0.1,0.1-0.2
			l0.2,0.2l0.2,0.2c0.1,0.1,0.2,0.2,0.2,0.2c0,0,0.1,0.1,0.2,0.2L80.5,13l-0.2,0.2l-0.2,0.2L80,13.4l0,0.3l0,0.8
			c0.1,1.3,0.8,2.8,1.5,3.2c0.1,0.1,0.2,0.1,0.2,0.2l0,0l-0.2,0h-0.2c-0.3,0-0.8-0.1-1.1-0.2L80,19.5h-0.3l-0.2-1.7
			c-0.3,0.1-0.8,0.2-1.2,0.2C78,18,78,18,78,17.9C78,17.8,78,17.8,78.2,17.7z M73.9,10.4c0,0,0.1-0.1,0.4-0.3
			c0.3-0.2,0.4-0.4,0.8-1.2c0.2-0.3,0.3-0.6,0.3-0.8c0-0.5,0.1-0.9,0.1-0.9l0-0.8l0-0.3L75.4,6l-0.2-0.2L75,5.6l-0.1-0.1
			c0.1-0.1,0.1-0.1,0.2-0.2c0.3-0.3,0.4-0.4,0.5-0.6c0.1,0.1,0.1,0.1,0.2,0.2C75.9,5,76,5,76,5.1c0,0,0.1,0.1,0.2,0.2
			c0,0,0.1,0.1,0.2,0.2l-0.1,0.1l-0.2,0.2c0,0-0.1,0.1-0.2,0.2c0,0,0,0-0.1,0.1l0,0.3l0,0.8c0,0.8,0.4,2,0.8,2.4l0.5,0.5
			c0,0,0.1,0.1,0.3,0.2l0.2,0.2l-0.2,0.1l-0.2,0l-0.4,0l-0.4-0.1l-0.2,0l-0.3,1.6l-0.3,0.1l-0.2-1.7l-0.2,0l-0.4,0.1l-0.4,0l-0.2,0
			c-0.1,0-0.2,0-0.2-0.1C73.8,10.5,73.8,10.4,73.9,10.4z M73.9,25.1l0.3-0.3c0.8-0.6,1.3-2.1,1.3-3.9l0-0.2l-0.1-0.1l-0.2-0.2
			c-0.1-0.1-0.2-0.2-0.2-0.2c0,0-0.1-0.1-0.1-0.1C75,20.1,75,20,75.1,20c0.1-0.1,0.2-0.2,0.2-0.2l0.2-0.2l0.2-0.2l0.2,0.2l0.2,0.2
			c0,0.1,0.1,0.1,0.2,0.2l0.2,0.2c-0.1,0.1-0.1,0.1-0.1,0.1l-0.2,0.2l-0.2,0.2l-0.1,0.1l0,0.2c0,1.2,0.4,2.8,0.8,3.2l0.5,0.6
			c0,0,0.1,0.1,0.3,0.2l0.2,0.2l-0.2,0.1l-0.2,0l-0.4,0l-0.4-0.1l-0.2,0l-0.2,1.7h-0.3l-0.2-1.7l-0.2,0l-0.4,0.1l-0.4,0l-0.2,0l0,0
			c-0.1,0-0.2,0-0.2-0.1C73.7,25.2,73.8,25.2,73.9,25.1z M44.8,1.7l0.4,0.1h26.9l0.2-0.1l0,0.2v27.6l0,0.2l-0.2-0.1l-26.9,0
			l-0.3,0.1l0.1-0.2V1.9L44.8,1.7z M67,32.3l-0.2-0.2c-0.1-0.1-0.2-0.2-0.2-0.2c0,0-0.1,0-0.1-0.1c0.1-0.1,0.1-0.1,0.2-0.2
			c0.1-0.1,0.2-0.2,0.2-0.2c0,0,0.1-0.1,0.2-0.2c0,0,0.1-0.1,0.2-0.2c0.2,0.3,0.2,0.3,0.5,0.6c0,0,0.1,0.1,0.2,0.2l-0.1,0.1
			l-0.2,0.2l-0.2,0.2l-0.1,0.1l0,0.3l0,0.9c0.1,1.2,0.8,2.7,1.5,3.1c0.1,0.1,0.2,0.1,0.2,0.2c0,0.1,0,0.1-0.1,0.1l-0.3,0l-0.5,0
			c-0.1,0-0.2,0-0.4-0.1l-0.2,0l-0.2,1.7H67l-0.2-1.7l-0.2,0.1l-0.4,0.1l-0.4,0l-0.2,0l0,0c-0.1,0-0.2,0-0.2-0.1c0,0,0-0.1,0.1-0.2
			l0.3-0.3c0.3-0.2,0.4-0.4,0.8-1.2c0.2-0.3,0.3-0.6,0.3-0.8c0-0.5,0.1-0.9,0.1-0.9l0-0.9L67,32.3L67,32.3z M62.6,37.6L62.6,37.6
			l-0.3-0.3l-0.2-0.2L62,37.1c0.1-0.1,0.2-0.1,0.2-0.2c0.1-0.1,0.2-0.2,0.2-0.2l0.2-0.2l0.2-0.2c0.2,0.3,0.4,0.5,0.8,0.8l-0.1,0.1
			l-0.2,0.2l-0.2,0.2l-0.1,0.1l0,0.2c0,1.3,0.4,2.8,0.8,3.3l0.5,0.5c0,0,0.1,0.1,0.3,0.2l0.2,0.2l-0.2,0.1l-0.2,0l-0.4,0l-0.4-0.1
			l-0.2,0l-0.2,1.7h-0.3L62.3,42l-0.2,0l-0.4,0.1l-0.4,0l-0.2,0l0,0c-0.1,0-0.2,0-0.2-0.1c0,0,0-0.1,0.1-0.1l0.3-0.3
			c0.7-0.6,1.3-2.2,1.3-3.9L62.6,37.6z M58,32.3c-0.1-0.1-0.2-0.2-0.2-0.2l-0.2-0.2l-0.1-0.1c0.1-0.1,0.1-0.1,0.2-0.2
			c0.1-0.1,0.2-0.2,0.2-0.2c0,0,0.1-0.1,0.2-0.2c0,0,0.1-0.1,0.2-0.2c0.2,0.3,0.2,0.3,0.5,0.6c0,0,0.1,0.1,0.2,0.2l-0.1,0.1
			l-0.2,0.2l-0.2,0.2l-0.1,0.1l0,0.3l0,0.9c0.1,1.2,0.8,2.7,1.5,3.1c0.1,0.1,0.2,0.1,0.2,0.2c0,0.1,0,0.1-0.1,0.1l-0.3,0l-0.4,0
			l-0.4-0.1l-0.2,0l-0.2,1.7h-0.3l-0.2-1.7l-0.2,0l-0.4,0.1l-0.4,0l-0.2,0l0,0c-0.1,0-0.2,0-0.2-0.1s0-0.1,0.1-0.1l0.4-0.3
			c0.3-0.2,0.4-0.4,0.8-1.2c0.2-0.3,0.3-0.6,0.3-0.8c0-0.5,0.1-0.9,0.1-0.9l0-0.9L58,32.3C58.1,32.4,58,32.4,58,32.3z M53.6,37.6
			L53.6,37.6l-0.3-0.3l-0.2-0.2L53,37.1c0.4-0.3,0.5-0.5,0.8-0.8l0.2,0.2l0.2,0.2c0,0.1,0.1,0.1,0.2,0.2l0.2,0.2l-0.1,0.1l-0.2,0.2
			L54,37.6l-0.1,0.1l0,0.2c0,2,0.5,3.2,1.6,4.1l0.2,0.2l-0.2,0.1l-0.2,0l-0.4,0l-0.4-0.1l-0.2,0L54,43.7h-0.3L53.4,42l-0.2,0
			l-0.4,0.1l-0.4,0l-0.2,0l0,0c-0.1,0-0.2,0-0.2-0.1c0,0,0-0.1,0.1-0.1l0.4-0.3c0.8-0.6,1.3-2.2,1.3-3.9L53.6,37.6z M49.1,32.3
			l-0.2-0.2l-0.2-0.2l-0.1-0.1c0.1-0.1,0.1-0.1,0.2-0.2c0.3-0.3,0.4-0.4,0.5-0.6c0.1,0.1,0.1,0.1,0.2,0.2c0.1,0.1,0.2,0.2,0.2,0.2
			c0,0,0.1,0.1,0.2,0.2c0,0,0.1,0.1,0.2,0.2C50,31.9,50,31.9,50,31.9l-0.2,0.2l-0.2,0.2l-0.1,0.1l0,0.2c0,1.9,0.5,3.2,1.6,4.1
			l0.2,0.2L51,37l-0.2,0l-0.4,0L50,36.8l-0.2,0l-0.2,1.7h-0.3l-0.2-1.7l-0.2,0c-0.2,0-0.3,0.1-0.4,0.1l-0.5,0l-0.2,0
			c-0.1,0-0.2,0-0.2-0.1c0,0,0-0.1,0.1-0.1l0.4-0.3c0.3-0.2,0.5-0.5,0.8-1.2c0.2-0.3,0.2-0.6,0.2-0.8c0-0.5,0.1-0.9,0.2-0.9l0-0.9
			L49.1,32.3L49.1,32.3z M72.3,79.9l-0.1-0.2l-1.7-0.8l-4.9-2.4c-15.6-7.5-20.6-14.9-20.6-30v-1.6l-0.1-0.2l0.2,0.1h27.2l0.1-0.1
			l0,0.2l0,34.8L72.3,79.9z M77.6,76.6l-0.2,0h-0.2c-0.2,0-0.5-0.1-1.1-0.2l-0.2,1.7h-0.3l-0.2-1.7c-0.5,0.1-0.9,0.2-1.2,0.2
			c-0.2,0-0.3,0-0.3-0.1c0-0.1,0.1-0.1,0.2-0.2c0.2-0.1,0.5-0.4,0.7-0.8c0.4-0.6,0.6-1.2,0.6-1.4c0-0.5,0.1-0.9,0.1-0.9l0-0.9l0-0.3
			c0,0-0.1-0.1-0.1-0.1c-0.1-0.1-0.2-0.2-0.2-0.2l-0.2-0.2L75,71.5l0.2-0.2l0.2-0.2l0.2-0.2l0.1-0.2l0.2,0.2l0.2,0.2l0.2,0.2
			l0.2,0.2l-0.1,0.1l-0.2,0.2L75.9,72l-0.1,0.1l0,0.3l0,0.9c0.1,1.3,0.7,2.7,1.5,3.1C77.6,76.4,77.6,76.5,77.6,76.6L77.6,76.6z
			 M77.3,61.3c-0.4,0-0.8-0.1-1.2-0.2l-0.2,1.7h-0.3l-0.2-1.7c-0.3,0.1-0.8,0.2-1.1,0.2h-0.2c-0.1,0-0.2,0-0.2-0.1
			c0-0.1,0.1-0.1,0.2-0.2c0.2-0.1,0.5-0.4,0.7-0.8c0.4-0.7,0.6-1.1,0.6-1.4c0-0.5,0.1-0.9,0.1-0.9l0-0.9l0-0.3l-0.1-0.1l-0.2-0.2
			l-0.2-0.2L75,56.1c0.1-0.1,0.1-0.1,0.2-0.2c0.1-0.1,0.2-0.2,0.2-0.2c0,0,0.1-0.1,0.2-0.2c0,0,0.1-0.1,0.2-0.2
			c0.2,0.3,0.2,0.3,0.5,0.6c0,0,0.1,0.1,0.2,0.2l-0.1,0.1l-0.2,0.2L76,56.6l-0.1,0.1l0,0.3l0,0.9c0,0.8,0.4,1.8,0.8,2.3
			c0.3,0.4,0.5,0.7,0.7,0.8c0.2,0.1,0.2,0.1,0.2,0.2C77.7,61.2,77.6,61.3,77.3,61.3z M76.4,43.2v4.7h-2.7v-4.7h-2.3V31h2.5
			c0.3-0.6,0.7-0.9,1.3-0.9c0.6,0,1,0.2,1.3,0.9h2c0.2-0.5,0.7-0.9,1.3-0.9c0.6,0,1.1,0.4,1.3,0.9H83c0.3-0.6,0.7-0.9,1.2-0.9
			c0.5,0,1,0.2,1.3,0.7l0.1,0.1h2.6v12.2h-2.3v4.7h-2.7v-4.7H76.4z M78.2,53.3c0.2-0.1,0.5-0.4,0.7-0.8c0.4-0.7,0.6-1.1,0.6-1.4
			c0-0.5,0.1-0.9,0.1-0.9l0-0.9l0-0.3l-0.1-0.1l-0.2-0.2l-0.2-0.2l-0.1-0.1l0.2-0.2l0.2-0.2l0.2-0.2l0.2-0.2l0.1,0.2l0.2,0.2
			l0.2,0.2l0.2,0.2l-0.1,0.1l-0.2,0.2c0,0-0.1,0.1-0.2,0.2c0,0-0.1,0.1-0.1,0.1l0,0.3l0,0.9c0.1,1.3,0.8,2.8,1.5,3.1
			c0.2,0.1,0.2,0.1,0.2,0.2c0,0.1-0.1,0.1-0.3,0.1c-0.3,0-0.7-0.1-1.2-0.2L80,55.1h-0.3l-0.2-1.7c-0.6,0.1-0.9,0.2-1.1,0.2h-0.2
			c-0.1,0-0.2,0-0.2-0.1C78,53.4,78.1,53.4,78.2,53.3z M81.8,68.8l-0.2,0.1l-0.2,0l-0.5,0c-0.1,0-0.2,0-0.4-0.1l-0.2,0L80,70.4h-0.3
			l-0.2-1.7l-0.2,0l-0.4,0.1l-0.4,0l-0.2,0l0,0c-0.1,0-0.2,0-0.2-0.1c0-0.1,0.1-0.1,0.2-0.2c0.2-0.1,0.5-0.4,0.7-0.8
			c0.4-0.7,0.6-1.1,0.6-1.4c0-0.5,0.1-0.9,0.1-0.9l0-0.9l0-0.3l-0.1-0.1l-0.2-0.2l-0.2-0.2l-0.1-0.1l0.2-0.2l0.2-0.2l0.2-0.2
			l0.2-0.2l0.1,0.2l0.2,0.2l0.2,0.2l0.2,0.2l-0.1,0.1l-0.2,0.2c0,0-0.1,0.1-0.2,0.2c0,0-0.1,0.1-0.1,0.1l0,0.3l0,0.9
			c0.1,1.3,0.8,2.8,1.5,3.1C81.7,68.7,81.8,68.7,81.8,68.8L81.8,68.8z M85.8,76.7c-0.3,0-0.7-0.1-1.2-0.2l-0.2,1.7H84l-0.2-1.7
			c-0.6,0.1-0.9,0.2-1.1,0.2h-0.2c-0.1,0-0.2,0-0.2-0.1c0-0.1,0.1-0.1,0.2-0.2c0.2-0.1,0.5-0.4,0.7-0.8c0.4-0.7,0.6-1.1,0.6-1.4
			c0-0.5,0.1-0.9,0.1-0.9l0-0.9l0-0.3L84,72l-0.2-0.2l-0.2-0.2l-0.1-0.1l0.2-0.2l0.2-0.2l0.2-0.2l0.2-0.2l0.1,0.2l0.2,0.2l0.2,0.3
			l0.2,0.2l-0.1,0.1l-0.2,0.2c0,0-0.1,0.1-0.2,0.2c0,0-0.1,0.1-0.1,0.1l0,0.3l0,0.9c0,0.8,0.4,1.8,0.8,2.3c0.3,0.4,0.5,0.7,0.7,0.8
			c0.2,0.1,0.2,0.1,0.2,0.2C86.1,76.6,86,76.7,85.8,76.7z M85.7,61.3c-0.4,0-0.8-0.1-1.2-0.2l-0.2,1.7H84l-0.2-1.7
			c-0.3,0.1-0.8,0.2-1.1,0.2h-0.2c-0.1,0-0.2,0-0.2-0.1c0-0.1,0.1-0.1,0.2-0.2c0.2-0.1,0.5-0.4,0.7-0.8c0.4-0.7,0.6-1.1,0.6-1.4
			c0-0.5,0.1-0.9,0.1-0.9l0-0.9l0-0.3L84,56.6l-0.2-0.2l-0.2-0.2l-0.1-0.1c0.1-0.1,0.1-0.1,0.2-0.2c0.1-0.1,0.2-0.2,0.2-0.2
			c0,0,0.1-0.1,0.2-0.2c0,0,0.1-0.1,0.2-0.2c0.2,0.3,0.2,0.3,0.5,0.6c0,0,0.1,0.1,0.2,0.2l-0.1,0.1l-0.2,0.2l-0.2,0.2l-0.1,0.1
			l0,0.3l0,0.9c0,0.8,0.4,1.8,0.8,2.3c0.3,0.4,0.5,0.7,0.7,0.8c0.2,0.1,0.2,0.1,0.2,0.2C86.1,61.2,86,61.3,85.7,61.3z M115.1,44.9
			v1.7c0,16.4-4.8,22.3-25.9,32.3l-1.6,0.7l-0.2,0.2l0-0.3V44.9l0-0.2l0.2,0.1l27.3,0l0.2-0.1L115.1,44.9z"/>
		<g>
			<path class="st0" d="M73.9,40.1c-0.3,0-0.6,0.3-0.6,0.6c0,0.3,0.3,0.6,0.6,0.6c0.3,0,0.6-0.3,0.6-0.6
				C74.5,40.3,74.3,40.1,73.9,40.1z"/>
			<path class="st0" d="M73.9,34.5c-0.3,0-0.6,0.3-0.6,0.6c0,0.3,0.3,0.6,0.6,0.6c0.3,0,0.6-0.3,0.6-0.6
				C74.5,34.8,74.3,34.5,73.9,34.5z"/>
			<path class="st0" d="M85.7,40.1c-0.3,0-0.6,0.3-0.6,0.6c0,0.3,0.3,0.6,0.6,0.6c0.3,0,0.6-0.3,0.6-0.6
				C86.3,40.3,86,40.1,85.7,40.1z"/>
			<path class="st0" d="M85.7,34.5c-0.3,0-0.6,0.3-0.6,0.6c0,0.3,0.3,0.6,0.6,0.6c0.3,0,0.6-0.3,0.6-0.6
				C86.3,34.8,86,34.5,85.7,34.5z"/>
			<path class="st0" d="M72.4,33.1v9.2h15v-9.2H72.4z M73.9,41.5c-0.5,0-0.8-0.4-0.8-0.8c0-0.4,0.4-0.8,0.8-0.8
				c0.4,0,0.8,0.4,0.8,0.8C74.7,41.1,74.4,41.5,73.9,41.5z M73.9,35.9c-0.4,0-0.8-0.4-0.8-0.8c0-0.4,0.4-0.8,0.8-0.8
				c0.4,0,0.8,0.4,0.8,0.8C74.7,35.5,74.4,35.9,73.9,35.9z M79.8,39.6c-1.5,0-2.7-0.6-3.7-1.8c0.9-1,2.2-1.6,3.6-1.6
				c1.4,0,2.4,0.5,3.6,1.6C82.2,39.1,81.2,39.6,79.8,39.6z M85.7,41.5c-0.4,0-0.8-0.4-0.8-0.8c0-0.4,0.4-0.8,0.8-0.8
				c0.4,0,0.8,0.4,0.8,0.8C86.5,41.1,86.1,41.5,85.7,41.5z M85.7,35.9c-0.4,0-0.8-0.4-0.8-0.8c0-0.4,0.4-0.8,0.8-0.8
				c0.4,0,0.8,0.4,0.8,0.8C86.5,35.5,86.1,35.9,85.7,35.9z"/>
		</g>
		<path class="st0" d="M79.7,36.7c-1,0-1.9,0.3-2.9,1.1c0.8,0.8,1.8,1.2,2.9,1.2c1.2,0,2-0.3,2.9-1.2C81.6,37,80.8,36.7,79.7,36.7z
			 M79.7,38.1c-0.6,0-1-0.2-1.6-0.5c0.5-0.3,1.1-0.4,1.6-0.4c0.6,0,1.1,0.1,1.7,0.4C80.9,37.9,80.3,38.1,79.7,38.1z"/>
		<rect x="74.2" y="44.3" class="st0" width="1.4" height="1.8"/>
		<rect x="74.2" y="46.5" class="st0" width="1.4" height="0.6"/>
		<rect x="83.7" y="44.3" class="st0" width="1.4" height="1.8"/>
		<rect x="83.7" y="46.5" class="st0" width="1.4" height="0.6"/>
		<rect x="72.4" y="32" class="st0" width="15" height="0.5"/>
		<path class="st0" d="M75.8,31.6c0-0.4-0.3-0.6-0.6-0.6s-0.6,0.3-0.6,0.6v0.7h1.3V31.6z"/>
		<path class="st0" d="M80.4,31.6c0-0.4-0.3-0.6-0.6-0.6s-0.6,0.3-0.6,0.6v0.7h1.3V31.6z"/>
		<path class="st0" d="M84.9,31.6c0-0.4-0.3-0.6-0.6-0.6s-0.6,0.3-0.6,0.6v0.7h1.3V31.6z"/>
	</g>
</g>
</svg>
