<?xml version="1.0" encoding="utf-8"?>
<!-- Generator: Adobe Illustrator 22.0.1, SVG Export Plug-In . SVG Version: 6.00 Build 0)  -->
<!DOCTYPE svg PUBLIC "-//W3C//DTD SVG 1.1//EN" "http://www.w3.org/Graphics/SVG/1.1/DTD/svg11.dtd">
<svg version="1.1" id="Layer_1" xmlns="http://www.w3.org/2000/svg" xmlns:xlink="http://www.w3.org/1999/xlink" x="0px" y="0px"
	 viewBox="0 0 1600 1067" style="enable-background:new 0 0 1600 1067;" xml:space="preserve">
<style type="text/css">
	.st0{fill:#ef604e;}
</style>
<g>
	<path class="st0" d="M0.5,377.1h32.2l112,249.9l110.6-249.9h30.2L156.8,660h-25.1L0.5,377.1z M823.3,338.5h27.1v-32.7h-27.1V338.5z
		 M378.5,377.1h27.1v80.4c22.3-50.5,69.4-87.2,125.5-84.9v29.9h-2.8c-65.4,0-122.7,49.4-122.7,141.6V660h-27.1V377.1z M526.6,698.6
		l15.8-22.3c33,26.2,70.8,40.1,111.4,40.1c63.2,0,107.7-37.2,107.7-110v-33.3c-18.3,33-60.1,65.4-114.8,65.4
		c-66.6,0-132.6-52.2-132.6-133.1v-1.1c0-81.5,66-134.3,132.6-134.3c55.3,0,98.2,31,114.8,63.2v-56.7H788v231.3
		c0,40.9-12.7,73.3-34.7,95.9c-23.7,24.5-59.5,37.8-100.1,37.8C591.7,742.1,544.9,714.4,526.6,698.6z M761.2,505.2V504
		c0-65.4-54.4-107.7-112-107.7c-57.8,0-106.6,41.2-106.6,107.2v1.1c0,63.7,49.6,108.3,106.6,108.3
		C706.8,612.9,761.2,569.5,761.2,505.2z M823.3,377.1h27.1V660h-27.1V377.1z M314.2,338.5h27.1v-32.7h-27.1V338.5z M314.2,377.1
		h27.1V660h-27.1V377.1z M1.4,978.2V977c0-69.1,63.7-92.2,125.2-92.2h87.2l0,0c0-57.3-34.4-86.6-91.7-86.6
		c-33.8,0-61.8,9.6-87.4,22.8l-10.7-24c27.9-14.1,61.5-24.5,99.8-24.5c37.5,0,67.7,10.4,88,31c18.6,18.9,28.5,44.8,28.5,79.8v176.6
		H214v-47.1c-13.3,24.3-52.7,53.9-106.3,53.9C55.5,1067,1.4,1036.8,1.4,978.2z M214.3,953.1v-43.7h-80.9
		c-63.5,0-102.9,19.5-102.9,66.8v1.1c0,41.2,35.8,64.9,78.4,64.9C153.1,1041.9,214.3,1015.7,214.3,953.1z M439.1,978.2V977
		c0-69.1,63.7-92.2,124.9-92.2h87.2l0,0c0-57.3-34.4-86.6-91.7-86.6c-33.8,0-61.8,9.6-87.4,22.8l-10.7-24
		c27.9-14.1,61.5-24.5,99.8-24.5c37.5,0,67.7,10.4,87.7,31c18.6,18.9,28.5,44.8,28.5,79.8v176.6h-26.2v-47.1
		c-13.3,24.3-52.7,53.9-106.3,53.9C493.3,1067,439.1,1036.8,439.1,978.2z M652.1,953.1v-43.7h-80.9c-63.5,0-102.9,19.5-102.9,66.8
		v1.1c0,41.2,35.8,64.9,78.4,64.9C591.1,1041.9,652.1,1015.7,652.1,953.1z M378.5,700.6h27.1v359.6h-27.1V700.6z M713,775.6h27.1
		v52.7c18.9-33.3,50.5-59.5,102.1-59.5c82.9,0,112.8,60.9,112.8,119l0.3,172.3h-26.8V900.9c0-39.8-10.4-106.9-90-106.9
		c-55.6,0-98.2,42.3-98.2,101v165.3h-27.1V775.6H713z M1100.8,775.6h27.1v284.6h-27.1V775.6z M1162,918.4v-1.1
		c0-79.3,58.9-148.1,143.8-148.1c57.3,0,94.5,29.6,113.1,52.5l-19.2,19.7c-21.7-23.4-49.1-46.5-94.5-46.5
		c-64.3,0-113.7,53.9-113.7,121.6v1.1c0,68.3,51.1,122.7,115.9,122.7c40.1,0,70.8-19.2,94.8-45.4l18.6,16.6
		c-17.5,22.6-55.8,54.4-115.1,54.4C1221,1065.6,1162,997.6,1162,918.4z M299.8,1060.2V800.7h56.7v-25.1h-56.7v-75h-27.1v75v25.1
		v259.5H299.8z M1016.5,1060.2V800.7h56.7v-25.1h-56.7v-75h-27.1v75v25.1v259.5H1016.5z M1100.8,732.5h27.1v-32.7h-27.1V732.5z
		 M885.3,376.8h27.1v52.7c18.9-33.3,50.5-59.5,102.1-59.5c82.9,0,112.8,60.9,112.8,119l0.3,170.9h-27.1V502.1
		c0-39.8-10.4-106.9-90-106.9c-55.6,0-98.2,42.3-98.2,101V660h-27.1L885.3,376.8L885.3,376.8z"/>
	<path class="st0" d="M1356.1,0c-75.3,0-93.6,12.4-123.8,45.4L1014.5,284c173.7-8.2,227.6,167,403.9,119L1599.5,0H1356.1z
		 M1404,109.2c8.7-6.5,11.8-1.7,11.8-1.7c3.4,4.5-3.9,10.7-3.9,10.7c-6.2,6.2-10.7,2-10.7,2C1396.1,115.6,1404,109.2,1404,109.2z
		 M1385.4,191.5l1.1-7.6l6.2-37.2c1.4-8.5,9.9-10.2,9.9-10.2c6.8-1.7,4.8,8.2,4.5,9.6c0,1.4-4.8,39.2-4.8,39.2
		c-1.7,10.2-10.4,12.1-10.4,12.1C1383.7,199.7,1385.4,191.5,1385.4,191.5z M1319.7,175.7c3.7,6.8-7.6,12.1-7.6,12.1
		c-10.4,5.6-10.7,18.9-10.7,18.9l-1.4,17.8c-1.1,12.7-10.2,15.2-10.2,15.2c-11,3.9-6.8-16.9-6.8-16.9c0.3-5.6,3.4-30.2,3.4-30.2
		c0.8-15.2,9-15.8,9.3-15.8c0.8-0.3,7.6-1.1,7.6-1.1s2.5-0.3,7.6-2.5C1317.4,170.4,1319.7,175.7,1319.7,175.7z M1265.2,166.4
		c0,0-2.5-5.6,5.1-11.3c0,0,9.3-7.9,11.8-0.6c0,0,2,4.5-4.8,10.2C1277.4,164.7,1268.6,172.1,1265.2,166.4z M1272.3,199.4l-5.4,32.2
		l-1.7,11.8c0,0-0.6,6.2-5.6,9.3c0,0-12.1,7.1-11.3-2.3l5.6-47.4c0,0,1.1-11.8,11.6-14.4C1265.5,188.7,1274,186.4,1272.3,199.4z
		 M1210,309.7c-7.3,0.3-8.5-8.5-8.5-9.3c0-0.8-10.7-109.2-10.7-109.2s-0.6-4.5-1.7-4.8c0,0-1.7-0.6-3.7,3.9l-9.9,22.3
		c-4.2,9.3-11,5.6-11,5.6c-6.2-2.5-2.5-9.6-2.5-9.6l21.7-55.6c4.5-12.1,12.4-10.7,12.4-10.7c6.8,0.6,6.8,7.9,7.1,10.7
		c0.3,3.1,9,83.8,9,83.8c0.3,8.7,1.7,5.6,1.7,5.6c16.1-96.7,65.2-192.9,65.2-192.9c10.4-18.3,23.7-7.9,23.7-7.9
		c5.1,3.9,4.5,10.2,4.5,10.2c0,9.3-9.3,15.2-9.3,15.2c-8.5,6.8-18.9,26.8-18.9,26.8c-11.8,19.2-25.4,55.8-35.5,92.2
		c-15.5,55.8-24.8,107.7-25.7,112.5C1216.7,303.8,1215.3,309.7,1210,309.7z M1487.5,181.1c-5.1,1.7-9,3.1-9,3.1
		c-12.1,3.9-25.9,9.6-25.9,9.6c-32.2,14.1-60.9,29.6-86,44.8c-0.3,3.7-0.6,6.8-0.6,8.7c0,0-3.7,53.6-4.2,61.5c0,0,0,9.6,1.4,15.5
		c1.7,5.9,5.9,18.3-2.3,23.7c-6.5,4.2-12.4-0.6-13.8-2.3c-0.8-1.1-3.4-4.2-1.7-19.2c0,0,3.4-38.4,4.2-50.8l1.7-27.6
		c-65.2,41.7-100.4,79-100.4,79c-3.4,3.4-12.1,11-18.6,2.8c-5.9-7.9,9.9-19.7,9.9-19.7c34.4-30.2,74.2-57,110.3-78.4l0.6-8.5
		c0,0,0.3-2.8-2.5-0.8c0,0-12.1,7.3-21.2,3.4c0,0-7.1-3.1-7.1-13.8c0,0-0.6-33.6,13.3-47.7c0,0,7.9-8.7,15.8-8.5
		c4.8,0,4.2,7.1-2,12.4c-6.2,5.6-6.8,12.4-9,20.6c0,0-4.8,22.8,3.7,21.7c0,0,8.5,0.6,11-13.8c0,0,5.4-31.6,5.9-35.5
		c0.6-3.9,1.4-13,9-12.7c0,0,7.9-0.3,7.1,6.2c0,0-5.1,39.2-8.2,67.1c49.4-28.2,87.4-45.1,87.4-45.1c1.4-0.8,0.8-1.1,0.8-1.1
		c-5.9-2-3.4-15.2-3.4-15.2l2.5-26.8c0-6.5-7.9-2.5-7.9-2.5c-5.4,3.4-9.3,10.7-9.3,10.7c-3.1,4.5-4.8,27.9-4.8,27.9
		c-0.6,12.1-7.6,14.1-7.6,14.1c-8.2,2.8-9.3-1.7-9.3-1.7c-0.8-2.3,0.8-13.5,0.8-13.5l3.1-29.1c0.3-12.1,9.3-14.7,9.3-14.7
		c2-0.8,4.8-1.1,7.6-0.3c2.8,0.8,4.8,0.8,6.5,0.3c2.8-0.8,6.8-4.5,6.8-4.5c7.6-7.1,12.7-6.5,12.7-6.5c9.3,0,8.2,11.8,8.2,11.8
		l-2.8,32.7c-0.8,14.1,9.3,8.5,9.6,8.5c0.3,0,3.9-1.7,12.4-5.6c7.9-3.7,12.7-1.7,14.4,1.4c2,3.1,1.4,6.2-0.6,9.3
		C1503,176,1494.3,179.1,1487.5,181.1z"/>
</g>
</svg>
