<?xml version="1.0" encoding="utf-8"?>
<!-- Generator: Adobe Illustrator 22.1.0, SVG Export Plug-In . SVG Version: 6.00 Build 0)  -->
<!DOCTYPE svg PUBLIC "-//W3C//DTD SVG 1.1//EN" "http://www.w3.org/Graphics/SVG/1.1/DTD/svg11.dtd">
<svg version="1.1" id="Layer_1" xmlns="http://www.w3.org/2000/svg" xmlns:xlink="http://www.w3.org/1999/xlink" x="0px" y="0px"
	 viewBox="0 0 1000 1000" style="enable-background:new 0 0 1000 1000;" xml:space="preserve">
<style type="text/css">
	.st0{fill:none;stroke:#FFE01B;stroke-width:8;stroke-miterlimit:10;}
	.st1{fill:#FFE01B;stroke:#0B1632;stroke-miterlimit:10;}
	.st2{fill:#FFE01B;}
	.st3{fill:#EF1373;}
</style>
<line class="st0" x1="64.7" y1="862" x2="64.7" y2="715"/>
<line class="st0" x1="255.9" y1="778.5" x2="255.9" y2="715"/>
<path class="st1" d="M72.4,745.4L72.4,745.4c1.7,1.4,2,3.9,0.6,5.6l-10.6,13.3c-1.4,1.7-3.9,2-5.6,0.6l0,0c-1.7-1.4-2-3.9-0.6-5.6
	L66.8,746C68.2,744.3,70.7,744.1,72.4,745.4z"/>
<path class="st1" d="M72.4,757.4L72.4,757.4c1.7,1.4,2,3.9,0.6,5.6l-10.6,13.3c-1.4,1.7-3.9,2-5.6,0.6l0,0c-1.7-1.4-2-3.9-0.6-5.6
	L66.8,758C68.2,756.3,70.7,756,72.4,757.4z"/>
<path class="st1" d="M72.4,770L72.4,770c1.7,1.4,2,3.9,0.6,5.6l-10.6,13.3c-1.4,1.7-3.9,2-5.6,0.6l0,0c-1.7-1.4-2-3.9-0.6-5.6
	l10.6-13.3C68.2,768.9,70.7,768.6,72.4,770z"/>
<path class="st1" d="M72.4,782.6L72.4,782.6c1.7,1.4,2,3.9,0.6,5.6l-10.6,13.3c-1.4,1.7-3.9,2-5.6,0.6l0,0c-1.7-1.4-2-3.9-0.6-5.6
	l10.6-13.3C68.2,781.5,70.7,781.2,72.4,782.6z"/>
<path class="st1" d="M72.4,795.3L72.4,795.3c1.7,1.4,2,3.9,0.6,5.6l-10.6,13.3c-1.4,1.7-3.9,2-5.6,0.6l0,0c-1.7-1.4-2-3.9-0.6-5.6
	l10.6-13.3C68.2,794.2,70.7,793.9,72.4,795.3z"/>
<path class="st1" d="M72.4,807.1L72.4,807.1c1.7,1.4,2,3.9,0.6,5.6L62.4,826c-1.4,1.7-3.9,2-5.6,0.6l0,0c-1.7-1.4-2-3.9-0.6-5.6
	l10.6-13.3C68.2,806,70.7,805.7,72.4,807.1z"/>
<path class="st1" d="M76.3,744L76.3,744c0.8,2.1-0.3,4.4-2.4,5.1l-16,5.8c-2.1,0.8-4.4-0.3-5.1-2.4l0,0c-0.8-2.1,0.3-4.4,2.4-5.1
	l16-5.8C73.3,740.8,75.6,741.9,76.3,744z"/>
<path class="st1" d="M76.3,756.6L76.3,756.6c0.8,2.1-0.3,4.4-2.4,5.1l-16,5.8c-2.1,0.8-4.4-0.3-5.1-2.4l0,0
	c-0.8-2.1,0.3-4.4,2.4-5.1l16-5.8C73.3,753.4,75.6,754.5,76.3,756.6z"/>
<path class="st1" d="M76.3,769.2L76.3,769.2c0.8,2.1-0.3,4.4-2.4,5.1l-16,5.8c-2.1,0.8-4.4-0.3-5.1-2.4l0,0
	c-0.8-2.1,0.3-4.4,2.4-5.1l16-5.8C73.3,766,75.6,767.1,76.3,769.2z"/>
<path class="st1" d="M76.3,781.8L76.3,781.8c0.8,2.1-0.3,4.4-2.4,5.1l-16,5.8c-2.1,0.8-4.4-0.3-5.1-2.4l0,0
	c-0.8-2.1,0.3-4.4,2.4-5.1l16-5.8C73.3,778.6,75.6,779.7,76.3,781.8z"/>
<path class="st1" d="M76.3,794.4L76.3,794.4c0.8,2.1-0.3,4.4-2.4,5.1l-16,5.8c-2.1,0.8-4.4-0.3-5.1-2.4l0,0
	c-0.8-2.1,0.3-4.4,2.4-5.1l16-5.8C73.3,791.2,75.6,792.3,76.3,794.4z"/>
<path class="st1" d="M76.3,807L76.3,807c0.8,2.1-0.3,4.4-2.4,5.1l-16,5.8c-2.1,0.8-4.4-0.3-5.1-2.4l0,0c-0.8-2.1,0.3-4.4,2.4-5.1
	l16-5.8C73.3,803.8,75.6,804.9,76.3,807z"/>
<path class="st1" d="M76.3,819.6L76.3,819.6c0.8,2.1-0.3,4.4-2.4,5.1l-16,5.8c-2.1,0.8-4.4-0.3-5.1-2.4l0,0
	c-0.8-2.1,0.3-4.4,2.4-5.1l16-5.8C73.3,816.4,75.6,817.5,76.3,819.6z"/>
<path class="st2" d="M72.1,945.4h-15c-0.6,0-1-0.4-1-1v-41h17v41C73.1,945,72.6,945.4,72.1,945.4z"/>
<path class="st2" d="M72.1,961.4h-15c-0.6,0-1-0.4-1-1v-11c0-0.6,0.4-1,1-1h15c0.6,0,1,0.4,1,1v11C73.1,961,72.6,961.4,72.1,961.4z"
	/>
<path class="st2" d="M77.6,885.4h-26c-0.6,0-1-0.4-1-1v-19h28v19C78.6,885,78.1,885.4,77.6,885.4z"/>
<path class="st2" d="M74.6,903.4h-20c-1.1,0-2-0.9-2-2v-16h24v16C76.6,902.5,75.7,903.4,74.6,903.4z"/>
<rect x="57.1" y="945.4" class="st3" width="15" height="3"/>
<rect x="57.1" y="961.4" class="st3" width="15" height="3"/>
<path class="st2" d="M72.1,967.4h-15c-0.6,0-1-0.4-1-1v-1c0-0.6,0.4-1,1-1h15c0.6,0,1,0.4,1,1v1C73.1,967,72.6,967.4,72.1,967.4z"/>
<path class="st2" d="M57.1,967.4l1.8,3.8c0.4,0.9,0.4,1.9-0.1,2.7l-1.3,2.2c-0.6,1-0.5,2.3,0.2,3.2l4.6,5.9c1.2,1.5,3.5,1.5,4.7,0
	l4.6-5.9c0.7-0.9,0.8-2.2,0.2-3.2l-1.3-2.2c-0.5-0.8-0.5-1.8-0.1-2.7l1.8-3.8H57.1z"/>
<path class="st2" d="M78.6,865.4c0,0-0.6-3.4-13.9-3.4s-14.1,3.4-14.1,3.4H78.6z"/>
<path class="st0" d="M65.1,715c0-52.7,42.7-95.4,95.4-95.4s95.4,42.7,95.4,95.4"/>
<path class="st0" d="M507.9,1030.4c-139.3,0-252-112.8-252-252"/>
</svg>
