<?xml version="1.0" encoding="utf-8"?>
<!-- Generator: Adobe Illustrator 22.1.0, SVG Export Plug-In . SVG Version: 6.00 Build 0)  -->
<!DOCTYPE svg PUBLIC "-//W3C//DTD SVG 1.1//EN" "http://www.w3.org/Graphics/SVG/1.1/DTD/svg11.dtd">
<svg version="1.1" id="Layer_1" xmlns="http://www.w3.org/2000/svg" xmlns:xlink="http://www.w3.org/1999/xlink" x="0px" y="0px"
	 viewBox="0 0 320 68" style="enable-background:new 0 0 320 68;" xml:space="preserve">
<style type="text/css">
	.st0{fill:#FFFFFF;}
</style>
<path class="st0" d="M54,18h-4h-8.8c-2.9,0-5.2,2.3-5.2,5.2V32v22v10c0,2.2,1.8,4,4,4h10h4h10c2.2,0,4-1.8,4-4V54V32v-8.8
	c0-2.9-2.3-5.2-5.2-5.2H54z M52,54L52,54c-1.1,0-2-0.9-2-2V34c0-1.1,0.9-2,2-2l0,0c1.1,0,2,0.9,2,2v18C54,53.1,53.1,54,52,54z"/>
</svg>
