<?xml version="1.0" encoding="utf-8"?>
<!-- Generator: Adobe Illustrator 22.1.0, SVG Export Plug-In . SVG Version: 6.00 Build 0)  -->
<!DOCTYPE svg PUBLIC "-//W3C//DTD SVG 1.1//EN" "http://www.w3.org/Graphics/SVG/1.1/DTD/svg11.dtd">
<svg version="1.1" id="Layer_1" xmlns="http://www.w3.org/2000/svg" xmlns:xlink="http://www.w3.org/1999/xlink" x="0px" y="0px"
	 viewBox="0 0 320 68" style="enable-background:new 0 0 320 68;" xml:space="preserve">
<style type="text/css">
	.st0{fill:#FFFFFF;}
</style>
<path class="st0" d="M180,0h-4h-8.8c-2.9,0-5.2,2.3-5.2,5.2V14v22v10c0,2.2,1.8,4,4,4h10h4h10c2.2,0,4-1.8,4-4V36V14V5.2
	c0-2.9-2.3-5.2-5.2-5.2H180z M178,36L178,36c-1.1,0-2-0.9-2-2V16c0-1.1,0.9-2,2-2l0,0c1.1,0,2,0.9,2,2v18C180,35.1,179.1,36,178,36z
	"/>
</svg>
