<?xml version="1.0" encoding="utf-8"?>
<!-- Generator: Adobe Illustrator 22.1.0, SVG Export Plug-In . SVG Version: 6.00 Build 0)  -->
<!DOCTYPE svg PUBLIC "-//W3C//DTD SVG 1.1//EN" "http://www.w3.org/Graphics/SVG/1.1/DTD/svg11.dtd">
<svg version="1.1" id="Layer_1" xmlns="http://www.w3.org/2000/svg" xmlns:xlink="http://www.w3.org/1999/xlink" x="0px" y="0px"
	 viewBox="0 0 320 68" style="enable-background:new 0 0 320 68;" xml:space="preserve">
<style type="text/css">
	.st0{fill:#FFFFFF;}
</style>
<path class="st0" d="M18,0h-4H4C1.8,0,0,1.8,0,4v10v13v5v5c0,2.2,1.8,4,4,4h14v11c0,1.1-0.9,2-2,2l0,0c-1.1,0-2-0.9-2-2v-7H0v9v10
	c0,2.2,1.8,4,4,4h10h14c2.2,0,4-1.8,4-4l0,0V54V41v-9v-1c0-2.2-1.8-4-4-4H14V16c0-1.1,0.9-2,2-2l0,0c1.1,0,2,0.9,2,2v7h14v-9V4
	c0-2.2-1.8-4-4-4H18z"/>
</svg>
