<?xml version="1.0" encoding="utf-8"?>
<!-- Generator: Adobe Illustrator 22.1.0, SVG Export Plug-In . SVG Version: 6.00 Build 0)  -->
<!DOCTYPE svg PUBLIC "-//W3C//DTD SVG 1.1//EN" "http://www.w3.org/Graphics/SVG/1.1/DTD/svg11.dtd">
<svg version="1.1" id="Layer_1" xmlns="http://www.w3.org/2000/svg" xmlns:xlink="http://www.w3.org/1999/xlink" x="0px" y="0px"
	 viewBox="0 0 1000 1000" style="enable-background:new 0 0 1000 1000;" xml:space="preserve">
<style type="text/css">
	.st0{fill:none;}
	.st1{fill:#0B1632;}
	.st2{enable-background:new;}
</style>
<g id="Layer_2_1_">
</g>
<g>
	<g>
		<g>
			<path class="st0" d="M500,350c-82.8,0-150,67.2-150,150s67.2,150,150,150s150-67.2,150-150S582.8,350,500,350z M500,510
				c-5.5,0-10-4.5-10-10s4.5-10,10-10s10,4.5,10,10S505.5,510,500,510z"/>
		</g>
	</g>
	<g>
		<path class="st1" d="M507.4,399.8h-1.5h-3.2c-1.1,0-1.9,0.8-1.9,1.9v3.2v8.1v3.7c0,0.8,0.7,1.5,1.5,1.5h3.7h1.5h3.7
			c0.8,0,1.5-0.7,1.5-1.5V413v-8.1v-3.2c0-1.1-0.8-1.9-1.9-1.9H507.4z M506.6,413L506.6,413c-0.4,0-0.7-0.3-0.7-0.7v-6.6
			c0-0.4,0.3-0.7,0.7-0.7l0,0c0.4,0,0.7,0.3,0.7,0.7v6.6C507.4,412.7,507,413,506.6,413z"/>
		<path class="st1" d="M480.9,424.8v-23.5c0-0.8,0.7-1.5,1.5-1.5h3.7v23.5c0,0.8-0.7,1.5-1.5,1.5H480.9z"/>
		<path class="st1" d="M447.8,399.8h-1.5h-3.7c-0.8,0-1.5,0.7-1.5,1.5v3.7v4.8v1.8v1.8c0,0.8,0.7,1.5,1.5,1.5h5.1v4
			c0,0.4-0.3,0.7-0.7,0.7l0,0c-0.4,0-0.7-0.3-0.7-0.7v-2.6h-5.1v3.3v3.7c0,0.8,0.7,1.5,1.5,1.5h3.7h5.1c0.8,0,1.5-0.7,1.5-1.5l0,0
			v-3.7v-4.8v-3.3v-0.4c0-0.8-0.7-1.5-1.5-1.5h-5.1v-4c0-0.4,0.3-0.7,0.7-0.7l0,0c0.4,0,0.7,0.3,0.7,0.7v2.6h5.1v-3.3v-3.6
			c0-0.8-0.7-1.5-1.5-1.5H447.8z"/>
		<path class="st1" d="M461,406.4h-1.5h-3.2c-1.1,0-1.9,0.8-1.9,1.9v3.2v8.1v3.7c0,0.8,0.7,1.5,1.5,1.5h3.7h1.5h3.7
			c0.8,0,1.5-0.7,1.5-1.5v-3.7v-8.1v-3.2c0-1.1-0.8-1.9-1.9-1.9H461z M460.3,419.7L460.3,419.7c-0.4,0-0.7-0.3-0.7-0.7v-6.7
			c0-0.4,0.3-0.7,0.7-0.7l0,0c0.4,0,0.7,0.3,0.7,0.7v6.6C461,419.3,460.7,419.7,460.3,419.7z"/>
		<path class="st1" d="M494.1,399.8h-1.5h-5.1v5.1v8.1v5.1v6.6h5.1v-6.6h1.5h3.7c0.8,0,1.5-0.7,1.5-1.5v-3.7v-8.1v-3.5
			c0-0.8-0.7-1.5-1.5-1.5H494.1z M493.4,413h-0.7v-8.1h0.7c0.4,0,0.7,0.3,0.7,0.7v6.6C494.1,412.7,493.8,413,493.4,413z"/>
		<path class="st1" d="M474.3,406.4v12.5c0,0.4-0.3,0.7-0.7,0.7l0,0c-0.4,0-0.7-0.3-0.7-0.7v-12.5h-5.1v13.2v3.7
			c0,0.8,0.7,1.5,1.5,1.5h3.7h1.5h3.7c0.8,0,1.5-0.7,1.5-1.5v-3.7v-13.2H474.3z"/>
		<path class="st1" d="M545.6,404.9v-5.1H539h-3.7c-0.8,0-1.5,0.7-1.5,1.5v3.7v1.5v5.1v1.5v3.7c0,0.8,0.7,1.5,1.5,1.5h3.7h6.6v-5.1
			H539v-1.5h6.6v-5.1H539v-1.5h6.6V404.9z"/>
		<path class="st1" d="M527.2,401.3v17.6c0,0.4-0.3,0.7-0.7,0.7h-0.7v-19.1c0-0.4-0.3-0.7-0.7-0.7h-3.7c-0.4,0-0.7,0.3-0.7,0.7v19.1
			H520c-0.4,0-0.7-0.3-0.7-0.7v-17.6c0-0.8-0.7-1.5-1.5-1.5H514v19.9v2.2c0,1.6,1.3,2.9,2.9,2.9h2.2h1.5h5.1h1.5h2.2
			c1.6,0,2.9-1.3,2.9-2.9v-2.2v-19.9h-3.7C527.9,399.8,527.2,400.5,527.2,401.3z"/>
		<path class="st1" d="M557.4,399.8h-3.7h-1.5h-5.1v5.1v8.1v5.1v6.6h5.1v-6.6h1.5v5.1c0,0.8,0.7,1.5,1.5,1.5h3.7v-6.6V417
			c0-0.8-0.7-1.5-1.5-1.5c0.8,0,1.5-0.7,1.5-1.5v-1.1v-8.1v-3.5C558.8,400.5,558.2,399.8,557.4,399.8z M553.7,413h-1.5v-8.1h0.7
			c0.4,0,0.7,0.3,0.7,0.7L553.7,413L553.7,413z"/>
		<path class="st1" d="M477.9,404.9h-23.5v-3.6c0-0.8,0.7-1.5,1.5-1.5h23.5v3.7C479.4,404.3,478.8,404.9,477.9,404.9z"/>
		<path class="st1" d="M511.4,424.8h-17.3v-3.7c0-0.8,0.7-1.5,1.5-1.5h17.3v3.7C512.9,424.1,512.2,424.8,511.4,424.8z"/>
		<path class="st1" d="M544.1,424.8h-10.3v-3.7c0-0.8,0.7-1.5,1.5-1.5h10.3v3.7C545.6,424.1,544.9,424.8,544.1,424.8z"/>
	</g>
	<g class="st2">
		<path class="st1" d="M401,501c0,0.8-0.3,1.4-0.8,1.8s-1.3,0.7-2.3,0.7c-0.9,0-1.7-0.2-2.4-0.5v-1.7c0.6,0.3,1.1,0.4,1.5,0.5
			s0.8,0.2,1.1,0.2c0.4,0,0.7-0.1,0.9-0.2s0.3-0.4,0.3-0.7c0-0.2,0-0.3-0.1-0.4s-0.2-0.3-0.4-0.4s-0.6-0.3-1.1-0.6
			c-0.5-0.2-0.9-0.5-1.2-0.7s-0.5-0.5-0.6-0.8s-0.2-0.7-0.2-1.1c0-0.8,0.3-1.4,0.8-1.8s1.2-0.7,2.1-0.7c0.4,0,0.9,0.1,1.3,0.2
			s0.8,0.3,1.3,0.4l-0.6,1.4c-0.5-0.2-0.8-0.3-1.1-0.4s-0.6-0.1-0.9-0.1s-0.6,0.1-0.8,0.2s-0.3,0.4-0.3,0.6c0,0.2,0,0.3,0.1,0.4
			s0.2,0.2,0.4,0.3s0.5,0.3,1.2,0.6c0.8,0.4,1.3,0.8,1.6,1.2S401,500.4,401,501z"/>
		<path class="st1" d="M402.6,503.4v-8.6h1.8v8.6H402.6z"/>
		<path class="st1" d="M413.7,499c0,1.4-0.4,2.5-1.2,3.2s-2,1.1-3.5,1.1h-2.4v-8.6h2.7c1.4,0,2.5,0.4,3.3,1.1S413.7,497.7,413.7,499
			z M411.8,499.1c0-1.8-0.8-2.8-2.4-2.8h-1v5.6h0.8C410.9,501.9,411.8,500.9,411.8,499.1z"/>
		<path class="st1" d="M420.4,503.4h-4.9v-8.6h4.9v1.5h-3.1v1.9h2.9v1.5h-2.9v2.2h3.1V503.4z"/>
		<path class="st1" d="M430.5,503.4l-0.6-2h-3.1l-0.6,2h-2l3-8.6h2.2l3,8.6H430.5z M429.5,499.8c-0.6-1.8-0.9-2.9-1-3.1
			s-0.1-0.4-0.2-0.6c-0.1,0.5-0.5,1.7-1.1,3.7L429.5,499.8L429.5,499.8z"/>
	</g>
	<g>
		<path class="st1" d="M473.3,438.1c-0.6,0-1,0.2-1.3,0.6s-0.5,1-0.5,1.8c0,1.6,0.6,2.4,1.8,2.4c0.5,0,1.1-0.1,1.8-0.4v1.3
			c-0.6,0.2-1.2,0.4-2,0.4c-1,0-1.8-0.3-2.4-0.9s-0.8-1.5-0.8-2.7c0-0.7,0.1-1.4,0.4-2s0.7-1,1.2-1.3s1.1-0.4,1.8-0.4
			s1.4,0.2,2.1,0.5l-0.5,1.2c-0.3-0.1-0.5-0.2-0.8-0.3S473.6,438.1,473.3,438.1z"/>
		<path class="st1" d="M482.5,436.9v4.6c0,0.5-0.1,1-0.4,1.4s-0.6,0.7-1,0.9s-1,0.3-1.6,0.3c-0.9,0-1.6-0.2-2.1-0.7
			s-0.8-1.1-0.8-1.9v-4.6h1.5v4.4c0,0.6,0.1,1,0.3,1.2s0.6,0.4,1.1,0.4s0.9-0.1,1.1-0.4s0.3-0.7,0.3-1.2v-4.4L482.5,436.9
			L482.5,436.9z"/>
		<path class="st1" d="M488.4,442.1c0,0.6-0.2,1.2-0.7,1.5s-1.1,0.6-1.9,0.6c-0.8,0-1.4-0.1-2-0.4v-1.4c0.5,0.2,0.9,0.4,1.2,0.5
			s0.6,0.1,0.9,0.1c0.3,0,0.6-0.1,0.8-0.2s0.3-0.3,0.3-0.6c0-0.1,0-0.3-0.1-0.4s-0.2-0.2-0.3-0.3s-0.5-0.3-0.9-0.5s-0.8-0.4-1-0.6
			s-0.4-0.4-0.5-0.7s-0.2-0.5-0.2-0.9c0-0.6,0.2-1.1,0.6-1.5s1-0.5,1.8-0.5c0.4,0,0.7,0,1.1,0.1s0.7,0.2,1.1,0.4l-0.5,1.2
			c-0.4-0.2-0.7-0.3-0.9-0.3s-0.5-0.1-0.7-0.1c-0.3,0-0.5,0.1-0.7,0.2s-0.2,0.3-0.2,0.5c0,0.1,0,0.2,0.1,0.3s0.2,0.2,0.3,0.3
			s0.5,0.3,1,0.5c0.7,0.3,1.1,0.6,1.4,1S488.4,441.6,488.4,442.1z"/>
		<path class="st1" d="M492.5,444.1H491v-5.9h-2v-1.3h5.4v1.3h-1.9V444.1z"/>
		<path class="st1" d="M502,440.5c0,1.2-0.3,2.1-0.9,2.7c-0.6,0.6-1.4,1-2.5,1s-1.9-0.3-2.5-1s-0.9-1.5-0.9-2.7s0.3-2.1,0.9-2.7
			s1.4-0.9,2.5-0.9s1.9,0.3,2.5,0.9S502,439.3,502,440.5z M496.8,440.5c0,0.8,0.2,1.4,0.5,1.8s0.8,0.6,1.4,0.6
			c1.2,0,1.8-0.8,1.8-2.4s-0.6-2.4-1.8-2.4c-0.6,0-1.1,0.2-1.4,0.6S496.8,439.7,496.8,440.5z"/>
		<path class="st1" d="M506.5,444.1l-1.7-5.6l0,0c0.1,1.1,0.1,1.9,0.1,2.3v3.3h-1.4V437h2.1l1.7,5.5l0,0l1.8-5.5h2.1v7.1h-1.4v-3.4
			c0-0.2,0-0.3,0-0.6s0-0.8,0.1-1.7l0,0l-1.8,5.6h-1.6V444.1z"/>
		<path class="st1" d="M517,444.1h-4.1V437h4.1v1.2h-2.6v1.6h2.4v1.2h-2.4v1.8h2.6V444.1z"/>
		<path class="st1" d="M520,441.3v2.7h-1.5v-7.1h2.1c1,0,1.7,0.2,2.2,0.5c0.5,0.4,0.7,0.9,0.7,1.6c0,0.4-0.1,0.8-0.3,1.1
			c-0.2,0.3-0.6,0.6-1,0.8c1.1,1.6,1.8,2.6,2.1,3.1h-1.7l-1.7-2.7H520z M520,440.1h0.5c0.5,0,0.8-0.1,1.1-0.2
			c0.2-0.2,0.3-0.4,0.3-0.8c0-0.3-0.1-0.6-0.3-0.7s-0.6-0.2-1.1-0.2H520V440.1z"/>
		<path class="st1" d="M529.3,442.1c0,0.6-0.2,1.2-0.7,1.5s-1.1,0.6-1.9,0.6c-0.8,0-1.4-0.1-2-0.4v-1.4c0.5,0.2,0.9,0.4,1.2,0.5
			s0.6,0.1,0.9,0.1c0.3,0,0.6-0.1,0.8-0.2s0.3-0.3,0.3-0.6c0-0.1,0-0.3-0.1-0.4s-0.2-0.2-0.3-0.3s-0.5-0.3-0.9-0.5s-0.8-0.4-1-0.6
			s-0.4-0.4-0.5-0.7c-0.1-0.3-0.2-0.5-0.2-0.9c0-0.6,0.2-1.1,0.6-1.5c0.4-0.4,1-0.5,1.8-0.5c0.4,0,0.7,0,1.1,0.1s0.7,0.2,1.1,0.4
			l-0.5,1.2c-0.4-0.2-0.7-0.3-0.9-0.3s-0.5-0.1-0.7-0.1c-0.3,0-0.5,0.1-0.7,0.2s-0.2,0.3-0.2,0.5c0,0.1,0,0.2,0.1,0.3
			c0.1,0.1,0.2,0.2,0.3,0.3c0.1,0.1,0.5,0.3,1,0.5c0.7,0.3,1.1,0.6,1.4,1C529.2,441.2,529.3,441.6,529.3,442.1z"/>
		<path class="st1" d="M452.2,456.1h-1.7l-1.9-3l-0.6,0.5v2.5h-1.5V449h1.5v3.3l0.6-0.8l1.9-2.4h1.7l-2.5,3.2L452.2,456.1z"/>
		<path class="st1" d="M452.8,455.4c0-0.3,0.1-0.5,0.2-0.6s0.4-0.2,0.6-0.2c0.3,0,0.5,0.1,0.6,0.2s0.2,0.3,0.2,0.6
			c0,0.3-0.1,0.5-0.2,0.6s-0.4,0.2-0.6,0.2c-0.3,0-0.5-0.1-0.6-0.2S452.8,455.6,452.8,455.4z"/>
		<path class="st1" d="M462.4,452.5c0,1.2-0.3,2.1-0.9,2.7s-1.4,1-2.5,1s-1.9-0.3-2.5-1s-0.9-1.5-0.9-2.7s0.3-2.1,0.9-2.7
			s1.4-0.9,2.5-0.9s1.9,0.3,2.5,0.9S462.4,451.3,462.4,452.5z M457.2,452.5c0,0.8,0.2,1.4,0.5,1.8s0.8,0.6,1.4,0.6
			c1.2,0,1.8-0.8,1.8-2.4s-0.6-2.4-1.8-2.4c-0.6,0-1.1,0.2-1.4,0.6S457.2,451.7,457.2,452.5z"/>
		<path class="st1" d="M465,448.9l0.1,0.1c-0.2,0.6-0.4,1.4-0.9,2.3h-1.1c0.2-1,0.4-1.8,0.5-2.4H465z"/>
		<path class="st1" d="M472,452.4c0,1.2-0.3,2.1-1,2.7s-1.6,0.9-2.9,0.9h-2v-7.1h2.2c1.2,0,2.1,0.3,2.7,0.9S472,451.3,472,452.4z
			 M470.4,452.5c0-1.5-0.7-2.3-2-2.3h-0.8v4.6h0.6C469.7,454.8,470.4,454,470.4,452.5z"/>
		<path class="st1" d="M476.1,448.9h2.2c1,0,1.7,0.1,2.2,0.4s0.7,0.7,0.7,1.4c0,0.4-0.1,0.8-0.3,1s-0.5,0.4-0.8,0.5l0,0
			c0.5,0.1,0.8,0.3,1,0.6s0.3,0.6,0.3,1.1c0,0.7-0.2,1.2-0.7,1.5s-1.1,0.5-1.9,0.5h-2.7V448.9z M477.6,451.7h0.9
			c0.4,0,0.7-0.1,0.9-0.2s0.3-0.3,0.3-0.6c0-0.3-0.1-0.5-0.3-0.6s-0.5-0.2-0.9-0.2h-0.8v1.6H477.6z M477.6,452.9v1.9h1
			c0.4,0,0.7-0.1,0.9-0.2s0.3-0.4,0.3-0.7c0-0.6-0.4-0.9-1.3-0.9L477.6,452.9L477.6,452.9z"/>
		<path class="st1" d="M485,451.9l1.5-2.9h1.6l-2.4,4.4v2.8h-1.5v-2.7l-2.4-4.4h1.6L485,451.9z"/>
		<path class="st1" d="M495.9,454.1c0,0.6-0.2,1.2-0.7,1.5s-1.1,0.6-1.9,0.6c-0.8,0-1.4-0.1-2-0.4v-1.4c0.5,0.2,0.9,0.4,1.2,0.5
			s0.6,0.1,0.9,0.1c0.3,0,0.6-0.1,0.8-0.2s0.3-0.3,0.3-0.6c0-0.1,0-0.3-0.1-0.4s-0.2-0.2-0.3-0.3s-0.5-0.3-0.9-0.5s-0.8-0.4-1-0.6
			s-0.4-0.4-0.5-0.7s-0.2-0.5-0.2-0.9c0-0.6,0.2-1.1,0.6-1.5s1-0.5,1.8-0.5c0.4,0,0.7,0,1.1,0.1s0.7,0.2,1.1,0.4l-0.5,1.2
			c-0.4-0.2-0.7-0.3-0.9-0.3s-0.5-0.1-0.7-0.1c-0.3,0-0.5,0.1-0.7,0.2s-0.2,0.3-0.2,0.5c0,0.1,0,0.2,0.1,0.3s0.2,0.2,0.3,0.3
			s0.5,0.3,1,0.5c0.7,0.3,1.1,0.6,1.4,1S495.9,453.6,495.9,454.1z"/>
		<path class="st1" d="M503.6,452.5c0,1.2-0.3,2.1-0.9,2.7s-1.4,1-2.5,1s-1.9-0.3-2.5-1s-0.9-1.5-0.9-2.7s0.3-2.1,0.9-2.7
			s1.4-0.9,2.5-0.9s1.9,0.3,2.5,0.9S503.6,451.3,503.6,452.5z M498.4,452.5c0,0.8,0.2,1.4,0.5,1.8s0.8,0.6,1.4,0.6
			c1.2,0,1.8-0.8,1.8-2.4s-0.6-2.4-1.8-2.4c-0.6,0-1.1,0.2-1.4,0.6S498.4,451.7,498.4,452.5z"/>
		<path class="st1" d="M510.9,448.9v4.6c0,0.5-0.1,1-0.4,1.4c-0.2,0.4-0.6,0.7-1,0.9c-0.4,0.2-1,0.3-1.6,0.3c-0.9,0-1.6-0.2-2.1-0.7
			s-0.8-1.1-0.8-1.9v-4.6h1.5v4.4c0,0.6,0.1,1,0.3,1.2c0.2,0.3,0.6,0.4,1.1,0.4s0.9-0.1,1.1-0.4c0.2-0.3,0.3-0.7,0.3-1.2v-4.4
			L510.9,448.9L510.9,448.9z"/>
		<path class="st1" d="M512.7,456.1V449h1.5v5.9h2.9v1.2H512.7z"/>
		<path class="st1" d="M523.3,451.1c0,0.8-0.2,1.4-0.7,1.8s-1.2,0.6-2,0.6H520v2.5h-1.5v-7.1h2.3c0.9,0,1.5,0.2,2,0.6
			C523,449.8,523.3,450.4,523.3,451.1z M519.8,452.3h0.5c0.5,0,0.8-0.1,1-0.3c0.2-0.2,0.3-0.5,0.3-0.8c0-0.4-0.1-0.6-0.3-0.8
			c-0.2-0.2-0.5-0.3-0.9-0.3h-0.7v2.2H519.8z"/>
		<path class="st1" d="M531.1,452.5c0,1.2-0.3,2.1-0.9,2.7s-1.4,1-2.5,1s-1.9-0.3-2.5-1s-0.9-1.5-0.9-2.7s0.3-2.1,0.9-2.7
			c0.6-0.6,1.4-0.9,2.5-0.9s1.9,0.3,2.5,0.9S531.1,451.3,531.1,452.5z M525.9,452.5c0,0.8,0.2,1.4,0.5,1.8s0.8,0.6,1.4,0.6
			c1.2,0,1.8-0.8,1.8-2.4s-0.6-2.4-1.8-2.4c-0.6,0-1.1,0.2-1.4,0.6C526,451.1,525.9,451.7,525.9,452.5z"/>
		<path class="st1" d="M539.5,456.1h-1.7l-1-3.8c0-0.1-0.1-0.4-0.2-0.8c-0.1-0.4-0.1-0.7-0.1-0.8c0,0.2-0.1,0.5-0.1,0.8
			s-0.1,0.7-0.2,0.8l-1,3.7h-1.7l-1.8-7.1h1.5l0.9,3.9c0.2,0.7,0.3,1.3,0.3,1.9c0-0.2,0.1-0.5,0.1-0.9c0.1-0.4,0.1-0.7,0.2-0.9l1-4
			h1.4l1,4c0,0.2,0.1,0.5,0.2,0.8s0.1,0.7,0.2,0.9c0-0.3,0.1-0.6,0.2-0.9c0.1-0.4,0.1-0.7,0.2-0.9l0.9-3.9h1.5L539.5,456.1z"/>
		<path class="st1" d="M546.3,456.1h-4.1V449h4.1v1.2h-2.6v1.6h2.4v1.2h-2.4v1.8h2.6V456.1z"/>
		<path class="st1" d="M549.3,453.3v2.7h-1.5v-7.1h2.1c1,0,1.7,0.2,2.2,0.5c0.5,0.4,0.7,0.9,0.7,1.6c0,0.4-0.1,0.8-0.3,1.1
			c-0.2,0.3-0.6,0.6-1,0.8c1.1,1.6,1.8,2.6,2.1,3.1h-1.7l-1.7-2.7H549.3z M549.3,452.1h0.5c0.5,0,0.8-0.1,1.1-0.2
			c0.2-0.2,0.3-0.4,0.3-0.8c0-0.3-0.1-0.6-0.3-0.7s-0.6-0.2-1.1-0.2h-0.5V452.1z"/>
	</g>
	<g>
		<path class="st1" d="M400,605l2.1-4.6l0,0c-0.5,0.5-0.9,1-1.3,1.5l-1.9,2l-0.6-0.6l3.9-4.1l1,0.9l-2,4.4l0,0l4.3-2.2l1,0.9
			l-3.9,4.1l-0.7-0.6l1.9-2c0.2-0.2,0.5-0.5,0.8-0.8s0.5-0.5,0.6-0.6l0,0l-4.5,2.3L400,605z"/>
		<path class="st1" d="M406.3,610.7l0.6-1.6l-1.6-1.4l-1.5,0.8l-0.7-0.6l5.4-2.9l0.8,0.7l-2.1,5.7L406.3,610.7z M407.3,608.3
			l0.6-1.5c0-0.1,0.1-0.3,0.2-0.5s0.2-0.4,0.2-0.5c-0.3,0.2-0.6,0.4-0.9,0.6l-1.4,0.8L407.3,608.3z"/>
		<path class="st1" d="M411.4,614.8l-0.9-0.7l0.6-5.3l0,0L411,609c-0.3,0.4-0.5,0.8-0.8,1.1l-1.9,2.3l-0.7-0.5l3.6-4.5l0.9,0.7
			l-0.6,5.3l0,0c0,0,0.2-0.2,0.4-0.5s0.4-0.5,0.5-0.7l1.9-2.3l0.7,0.5L411.4,614.8z"/>
		<path class="st1" d="M419.7,613.9l-2.2,3c-0.2,0.3-0.5,0.6-0.9,0.7c-0.3,0.1-0.7,0.2-1.1,0.1c-0.4-0.1-0.8-0.2-1.1-0.5
			c-0.6-0.4-0.9-0.9-1-1.4s0-1.1,0.4-1.6l2.2-3l0.8,0.6l-2.1,2.9c-0.3,0.4-0.4,0.7-0.4,1s0.2,0.6,0.6,0.9c0.7,0.5,1.3,0.4,1.9-0.3
			l2.1-2.9L419.7,613.9z"/>
		<path class="st1" d="M418.4,619.9l-0.8-0.5l3.2-4.7l2.7,1.8l-0.4,0.7l-1.9-1.3l-1,1.5l1.8,1.2l-0.4,0.7l-1.8-1.2L418.4,619.9z"/>
		<path class="st1" d="M424.3,623.7l0.4-1.6l-1.8-1.2l-1.3,1l-0.8-0.5l4.9-3.7l0.9,0.5l-1.2,6L424.3,623.7z M424.8,621.2l0.4-1.6
			c0-0.1,0.1-0.3,0.1-0.5c0.1-0.2,0.1-0.4,0.1-0.5c-0.2,0.2-0.5,0.5-0.8,0.7l-1.2,1L424.8,621.2z"/>
		<path class="st1" d="M430.5,621.5c-0.5-0.3-0.9-0.3-1.4-0.1s-0.9,0.6-1.2,1.1c-0.4,0.6-0.5,1.1-0.4,1.6s0.4,0.8,0.8,1.1
			c0.2,0.1,0.4,0.2,0.6,0.3s0.5,0.1,0.7,0.2l-0.4,0.7c-0.5-0.1-1-0.3-1.4-0.5c-0.7-0.4-1.2-1-1.3-1.6c-0.1-0.7,0-1.4,0.5-2.2
			c0.3-0.5,0.7-0.9,1.1-1.2s0.9-0.4,1.3-0.4c0.5,0,1,0.1,1.4,0.4c0.5,0.3,0.9,0.7,1.2,1.1l-0.7,0.5c-0.1-0.2-0.3-0.3-0.4-0.5
			C430.8,621.8,430.7,621.7,430.5,621.5z"/>
		<path class="st1" d="M432.1,628.2l-0.8-0.4l2.3-4.3l-1.5-0.8l0.4-0.7l3.8,2l-0.4,0.7l-1.5-0.8L432.1,628.2z"/>
		<path class="st1" d="M441,626.2l-1.6,3.3c-0.2,0.4-0.4,0.7-0.7,0.9c-0.3,0.2-0.6,0.3-1,0.3s-0.8-0.1-1.2-0.3
			c-0.6-0.3-1-0.7-1.2-1.2s-0.1-1.1,0.1-1.6l1.6-3.3l0.8,0.4l-1.6,3.2c-0.2,0.4-0.3,0.8-0.2,1.1c0.1,0.3,0.4,0.5,0.8,0.7
			c0.8,0.4,1.4,0.2,1.8-0.7l1.6-3.2L441,626.2z"/>
		<path class="st1" d="M441.7,630.3l-0.9,2.1l-0.9-0.4l2.3-5.2l1.5,0.7c0.7,0.3,1.1,0.6,1.3,1c0.2,0.4,0.2,0.8,0,1.4
			c-0.3,0.7-0.8,1-1.6,0.9l0.5,3l-1-0.4l-0.3-2.6L441.7,630.3z M442,629.6l0.6,0.3c0.4,0.2,0.7,0.2,1,0.2c0.2-0.1,0.4-0.2,0.6-0.5
			c0.1-0.3,0.1-0.5,0-0.8s-0.4-0.4-0.8-0.6l-0.6-0.2L442,629.6z"/>
		<path class="st1" d="M447.7,635.3l-3-1.2l2.1-5.3l3,1.2l-0.3,0.7l-2.1-0.9l-0.6,1.4l2,0.8l-0.3,0.7l-2-0.8l-0.7,1.7l2.1,0.9
			L447.7,635.3z"/>
		<path class="st1" d="M454.3,634.6c-0.3,0.9-0.8,1.5-1.5,1.8s-1.5,0.3-2.4-0.1l-1.5-0.5l1.9-5.4l1.7,0.6c0.9,0.3,1.4,0.8,1.7,1.4
			C454.6,633,454.6,633.8,454.3,634.6z M453.4,634.3c0.5-1.3,0.1-2.1-1.1-2.6l-0.8-0.3l-1.4,3.9l0.6,0.2
			C452,636.1,452.9,635.6,453.4,634.3z"/>
		<path class="st1" d="M458.4,633l1.6,0.5c0.8,0.2,1.3,0.5,1.5,0.8c0.3,0.3,0.3,0.7,0.2,1.2c-0.1,0.3-0.3,0.6-0.5,0.7
			s-0.5,0.2-0.8,0.2l0,0c0.4,0.2,0.6,0.4,0.7,0.7s0.1,0.6,0,0.9c-0.1,0.5-0.4,0.8-0.9,1c-0.4,0.2-0.9,0.2-1.6,0l-2-0.6L458.4,633z
			 M458.4,636.2l-0.5,1.7l1,0.3c0.4,0.1,0.7,0.1,0.9,0c0.2-0.1,0.4-0.3,0.5-0.6s0.1-0.5-0.1-0.7s-0.4-0.4-0.8-0.5L458.4,636.2z
			 M458.6,635.5l0.9,0.3c0.4,0.1,0.7,0.1,0.9,0.1s0.4-0.2,0.4-0.5c0.1-0.3,0-0.5-0.1-0.6c-0.2-0.2-0.4-0.3-0.8-0.4l-0.8-0.2
			L458.6,635.5z"/>
		<path class="st1" d="M464.3,637.4l2-2.2l1,0.3l-2.7,2.9l-0.6,2.1l-0.9-0.2l0.5-2.1l-0.9-3.9l1,0.3L464.3,637.4z"/>
		<path class="st1" d="M472.4,640.8c-0.1,0.5-0.4,0.9-0.8,1.1s-0.9,0.2-1.6,0.1s-1.1-0.3-1.5-0.6l0.2-0.9c0.2,0.2,0.5,0.3,0.8,0.5
			c0.3,0.1,0.5,0.2,0.8,0.3c0.4,0.1,0.6,0.1,0.8,0c0.2-0.1,0.3-0.3,0.4-0.5c0-0.2,0-0.4-0.1-0.6c-0.1-0.2-0.4-0.4-0.9-0.7
			s-0.8-0.6-0.9-0.9s-0.2-0.6-0.1-1c0.1-0.5,0.3-0.8,0.7-1c0.4-0.2,0.9-0.2,1.4-0.1c0.5,0.1,1,0.3,1.5,0.7l-0.4,0.7
			c-0.5-0.3-0.9-0.5-1.3-0.6c-0.3-0.1-0.5,0-0.7,0.1s-0.3,0.3-0.3,0.5c0,0.1,0,0.3,0,0.4s0.1,0.2,0.2,0.4s0.3,0.3,0.7,0.5
			c0.4,0.3,0.6,0.5,0.8,0.7c0.2,0.2,0.3,0.4,0.3,0.6C472.5,640.3,472.5,640.6,472.4,640.8z"/>
		<path class="st1" d="M478.8,640.6c-0.2,0.9-0.5,1.6-1,2s-1.2,0.6-2.1,0.4c-0.9-0.1-1.5-0.5-1.8-1.1s-0.5-1.3-0.3-2.3s0.5-1.6,1-2
			s1.2-0.6,2.1-0.4c0.8,0.1,1.4,0.5,1.8,1.1S478.9,639.7,478.8,640.6z M474.5,639.9c-0.1,0.7-0.1,1.2,0.2,1.6s0.6,0.7,1.2,0.7
			c0.5,0.1,1,0,1.3-0.3s0.6-0.8,0.7-1.5c0.1-0.7,0.1-1.2-0.1-1.6c-0.2-0.4-0.6-0.7-1.1-0.7c-0.6-0.1-1,0-1.3,0.3
			C474.8,638.7,474.6,639.2,474.5,639.9z"/>
		<path class="st1" d="M484.7,638.5l-0.5,3.7c-0.1,0.4-0.2,0.8-0.4,1.1s-0.5,0.5-0.9,0.6s-0.8,0.2-1.3,0.1c-0.7-0.1-1.2-0.3-1.6-0.8
			c-0.3-0.4-0.5-1-0.4-1.6l0.5-3.7l0.9,0.1l-0.4,3.6c-0.1,0.5,0,0.8,0.2,1.1c0.2,0.2,0.5,0.4,1,0.5c0.9,0.1,1.4-0.3,1.5-1.2l0.4-3.6
			L484.7,638.5z"/>
		<path class="st1" d="M485.6,644.3l0.5-5.7l0.9,0.1l-0.4,4.9l2.4,0.2l-0.1,0.8L485.6,644.3z"/>
		<path class="st1" d="M494.1,640.9c0,0.6-0.3,1-0.7,1.3s-1,0.4-1.7,0.4h-0.6l-0.1,2.1l-0.9-0.1l0.3-5.7l1.6,0.1
			c0.7,0,1.2,0.2,1.6,0.5C493.9,639.9,494.1,640.3,494.1,640.9z M491.1,641.8h0.5c0.5,0,0.8,0,1.1-0.2c0.2-0.2,0.4-0.4,0.4-0.8
			c0-0.3-0.1-0.6-0.3-0.8s-0.5-0.3-0.9-0.3h-0.6L491.1,641.8z"/>
		<path class="st1" d="M500.2,642.2c0,0.9-0.3,1.6-0.7,2.2c-0.5,0.5-1.1,0.8-2,0.7c-0.9,0-1.5-0.3-2-0.8s-0.7-1.3-0.7-2.2
			s0.3-1.7,0.7-2.2c0.5-0.5,1.1-0.7,2-0.7c0.8,0,1.5,0.3,2,0.8S500.2,641.2,500.2,642.2z M495.8,642.1c0,0.7,0.1,1.2,0.4,1.6
			c0.3,0.4,0.7,0.6,1.3,0.6s1-0.2,1.3-0.5s0.4-0.9,0.5-1.6c0-0.7-0.1-1.2-0.4-1.6c-0.3-0.4-0.7-0.6-1.2-0.6c-0.6,0-1,0.2-1.3,0.5
			C496,640.9,495.8,641.4,495.8,642.1z"/>
		<path class="st1" d="M506.9,644.9h-1l-1.1-3.4c0-0.1-0.1-0.4-0.2-0.6c-0.1-0.3-0.1-0.5-0.1-0.6c0,0.2-0.1,0.4-0.1,0.7
			c-0.1,0.3-0.1,0.5-0.1,0.6l-0.8,3.4h-1l-0.8-2.8l-0.8-2.8h1l0.9,3.3c0.1,0.5,0.3,1,0.3,1.4c0-0.2,0.1-0.5,0.1-0.7
			c0-0.3,0.1-0.5,0.1-0.7l0.8-3.4h0.9l1.1,3.3c0.1,0.3,0.2,0.8,0.3,1.4c0-0.4,0.1-0.8,0.2-1.4l0.7-3.3h0.9L506.9,644.9z"/>
		<path class="st1" d="M512.5,644.5l-3.2,0.2l-0.4-5.7l3.2-0.2l0.1,0.8l-2.3,0.2l0.1,1.6l2.1-0.2l0.1,0.8l-2.1,0.2l0.1,1.8l2.3-0.2
			L512.5,644.5z"/>
		<path class="st1" d="M514.5,642l0.2,2.3l-0.9,0.1l-0.6-5.7l1.6-0.2c0.7-0.1,1.3,0,1.7,0.2s0.6,0.6,0.7,1.2
			c0.1,0.7-0.2,1.2-0.9,1.6l1.9,2.3l-1.1,0.1l-1.6-2.1L514.5,642z M514.5,641.2l0.6-0.1c0.4,0,0.7-0.2,0.9-0.3
			c0.2-0.2,0.2-0.4,0.2-0.7s-0.2-0.5-0.4-0.7c-0.2-0.1-0.5-0.2-1-0.1l-0.6,0.1L514.5,641.2z"/>
		<path class="st1" d="M518.8,643.3c0-0.2,0-0.3,0.1-0.5c0.1-0.1,0.2-0.2,0.4-0.2s0.3,0,0.5,0.1c0.1,0.1,0.2,0.2,0.2,0.4
			s0,0.3-0.1,0.5c-0.1,0.1-0.2,0.2-0.4,0.2s-0.3,0-0.4-0.1S518.8,643.5,518.8,643.3z"/>
		<path class="st1" d="M525.1,637.8c-0.5,0.1-0.9,0.4-1.1,0.8c-0.2,0.4-0.3,1-0.2,1.6c0.1,0.7,0.4,1.2,0.7,1.5s0.8,0.4,1.4,0.3
			c0.2,0,0.5-0.1,0.7-0.2c0.2-0.1,0.4-0.2,0.7-0.3l0.1,0.8c-0.4,0.2-0.9,0.4-1.5,0.5c-0.8,0.1-1.5,0-2-0.4s-0.9-1.1-1-2
			c-0.1-0.6-0.1-1.1,0.1-1.6c0.1-0.5,0.4-0.9,0.8-1.2s0.8-0.5,1.4-0.6c0.6-0.1,1.1-0.1,1.7,0.1l-0.2,0.8c-0.2-0.1-0.4-0.1-0.6-0.1
			C525.5,637.7,525.3,637.7,525.1,637.8z"/>
		<path class="st1" d="M532.1,641.4l-0.9-1.4l-2.1,0.5l-0.2,1.7l-1,0.2l0.9-6.1l1-0.2l3.3,5.2L532.1,641.4z M530.8,639.3l-0.8-1.4
			c-0.1-0.1-0.1-0.2-0.3-0.4c-0.1-0.2-0.2-0.4-0.2-0.5c0,0.3,0,0.7-0.1,1.1l-0.2,1.6L530.8,639.3z"/>
		<path class="st1" d="M536.3,640.4l-2.8-4.2l0,0c0.2,0.7,0.4,1.3,0.6,1.9l0.7,2.7L534,641l-1.4-5.5l1.3-0.3l2.7,4l0,0l0.4-4.8
			l1.3-0.3l1.4,5.5l-0.9,0.2L538,637c-0.1-0.3-0.2-0.6-0.3-1.1c-0.1-0.4-0.2-0.7-0.2-0.8l0,0l-0.5,5L536.3,640.4z"/>
		<path class="st1" d="M539.5,633.6l1.6-0.5c0.8-0.2,1.3-0.3,1.7-0.2s0.7,0.4,0.8,0.9c0.1,0.3,0.1,0.6,0,0.9
			c-0.1,0.3-0.3,0.5-0.6,0.6l0,0c0.4,0,0.7,0,1,0.2s0.4,0.4,0.5,0.8c0.2,0.5,0.1,0.9-0.2,1.3c-0.3,0.4-0.7,0.7-1.3,0.9l-2,0.6
			L539.5,633.6z M541.1,635.6l0.9-0.3c0.4-0.1,0.6-0.3,0.8-0.4c0.1-0.2,0.2-0.4,0.1-0.7c-0.1-0.3-0.2-0.4-0.5-0.5
			c-0.2-0.1-0.5,0-0.9,0.1l-0.8,0.2L541.1,635.6z M541.3,636.3l0.5,1.7l0.9-0.3c0.4-0.1,0.6-0.3,0.8-0.5c0.1-0.2,0.2-0.5,0.1-0.8
			c-0.1-0.3-0.3-0.5-0.5-0.5c-0.2-0.1-0.6-0.1-0.9,0.1L541.3,636.3z"/>
		<path class="st1" d="M546.5,635l0.8,2.2l-0.9,0.3l-1.9-5.4l1.5-0.5c0.7-0.2,1.3-0.3,1.7-0.2s0.7,0.5,0.9,1
			c0.2,0.7,0.1,1.3-0.5,1.8l2.4,1.9l-1,0.4l-2-1.7L546.5,635z M546.2,634.3l0.6-0.2c0.4-0.1,0.7-0.3,0.8-0.5s0.1-0.5,0-0.8
			s-0.3-0.5-0.5-0.6s-0.6,0-1,0.1l-0.6,0.2L546.2,634.3z"/>
		<path class="st1" d="M551.3,635.7l-2-5.3l0.9-0.3l2,5.3L551.3,635.7z"/>
		<path class="st1" d="M556.9,630.3c0.4,0.9,0.4,1.6,0.1,2.3c-0.3,0.7-0.9,1.2-1.8,1.6l-1.5,0.6l-2.2-5.3l1.6-0.7
			c0.8-0.3,1.6-0.4,2.2-0.1C556,628.9,556.5,629.5,556.9,630.3z M556,630.7c-0.5-1.3-1.4-1.6-2.6-1.2l-0.7,0.3l1.6,3.8l0.6-0.3
			C556.1,632.9,556.5,632,556,630.7z"/>
		<path class="st1" d="M560,628.6l1.9-0.9l1.2,2.6c-0.3,0.2-0.5,0.5-0.8,0.6c-0.3,0.2-0.6,0.3-0.9,0.5c-0.8,0.4-1.5,0.4-2.1,0.1
			c-0.6-0.3-1.2-0.8-1.6-1.7c-0.4-0.8-0.5-1.6-0.2-2.3s0.8-1.2,1.7-1.6c0.5-0.3,1.1-0.4,1.7-0.4v0.8c-0.5,0-1,0.1-1.4,0.3
			c-0.6,0.3-0.9,0.6-1.1,1.1c-0.2,0.5-0.1,1,0.2,1.6s0.7,1,1.1,1.2c0.4,0.2,0.9,0.2,1.5-0.1c0.3-0.1,0.6-0.3,0.8-0.5l-0.6-1.3
			l-1.1,0.5L560,628.6z"/>
		<path class="st1" d="M567.4,628.4l-2.9,1.5l-2.6-5.1l2.9-1.5l0.4,0.7l-2,1l0.7,1.4l1.9-1l0.4,0.7l-1.9,1l0.8,1.6l2-1L567.4,628.4z
			"/>
		<path class="st1" d="M568.2,627.5c-0.1-0.2-0.1-0.3-0.1-0.5c0-0.1,0.1-0.2,0.3-0.3s0.3-0.1,0.5-0.1c0.1,0,0.2,0.1,0.3,0.3
			s0.1,0.3,0.1,0.5c0,0.1-0.1,0.3-0.3,0.3s-0.3,0.1-0.5,0.1C568.4,627.7,568.3,627.6,568.2,627.5z"/>
		<path class="st1" d="M575.4,623.9l-2.8,1.6l-2.9-4.9l2.8-1.6l0.4,0.7l-2,1.2l0.8,1.3l1.9-1.1l0.4,0.7l-1.9,1.1l0.9,1.5l2-1.2
			L575.4,623.9z"/>
		<path class="st1" d="M580.5,620.6l-1,0.6l-4.8-2.3l0,0l0.2,0.2c0.3,0.4,0.5,0.7,0.8,1.1l1.6,2.5l-0.7,0.5l-3.1-4.8l1-0.6l4.8,2.3
			l0,0c0,0-0.2-0.2-0.4-0.5s-0.4-0.5-0.5-0.7l-1.6-2.5l0.7-0.5L580.5,620.6z"/>
		<path class="st1" d="M582,615.8l1.7-1.2l1.7,2.3c-0.2,0.3-0.4,0.5-0.7,0.8c-0.2,0.2-0.5,0.4-0.8,0.6c-0.7,0.5-1.4,0.7-2.1,0.5
			c-0.7-0.1-1.3-0.6-1.8-1.4c-0.5-0.8-0.7-1.5-0.6-2.2s0.6-1.4,1.3-1.9c0.5-0.3,1-0.6,1.6-0.7l0.2,0.8c-0.5,0.1-0.9,0.3-1.3,0.5
			c-0.5,0.4-0.8,0.8-0.8,1.3c-0.1,0.5,0.1,1,0.5,1.6s0.8,0.9,1.3,1s0.9,0,1.4-0.3c0.2-0.2,0.5-0.4,0.7-0.7l-0.8-1.2l-1,0.7
			L582,615.8z"/>
		<path class="st1" d="M586.7,616.3l-3.5-4.5l0.7-0.6l3,3.9l1.9-1.5l0.5,0.6L586.7,616.3z"/>
		<path class="st1" d="M592.9,611.3l-1.4-0.9l-1.7,1.4l0.6,1.6l-0.8,0.6l-2-5.8l0.8-0.6l5.3,3.1L592.9,611.3z M590.8,610l-1.4-0.9
			c-0.1-0.1-0.2-0.1-0.4-0.3c-0.2-0.1-0.3-0.2-0.4-0.3c0.1,0.3,0.3,0.6,0.4,1l0.5,1.5L590.8,610z"/>
		<path class="st1" d="M597.9,607l-0.9,0.8l-5.1-1.5l0,0l0.2,0.2c0.3,0.3,0.7,0.7,0.9,1l2,2.2l-0.6,0.6l-3.8-4.3l0.8-0.8l5.1,1.5
			l0,0c0,0-0.2-0.2-0.5-0.5s-0.5-0.5-0.6-0.6l-2-2.2l0.6-0.6L597.9,607z"/>
		<path class="st1" d="M600.4,600.6c0.7,0.7,1,1.4,0.9,2.1c0,0.7-0.4,1.4-1.1,2.1l-1.1,1.1l-4-4.1l1.3-1.2c0.7-0.6,1.3-0.9,2-0.9
			C599.1,599.6,599.8,599.9,600.4,600.6z M599.7,601.3c-0.9-1-1.9-1-2.8-0.1l-0.6,0.6l2.9,3l0.5-0.5
			C600.7,603.2,600.7,602.3,599.7,601.3z"/>
	</g>
	<g>
		<path class="st1" d="M462.3,570h-1.5v-4.1v-0.7v-0.7c-0.3,0.3-0.4,0.4-0.5,0.5l-0.8,0.7l-0.7-0.9l2.3-1.8h1.2V570z"/>
		<path class="st1" d="M464.5,569.3c0-0.3,0.1-0.5,0.2-0.6s0.4-0.2,0.6-0.2c0.3,0,0.5,0.1,0.6,0.2s0.2,0.3,0.2,0.6s-0.1,0.5-0.2,0.6
			s-0.4,0.2-0.6,0.2c-0.3,0-0.5-0.1-0.6-0.2C464.5,569.8,464.5,569.6,464.5,569.3z"/>
		<path class="st1" d="M473,570h-1.5v-5.9h-1.9v-1.3h5.4v1.3h-2V570z"/>
		<path class="st1" d="M480.1,570H476v-7.1h4.1v1.2h-2.6v1.6h2.4v1.2h-2.4v1.8h2.6V570z"/>
		<path class="st1" d="M485.8,568c0,0.6-0.2,1.2-0.7,1.5s-1.1,0.6-1.9,0.6c-0.8,0-1.4-0.1-2-0.4v-1.4c0.5,0.2,0.9,0.4,1.2,0.5
			s0.6,0.1,0.9,0.1c0.3,0,0.6-0.1,0.8-0.2s0.3-0.3,0.3-0.6c0-0.1,0-0.3-0.1-0.4c-0.1-0.1-0.2-0.2-0.3-0.3s-0.5-0.3-0.9-0.5
			s-0.8-0.4-1-0.6s-0.4-0.4-0.5-0.7s-0.2-0.5-0.2-0.9c0-0.6,0.2-1.1,0.6-1.5s1-0.5,1.8-0.5c0.4,0,0.7,0,1.1,0.1s0.7,0.2,1.1,0.4
			l-0.5,1.2c-0.4-0.2-0.7-0.3-0.9-0.3s-0.5-0.1-0.7-0.1c-0.3,0-0.5,0.1-0.7,0.2s-0.2,0.3-0.2,0.5c0,0.1,0,0.2,0.1,0.3
			s0.2,0.2,0.3,0.3s0.5,0.3,1,0.5c0.7,0.3,1.1,0.6,1.4,1C485.7,567.2,485.8,567.6,485.8,568z"/>
		<path class="st1" d="M489.9,570h-1.5v-5.9h-1.9v-1.3h5.4v1.3H490L489.9,570L489.9,570z"/>
		<path class="st1" d="M492.9,570v-7.1h1.5v7.1H492.9z"/>
		<path class="st1" d="M499.3,570l-1.7-5.6l0,0c0.1,1.1,0.1,1.9,0.1,2.3v3.3h-1.4v-7.1h2.1l1.7,5.5l0,0l1.8-5.5h2.1v7.1h-1.4v-3.4
			c0-0.2,0-0.3,0-0.6c0-0.2,0-0.8,0.1-1.7l0,0l-1.8,5.6h-1.6V570z"/>
		<path class="st1" d="M512.2,566.4c0,1.2-0.3,2.1-0.9,2.7s-1.4,1-2.5,1s-1.9-0.3-2.5-1s-0.9-1.5-0.9-2.7s0.3-2.1,0.9-2.7
			c0.6-0.6,1.4-0.9,2.5-0.9s1.9,0.3,2.5,0.9C511.9,564.3,512.2,565.2,512.2,566.4z M506.9,566.4c0,0.8,0.2,1.4,0.5,1.8
			s0.8,0.6,1.4,0.6c1.2,0,1.8-0.8,1.8-2.4c0-1.6-0.6-2.4-1.8-2.4c-0.6,0-1.1,0.2-1.4,0.6C507.1,565,506.9,565.6,506.9,566.4z"/>
		<path class="st1" d="M520,570h-2l-3.1-5.4l0,0c0.1,1,0.1,1.6,0.1,2v3.4h-1.4v-7.1h1.9l3.1,5.3l0,0c0-0.9-0.1-1.6-0.1-2v-3.4h1.4
			L520,570L520,570z"/>
		<path class="st1" d="M521.8,570v-7.1h1.5v7.1H521.8z"/>
		<path class="st1" d="M529.4,570l-0.5-1.7h-2.6l-0.5,1.7h-1.6l2.5-7.2h1.9l2.5,7.2H529.4z M528.6,567c-0.5-1.5-0.7-2.4-0.8-2.6
			c-0.1-0.2-0.1-0.4-0.1-0.5c-0.1,0.4-0.4,1.4-0.9,3.1H528.6z"/>
		<path class="st1" d="M532,570v-7.1h1.5v5.9h2.9v1.2L532,570L532,570z"/>
		<path class="st1" d="M541.8,568c0,0.6-0.2,1.2-0.7,1.5c-0.5,0.4-1.1,0.6-1.9,0.6c-0.8,0-1.4-0.1-2-0.4v-1.4
			c0.5,0.2,0.9,0.4,1.2,0.5s0.6,0.1,0.9,0.1c0.3,0,0.6-0.1,0.8-0.2c0.2-0.1,0.3-0.3,0.3-0.6c0-0.1,0-0.3-0.1-0.4
			c-0.1-0.1-0.2-0.2-0.3-0.3c-0.2-0.1-0.5-0.3-0.9-0.5s-0.8-0.4-1-0.6s-0.4-0.4-0.5-0.7s-0.2-0.5-0.2-0.9c0-0.6,0.2-1.1,0.6-1.5
			c0.4-0.4,1-0.5,1.8-0.5c0.4,0,0.7,0,1.1,0.1c0.3,0.1,0.7,0.2,1.1,0.4l-0.5,1.2c-0.4-0.2-0.7-0.3-0.9-0.3c-0.2-0.1-0.5-0.1-0.7-0.1
			c-0.3,0-0.5,0.1-0.7,0.2s-0.2,0.3-0.2,0.5c0,0.1,0,0.2,0.1,0.3s0.2,0.2,0.3,0.3s0.5,0.3,1,0.5c0.7,0.3,1.1,0.6,1.4,1
			C541.7,567.2,541.8,567.6,541.8,568z"/>
		<path class="st1" d="M456.8,582h-5v-1l1.8-1.8c0.5-0.5,0.9-0.9,1-1.1c0.2-0.2,0.3-0.4,0.4-0.6s0.1-0.4,0.1-0.6
			c0-0.3-0.1-0.5-0.2-0.6s-0.4-0.2-0.6-0.2c-0.3,0-0.5,0.1-0.8,0.2s-0.5,0.3-0.8,0.5l-0.8-1c0.4-0.3,0.6-0.5,0.9-0.6
			s0.5-0.2,0.8-0.3s0.6-0.1,0.9-0.1c0.4,0,0.8,0.1,1.2,0.2s0.6,0.4,0.8,0.7s0.3,0.6,0.3,1c0,0.3-0.1,0.6-0.2,0.9
			c-0.1,0.3-0.3,0.6-0.5,0.9s-0.7,0.7-1.3,1.3l-0.9,0.9v0.1h3.1v1.2H456.8z"/>
		<path class="st1" d="M457.7,581.3c0-0.3,0.1-0.5,0.2-0.6s0.4-0.2,0.6-0.2c0.3,0,0.5,0.1,0.6,0.2s0.2,0.3,0.2,0.6s-0.1,0.5-0.2,0.6
			s-0.4,0.2-0.6,0.2c-0.3,0-0.5-0.1-0.6-0.2C457.7,581.8,457.7,581.6,457.7,581.3z"/>
		<path class="st1" d="M469.8,582h-1.9l-3.1-5.4l0,0c0.1,1,0.1,1.6,0.1,2v3.4h-1.4v-7.1h1.9l3.1,5.3l0,0c0-0.9-0.1-1.6-0.1-2v-3.4
			h1.4V582z"/>
		<path class="st1" d="M475.9,582l-0.5-1.7h-2.6l-0.5,1.7h-1.6l2.5-7.2h1.9l2.5,7.2H475.9z M475.1,579c-0.5-1.5-0.7-2.4-0.8-2.6
			s-0.1-0.4-0.1-0.5c-0.1,0.4-0.4,1.4-0.9,3.1H475.1z"/>
		<path class="st1" d="M481.5,582l-1.7-5.6l0,0c0.1,1.1,0.1,1.9,0.1,2.3v3.3h-1.4v-7.1h2.1l1.7,5.5l0,0l1.8-5.5h2.1v7.1h-1.4v-3.4
			c0-0.2,0-0.3,0-0.6s0-0.8,0.1-1.7l0,0l-1.8,5.6h-1.6V582z"/>
		<path class="st1" d="M492,582h-4.1v-7.1h4.1v1.2h-2.6v1.6h2.4v1.2h-2.4v1.8h2.6V582z"/>
		<path class="st1" d="M492.9,579.9v-1.2h2.6v1.2H492.9z"/>
		<path class="st1" d="M502.6,578.4c0,1.2-0.3,2.1-1,2.7c-0.7,0.6-1.6,0.9-2.9,0.9h-2v-7.1h2.2c1.2,0,2.1,0.3,2.7,0.9
			S502.6,577.3,502.6,578.4z M501.1,578.4c0-1.5-0.7-2.3-2-2.3h-0.8v4.6h0.6C500.3,580.8,501.1,580,501.1,578.4z"/>
		<path class="st1" d="M505.6,579.3v2.7h-1.5v-7.1h2.1c1,0,1.7,0.2,2.2,0.5c0.5,0.4,0.7,0.9,0.7,1.6c0,0.4-0.1,0.8-0.3,1.1
			s-0.6,0.6-1,0.8c1.1,1.6,1.8,2.6,2.1,3.1h-1.7l-1.7-2.7L505.6,579.3L505.6,579.3z M505.6,578h0.5c0.5,0,0.8-0.1,1.1-0.2
			s0.3-0.4,0.3-0.8c0-0.3-0.1-0.6-0.3-0.7c-0.2-0.1-0.6-0.2-1.1-0.2h-0.5V578z"/>
		<path class="st1" d="M517.2,578.4c0,1.2-0.3,2.1-0.9,2.7s-1.4,1-2.5,1s-1.9-0.3-2.5-1s-0.9-1.5-0.9-2.7s0.3-2.1,0.9-2.7
			c0.6-0.6,1.4-0.9,2.5-0.9s1.9,0.3,2.5,0.9C516.9,576.3,517.2,577.2,517.2,578.4z M512,578.4c0,0.8,0.2,1.4,0.5,1.8
			s0.8,0.6,1.4,0.6c1.2,0,1.8-0.8,1.8-2.4c0-1.6-0.6-2.4-1.8-2.4c-0.6,0-1.1,0.2-1.4,0.6C512.1,577,512,577.6,512,578.4z"/>
		<path class="st1" d="M523.6,577.1c0,0.8-0.2,1.4-0.7,1.8c-0.5,0.4-1.2,0.6-2,0.6h-0.6v2.5h-1.5v-7.1h2.3c0.9,0,1.5,0.2,2,0.6
			C523.4,575.8,523.6,576.3,523.6,577.1z M520.2,578.2h0.5c0.5,0,0.8-0.1,1-0.3s0.3-0.5,0.3-0.8c0-0.4-0.1-0.6-0.3-0.8
			s-0.5-0.3-0.9-0.3h-0.7v2.2H520.2z"/>
		<path class="st1" d="M529.9,577.1c0,0.8-0.2,1.4-0.7,1.8c-0.5,0.4-1.2,0.6-2,0.6h-0.6v2.5H525v-7.1h2.3c0.9,0,1.5,0.2,2,0.6
			C529.7,575.8,529.9,576.3,529.9,577.1z M526.5,578.2h0.5c0.5,0,0.8-0.1,1-0.3s0.3-0.5,0.3-0.8c0-0.4-0.1-0.6-0.3-0.8
			s-0.5-0.3-0.9-0.3h-0.7v2.2H526.5z"/>
		<path class="st1" d="M531.2,582v-7.1h1.5v7.1H531.2z"/>
		<path class="st1" d="M540.9,582H539l-3.1-5.4l0,0c0.1,1,0.1,1.6,0.1,2v3.4h-1.4v-7.1h1.9l3.1,5.3l0,0c0-0.9-0.1-1.6-0.1-2v-3.4
			h1.4V582z"/>
		<path class="st1" d="M545.4,578h2.8v3.7c-0.5,0.1-0.9,0.3-1.3,0.3c-0.4,0.1-0.8,0.1-1.2,0.1c-1.1,0-1.9-0.3-2.5-0.9
			c-0.6-0.6-0.9-1.5-0.9-2.7s0.3-2.1,1-2.7c0.7-0.6,1.6-1,2.7-1c0.7,0,1.4,0.1,2.1,0.4l-0.5,1.2c-0.5-0.3-1.1-0.4-1.6-0.4
			c-0.7,0-1.2,0.2-1.6,0.7s-0.6,1-0.6,1.8s0.2,1.4,0.5,1.8c0.3,0.4,0.8,0.6,1.4,0.6c0.3,0,0.6,0,1-0.1v-1.5h-1.4L545.4,578
			L545.4,578z"/>
		<path class="st1" d="M457.8,594h-5v-1l1.8-1.8c0.5-0.5,0.9-0.9,1-1.1c0.2-0.2,0.3-0.4,0.4-0.6s0.1-0.4,0.1-0.6
			c0-0.3-0.1-0.5-0.2-0.6s-0.4-0.2-0.6-0.2c-0.3,0-0.5,0.1-0.8,0.2s-0.5,0.3-0.8,0.5l-0.8-1c0.4-0.3,0.6-0.5,0.9-0.6
			s0.5-0.2,0.8-0.3s0.6-0.1,0.9-0.1c0.4,0,0.8,0.1,1.2,0.2s0.6,0.4,0.8,0.7s0.3,0.6,0.3,1c0,0.3-0.1,0.6-0.2,0.9
			c-0.1,0.3-0.3,0.6-0.5,0.9s-0.7,0.7-1.3,1.3l-0.9,0.9v0.1h3.1v1.2H457.8z"/>
		<path class="st1" d="M458.7,593.3c0-0.3,0.1-0.5,0.2-0.6s0.4-0.2,0.6-0.2c0.3,0,0.5,0.1,0.6,0.2s0.2,0.3,0.2,0.6s-0.1,0.5-0.2,0.6
			s-0.4,0.2-0.6,0.2c-0.3,0-0.5-0.1-0.6-0.2C458.7,593.8,458.7,593.6,458.7,593.3z"/>
		<path class="st1" d="M470.9,590.4c0,1.2-0.3,2.1-0.9,2.7s-1.4,1-2.5,1s-1.9-0.3-2.5-1s-0.9-1.5-0.9-2.7s0.3-2.1,0.9-2.7
			c0.6-0.6,1.4-0.9,2.5-0.9s1.9,0.3,2.5,0.9S470.9,589.2,470.9,590.4z M465.7,590.4c0,0.8,0.2,1.4,0.5,1.8s0.8,0.6,1.4,0.6
			c1.2,0,1.8-0.8,1.8-2.4c0-1.6-0.6-2.4-1.8-2.4c-0.6,0-1.1,0.2-1.4,0.6C465.9,589,465.7,589.6,465.7,590.4z"/>
		<path class="st1" d="M478.2,586.9v4.6c0,0.5-0.1,1-0.4,1.4s-0.6,0.7-1,0.9s-1,0.3-1.6,0.3c-0.9,0-1.6-0.2-2.1-0.7
			s-0.8-1.1-0.8-1.9v-4.6h1.5v4.4c0,0.5,0.1,1,0.3,1.2s0.6,0.4,1.1,0.4s0.9-0.1,1.1-0.4c0.2-0.3,0.3-0.7,0.3-1.2v-4.4H478.2z"/>
		<path class="st1" d="M481.5,591.3v2.7H480v-7.1h2.1c1,0,1.7,0.2,2.2,0.5c0.5,0.4,0.7,0.9,0.7,1.6c0,0.4-0.1,0.8-0.3,1.1
			s-0.6,0.6-1,0.8c1.1,1.6,1.8,2.6,2.1,3.1H484l-1.7-2.7L481.5,591.3L481.5,591.3z M481.5,590h0.5c0.5,0,0.8-0.1,1.1-0.2
			s0.3-0.4,0.3-0.8c0-0.3-0.1-0.6-0.3-0.7s-0.6-0.2-1.1-0.2h-0.5V590z"/>
		<path class="st1" d="M493.3,594h-4.1v-7.1h4.1v1.2h-2.6v1.6h2.4v1.2h-2.4v1.8h2.6V594z"/>
		<path class="st1" d="M500.5,594h-1.7l-1.7-2.7l-1.7,2.7h-1.6l2.4-3.7l-2.2-3.5h1.7l1.5,2.6l1.5-2.6h1.6l-2.2,3.5L500.5,594z"/>
		<path class="st1" d="M506.4,589.1c0,0.8-0.2,1.4-0.7,1.8s-1.2,0.6-2,0.6H503v2.5h-1.5v-7.1h2.3c0.9,0,1.5,0.2,2,0.6
			C506.1,587.8,506.4,588.3,506.4,589.1z M502.9,590.2h0.5c0.5,0,0.8-0.1,1-0.3s0.3-0.5,0.3-0.8c0-0.4-0.1-0.6-0.3-0.8
			s-0.5-0.3-0.9-0.3h-0.7v2.2H502.9z"/>
		<path class="st1" d="M511.8,594h-4.1v-7.1h4.1v1.2h-2.6v1.6h2.4v1.2h-2.4v1.8h2.6V594z"/>
		<path class="st1" d="M514.8,591.3v2.7h-1.5v-7.1h2.1c1,0,1.7,0.2,2.2,0.5c0.5,0.4,0.7,0.9,0.7,1.6c0,0.4-0.1,0.8-0.3,1.1
			s-0.6,0.6-1,0.8c1.1,1.6,1.8,2.6,2.1,3.1h-1.7l-1.7-2.7L514.8,591.3L514.8,591.3z M514.8,590h0.5c0.5,0,0.8-0.1,1.1-0.2
			c0.2-0.2,0.3-0.4,0.3-0.8c0-0.3-0.1-0.6-0.3-0.7s-0.6-0.2-1.1-0.2h-0.5V590z"/>
		<path class="st1" d="M519.9,594v-7.1h1.5v7.1H519.9z"/>
		<path class="st1" d="M527.3,594h-4.1v-7.1h4.1v1.2h-2.6v1.6h2.4v1.2h-2.4v1.8h2.6V594z"/>
		<path class="st1" d="M535.2,594h-1.9l-3.1-5.4l0,0c0.1,1,0.1,1.6,0.1,2v3.4h-1.4v-7.1h1.9l3.1,5.3l0,0c0-0.9-0.1-1.6-0.1-2v-3.4
			h1.4V594z"/>
		<path class="st1" d="M540,588c-0.6,0-1,0.2-1.3,0.6c-0.3,0.4-0.5,1-0.5,1.8c0,1.6,0.6,2.4,1.8,2.4c0.5,0,1.1-0.1,1.8-0.4v1.3
			c-0.6,0.2-1.2,0.4-2,0.4c-1,0-1.8-0.3-2.4-0.9c-0.6-0.6-0.8-1.5-0.8-2.7c0-0.7,0.1-1.4,0.4-2c0.3-0.6,0.7-1,1.2-1.3
			s1.1-0.4,1.8-0.4s1.4,0.2,2.1,0.5l-0.5,1.2c-0.3-0.1-0.5-0.2-0.8-0.3S540.2,588,540,588z"/>
		<path class="st1" d="M547.4,594h-4.1v-7.1h4.1v1.2h-2.6v1.6h2.4v1.2h-2.4v1.8h2.6V594z"/>
	</g>
	<g>
		<path class="st1" d="M567.5,500v44h44.6v-88h-44.6V500z M611.9,500v43.8h-22h-22.1v-43.7v-43.7H612V500H611.9z"/>
		<path class="st1" d="M580,458.3c-0.2,0.1-0.2,0.4-0.2,1.3v1.2h-0.6h-0.6v1.6c0,1.7,0,1.8,0.7,1.9h0.4l0.1,4.8
			c0.1,4.6,0.1,4.8,0.3,5.1c0.6,0.8,0.7,0.8,3.3,0.9c1.8,0,2.5,0,2.6-0.1s0.2-0.5,0.2-1.6c0-1.6-0.1-1.8-0.8-1.8
			c-1,0-0.9,0.2-0.9-3.7v-3.5l0.3-0.1c0.1,0,0.5-0.1,0.7-0.1c0.6,0,0.7-0.2,0.7-1.9v-1.5l-0.7-0.1c-0.4,0-0.8-0.1-0.9-0.2
			c-0.1-0.1-0.1-0.6-0.2-1.2c0-1-0.1-1.1-0.3-1.2C583.5,458.1,580.2,458.1,580,458.3L580,458.3z M594.3,460.8
			c-1.2,0.1-1.3,0.1-1.3,0.5c0,0.5-0.3,0.6-0.8,0.2c-0.2-0.2-0.6-0.4-0.9-0.5c-0.6-0.2-2.3-0.2-3,0c-0.6,0.2-1.2,0.8-1.4,1.4
			c-0.2,0.7-0.2,10.9,0,11.4s0.9,1.1,1.5,1.3c0.7,0.2,1.5,0.2,1.9-0.1c0.3-0.2,0.3-0.2,0.6,0.1c0.2,0.1,0.4,0.2,0.4,0.2
			s0.2,0.1,0.3,0.2c0.2,0.2,0.2,0.2,0.1-0.1c-0.1-0.3-0.1-0.3,0.4-0.8c0.3-0.3,0.7-0.5,0.8-0.5s0.2,0.2,0.3,0.5l0.1,0.5h1.4
			c0.8,0,1.7,0,2.1,0l0.6-0.1v-6.9c0-6.6,0-6.9-0.2-7.1C596.9,460.8,596.5,460.7,594.3,460.8L594.3,460.8z M592.4,464.1
			c0.2,0.1,0.5,0.3,0.5,0.4c0.1,0.2,0.1,1.3,0.1,3.5v3.3l-0.4,0.3c-0.4,0.4-0.6,0.4-1.1,0.2c-0.6-0.3-0.7-0.7-0.7-4
			c0-2.9,0-3,0.3-3.3c0.2-0.3,0.6-0.5,0.9-0.5C592,464,592.2,464,592.4,464.1z M598.4,460.9c-0.2,0.1-0.2,0.4-0.2,2.5
			c0,2.8,0,2.9,1.2,3.7c0.4,0.2,0.7,0.5,0.7,0.6s-0.3,0.3-0.6,0.5c-1.2,0.8-1.2,0.7-1.2,3.8c0,3.5-0.2,3.2,2.4,3.2h1.9l0.1-0.3
			c0.1-0.2,0.1-1.2,0.1-2.2c0-2.1,0.1-2.6,0.8-3c0.3-0.2,0.3-0.1,0.7,0.2c0.6,0.6,0.7,0.9,0.7,2.9c0,2.5-0.1,2.4,2.1,2.4
			c1,0,1.8-0.1,2-0.1c0.2-0.1,0.2-0.3,0.2-3v-2.9l-0.5-0.5c-0.3-0.3-0.7-0.6-0.9-0.8l-0.4-0.3l0.7-0.5c1-0.7,1-0.9,1-3.7
			c0-1.7,0-2.4-0.1-2.5c-0.2-0.2-3.8-0.2-4,0c-0.1,0.1-0.1,0.8-0.1,2.2c0,1.9,0,2.1-0.3,2.6c-0.5,1-1,1.1-1.6,0.1
			c-0.3-0.5-0.3-0.6-0.4-2.6c0-1.2-0.1-2.1-0.2-2.2C602.3,460.7,598.7,460.7,598.4,460.9L598.4,460.9z M570.6,461
			c-0.7,0.4-0.7,0.3-0.7,4.4c0,3.5,0,3.8,0.2,4c0.3,0.3,1,0.5,2.5,0.5c0.6,0,1,0.1,1.1,0.2c0.2,0.2,0.2,1.3,0,1.5
			c-0.1,0.1-0.9,0.1-2,0.2h-1.8v1.5c0,1.2,0,1.5,0.2,1.7s0.4,0.2,3.4,0.2c1.8,0,3.4-0.1,3.6-0.1c0.2-0.1,0.5-0.3,0.7-0.4
			c0.2-0.3,0.2-0.5,0.2-4c0-2.3,0-3.8-0.1-3.9c-0.2-0.5-0.7-0.6-2.2-0.6c-0.8,0-1.5,0-1.6-0.1c-0.2-0.1-0.3-1.1-0.1-1.4
			c0.1-0.2,0.2-0.2,1.9-0.2c1.2,0,1.8,0,1.9-0.1c0.2-0.2,0.2-3,0-3.2C577.5,460.8,571,460.8,570.6,461L570.6,461z"/>
		<path class="st1" d="M592.1,476.2c0,0,0,0.3,0,0.6c0.1,0.4,0,0.5-0.2,0.7c-0.3,0.2-0.3,0.2,0,0.2s0.4,0.2,0.2,0.4
			c-0.1,0.1-0.2,0.4-0.2,0.7s0,0.6-0.1,0.6s-0.6-0.6-0.6-0.8c0-0.1,0.1-0.2,0.1-0.3c0.2-0.2-0.1-0.2-0.4,0c-0.3,0.2-0.3,0.3,0.1,0.6
			c0.4,0.3,0.5,0.7,0.2,0.7c-0.1,0-0.2-0.1-0.2-0.2c0-0.2-0.3-0.2-0.4,0c-0.2,0.2-0.4,0-0.3-0.2c0.1-0.2,0.1-0.2-0.1,0
			c-0.3,0.2-0.3,0.2,0,0.5s0.3,0.4,0,0.4c-0.2,0-0.3,0-0.3,0.2c0,0.1-0.2,0.4-0.4,0.6c-0.2,0.3-0.3,0.3-0.1,0.3c0.1,0,0.2,0,0.2,0.1
			c0,0.2-0.5,0.6-0.6,0.6s-0.1,0,0,0.1c0.2,0.2,0.2,0.3,0,0.3c-0.1,0-0.1,0-0.1,0.1s0,0.2-0.1,0.4c-0.3,0.4-0.2,0.4,0.2,0.5
			s0.4,0.1,0.1,0.3c-0.2,0.2-0.2,0.2,0,0.1c0.2-0.1,0.7,0.1,0.7,0.3c0,0.1-0.2,0.1-0.4,0.1c-0.3,0-0.4,0.1-0.6,0.2
			c-0.1,0.1-0.2,0.2-0.3,0.2l-0.2-0.1c-0.2,0-0.2-0.3,0-0.4c0.2-0.1,0.3-0.4,0.2-0.7c0-0.1-0.1-0.1-0.3,0s-0.2,0.1-0.1,0
			c0-0.1,0-0.2-0.1-0.1c-0.1,0.1-0.2,0.2-0.1,0.7c0,0.6,0,0.7-0.2,0.8c-0.3,0.2-0.6,0-0.3-0.2c0.1-0.1,0.2-0.2,0.1-0.2
			c-0.1,0-0.3,0.1-0.4,0.3l-0.3,0.3l0.3,0.1c0.3,0.1,0.4,0.2,0.1,0.4c-0.1,0.1-0.1,0.2,0.1,0.2c0.2,0,0.3,0.2,0.3,0.3
			s0.1,0.3,0.1,0.4c0.2,0.2-0.1,0.3-0.3,0.2c-0.1-0.1-0.2-0.1-0.5,0.2c-0.2,0.2-0.2,0.3-0.2,0.3c0.2,0.1,0.3,0.9,0.1,0.9
			c-0.1,0-0.1-0.1-0.1-0.1c0-0.1,0-0.1-0.1-0.1c-0.2,0-0.1,0.3,0.1,0.4c0.2,0.1,0.2,0.1,0.3,0c0.1-0.2,0.4-0.2,0.4,0
			c0,0.1-0.1,0.2-0.2,0.3c-0.1,0.1-0.2,0.3-0.3,0.5s-0.2,0.2-0.2,0.2c-0.1-0.1-0.3-0.1-0.5-0.1c-0.3,0-0.3,0-0.3,0.2
			s0.1,0.2,0.5,0.2c0.5,0,0.6,0,0.4,0.3c-0.1,0.2-0.2,0.2-0.4,0.1c-0.3-0.1-0.3-0.1-0.4,0.2c0,0.2-0.1,0.3-0.2,0.2
			c0,0-0.2,0.2-0.2,0.4c-0.1,0.5-0.3,0.6-0.5,0.2l-0.1-0.3v0.3c0,0.2,0,0.3-0.2,0.3c-0.1,0-0.2,0-0.2,0.2s-0.1,0.2-0.2,0.2
			c-0.3-0.1-0.3,0.3-0.1,0.5s0.2,0.2,0.8-0.2c0.7-0.5,0.8-0.6,2-1c1-0.3,2.4-1,3.7-1.9c0.4-0.2,0.8-0.5,0.9-0.5
			c0.2,0,0.8-0.3,1.9-0.8c0.1-0.1,0.3-0.1,0.3-0.1c0.1,0,0.4-0.2,0.7-0.3c0.9-0.5,2.2-0.9,4.3-1.2c1.1-0.2,2.6-0.5,3.5-0.7
			c0.8-0.2,1.6-0.5,1.7-0.5c0.1,0,0.4,0,0.6,0c0.3,0.1,0.5,0.2,0.6,0.5c0.2,0.3,0.2,0.5,0.1,0.6c-0.1,0.1-0.1,0.2,0,0.3
			c0.1,0,0.1,0.3,0.1,0.5s0,0.4,0.1,0.4c0,0,0.1,0,0.1,0.1c0,0.2-0.2,0.1-0.4-0.2s-0.2-0.3-0.3-0.1c0,0.1,0,0.4,0.1,0.6l0.2,0.4
			l-0.3,0.2c-0.2,0.1-0.4,0.2-0.5,0.2s-0.1,0.1-0.1,0.1c0.2,0.2,0,0.7-0.3,0.7c-0.1,0-0.2,0.1-0.2,0.2c0,0.1-0.1,0.2-0.2,0.2
			s-0.2,0.1-0.2,0.1c0,0.1-0.2,0-0.3-0.1c-0.4-0.3-0.8-0.3-0.8,0.1c0,0.3-0.4,0.4-0.6,0.2c-0.2-0.2-0.5-0.2-0.5,0
			c0,0.1-0.1,0.2-0.1,0.2c-0.1,0-0.1,0.1,0,0.1s0.2,0,0.2-0.1c0.1-0.2,0.4-0.1,0.4,0.1c0,0.2-0.7,0.4-0.9,0.2
			c-0.1-0.1-0.2-0.1-0.2,0s0,0.1-0.1,0.1s-0.1-0.1-0.1-0.2c0-0.2,0-0.2-0.1-0.1c-0.1,0.1-0.1,0.2,0,0.5s0.1,0.4,0,0.5
			c-0.2,0.2-0.4,0.2-0.4,0c0-0.1,0.1-0.2,0.1-0.2c0.1,0,0.1-0.1,0.1-0.1c0-0.1-0.1,0-0.2,0.1c-0.1,0.1-0.3,0.2-0.4,0.2
			c-0.2,0-0.2-0.4,0-0.6c0.2-0.2,0.2-0.5,0.1-0.5c-0.1,0-0.1,0.1-0.1,0.1c0,0.1-0.1,0.1-0.3,0.1s-0.4,0.1-0.6,0.2
			c-0.2,0.2-0.3,0.2-0.4,0.2c-0.1-0.2-0.5-0.1-0.8,0.1c-0.2,0.3-0.2,0.3-0.4,0.1s-0.3-0.3-0.2,0s-0.2,0.4-0.4,0.1
			c-0.1-0.2-0.2-0.2-0.2,0.1c-0.3,1.2-0.4,1.3-1,0.9c-0.2-0.1-0.4-0.2-0.5-0.2s-0.2-0.1-0.3-0.2c-0.1-0.2-0.1-0.2-0.2-0.1
			c-0.1,0.1-0.1,0.2,0.1,0.4c0.2,0.1,0.2,0.3,0.2,0.5c-0.1,0.2,0,0.3,0.2,0.3c0.3,0,0.5,0.2,0.3,0.4c-0.1,0.1-0.1,0.2,0.1,0.3
			l0.3,0.2l-0.3,0.1c-0.2,0-0.2,0.1-0.2,0.2c0,0.1,0,0.1-0.1,0.2c-0.1,0-0.2,0.2-0.1,0.2c0,0.1,0,0.2-0.1,0.2s-0.2-0.1-0.2-0.2
			s0-0.2-0.1-0.2s-0.1,0.1-0.1,0.2c0,0.1,0,0.2-0.1,0.2s-0.1-0.1-0.1-0.2c0-0.1-0.1-0.2-0.1-0.2c-0.1,0-0.1,0.1,0,0.3s0,0.3-0.1,0.2
			c-0.1,0-0.2,0-0.2,0.1s0,0.2-0.1,0.1c-0.1,0-0.1,0-0.1,0c0,0.2-0.2,0.2-0.3,0c0-0.1,0.1-0.4,0.2-0.6c0.3-0.5,0.3-0.5,1-0.4h0.7
			v-0.5c0-0.3,0-0.4-0.1-0.3c-0.1,0.1-0.2,0.1-0.4,0c-0.2-0.2-0.3-0.2-0.1,0c0.1,0.2,0.1,0.2,0,0.2s-0.2,0.1-0.3,0.1
			c-0.1,0.2-0.6,0.5-0.8,0.4s-0.1-0.4,0-0.4s0.2-0.1,0.2-0.3s0-0.3-0.1-0.3s-0.1,0.1-0.1,0.2c0.1,0.3-0.1,0.3-0.4,0.1
			c-0.4-0.3-0.6-0.1-0.2,0.2c0.3,0.2,0.3,0.3,0.2,0.5c-0.2,0.3-0.3,0.3-0.5,0s-0.4-0.4-0.4-0.1c0,0.2-0.4,0.3-0.7,0.3
			s-0.4,0.2-0.2,0.4s0.1,0.3-0.2,0.2s-0.4-0.3-0.1-0.3c0.1,0,0-0.1-0.2-0.3c-0.3-0.2-0.3-0.3-0.2-0.5c0.1-0.1,0.3-0.3,0.4-0.3
			c0.2,0,0.2-0.1,0.2-0.3s0-0.2-0.4,0.2c-0.2,0.2-0.4,0.5-0.5,0.6c-0.1,0.2-0.1,0.2-0.3,0s-0.2-0.2-0.2,0c0,0.1-0.1,0.2-0.1,0.2
			c-0.1,0-0.3,0.1-0.5,0.3c-0.3,0.3-0.3,0.3-0.1,0.3c0.1,0,0.3-0.1,0.5-0.2c0.2-0.1,0.3-0.2,0.4-0.1c0.1,0.1,0.1,0.2-0.1,0.2
			c-0.1,0-0.2,0.1-0.1,0.2c0.1,0.2-0.4,0.3-0.8,0.2c-0.2,0-0.4,0-0.4,0c0,0.1,0,0.1,0,0.1c0.1,0,0.2,0.1,0.4,0.3s0.4,0.3,0.5,0.3
			s0.3,0.1,0.4,0.1c0.1,0.1,0.4,0.2,0.6,0.3c0.3,0.1,0.5,0.2,0.4,0.2c0,0,0.4,0.3,1,0.6s1,0.6,1.1,0.7c0.1,0.2,0.1,0.2,0.2,0.1
			c0.2-0.2,0.5-0.2,0.7,0.2c0.1,0.3,0.4,0.4,0.4,0.2c0-0.1,0.2-0.1,0.4,0c0.2,0,0.4,0.1,0.4,0.3s0.4,0.5,0.5,0.4s0.5,0.3,0.7,0.7
			c0.1,0.2,0.3,0.3,0.4,0.3c0.2,0,0.2,0,0-0.1c-0.3-0.1-0.3-0.4,0-0.4c0.1,0,0.2,0,0.2,0.1s0.1,0.1,0.2,0.1c0.2,0,0.5,0.4,0.3,0.4
			c-0.1,0-0.2,0.1-0.2,0.2c0,0.1,0,0.1,0.1,0c0.2-0.2,0.9,0.2,1.2,0.5c0.1,0.1,0.3,0.2,0.4,0.2c0.1,0,0.2,0.1,0.2,0.3
			s0.2,0.3,0.5,0.4c0.2,0.1,0.5,0.2,0.7,0.4l0.3,0.2l-0.3,0.3l-0.3,0.3l0.2,0.1c0.2,0.1,0.3,0.1,0.3,0s0-0.1-0.1-0.1
			s-0.1-0.1-0.1-0.1c0-0.2,0.3-0.1,0.7,0.3c0.3,0.3,0.4,0.5,0.3,0.7c0,0.2,0,0.3,0.1,0.3c0.1,0.1,0,0.2-0.1,0.3
			c-0.2,0.2-0.2,0.2,0.1,0.2c0.2,0,0.2,0.1,0.2,0.2c0,0.1,0,0.2,0.1,0.2s0.1,0.1,0.1,0.2c0,0.1,0,0.2,0.1,0.3
			c0.2,0.1,0.2,0.2,0.1,0.3c-0.1,0.1-0.2,0.2-0.2,0.1c-0.2-0.1-0.1,0.4,0.1,0.5c0.1,0.1,0.1,0.3,0.1,0.5c-0.1,0.4,0,0.4,0.2,0.4
			s0.3-0.1,0.3-0.3c0-0.4,0.1-0.4,0.5-0.1c0.4,0.3,0.2,0.6-0.3,0.6c-0.3,0-0.3,0-0.2,0.1s0.1,0.2,0.1,0.2c0,0.1,0,0.1,0,0.1
			c0.1,0,0.1,0.1,0.1,0.2c0,0.1,0,0.2,0.1,0.2s0.2,0,0.2,0.1s0,0.2-0.1,0.2s-0.2,0.1-0.2,0.1c0,0.1,0.1,0.1,0.2,0.1
			c0.1,0,0.2,0,0.2,0.1s0.1,0.2,0.3,0.2c0.1,0,0.2,0,0.2,0.1s0.1,0.1,0.2,0.2c0.3,0.1,0.3,0.3,0,0.3c-0.2,0-0.2,0-0.1,0.2
			c0.2,0.3-0.1,0.5-0.5,0.2c-0.2-0.1-0.2-0.1-0.2-0.1c0.1,0.2-0.2,0.4-0.4,0.3c-0.2-0.1-0.6-0.1-0.8,0.1c-0.1,0.1-0.2,0.1-0.2-0.1
			c0-0.1-0.1-0.2-0.2-0.2c-0.1,0-0.4-0.1-0.6-0.4c-0.2-0.2-0.5-0.4-0.6-0.4c-0.3,0-0.7-0.5-0.6-0.7c0.1-0.2,0-0.2-0.2-0.2
			c-0.7,0-1.5-0.6-1.5-1s0-0.7-0.2-0.7s-0.5-0.5-0.4-0.6c0-0.1-0.1-0.3-0.2-0.5c-0.4-0.4-0.4-0.6-0.1-0.8c0.3-0.2,0.2-0.3-0.2-0.2
			c-0.3,0.2-0.6,0.1-0.6-0.1c0-0.2-0.5-0.6-0.7-0.6c-0.1,0-0.3-0.1-0.3-0.2c-0.1-0.2-0.6-0.4-1-0.4c-0.1,0-0.3-0.1-0.5-0.2
			c-0.3-0.2-0.3-0.2-0.2-0.4s0.1-0.2-0.1-0.1c-0.2,0.1-0.3,0-0.3-0.2c0-0.1-0.1-0.2-0.2-0.2c-0.2,0-0.1,0.1,0.1,0.4
			c0.1,0.2,0.1,0.3,0.1,0.3c-0.1,0-0.1,0-0.1,0s-0.1,0-0.1,0.1c-0.1,0.2-0.1,0.3,0,0.3c0.2,0.1,0.2,0.4,0,0.4c-0.1,0-0.1,0,0,0.2
			c0.1,0.1,0.1,0.2,0,0.3s-0.2,0.1-0.2,0c0,0-0.1,0-0.1,0.1c0,0.3,0.2,0.3,0.6,0.1c0.2-0.1,0.3-0.1,0.3,0c0.2,0.5,0.1,0.6-0.2,0.7
			c-0.3,0.1-0.2,0.1,0.4,0.1c0.5,0,0.5,0,0.4-0.1s-0.4-0.8-0.4-0.9c0,0,0.1,0,0.2,0.2c0.1,0.1,0.2,0.3,0.2,0.4s0,0.2,0.1,0.1
			c0.1,0,0.2,0,0.3,0.2s0.1,0.3-0.1,0.4c-0.1,0.1-0.2,0.2-0.1,0.2c0.1,0,0.2-0.1,0.3-0.1c0.1-0.1,0.2-0.1,0.3,0.1
			c0.1,0.1,0.2,0.2,0.3,0.2s0.5,0.4,0.5,0.5s-0.1,0.1-0.2,0c-0.2-0.1-0.6,0.5-0.4,0.6c0.1,0,0.2,0,0.4-0.1c0.3-0.2,0.7,0,0.5,0.3
			c0,0.1-0.1,0.2-0.1,0.2c0,0.1-0.1,0.2-0.3,0.2c-0.3,0.1-0.5,0.6-0.2,0.5c0.1,0,0.2,0,0.2,0.1s0.1,0.2,0.2,0.3
			c0.2,0.2,0.2,0.2,0,0.6c-0.2,0.4-0.2,0.4,0,0.8c0.1,0.2,0.1,0.4,0.1,0.4c-0.2,0-0.1,0.2,0.1,0.3c0.1,0,0.2,0.2,0.2,0.3
			c0,0.3-0.5,0.3-0.6-0.1c-0.1-0.4-0.3-0.4-0.7-0.3c-0.5,0.2-0.6,0.3-0.4,0.5c0.3,0.2,0.4,0.2,0.4-0.1c0-0.2,0.3-0.5,0.4-0.3
			c0,0,0.1,0.3,0.1,0.6c0,0.4,0.1,0.6,0.3,0.7c0.2,0.2,0.3,0.2,0.1,0.3c-0.1,0.1-0.2,0-0.4-0.1c-0.1-0.1-0.3-0.2-0.5-0.2
			s-0.2,0,0.1,0.3c0.4,0.4,0.4,0.4-0.4,0.1c-0.2,0-0.2,0-0.2,0.1s0.2,0.1,0.3,0.1c0.2,0,0.4,0.5,0.3,1c0,0.1,0,0.2,0.1,0.2
			s0.1,0.1,0.1,0.2c0,0.1,0,0.2,0.1,0.2s0.1-0.2,0.1-0.3s0-0.2,0.1-0.2s0.1-0.2,0.1-0.5c-0.1-0.4,0-0.5,0.1-0.5s0.3,0.1,0.4,0.2
			c0.2,0.1,0.2,0.2,0,0.3c-0.1,0.1-0.2,0.2-0.1,0.3c0.1,0.1,0.1,0.2,0.1,0.4c0,0.1,0,0.2,0.1,0.1c0.2-0.1,0.4,0.1,0.2,0.3
			c-0.1,0.1-0.1,0.3-0.1,0.6c0,0.4,0,0.4-0.3,0.4c-0.2,0-0.3-0.1-0.3-0.2c0-0.1-0.1-0.2-0.4-0.1c-0.4,0-0.6,0.2-0.2,0.2
			c0.2,0,0.4,0.5,0.3,0.7c-0.2,0.2-0.7,0-0.9-0.2c-0.1-0.2-0.2-0.2-0.4-0.2c-0.5,0.2-1.1-0.3-1.8-1.4c-0.7-1.2-0.9-1.8-0.9-2.1
			c0-0.2-0.1-0.4-0.2-0.5c-0.1-0.1-0.2-0.4-0.2-0.6c0-0.2-0.1-0.6-0.2-0.8c-0.1-0.3-0.1-0.5,0-0.8c0.1-0.4,0.1-0.4-0.2-0.5
			s-1-0.6-1-0.8c0-0.1-0.1-0.2-0.2-0.3c-0.1-0.1-0.2-0.2-0.2-0.3s0.1-0.1,0.1,0c0.1,0.1,0.1,0,0-0.2c-0.1-0.3-0.2-1.2-0.2-1.6
			c0-0.3-0.2-0.1-0.2,0.3c-0.1,0.3-0.3,0.5-0.3,0.2c0-0.1-0.1-0.1-0.2,0c-0.2,0.1-0.3,0.6-0.1,1c0.1,0.2,0,0.2-0.3,0.3
			c-0.5,0.1-0.8,0.3-0.7,0.4c0,0.1-0.1,0.2-0.2,0.3c-0.2,0.2-0.2,0.2-0.1,0.4c0.2,0.4,0,0.4-0.3,0.1c-0.2-0.2-0.3-0.3-0.3-0.2
			c-0.1,0.2-0.3,0.2-0.3,0c0-0.3-0.2-0.3-0.5-0.1l-0.2,0.3l0.3,0.2c0.2,0.1,0.2,0.2,0.1,0.3c-0.1,0.1-0.2,0.1-0.3-0.1
			c-0.1-0.2-0.2-0.2-0.2-0.1c0,0.1-0.1,0.1-0.3-0.1c-0.1-0.1-0.3-0.2-0.5-0.2h-0.3l0.3,0.1c0.3,0.1,0.3,0.3,0.1,0.5
			c-0.1,0.1-0.2,0.1-0.3,0s-0.2-0.1-0.4,0c-0.3,0.1-0.3,0.1-0.4-0.2c0-0.2-0.2-0.3-0.2-0.3c-0.1,0-0.1,0-0.1,0.1
			c0.1,0.2-0.1,0.4-0.2,0.2c-0.2-0.2-0.4-0.1-0.4,0.2c0,0.1,0.2,0.2,0.5,0.2c0.4,0,0.7,0.2,1,0.4c0.2,0.2,0.5,0.4,0.7,0.4
			c0.2,0.1,0.2,0.1,0,0.2c-0.4,0.1-0.4,0.4,0,0.3c0.3,0,0.3,0,0.3,0.2s0.1,0.3,0.1,0.3c0.1,0,0.2,0,0.2,0.1s-0.1,0.3-0.4,0.4
			c-0.4,0.2-0.4,0.2-0.4,0c0-0.1-0.1-0.2-0.3-0.3c-0.3-0.1-0.3-0.1-0.4,0.2c-0.1,0.2,0,0.3,0.1,0.2c0.1,0,0.4,0,0.5,0.1
			c0.3,0.1,0.3,0.2,0.3,0.5c0,0.2-0.1,0.4-0.2,0.3c-0.1,0-0.2,0-0.2,0.1s-0.1,0.1-0.2,0.1c-0.2,0-0.2-0.1-0.2-0.2
			c0.1-0.2,0-0.2-0.3,0c-0.2,0.1-0.4,0.3-0.5,0.4c0,0.1-0.1,0.1-0.2,0.1c-0.2-0.1-0.6,0.6-0.4,0.7c0.1,0,0.2,0,0.2-0.1
			c0.1-0.1,0.1-0.1,0.2,0c0.1,0.1,0.2,0.1,0.3,0s0.3-0.2,0.4-0.1c0.2,0,0.3,0,0.3-0.1s0.3-0.1,0.7-0.1c0.5,0,0.8,0.1,1,0.3
			c0.3,0.2,0.3,0.3,0.1,0.4c-0.1,0.1-0.2,0.3-0.2,0.5s-0.2,0.5-0.3,0.6c-0.3,0.3-0.2,0.4,0.2,0.3c0.1,0,0.2-0.1,0.1-0.1
			c-0.2,0-0.2-0.2,0.1-0.2s0.8-0.5,0.7-0.9c0-0.2,0-0.3,0.3-0.2c0.2,0,0.3,0,0.3,0.1h0.1c0.2,0,0.5,0.5,0.4,0.5
			c-0.2,0.1-0.3,1-0.2,1s0.3-0.1,0.6-0.1c0.6-0.1,1-0.1,0.9,0.2c0,0.3-0.3,0.3-0.3,0.1c0-0.1-0.1-0.2-0.2-0.2
			c-0.1,0-0.2,0.1-0.1,0.3c0,0.2,0,0.3,0,0.4c-0.1,0-0.1,0-0.1,0c0-0.2-0.4-0.1-0.4,0.1c0,0.1-0.2,0.3-0.3,0.3
			c-0.2,0.1-0.2,0.2-0.2,0.5c0.1,0.3,0,0.3-0.2,0.4c-0.1,0-0.2,0.1-0.2,0.2c0,0.1,0.1,0.1,0.2,0.1c0.1,0,0.3,0,0.3,0.1
			s0,0.1-0.1,0.1s-0.1,0.2,0.1,0.6c0.2,0.4-0.2,0.2-0.4-0.2l-0.2-0.4v0.5c0,0.4,0,0.5-0.1,0.5c-0.4,0-0.5,0-0.5,0.2
			c0,0.1,0.2,0.1,0.4,0.1c0.3,0,0.4,0,0.4,0.2c0,0.1,0,0.3,0.1,0.4c0,0.1,0,0.2,0,0.4l-0.1,0.3l-0.1-0.3c-0.1-0.2-0.2-0.3-0.6-0.2
			c-0.3,0-0.6,0.1-0.6,0.1s0,0.1,0.1,0.1s0.1,0.1,0.1,0.2c-0.1,0.1,0,0.2,0.3,0.1c0.4,0,0.4,0,0.3,0.2c-0.1,0.3,0.3,0.3,0.4,0.1
			c0.1-0.2,0.4-0.2,0.7,0c0.1,0.1,0.2,0.3,0.1,0.5c-0.1,0.7-0.1,0.8,0.1,0.9c0.2,0.1,0.2,0,0-0.1c-0.2-0.2-0.1-0.2,0.1-0.3
			c0.2-0.1,0.2-0.1,0.2-0.4c-0.1-0.6-0.4-1.2-0.5-1.2c0,0-0.1-0.1-0.1-0.2c0-0.2,0.2-0.2,0.4,0.1c0.1,0.2,0.2,0.2,0.4,0.1
			c0.2-0.2,0.2-0.2-0.1-0.5c-0.4-0.3-0.3-0.6,0.1-0.3c0.2,0.1,0.4,0.2,0.6,0c0.2-0.1,0.3-0.2,0.3-0.2c0-0.1-0.2-0.1-0.3,0
			s-0.2,0.1-0.2,0c-0.1-0.2,0.1-0.4,0.5-0.3c0.4,0.1,0.4,0.6-0.1,1c-0.2,0.1-0.4,0.3-0.4,0.4c0,0.2-0.1,0.2-0.3,0.2s-0.3,0-0.2,0.1
			c0,0.1,0.2,0.1,0.5,0c0.5-0.1,0.5,0,0.2,0.4c-0.2,0.2-0.2,0.2-0.4,0.1c-0.1-0.1-0.2-0.1-0.2,0.1c0,0.1,0.1,0.2,0.2,0.2
			c0.1,0,0.2,0.1,0.2,0.3s0.1,0.3,0.2,0.4c0.2,0.1,0.2,0.1,0,0.2c-0.2,0.1-0.3,0.1-0.5-0.1c-0.2-0.2-0.2-0.2-0.1,0.1
			c0,0.2,0,0.3-0.2,0.5c-0.3,0.2-0.3,0.5,0,0.6c0.2,0.1,0.2,0.1-0.1,0.4c-0.2,0.2-0.3,0.3-0.3,0.3s0.2,0,0.4,0s0.3,0,0.2,0
			c-0.2,0-0.2-0.1,0.1-0.3c0.2-0.2,0.3-0.3,0.3-0.5c0-0.1,0-0.3,0.1-0.3c0.1-0.1,0.2-0.1,0.3,0.1c0.1,0.2,0.3,0.3,0.3,0.2
			c0-0.2,0-0.4,0.1-0.4s0.1,0,0.1,0.1s0,0.2,0.1,0.2c0.2,0.2,0.4-0.1,0.2-0.3s-0.2-0.3,0-0.3s0.4,0.6,0.3,0.8c0,0.1,0,0.2,0,0.2
			s0.1,0.1,0.1,0.2c0,0.2-0.1,0.2-0.3,0c-0.3-0.3-0.3,0,0,0.4c0.4,0.4,0.5,0.9,0.1,0.5c-0.1-0.1-0.2-0.3-0.2-0.3
			c0-0.1-0.1-0.2-0.2-0.2c-0.2-0.1-0.2-0.1-0.2-0.3s0-0.2-0.2-0.3c-0.3-0.1-0.5,0-0.2,0.2c0.2,0.1,0.2,0.1,0,0.2
			c-0.3,0.2,0,0.6,0.5,0.7c0.4,0.1,0.5,0.2,0.3,0.3c-0.1,0.1-0.1,0.3-0.1,0.4c0,0.1,0,0.3-0.1,0.3c-0.1,0.1-0.2,0.2-0.1,0.2
			c0.1,0,0.2,0,0.3-0.2c0.2-0.3,0.2-0.3,0.5-0.1c0.2,0.2,0.3,0.3,0.3,0.5c0,0.4,0.3,0.9,0.5,0.6c0-0.1,0.3-0.2,0.5-0.2
			c0.3,0,0.4-0.1,0.4-0.3c0-0.3,0.1-0.3,0.4-0.1c0.2,0.2,0.2,0.2,0.3,0c0-0.1,0.1-0.2,0.2-0.2c0.2,0,0.2-0.1,0-0.4
			c-0.2-0.2-0.3-0.3-0.3,0s-0.5,0.2-0.8-0.1c-0.1-0.2-0.2-0.4-0.1-0.4c0.1-0.2-0.1-0.5-0.2-0.4c-0.1,0-0.1,0.1,0,0.2
			c0.1,0.2,0,0.5-0.2,0.5c-0.1,0-0.1,0-0.1,0.2c0,0.1-0.1,0.3-0.1,0.3c-0.1,0-0.1-0.2-0.1-0.4c0-0.3,0-0.4-0.2-0.4s-0.2-0.1-0.2-0.5
			c0-0.3,0.1-0.5,0.2-0.5c0.1,0,0.1,0,0-0.1c-0.2-0.1-0.2-0.3,0-0.3s0.5,0.3,0.5,0.5s0.2,0.2,0.7,0c0.4-0.2,0.6-0.1,0.5,0.2
			c-0.1,0.2-0.1,0.2-0.2,0.1c-0.2-0.2-0.3-0.2-0.3,0s0.5,0.4,0.6,0.2c0-0.1,0.1-0.1,0.2-0.1c0.1,0,0.2,0,0,0.1
			c-0.2,0.2-0.2,0.4,0.1,0.3c0.1,0,0.2,0,0.2,0c0,0.1,0.1,0.1,0.3,0.2c0.2,0,0.3,0.1,0.3,0.2c0,0.2,0,0.2-0.1,0.1
			c-0.2-0.1-0.3,0.1-0.1,0.2c0.1,0,0.1,0.1,0.1,0.2c0,0.1,0,0.2,0.2,0.4s0.3,0.2,0.3,0.1c0-0.1,0.1-0.1,0.2,0c0,0.1,0.2,0.2,0.4,0.3
			l0.3,0.2h-0.3c-0.3,0-0.4,0.1-0.2,0.3c0,0.1,0.1,0.3,0.2,0.4c0.1,0.2,0,0.3-0.1,0.3s-0.2,0.1-0.3,0.1c0,0.1,0,0.1,0.2,0
			s0.2,0,0.2,0.2c0,0.3-0.2,0.4-0.3,0.2c0-0.1-0.1,0-0.1,0.2s0,0.4-0.1,0.5c0,0.1,0,0.2,0,0.1c0.3-0.2,0.5,0,0.5,0.4
			c-0.1,0.3,0,0.3,0.1,0.2c0.3-0.2,0.2,0,0,0.3c-0.3,0.2-0.4,0.1-0.3-0.3c0.1-0.2,0-0.2-0.2-0.2s-0.3,0-0.4-0.2
			c-0.2-0.4-0.2-0.5,0.1-0.5c0.1,0,0.2,0,0.1-0.1c0-0.1-0.2-0.1-0.4-0.1s-0.3-0.1-0.3-0.2c0-0.1,0.1-0.2,0.1-0.2
			c0.1,0,0.1,0,0.1,0.1s0.1,0.1,0.2,0.1c0.1,0,0.2,0,0.2-0.1s-0.1-0.1-0.2-0.2c-0.1,0-0.2-0.2-0.2-0.3c0-0.2,0-0.2-0.2,0
			c-0.1,0.1-0.2,0.1-0.2,0s0.1-0.2,0.3-0.2c0.2-0.1,0.2-0.1,0.1-0.1c-0.1,0-0.1,0,0-0.1s0.2-0.2,0.2-0.3s0.1-0.3,0.3-0.4
			c0.2-0.1,0.2-0.2,0.1-0.3c-0.1-0.1-0.2-0.1-0.3,0s-0.2,0.1-0.5-0.2c-0.5-0.5-0.6-0.3-0.1,0.2c0.2,0.2,0.4,0.5,0.3,0.6
			c-0.1,0.3-0.3,0.2-0.2-0.1c0.1-0.2,0-0.2-0.2-0.2c-0.2,0.1-0.3,0-0.3-0.2c-0.1-0.3-0.5-0.4-0.5-0.2c0,0.1-0.1,0.1-0.2,0
			c-0.3-0.1-0.6,0-0.6,0.2s-0.3,0.3-0.6,0.3c-0.1,0-0.1,0,0.1,0.2c0.2,0.2,0.2,0.2,0.3,0.1c0-0.1,0.1-0.1,0.2-0.1c0.1,0,0.2,0,0.2,0
			c0-0.1,0.2-0.1,0.3-0.1s0.3-0.1,0.4-0.2c0.2-0.2,0.2-0.2,0.1,0c-0.1,0.2,0,0.4,0.2,0.2c0.1-0.1,0.2-0.1,0.3,0s0.1,0.1-0.1,0.3
			c-0.2,0.1-0.4,0.3-0.5,0.4c-0.2,0.2-0.6,0.2-0.6-0.1c0-0.1,0-0.2-0.1-0.2s-0.1,0.1-0.1,0.2c0,0.2-0.4,0.2-0.5,0.1
			c-0.1-0.1-0.5-0.1-0.8,0c-0.2,0,0.5,0.2,0.8,0.2c0.2,0,0.4,0.1,0.4,0.1c0,0.2,0.6,0.1,1-0.1c0.4-0.2,0.5-0.2,0.4,0.2
			c0,0.2-0.2,0.2-0.3,0.2c-0.2,0-0.2,0,0,0.2c0.2,0.1,0.2,0.2,0.1,0.2c-0.1,0.1-0.1,0.2,0.1,0.3c0.1,0.1,0.3,0.2,0.3,0.2
			c0.1,0,0-0.1-0.1-0.2c-0.1-0.1-0.2-0.3-0.1-0.4c0.1-0.2,0.3-0.1,0.4,0.2c0.1,0.2,0.2,0.3,0.3,0.3c0.2,0,0.6,0.8,0.5,0.9
			c0,0.1,0,0.1,0.1,0.2c0.1,0,0.2,0.1,0.1,0.2c0,0.1,0,0.1,0.1,0.2c0.2,0.1,0,0.3-0.3,0.3c-0.2,0-0.3,0.1-0.3,0.2
			c0,0.2,0.1,0.2,0.4,0.1c0.2,0,0.4,0,0.5,0c0,0.1,0.1,0.1,0.2,0.1c0.3-0.1,0.4,0.1,0.3,0.4c-0.1,0.2-0.1,0.3,0,0.3s0.1,0.1,0,0.3
			c-0.3,0.4-0.5,0.7-0.5,1c0,0.2,0,0.2,0.1,0s0.7-0.6,0.9-0.4c0,0,0.1,0,0.1-0.1s0-0.2,0.1-0.2c0,0,0.1-0.1,0-0.3v-0.3l0.3,0.3
			c0.2,0.2,0.3,0.4,0.3,0.5c0,0.2,0.2,0.2,0.3,0.1c0-0.1,0-0.1-0.1-0.2c-0.1-0.1-0.1-0.1,0-0.1c0.2-0.1,0.2-0.3-0.1-0.3
			s-0.4-0.2-0.2-0.5s0.4-0.2,0.3,0.1c-0.1,0.3,0.1,0.3,0.5,0c0.3-0.3,0.4-0.3,0.4-0.1c0,0.1-0.1,0.1-0.2,0.2c-0.1,0-0.1,0,0.1,0
			c0.2,0,0.3,0,0.3,0.1s-0.2,0.1-0.3,0.1c-0.3,0-0.3,0.1-0.3,0.3c0,0.1,0,0.1,0.2,0c0.1-0.1,0.2-0.1,0.2,0c0.1,0.2,0,0.3-0.3,0.3
			c-0.2,0-0.2,0-0.2,0.3c0,0.2,0.1,0.3,0.2,0.4c0.1,0,0.2,0,0.2-0.1c0-0.2,0.5-0.2,0.5,0c0,0.1,0,0.3,0,0.4
			c-0.1,0.1-0.1,0.3-0.1,0.5s0,0.3-0.3,0.2c-0.2,0-0.4,0-0.5,0.1c-0.1,0-0.2,0-0.2,0c-0.1-0.2-0.3-0.1-0.3,0.1
			c0,0.1,0.2,0.2,0.3,0.2c0.2,0,0.3,0.1,0.3,0.2c0,0.2-0.1,0.2-0.6,0.2s-0.6,0-0.6,0.2c0,0.1,0,0.2,0.1,0.2s0.1,0,0.1,0.1
			s-0.4,0.1-0.7,0c-0.1-0.1-0.2,0-0.2,0.1s-0.1,0.2-0.2,0.2c-0.5,0-0.6,0.1-0.5,0.2c0,0.1,0,0.2-0.1,0.2s-0.2,0.2-0.1,0.4
			c0,0.2,0,0.3-0.1,0.3c-0.3,0-0.3-0.1-0.2-0.3c0.1-0.1,0.1-0.2,0-0.2c-0.2,0-0.3,0.2-0.2,0.4c0,0.1,0.1,0.3,0.1,0.4
			c0,0.3-0.3,0.4-0.3,0.1c0-0.2-0.1-0.2-0.1,0c0,0.1-0.2,0.4-0.3,0.6c-0.2,0.2-0.3,0.3-0.2,0.3s0.2-0.1,0.3-0.2
			c0.1-0.1,0.2-0.2,0.3,0c0.1,0.1,0.2,0.1,0.2,0c0-0.2,0.6-0.9,0.9-1c0.2,0,0.2-0.1,0.2-0.3c0-0.1,0-0.2,0-0.2
			c0.2,0,0.5,0.5,0.5,0.6s0,0.1,0.2,0.1s0.3,0.1,0.3,0.2c0,0.2,0.2,0.2,0.5,0.2c0.5,0,0.6,0.1,0.5,0.3c-0.1,0.1,0,0.2,0.3,0.4
			c0.2,0.2,0.4,0.4,0.4,0.5s0,0.1,0.1,0c0.2-0.2,0.9-0.2,1,0c0.2,0.2,0,0.5-0.4,0.5c-0.2,0-0.3,0.1-0.3,0.2c0,0.1-0.1,0.2-0.2,0.2
			c-0.1,0-0.2-0.1-0.3-0.4c0-0.2-0.1-0.4-0.2-0.4c-0.2,0-0.2,0.2-0.1,0.4c0.1,0.2,0.1,0.3-0.1,0.4c-0.4,0.3-0.5,0.2-0.4-0.2
			c0-0.2,0.1-0.4,0.2-0.5c0.1-0.2,0-0.3-0.2-0.2c-0.1,0-0.1,0.2-0.1,0.3c0,0.2,0,0.4-0.1,0.5l-0.1,0.3h7.1c4.6,0,7.2,0,7.2-0.1
			s0-14.7,0-32.6l-0.1-32.5h-8.4c-7.2,0-8.4,0-8.6-0.2C592.4,476.2,592.2,476.1,592.1,476.2L592.1,476.2z M591.7,480.5
			c0,0.1-0.1,0.1-0.2,0.1c-0.2,0-0.2-0.1-0.1-0.3C591.5,480.2,591.7,480.3,591.7,480.5L591.7,480.5z M590.6,481c0,0.1,0,0.2-0.1,0.2
			c-0.1,0.1-0.3-0.1-0.2-0.3C590.4,480.8,590.6,480.8,590.6,481L590.6,481z M590.5,481.4c0.1,0.1,0.1,0.1,0,0.3
			c-0.3,0.3-0.7,0.2-0.6-0.2C590,481.3,590.2,481.2,590.5,481.4z M591,482.1c0.1,0.1-0.1,0.3-0.3,0.2c-0.1-0.1,0-0.3,0.1-0.3
			C590.9,482,591,482.1,591,482.1L591,482.1z M590,482.5c0.3,0.4,0,0.8-0.5,0.8c-0.3,0-0.5-0.3-0.2-0.5c0.1-0.1,0.2-0.2,0.2-0.3
			C589.4,482.2,589.8,482.2,590,482.5L590,482.5z M590.4,482.5C590.4,482.6,590.4,482.6,590.4,482.5L590.4,482.5
			C590.3,482.4,590.3,482.4,590.4,482.5C590.3,482.4,590.4,482.4,590.4,482.5L590.4,482.5z M590.7,483.1c-0.1,0.2-0.2,0.2-0.3,0
			c-0.3-0.2-0.1-0.5,0.2-0.3C590.8,482.9,590.8,483,590.7,483.1L590.7,483.1z M588.3,485.2c-0.1,0.3-0.3,0.3-0.3,0
			c0-0.1,0.1-0.2,0.2-0.2C588.3,485,588.3,485.1,588.3,485.2L588.3,485.2z M588.3,487.2c0,0.1,0,0.2-0.1,0.2s-0.1-0.1-0.1-0.2
			s0.1-0.2,0.1-0.2C588.3,487,588.3,487.1,588.3,487.2L588.3,487.2z M587.6,487.3c0,0.1-0.1,0.2-0.2,0.2c-0.1,0-0.2-0.1-0.2-0.2
			c0-0.1,0-0.1,0.2-0.1S587.6,487.2,587.6,487.3z M607.4,488.3c0.5,0.4,0.8,1,0.8,1.4c0,0.3-0.4,0.7-0.7,0.6c-0.2-0.1-0.2,0,0,0.1
			c0.2,0.2,0.2,0.6,0,0.7c-0.2,0.1-0.4-0.2-0.3-0.4c0.1-0.2-0.1-0.2-0.3,0.1c-0.1,0.2-0.1,0.2,0.1,0.3c0.4,0.1,0.3,0.4-0.1,0.4
			c-0.4,0-0.6,0.2-0.6,0.7c0,0.2,0,0.4-0.1,0.4s-0.1,0.1-0.1,0.2c0,0.1-0.1,0.2-0.2,0.2c-0.1,0-0.2-0.1-0.2-0.1c0-0.1,0-0.1-0.1,0
			s-0.1,0.2,0,0.2c0.2,0.1,0,0.7-0.2,0.8c-0.1,0-0.1,0.1,0.1,0.2c0.1,0.1,0.2,0.2,0.2,0.3c0,0,0,0.2,0,0.3c0.1,0.2,0.1,0.2-0.2,0.3
			s-0.4,0.4-0.1,0.4c0.1,0,0.2,0.1,0.2,0.2c0,0.1-0.1,0.2-0.2,0.1c-0.2-0.1-0.2,0,0,0.2c0.1,0.2,0.2,0.3,0.1,0.5
			c-0.1,0.1-0.2,0.2-0.3,0.2s0,0.1,0.1,0.1c0.3,0.2,0.3,0.4,0,0.6c-0.3,0.2-0.3,0.6-0.1,0.7c0.1,0,0.1,0.2,0,0.3
			c-0.1,0.2-0.2,0.2-0.3,0.1c-0.1-0.1-0.2-0.1-0.2,0.1c0,0.1,0.1,0.3,0.1,0.4c0.1,0.1,0.1,0.2-0.1,0.4c-0.2,0.2-0.2,0.3-0.2,0.3
			s0,0.1-0.1,0.2c-0.1,0.2-0.2,0.3-0.1,0.4c0.2,0.2,0.2,0.7,0,0.7c-0.3,0.2-0.1,0.3,0.2,0.2s0.4,0,0.4,0.1s-0.1,0.2-0.3,0.3
			c-0.2,0-0.3,0.1-0.2,0.2c0,0.1,0,0.2-0.1,0.2c-0.1,0.1-0.1,0.1,0,0.3s0.1,0.3,0,0.5c-0.3,0.5-0.7,0.3-0.4-0.2
			c0.1-0.2,0-0.2-0.4-0.2c-0.6,0-0.9-0.1-0.9-0.4c0-0.2,0-0.2-0.2,0s-0.2,0.2-0.5,0.1c-0.2-0.1-0.3-0.2-0.2-0.4s0-0.3-0.3-0.4
			c-0.4-0.2-1.4-1.2-1.4-1.3c0,0,0-0.1-0.1-0.1c-0.3,0-0.4-0.2-0.2-0.4c0.1-0.1,0.1-0.2-0.2-0.4c-0.2-0.1-0.3-0.3-0.3-0.4
			c0-0.4,0-0.7-0.2-0.8c-0.2-0.2-0.2-0.2,0-0.5c0.1-0.2,0.2-0.5,0.2-0.6c0-0.2,0.2-0.4,0.3-0.5s0.3-0.4,0.4-0.7
			c0.2-0.5,0.6-1.2,0.8-1.2c0.1,0,0.2-0.1,0.2-0.2c0-0.1,0.3-0.4,0.5-0.5s0.5-0.3,0.5-0.5c0-0.1,0.1-0.3,0.2-0.4
			c0.1-0.2,0.1-0.2,0-0.4c-0.2-0.1-0.2-0.2,0.1-0.3c0.2-0.1,0.4-0.1,0.6-0.1c0.2,0,0.3,0,0.3-0.1s0.1-0.1,0.2-0.1
			c0.1,0,0.2,0,0.4-0.2c0.2-0.1,0.3-0.2,0.4-0.2c0,0,0.2-0.1,0.3-0.2c0.1-0.2,0.3-0.3,0.4-0.2c0.1,0,0.2,0,0.2-0.1s0.1-0.2,0.3-0.1
			c0.2,0.1,0.2,0,0.2-0.2c-0.1-0.2,0-0.3,0.3-0.5c0.2-0.1,0.4-0.2,0.5-0.2s0.3-0.1,0.5-0.3c0.1-0.1,0.2-0.2,0.2-0.1
			c0,0.1,0,0.1,0.2,0s0.2-0.2,0.1-0.4c-0.1-0.1-0.1-0.3,0-0.5c0-0.2,0-0.3-0.1-0.4c-0.3-0.2-0.2-0.4,0-0.4
			C606.9,487.9,607.2,488.1,607.4,488.3L607.4,488.3z M592.1,494c0,0.1-0.1,0.1-0.2,0.1c-0.1,0-0.2-0.1-0.2-0.1
			c0-0.1,0.1-0.1,0.2-0.1C592.1,493.9,592.1,493.9,592.1,494L592.1,494z M600.5,501.8c-0.2,0.2-0.4-0.1-0.3-0.3
			c0.1-0.1,0.1-0.1,0.2,0C600.5,501.6,600.6,501.7,600.5,501.8L600.5,501.8z M594.2,503.9c0,0.1-0.1,0.1-0.1,0.2
			c-0.1,0-0.1,0-0.1-0.2s0.1-0.2,0.1-0.2C594.1,503.8,594.2,503.9,594.2,503.9L594.2,503.9z M592.9,504.3c0,0.2-0.3,0.1-0.3,0
			s0-0.2,0.1-0.1C592.8,504.1,592.9,504.2,592.9,504.3L592.9,504.3z M588.4,506.8c0,0.1-0.1,0.2-0.1,0.2c-0.1,0-0.2,0-0.2-0.2
			s0.1-0.2,0.2-0.2C588.3,506.7,588.4,506.7,588.4,506.8L588.4,506.8z M603.1,507.7c0,0.2-0.1,0.4-0.2,0.5c-0.2,0.2-0.2,0.2-0.3,0
			c-0.2-0.3-0.2-0.4,0-0.4c0.1,0,0.2-0.1,0.2-0.2C602.9,507.3,603.1,507.4,603.1,507.7L603.1,507.7z M603.6,508.7
			c0,0.1-0.1,0.2-0.2,0.2c-0.1,0-0.2-0.1-0.2-0.2c0-0.1,0.1-0.2,0.2-0.2S603.6,508.6,603.6,508.7L603.6,508.7z M585.8,509.1
			c0,0.1,0,0.2-0.1,0.2c-0.2,0-0.3-0.2-0.2-0.3C585.7,508.9,585.8,509,585.8,509.1L585.8,509.1z M584.8,511c0,0.1,0,0.2-0.1,0.2
			s-0.1-0.1-0.1-0.2c0-0.1,0.1-0.2,0.1-0.2C584.7,510.9,584.8,510.9,584.8,511z M595.4,512.1c0,0.1-0.1,0.2-0.2,0.2
			c-0.2,0-0.3-0.3-0.2-0.6c0.1-0.2,0.1-0.2,0.3,0C595.4,511.8,595.5,512,595.4,512.1L595.4,512.1z M604.2,513.1
			C604.2,513.3,604.2,513.3,604.2,513.1c0.2-0.1,0.2,0,0.4,0.2c0.1,0.1,0.2,0.4,0.1,0.5c0,0.2,0,0.3,0.1,0.4
			c0.2,0.1,0.1,0.4-0.2,0.4c-0.1,0-0.3-0.1-0.4-0.2c-0.3-0.3-0.4-0.1-0.2,0.3c0.1,0.4,0.2,0.8,0.2,1.2c0,0.1,0.1,0.3,0.2,0.3
			c0.3,0.1,0.2,0.3-0.1,0.3c-0.2-0.1-0.3,0-0.2,0.1c0.1,0.2,0,0.2-0.4,0.1c-0.5-0.1-0.5-0.1-0.4,0.1c0.1,0.1,0.2,0.2,0.3,0.1
			c0.1-0.1,0.2-0.1,0.4,0c0.3,0.1,0.4,0.4,0.2,0.5c-0.1,0,0,0.2,0.1,0.3c0.3,0.3,0.2,0.7-0.1,0.5c-0.2-0.1-0.3-0.1-0.4,0.1
			c-0.1,0.1-0.2,0.3-0.2,0.4c0,0.1-0.1,0.2-0.3,0.2s-0.3-0.1-0.3-0.1c0-0.1-0.1-0.1-0.1-0.1c-0.1,0-0.3-0.1-0.5-0.3
			c-0.3-0.3-0.3-0.3-0.1-0.5s0.2-0.2,0.1-0.3c-0.1-0.1-0.2-0.1-0.3-0.1s-0.2-0.1-0.2-0.2c0-0.2,0-0.2,0.3-0.2c0.2,0.1,0.3,0,0.4-0.2
			c0.1-0.3,0.2-0.7,0-0.4c0,0.1-0.1,0.1-0.2,0.1c-0.1,0-0.1,0.1-0.1,0.2c0,0.3,0,0.3-0.2,0c-0.1-0.1-0.2-0.3-0.2-0.3
			c0-0.1,0-0.2-0.1-0.3c-0.2-0.2-0.2-0.2,0.1-0.5c0.2-0.2,0.4-0.3,0.5-0.3s0.2-0.1,0.3-0.3c0-0.2,0.2-0.3,0.3-0.3s0.2-0.1,0.2-0.1
			c0-0.1-0.1-0.1-0.2-0.1c-0.2,0.1-0.8-0.1-0.9-0.4c-0.1-0.3,0.2-0.5,0.4-0.3c0.2,0.1,0.2,0.1,0.2-0.1c0-0.4,0.2-0.6,0.4-0.5
			c0.1,0.1,0.3,0.1,0.4,0c0.2-0.1,0.2-0.1,0.1-0.2c-0.1-0.1-0.1-0.1,0-0.3C603.9,512.5,604.2,512.7,604.2,513.1L604.2,513.1z
			 M586,514.5c-0.1,0.2-0.3,0.3-0.3,0c0-0.1,0.1-0.2,0.2-0.2C586,514.3,586.1,514.4,586,514.5L586,514.5z M602.3,514.5
			C602.3,514.6,602.3,514.7,602.3,514.5c0.5,0,0.4,0.3,0,0.5c-0.5,0.3-0.6,0.3-0.6,0c0-0.5,0.1-0.7,0.4-0.7
			C602.3,514.3,602.4,514.4,602.3,514.5L602.3,514.5z M589.2,517.3c0,0.1,0.1,0.1,0.2,0.1c0.2,0,0.2,0.2,0.1,0.5
			c-0.1,0.2,0,0.5,0.2,0.5s0.3,0.3,0.3,0.7c0,0.3,0,0.3-0.1,0.1c-0.2-0.3-0.5-0.7-0.6-0.7s-0.2,0.1-0.3,0.3c-0.2,0.3-0.2,0.3,0,0.5
			c0.1,0.1,0.3,0.2,0.4,0.2c0.1,0,0.2,0,0.2,0.1c0.1,0.1,0.1,0.1,0.3,0c0.1-0.1,0.2-0.1,0.2,0s0.1,0.1,0.3,0.1
			c0.2-0.1,0.3,0,0.2,0.1c-0.1,0.2-0.4,0.2-0.9,0c-0.2-0.1-0.4-0.1-0.4-0.1c0,0.1-0.2,0.1-0.4,0s-0.4-0.1-0.5,0
			c-0.2,0.1-0.2,0-0.2-0.2c0-0.1,0.1-0.2,0.2-0.2c0.4,0,0.2-0.4-0.2-0.6c-0.3-0.1-0.3-0.2,0-0.4c0.1-0.1,0.1-0.2,0.1-0.3
			s0.1-0.2,0.3-0.2s0.3-0.1,0.2-0.2c0-0.1,0-0.2,0.2-0.1c0.1,0,0.2,0,0.2,0C589.2,517.4,589.3,517.4,589.2,517.3
			C589.1,517.2,589.2,517.2,589.2,517.3L589.2,517.3z M587.6,517.8c0,0.1-0.2,0.1-0.2,0s0-0.1,0.1-0.1
			C587.6,517.7,587.6,517.7,587.6,517.8z M587.5,518.1c0.1,0.1,0.1,0.2-0.1,0.3c-0.3,0.1-0.5,0-0.4-0.3
			C587,517.8,587.3,517.8,587.5,518.1L587.5,518.1z M602,518.4c-0.1,0.1-0.3-0.1-0.3-0.2c0-0.1,0.1-0.1,0.2,0
			C602,518.3,602,518.4,602,518.4L602,518.4z M604.2,518.5c-0.1,0.1-0.1,0.2-0.1,0.3c0,0.2,0,0.2-0.1,0c-0.2-0.3-0.2-0.5,0.1-0.5
			C604.3,518.3,604.3,518.4,604.2,518.5L604.2,518.5z M587.6,518.8c-0.3,0.2-0.6,0.1-0.6-0.1c0-0.2,0.3-0.3,0.5-0.2
			C587.7,518.7,587.7,518.8,587.6,518.8L587.6,518.8z M602.9,519.1c-0.1,0.1-0.1,0.2,0,0.4c0.1,0.3,0.1,0.3,0.1-0.1
			c0-0.2,0.1-0.4,0.1-0.4c0.1,0,0.2,0,0.3-0.1c0.1,0,0.2,0,0.1,0.1c0,0.1,0,0.2,0.1,0.2c0.3,0.1,0.2,0.3,0,0.3c-0.1,0-0.2,0-0.2,0.1
			s0.1,0.1,0.2,0.1c0.2,0,0.2,0.2,0,0.3s-0.2,0.1,0,0.1c0.3,0,0.5,0.2,0.2,0.3s-1-0.3-1-0.5s-0.4-0.1-0.7,0.1
			c-0.4,0.3-0.2,0.6,0.2,0.3c0.3-0.2,0.3-0.2,0.6,0.1c0.2,0.2,0.4,0.3,0.4,0.3s0.2,0.2,0.3,0.4c0.2,0.4,0.2,0.4-0.1,0.5
			c-0.1,0.1-0.2,0.1-0.2,0.1c0.1,0,0,0.1,0,0.2c-0.1,0.1-0.1,0.2,0,0.2c0.1,0.1,0.1,0.1,0,0.2c-0.1,0.1-0.1,0.2-0.1,0.3
			c0.1,0.2-0.1,0.7-0.3,0.7s-0.2,0.7,0,0.8s0.2,0.3,0,0.5c-0.1,0-0.2,0-0.2-0.1c-0.1-0.1-0.2-0.2-0.3-0.1c-0.2,0-0.2,0.1-0.2,0.3
			s0,0.3-0.1,0.3s-0.2-0.1-0.2-0.5c0-0.3,0.1-0.5,0.1-0.5c0.1,0,0-0.1-0.2-0.2c-0.2-0.1-0.3-0.2-0.3-0.4s-0.5-0.8-0.7-0.8
			s-0.2-0.7,0-0.8c0.2,0,0.4,0.4,0.3,0.6c0,0.1,0,0.1,0.1,0c0.1,0,0.2-0.2,0.1-0.3c0-0.2,0-0.2,0.1-0.2s0.2,0,0.2-0.1
			s-0.1-0.2-0.2-0.2c-0.2,0-0.3-0.1-0.2-0.5c0-0.2,0-0.6-0.2-0.8c-0.2-0.3-0.2-0.4-0.1-0.6c0.1-0.2,0.2-0.2,0.3-0.1
			c0.1,0.1,0.1,0.1,0.1,0s0.1-0.3,0.3-0.5c0.2-0.1,0.3-0.3,0.3-0.4c0,0,0.1-0.2,0.3-0.3c0.2-0.2,0.4-0.2,0.5-0.1
			C602.9,518.9,602.9,519,602.9,519.1L602.9,519.1z M590.4,518.9c0.2,0.1,0.2,0.1,0.1,0.2c-0.2,0.2-0.3,0.1-0.3-0.1
			C590.1,518.8,590.1,518.8,590.4,518.9z M591.1,519.8C591.3,519.8,591.3,519.9,591.1,519.8c-0.1,0.1-0.3,0.1-0.4,0
			C590.4,519.6,590.7,519.6,591.1,519.8L591.1,519.8z M589.3,520.1c0,0.1-0.1,0.1-0.1,0.2c-0.1,0-0.1,0-0.1-0.2
			c0-0.1,0.1-0.2,0.1-0.2C589.2,519.9,589.3,520,589.3,520.1L589.3,520.1z M590.7,520.2c0.1,0.2-0.3,0.3-0.5,0.2
			c-0.1,0-0.1-0.1,0-0.2C590.4,520,590.6,520,590.7,520.2L590.7,520.2z M591.7,520.1c0,0.1,0,0.2-0.1,0.2c-0.2,0.1-0.4,0-0.2-0.2
			C591.5,520,591.6,520,591.7,520.1z M588.8,521.1c0,0.1,0,0.2-0.1,0.2c-0.2,0-0.3-0.2-0.2-0.3C588.7,520.9,588.8,521,588.8,521.1
			L588.8,521.1z M590.8,521.2c0.1,0.2-0.1,0.4-0.3,0.2c-0.1-0.1-0.1-0.2-0.1-0.2C590.5,521,590.7,521.1,590.8,521.2z M591.6,521.5
			c-0.1,0.2-0.2,0.2-0.4,0s-0.2-0.2,0-0.3C591.4,521.1,591.7,521.2,591.6,521.5z M590,522.1c0.1,0.3,0,0.4-0.2,0.5s-0.3,0.1-0.4-0.1
			c-0.2-0.2-0.2-0.2-0.2,0c0,0.1,0,0.2-0.1,0.2c-0.2,0-0.1-0.5,0-0.5s0.1-0.1,0-0.2c-0.2-0.2-0.1-0.5,0.1-0.4c0,0,0.1,0,0.2-0.1
			c0.1-0.2,0.1-0.2,0.3,0C589.9,521.6,590,521.9,590,522.1L590,522.1z M601.2,521.5c0,0.1-0.1,0.1-0.2,0.1c-0.2,0-0.3-0.1-0.2-0.3
			C600.9,521.3,601.1,521.4,601.2,521.5z M592.4,521.9c0,0.2,0,0.2-0.1,0.2c-0.2-0.1-0.3-0.4-0.1-0.4
			C592.3,521.7,592.4,521.8,592.4,521.9L592.4,521.9z M591.9,522c0,0.1,0,0.3,0,0.3s0,0.1,0.1,0.3c0.2,0.2,0.2,0.2,0,0.1
			c-0.1,0-0.3-0.1-0.3-0.1s-0.1-0.1,0-0.2c0.1-0.1,0.1-0.2,0.1-0.3c0,0-0.1,0-0.1,0.1c-0.1,0.2-0.4,0.2-0.4-0.1
			c0-0.2,0.2-0.3,0.6-0.4C591.8,521.8,591.9,521.9,591.9,522L591.9,522z M588.9,522.2c-0.1,0.1-0.2,0.2-0.3,0.2s-0.2,0.1-0.2,0.2
			c0,0.1,0.1,0.2,0.2,0.1c0.2,0,0.2,0,0.2,0.2c0,0.4-0.1,0.7-0.3,0.7c-0.1,0-0.1-0.1-0.1-0.2c0-0.1-0.1-0.4-0.2-0.6
			c-0.3-0.4-0.3-0.4,0.3-0.7C588.9,521.9,589.1,522,588.9,522.2L588.9,522.2z M592.8,522.6c0,0.1-0.1,0.1-0.2,0.1
			c-0.1-0.1,0-0.4,0.1-0.3C592.8,522.4,592.8,522.5,592.8,522.6L592.8,522.6z M590.6,523c0.1,0.2,0.1,0.3,0,0.3s-0.1,0-0.1,0.1
			s0,0.2-0.1,0.3s-0.2,0.3-0.2,0.5s-0.1,0.4-0.2,0.4c-0.1,0-0.1,0-0.1-0.2c0-0.1,0-0.2,0-0.2c-0.1,0-0.3-0.4-0.3-0.7
			c0-0.1-0.1-0.2-0.2-0.2c-0.1,0-0.2-0.1-0.2-0.2c0-0.2,0.2-0.2,0.3,0s0.1,0.2,0.3,0c0.2-0.1,0.2-0.1,0.4,0s0.3,0.2,0.3,0.1
			C590.5,523.1,590.5,523.1,590.6,523c-0.2,0.1-0.2,0-0.2-0.1C590.1,522.6,590.4,522.7,590.6,523L590.6,523z M600.8,523.4
			c0,0.2,0,0.2-0.4,0c-0.3-0.1-0.3-0.2-0.2-0.3s0.2-0.1,0.4,0C600.7,523.2,600.8,523.3,600.8,523.4L600.8,523.4z M593,523.4
			c0,0.1,0,0.2-0.1,0.2s-0.4-0.3-0.3-0.4C592.7,523.1,593,523.2,593,523.4z M591,523.6c0,0.2-0.3,0.1-0.3,0s0-0.2,0.1-0.1
			C590.9,523.5,591,523.6,591,523.6L591,523.6z M591.8,523.6c0,0.1,0.1,0.1,0.3,0.1c0.4,0,0.4,0.2,0,0.3c-0.2,0-0.3,0-0.4-0.1
			c-0.2-0.2-0.2-0.4,0-0.4C591.7,523.5,591.8,523.5,591.8,523.6L591.8,523.6z M590.7,524c-0.1,0.2-0.3,0.2-0.3,0
			c0-0.1,0.1-0.2,0.2-0.2C590.6,523.8,590.7,523.9,590.7,524L590.7,524z M593.4,524.3c0,0.1-0.1,0.1-0.2,0.1c-0.1,0-0.1,0.1-0.1,0.3
			s0,0.3-0.1,0.4c-0.1,0-0.1,0-0.1-0.1s-0.1-0.1-0.1-0.1c-0.1,0-0.2-0.1-0.3-0.2c-0.1-0.2-0.1-0.2,0.1-0.4c0.1-0.1,0.3-0.1,0.4-0.1
			c0.1,0,0.2,0,0.2-0.1s0.1-0.1,0.2,0C593.4,524.2,593.4,524.2,593.4,524.3L593.4,524.3z M591.1,524.4c0,0,0,0.1-0.2,0.1
			c-0.1,0-0.3,0.1-0.3,0.1c0,0.1-0.1,0-0.1-0.1c0-0.2,0.1-0.2,0.2-0.2C591,524.4,591.1,524.4,591.1,524.4L591.1,524.4z M590.5,524.7
			c0,0.2-0.2,0.2-0.3,0s0-0.4,0.2-0.3C590.4,524.5,590.5,524.6,590.5,524.7L590.5,524.7z M593.8,524.6c0,0.1,0,0.3,0.1,0.4
			c0.2,0.2,0.2,0.4,0,0.3c-0.1,0-0.2-0.1-0.3-0.1c0,0-0.1-0.1-0.1-0.3c0-0.5,0-0.5,0.2-0.5C593.8,524.4,593.8,524.5,593.8,524.6
			L593.8,524.6z M594.3,524.8c0,0.1-0.1,0.1-0.2,0c-0.1,0-0.1-0.1,0-0.2c0-0.1,0.1-0.1,0.2,0C594.4,524.6,594.4,524.7,594.3,524.8
			L594.3,524.8z M601.6,524.9c-0.1,0.2-0.1,0.2-0.2,0.1c-0.1-0.1-0.2-0.2,0-0.3C601.5,524.5,601.7,524.7,601.6,524.9z M591.4,524.8
			c0,0.1,0.1,0.2,0.2,0.1c0.1-0.1,0.5,0.3,0.5,0.3c-0.1,0.1-1-0.3-1-0.5C590.9,524.6,591.3,524.6,591.4,524.8L591.4,524.8z
			 M592.1,524.7c0,0.1-0.2,0.2-0.3,0.1c0-0.1,0-0.1,0.1-0.1C592.1,524.6,592.1,524.7,592.1,524.7L592.1,524.7z M594.8,525.2
			C594.8,525.3,594.8,525.3,594.8,525.2c-0.2,0.1-0.2,0-0.2-0.1c0-0.1,0.1-0.1,0.1-0.1C594.7,525.1,594.8,525.2,594.8,525.2
			L594.8,525.2z M602.8,525.3c0,0.2,0,0.2-0.2,0.2c-0.1,0-0.2-0.1-0.3-0.3c0-0.2,0-0.2,0.2-0.2S602.8,525.2,602.8,525.3L602.8,525.3
			z M588.8,525.4c0,0.1-0.1,0.1-0.2,0.1c-0.1,0-0.1-0.1-0.1-0.1C588.5,525.3,588.6,525.3,588.8,525.4
			C588.8,525.2,588.8,525.3,588.8,525.4L588.8,525.4z M592.5,525.5c0,0.1-0.3,0.4-0.4,0.3c-0.1-0.1,0.1-0.4,0.3-0.4
			C592.4,525.4,592.5,525.4,592.5,525.5L592.5,525.5z M603.1,525.7c0,0.1-0.1,0.2-0.2,0.2c-0.2,0-0.2-0.2-0.1-0.4
			C603,525.4,603.1,525.5,603.1,525.7L603.1,525.7z M593.3,525.7c0,0-0.1,0.2-0.2,0.3c-0.2,0.2-0.2,0.2,0,0.2c0.3,0,0.5-0.3,0.4-0.5
			s0.2-0.1,0.4,0.1l0.2,0.2l-0.2,0.1c-0.1,0-0.3,0.2-0.3,0.2c0,0.2-0.2,0.2-0.3,0c0-0.1-0.1-0.1-0.2-0.1c-0.2,0.1,0.4,0.7,0.6,0.6
			c0.1,0,0.2,0,0.3,0.1c0,0.1,0,0.2-0.1,0.1c-0.1,0-0.2,0-0.2,0c0,0.1-0.3,0.1-0.5,0c-0.3,0-0.4-0.1-0.3-0.1c0.1-0.1,0.1-0.2,0-0.4
			s-0.2-0.4-0.2-0.5c0-0.2,0-0.2-0.1-0.1c-0.1,0.2-0.1,0.1-0.1,0c0-0.2-0.2-0.3-0.3-0.1c0,0.1-0.1,0.1-0.2,0
			c-0.2-0.1,0.3-0.5,0.8-0.5C593.1,525.7,593.3,525.7,593.3,525.7L593.3,525.7z M595.5,526.1C595.5,526.2,595.5,526.2,595.5,526.1
			c-0.2,0.1-0.2,0-0.2-0.1c0-0.1,0.1-0.1,0.1-0.1C595.4,525.9,595.5,526,595.5,526.1L595.5,526.1z M602.4,525.9
			c0.2,0.1,0.2,0.3,0,0.3c-0.1,0-0.2-0.1-0.2-0.2C602.1,525.8,602.2,525.8,602.4,525.9L602.4,525.9z M594.8,526.2
			c0.2,0.2,0.1,0.4-0.2,0.2c-0.2-0.1-0.3-0.1-0.3,0s0,0.1-0.1,0.1c-0.2,0-0.1-0.3,0-0.4C594.6,526,594.6,526.1,594.8,526.2
			L594.8,526.2z M596.2,526.5c-0.2,0.1-0.3-0.1-0.2-0.2c0.1-0.1,0.1-0.1,0.2,0C596.3,526.4,596.2,526.5,596.2,526.5L596.2,526.5z
			 M594.6,527c0,0.1,0,0.2-0.1,0.2s-0.1-0.1-0.1-0.2c0-0.1,0.1-0.2,0.1-0.2C594.6,526.8,594.6,526.9,594.6,527z M602.4,526.8
			c0,0.2-0.1,0.3-0.3,0.2C602,526.9,602.1,526.7,602.4,526.8C602.3,526.7,602.4,526.7,602.4,526.8z M590.9,527.3
			c-0.1,0.1-0.3,0.2-0.5,0.2c-0.3,0-0.3,0-0.3-0.2c0-0.1,0.1-0.2,0.2-0.2c0.1,0,0.2,0,0.3-0.1s0.1-0.1,0.2,0
			C591,527.1,591,527.2,590.9,527.3L590.9,527.3z M595.4,527.3c-0.2,0.1-0.4,0.2-0.5,0.3s-0.1,0.1-0.1,0s-0.1-0.1-0.2-0.1
			c-0.1,0-0.1,0.1-0.1,0.3s0,0.3-0.1,0.3s-0.1-0.2-0.1-0.4c0-0.4,0.1-0.5,1-0.5h0.4L595.4,527.3L595.4,527.3z M595.5,527.8
			c0,0.1-0.1,0.2-0.2,0.2c-0.1,0-0.1-0.3,0-0.4C595.4,527.4,595.6,527.6,595.5,527.8z M598.3,527.8c-0.1,0.1-0.3-0.1-0.3-0.2
			c0-0.1,0.1-0.1,0.2,0C598.3,527.7,598.3,527.8,598.3,527.8L598.3,527.8z M596.5,527.8c-0.2,0.3-0.3,0.2-0.2,0
			c0-0.1,0.2-0.2,0.3-0.2C596.7,527.6,596.7,527.6,596.5,527.8L596.5,527.8z M597.3,527.9c0,0-0.1,0.1-0.2,0.2
			c-0.2,0.2-0.5,0.2-0.5,0c0-0.1,0.1-0.1,0.2-0.1c0.1,0,0.2-0.1,0.2-0.1C597,527.8,597.1,527.8,597.3,527.9
			C597.2,527.8,597.3,527.9,597.3,527.9L597.3,527.9z M603.2,528.7c0,0.1-0.2,0.1-0.3,0.1s-0.4,0-0.5-0.1c-0.2,0-0.3-0.1-0.3-0.1
			c0-0.2,0.3-0.3,0.5-0.3c0.1,0,0.2,0,0.3-0.1s0.1-0.1,0.3,0.1C603.1,528.5,603.2,528.7,603.2,528.7L603.2,528.7z M594.4,528.5
			c0,0.1-0.1,0.2-0.3,0.3s-0.3,0.1-0.5-0.1c-0.2-0.2-0.2-0.2,0-0.2c0.1,0,0.2,0,0.3,0C594,528.3,594.4,528.3,594.4,528.5
			L594.4,528.5z M595,528.6c0,0.1-0.1,0.1-0.2,0c-0.1,0-0.1-0.1,0-0.2c0-0.1,0.1-0.1,0.2,0C595.1,528.4,595.1,528.5,595,528.6
			L595,528.6z M595.8,528.5c0,0.1,0,0.2-0.1,0.2s-0.1,0-0.1-0.1S595.7,528.4,595.8,528.5C595.8,528.4,595.8,528.5,595.8,528.5z
			 M596.3,529c0,0.1-0.1,0.2-0.1,0.3c-0.1,0.1-0.1,0.1,0.1,0.1c0.2-0.1,0.3-0.1,0.2,0.1c-0.2,0.2-0.2,0.3,0.1,0.3
			c0.1,0,0.2-0.1,0.2-0.1c0-0.1,0-0.3,0.2-0.4c0.3-0.3,0.3-0.2,0.1,0.2c-0.1,0.2-0.1,0.3,0,0.5s0.1,0.2-0.1,0.2
			c-0.2,0-0.3-0.1-0.4-0.1c-0.1-0.2-0.3-0.1-0.3,0.2c-0.1,0.2-0.1,0.3-0.3,0.2c-0.1,0-0.2-0.1-0.3-0.1s0-0.1,0.2-0.3
			c0.3-0.2,0.3-0.3,0.2-0.5c-0.1-0.1-0.1-0.2,0-0.5C596.1,528.8,596.3,528.7,596.3,529L596.3,529z M594.8,529.3
			c-0.3,0.2-0.4,0.2-0.4,0s0.4-0.5,0.5-0.3C595,529.1,595,529.2,594.8,529.3L594.8,529.3z M602.4,529.3c0.2,0.1,0.5,0.2,0.6,0.2
			s0.2,0,0.2,0.1c0,0.2-0.4,0.2-1,0.1c-0.3-0.1-0.4-0.1-0.6,0.1c-0.1,0.1-0.2,0.2-0.3,0.2c-0.1-0.1,0-0.5,0.2-0.5
			c0.1,0,0.1-0.1,0.1-0.2C601.7,529,601.9,529,602.4,529.3L602.4,529.3z M594.1,529.8c0.3,0.4,0.1,0.6-0.2,0.2
			c-0.1-0.2-0.2-0.3-0.2-0.4C593.7,529.4,593.9,529.5,594.1,529.8L594.1,529.8z M595.4,530c-0.3,0.2-0.5,0-0.3-0.3
			c0.1-0.2,0.2-0.2,0.3-0.1C595.6,529.8,595.6,529.9,595.4,530L595.4,530z M593.6,530.3c0,0-0.1,0-0.2-0.1c-0.1-0.1-0.1-0.1,0.1-0.1
			C593.6,530.2,593.7,530.3,593.6,530.3L593.6,530.3z M595.4,530.5C595.4,530.6,595.4,530.6,595.4,530.5c-0.2,0.1-0.2,0-0.2,0
			C595.2,530.4,595.3,530.4,595.4,530.5C595.3,530.3,595.4,530.4,595.4,530.5L595.4,530.5z M596.5,530.5c0,0.1,0,0.2,0.2,0.2
			s0.2,0,0.2,0.3c0,0.2,0,0.3,0,0.3c0.1,0,0.1-0.1,0.1-0.1c0-0.1,0.1-0.1,0.2-0.1c0.1,0,0.2-0.1,0.2-0.2c0-0.1,0-0.2,0.1-0.1
			c0.7,0.3,0.7,0.4,0.7,0.6c0,0.1-0.2,0.3-0.3,0.4c-0.3,0.2-0.3,0.8,0,0.8c0.2,0,0.2,0,0,0.2c-0.1,0.1-0.3,0.2-0.5,0.1l-0.3-0.1
			l0.3-0.2c0.2-0.2,0.3-0.3,0.2-0.6s0-0.4,0.2-0.4c0.2-0.1,0.4-0.4,0.2-0.4c0,0-0.1,0-0.2-0.1c-0.1,0-0.2,0-0.2,0.2
			c0,0.1-0.1,0.4-0.1,0.5c-0.1,0.2-0.2,0.2-0.3,0.1c-0.1-0.1-0.2-0.2-0.2-0.3s-0.1-0.1-0.2-0.1c-0.1,0-0.2-0.1-0.2-0.3
			s-0.2-0.3-0.3-0.3c-0.2,0-0.2-0.1,0-0.3C596.4,530.3,596.6,530.3,596.5,530.5L596.5,530.5z M594.2,530.6c0,0.1-0.1,0.1-0.2,0.1
			c-0.1,0-0.1-0.1-0.1-0.1C593.9,530.5,594,530.5,594.2,530.6C594.1,530.5,594.2,530.5,594.2,530.6L594.2,530.6z M595.9,531.2
			c-0.1,0.1-0.3,0.2-0.3,0.2c-0.1,0-0.1,0,0,0.1c0,0,0,0.2,0,0.3c-0.1,0.2-0.1,0.2,0,0.2c0.2,0,0.6,0.8,0.4,0.9
			c-0.1,0-0.2,0-0.3-0.1c-0.2-0.1-0.3-0.1-0.4,0.1c-0.2,0.2-0.2,0.2-0.3,0.1c-0.1-0.1-0.1-0.2,0-0.2s0.1-0.1,0.1-0.2
			c0-0.1,0-0.2,0.1,0c0.1,0.1,0.2,0.1,0.4,0c0.3-0.2,0.3-0.3-0.1-0.4c-0.2,0-0.3-0.1-0.4-0.3c0-0.1,0-0.2,0.1-0.1c0.1,0,0.1,0,0.1,0
			c0-0.2-0.2-0.2-0.4,0c-0.1,0.2-0.2,0.2-0.3,0.1c-0.1-0.1-0.2-0.1-0.2,0s-0.1,0.2-0.2,0.1c-0.1,0-0.2,0-0.3,0.2
			c-0.1,0.3-0.1,0.3-0.3,0.1s-0.2-0.3-0.2-0.5c0.1-0.2,0.3-0.3,1-0.4c0.5-0.1,0.9-0.2,0.9-0.2s0.1-0.2,0.2-0.2
			c0.2-0.1,0.2-0.2,0.1-0.2c-0.1,0-0.1,0-0.1,0c0,0.1,0,0.1-0.1,0.1c-0.2,0-0.1-0.2,0.1-0.3c0.2-0.1,0.3-0.1,0.4,0.2
			C596,531,596,531.1,595.9,531.2L595.9,531.2z M594.8,530.7c0,0.1-0.1,0.1-0.2,0.1s-0.2-0.1-0.2-0.1c0-0.1,0.1-0.1,0.2-0.1
			C594.7,530.6,594.8,530.6,594.8,530.7L594.8,530.7z M594.8,531.3C594.8,531.4,594.8,531.4,594.8,531.3L594.8,531.3
			C594.7,531.2,594.7,531.2,594.8,531.3C594.7,531.2,594.8,531.2,594.8,531.3L594.8,531.3z M598.7,531.5c0,0.2-0.2,0.2-0.3,0
			c0-0.1,0-0.2,0.1-0.1C598.7,531.4,598.7,531.4,598.7,531.5L598.7,531.5z M596.7,531.9c0,0.1,0,0.2,0.1,0.2s0.1,0.6,0,0.7
			c-0.1,0.1-0.5-0.8-0.4-0.9C596.5,531.7,596.7,531.8,596.7,531.9z M598.9,532C598.9,532.1,598.9,532.1,598.9,532
			c-0.2,0.1-0.2,0-0.2,0C598.7,531.9,598.8,531.9,598.9,532C598.9,531.9,598.9,531.9,598.9,532L598.9,532z M601.1,532.6
			c0.1,0.2-0.1,0.4-0.4,0.3c-0.2-0.1-0.2-0.1-0.1-0.2C600.9,532.4,601,532.4,601.1,532.6L601.1,532.6z M594.6,532.8
			c0.1,0.3,0,0.4-0.2,0.2c-0.2-0.3-0.2-0.4,0-0.4C594.4,532.6,594.5,532.7,594.6,532.8z M601.7,532.8c0,0.1-0.1,0.1-0.2,0.1
			c-0.1,0-0.2-0.1-0.2-0.1c0-0.1,0.1-0.1,0.2-0.1C601.6,532.7,601.7,532.8,601.7,532.8L601.7,532.8z M597.1,533
			c0.1,0.1,0.3,0.2,0.4,0.2c0.2,0,0.3,0.1,0.3,0.2c0.1,0.2-0.2,0.6-0.4,0.5c-0.1-0.1,0-0.1,0-0.2c0.2-0.1,0-0.4-0.3-0.3
			c-0.3,0.1-0.7-0.2-0.6-0.4C596.8,532.8,597,532.8,597.1,533L597.1,533z M601.3,533.4c0.1,0.1,0.1,0.2,0,0.2
			c-0.2,0.1-0.4,0-0.4-0.2C600.9,533.1,601.1,533.1,601.3,533.4L601.3,533.4z M598.8,533.5c0.1,0.3-0.2,0.5-0.3,0.3
			c-0.1-0.1-0.1-0.2-0.1-0.3C598.3,533.3,598.7,533.3,598.8,533.5L598.8,533.5z M597.4,533.9c0.1,0.2,0.2,0.2,0.4,0.1
			c0.4-0.2,0.4,0,0,0.2c-0.2,0.1-0.3,0.2-0.2,0.3c0,0,0,0.1-0.1,0.1s-0.1,0.1,0.1,0.1c0.1,0.1,0.2,0.2,0.1,0.4
			c-0.1,0.3,0.3,0.3,0.7,0c0.3-0.2,0.3-0.2,0.1-0.5c-0.2-0.2-0.2-0.2,0.1-0.4c0.4-0.2,0.4-0.2,0.4,0.1c0,0.1-0.1,0.2-0.2,0.3
			c-0.1,0.1-0.2,0.1-0.1,0.2c0.3,0.2,0.1,0.5-0.2,0.7c-0.2,0.1-0.4,0.2-0.5,0.3c-0.1,0.2-0.2,0.2-0.5-0.1c-0.2-0.2-0.3-0.3-0.2-0.3
			c0,0,0.1-0.2,0.1-0.5s0-0.5-0.1-0.5s-0.1,0-0.1,0.1s-0.4,0.2-0.5,0c0-0.1,0.1-0.1,0.2-0.2c0.3-0.1,0.4-0.3,0.2-0.3
			c-0.1,0-0.1-0.1-0.1-0.1C596.9,533.6,597.2,533.7,597.4,533.9L597.4,533.9z M598.1,534.4c0,0.1,0,0.2-0.1,0.2
			c-0.1,0.1-0.3-0.1-0.2-0.3C597.9,534.2,598.1,534.2,598.1,534.4L598.1,534.4z M599.4,535.2c-0.2,0.1-0.5,0-0.5-0.1
			c0-0.2,0.3-0.2,0.5-0.1C599.5,535.1,599.5,535.2,599.4,535.2L599.4,535.2z M601.2,535.6c0.1,0.2,0.1,0.2-0.1,0.4
			c-0.3,0.2-0.3,0.2-0.4-0.1C600.5,535.4,600.9,535.1,601.2,535.6L601.2,535.6z M598.5,535.7c0.1,0.2-0.2,0.4-0.3,0.3
			c-0.1-0.1,0-0.4,0.1-0.4C598.4,535.6,598.5,535.6,598.5,535.7z M596.4,537.3c0,0.2-0.1,0.3-0.3,0.2
			C596,537.4,596.1,537.2,596.4,537.3C596.4,537.2,596.4,537.3,596.4,537.3L596.4,537.3z M599.9,537.7c0,0.3,0,0.4-0.2,0.4
			c-0.1,0-0.2-0.1-0.2-0.2c0-0.1,0.1-0.2,0.1-0.2c0.1,0,0.1,0,0-0.2c-0.1-0.1-0.1-0.2,0-0.2C599.8,537.1,599.9,537.3,599.9,537.7
			L599.9,537.7z M597.4,537.8c0,0.1-0.1,0.1-0.2,0.1c-0.2,0-0.2-0.1-0.1-0.3C597.2,537.6,597.4,537.7,597.4,537.8L597.4,537.8z
			 M597.9,538.1c-0.1,0.1-0.3-0.1-0.3-0.2c0-0.1,0.1-0.1,0.2,0C598,538,598,538.1,597.9,538.1L597.9,538.1z M598.9,538.2
			c0.3,0.5,0.3,0.9-0.1,0.9c-0.1,0-0.2,0-0.2,0.1s-0.1,0.1-0.4,0.1c-0.3-0.1-0.4,0-0.4,0.1s-0.1,0.3-0.2,0.5
			c-0.2,0.3-0.2,0.3-0.5,0.2c-0.2-0.1-0.4-0.1-0.4-0.1c-0.2,0.2-0.4-0.1-0.4-0.4c0-0.2-0.1-0.4-0.2-0.5c-0.1-0.1-0.2-0.2-0.1-0.3
			c0.1-0.2,0.6,0.2,0.8,0.6c0.1,0.4,0.1,0.4,0.4,0.2c0.2-0.2,0.2-0.2,0.1-0.4c-0.2-0.2,0-0.4,0.2-0.3c0.2,0.1,0.2,0,0.1-0.2
			c0-0.2,0-0.3,0.1-0.3c0.2-0.1,0.6,0.1,0.6,0.3c0,0.3,0.2,0.3,0.4,0.1c0.2-0.3,0.1-0.5-0.2-0.6c-0.1,0-0.2-0.1-0.2-0.2
			C598.3,537.7,598.6,537.8,598.9,538.2L598.9,538.2z M595,538.5c0.1,0.2,0.1,0.2-0.1,0.2c-0.1,0-0.3-0.1-0.3-0.2
			c0-0.1,0-0.2,0.1-0.2S594.9,538.4,595,538.5L595,538.5z M597,538.4C597,538.5,597,538.5,597,538.4c-0.2,0.1-0.2,0-0.2,0
			C596.8,538.3,596.9,538.3,597,538.4C597,538.3,597,538.3,597,538.4L597,538.4z M599.8,539c-0.2,0.2-0.3,0-0.2-0.2s0.1-0.2,0.2-0.1
			C599.9,538.9,599.9,538.9,599.8,539L599.8,539z M598.3,540.2c0.3,0.1,0.2,0.3-0.1,0.3s-0.4-0.1-0.2-0.3
			C598,540.1,598,540.1,598.3,540.2L598.3,540.2z M599.5,540.2C599.5,540.3,599.5,540.3,599.5,540.2c-0.2,0.1-0.3,0-0.3,0
			c0-0.1,0-0.1,0.1-0.1C599.3,540.1,599.4,540.1,599.5,540.2L599.5,540.2z M599.9,541c0,0.4-0.2,0.5-0.5,0.1
			c-0.3-0.3-0.2-0.5,0.2-0.5C599.8,540.7,599.9,540.7,599.9,541L599.9,541z M598.8,541.5c0,0.1-0.4,0.1-0.6,0
			c-0.1-0.1-0.1-0.2-0.1-0.3c0.1-0.2,0.1-0.2,0.4,0C598.7,541.3,598.8,541.5,598.8,541.5z M599,541.1C599,541.2,599,541.2,599,541.1
			L599,541.1C598.9,541,598.9,541,599,541.1C599,541,599,541.1,599,541.1L599,541.1z"/>
		<path class="st1" d="M606,490.4c-0.2,0.1-0.4,0.2-0.5,0.3s0,0.1,0,0.1c0.1,0,0.2,0,0.2,0c0.1,0.1,0.1,0.1,0.2-0.1
			c0.1-0.1,0.3-0.2,0.4-0.1c0.3,0.1,0.3,0.1,0.2-0.2C606.5,490.2,606.5,490.2,606,490.4L606,490.4z M605.9,491.1
			C605.9,491.2,605.9,491.2,605.9,491.1c0.2,0.1,0.3,0,0.3,0c0-0.1,0-0.1-0.1-0.1C606,491,605.9,491.1,605.9,491.1L605.9,491.1z
			 M602.3,492.8c0,0.1,0.1,0.1,0.2,0.1c0.1,0,0.1-0.1,0.1-0.1C602.6,492.7,602.5,492.7,602.3,492.8
			C602.3,492.7,602.3,492.7,602.3,492.8L602.3,492.8z M604.3,497c-0.1,0.2,0,0.3,0.2,0.2c0.2,0,0.2-0.1,0-0.2
			C604.5,496.9,604.4,496.9,604.3,497L604.3,497z M603.8,499.3c0,0.1,0.1,0.1,0.2,0.1c0.1,0,0.1-0.1,0.1-0.1
			C604.1,499.2,604,499.2,603.8,499.3C603.9,499.2,603.8,499.2,603.8,499.3L603.8,499.3z M600.5,500.3c0,0.2,0,0.2,0.2,0.1
			c0.1-0.1,0.2-0.2,0.2-0.2s-0.1-0.1-0.2-0.1S600.5,500.2,600.5,500.3z M602.5,502.2c0.1,0.1,0.2,0.2,0.2,0.1
			C602.7,502.2,602.7,502.1,602.5,502.2C602.4,502,602.4,502,602.5,502.2L602.5,502.2z M603.1,513.7c-0.1,0.2-0.1,0.2,0,0.2
			s0.2,0,0.2,0s0-0.1,0.1-0.2C603.5,513.4,603.3,513.4,603.1,513.7L603.1,513.7z M603.5,514.1C603.5,514.2,603.5,514.2,603.5,514.1
			c0.2,0.1,0.3,0,0.3,0c0-0.1,0-0.1-0.1-0.1C603.7,513.9,603.5,514,603.5,514.1L603.5,514.1z M603.7,514.7
			C603.7,514.8,603.8,514.8,603.7,514.7c0.2,0.1,0.2,0,0.2,0C603.9,514.6,603.8,514.6,603.7,514.7
			C603.8,514.5,603.7,514.6,603.7,514.7L603.7,514.7z M602,515.8c0,0,0.1,0.1,0.2,0.2c0.1,0.1,0.2,0.1,0.2,0s-0.1-0.2-0.2-0.2
			C602.1,515.7,602,515.8,602,515.8L602,515.8z M603.2,516c-0.1,0.2-0.1,0.2,0,0.3c0.3,0.1,0.4,0.1,0.3-0.2
			C603.5,515.7,603.4,515.7,603.2,516L603.2,516z M603.1,517.1c0,0.1,0.4,0.4,0.5,0.4s0-0.1,0-0.2
			C603.4,517.1,603.1,516.9,603.1,517.1L603.1,517.1z M588.4,518.1c-0.1,0.4,0,0.6,0.3,0.4c0.1-0.1,0.3-0.1,0.4-0.2
			c0.3-0.1,0.2-0.3-0.1-0.3c-0.1,0-0.3-0.1-0.3-0.1C588.5,517.8,588.5,517.8,588.4,518.1L588.4,518.1z M601.3,520.5
			C601.3,520.6,601.4,520.6,601.3,520.5c0.2,0.1,0.2,0,0.2,0C601.5,520.4,601.4,520.4,601.3,520.5
			C601.4,520.3,601.3,520.4,601.3,520.5L601.3,520.5z M602.4,520.8c0,0.1,0.1,0.2,0.2,0.2c0.2,0,0.2-0.3,0-0.3
			C602.4,520.6,602.4,520.7,602.4,520.8L602.4,520.8z M601.8,521.3c-0.2,0.2-0.2,0.3-0.2,0.4c0.1,0.1,0.1,0,0.2-0.1
			c0-0.1,0.1-0.2,0.2-0.2c0.1,0,0.1,0.2,0,0.3c-0.1,0.2,0,0.2,0.1,0.2s0.2-0.1,0.1-0.4c0-0.2-0.1-0.4-0.1-0.5
			C602.3,520.9,602.1,521,601.8,521.3L601.8,521.3z M602.7,521.3c-0.1,0.1-0.1,0.2,0,0.2c0.1,0.1,0.3,0,0.2-0.2
			C602.8,521.2,602.8,521.2,602.7,521.3z M602.6,522.2c-0.1,0-0.3,0.1-0.3,0.1c-0.1,0.1,0,0.1,0.1,0c0.3-0.1,0.5,0.1,0.3,0.4
			c-0.1,0.1-0.3,0.2-0.5,0.1c-0.2,0-0.3,0-0.3,0c0,0.1,0.3,0.1,0.8,0c0.3-0.1,0.3-0.1,0.3-0.4C602.9,522.2,602.9,522.2,602.6,522.2z
			 M602.2,523.6c0,0.1,0.1,0.1,0.2,0.1l0.1-0.1C602.5,523.5,602.4,523.5,602.2,523.6C602.2,523.4,602.2,523.5,602.2,523.6
			L602.2,523.6z M589.6,522.1c-0.1,0.1-0.1,0.2,0,0.2s0.1,0,0.2-0.2C589.8,521.9,589.7,521.8,589.6,522.1L589.6,522.1z M589.8,523.7
			C589.7,523.8,589.8,523.8,589.8,523.7c0.2,0,0.2-0.1,0.2-0.1C590,523.5,589.9,523.5,589.8,523.7L589.8,523.7z M569.8,476.6
			c0,0-0.1,14.7-0.1,32.6v32.5l6.2-0.1c3.4,0,6.2-0.1,6.3-0.1c0.1-0.1,0.8-4.7,0.8-5.1c-0.1-0.9-0.3-2.3-0.4-2.4
			c-0.1-0.1-0.1-0.4-0.2-0.6c-0.1-0.6-1-2.9-1.8-4.6c-0.3-0.7-0.8-1.7-1-2.2c-0.2-0.6-0.5-1-0.5-1.1c-0.2-0.1-0.5-0.7-1.3-2.3
			c-0.4-0.8-0.8-1.6-0.8-1.7c-0.1-0.1-0.1-0.2-0.1-0.3s-0.1-0.2-0.3-0.4c-0.1-0.1-0.2-0.3-0.2-0.4c0-0.2-0.8-1.8-1.5-3
			c-0.3-0.5-0.6-1-0.6-1.1s-0.1-0.2-0.3-0.3c-0.1-0.1-0.4-0.6-0.6-1c-0.2-0.4-0.4-0.9-0.5-1c-0.5-0.9-0.7-1.3-0.9-1.9
			c-0.2-0.6-0.2-0.7-0.1-1.5c0.2-1.3,0.2-1.3,2-3.5c2-2.5,5.9-7.8,6.1-8.4c0.1-0.2,0.1-1.4,0.2-2.6c0-1.3,0.1-2.4,0.1-2.4
			s0-0.2,0-0.4c-0.1-0.4,0.1-1.9,0.4-2.3c0.1-0.1,0.1-0.4,0.1-0.5c0-0.2,0.1-0.4,0.2-0.6c0.1-0.2,0.4-0.6,0.5-0.9
			c0.2-0.3,0.5-1,0.8-1.4c0.4-0.7,1.4-3,1.9-4.4c0-0.1,0.2-0.2,0.3-0.2s0.2-0.1,0.2-0.3c0-0.5,0.3-1,1.6-2.4s2.2-2.6,2.2-2.9
			c0-0.1,0.1-0.3,0.2-0.4c0.1-0.1,0.2-0.3,0.2-0.3C588.7,476.6,569.9,476.5,569.8,476.6L569.8,476.6z M589,481.6
			C589,481.7,589,481.7,589,481.6c0.2,0.1,0.3,0,0.3,0c0-0.1,0-0.1-0.1-0.1C589.1,481.5,589,481.6,589,481.6L589,481.6z"/>
		<path class="st1" d="M588,482.8C588,482.9,588.1,482.9,588,482.8c0.2,0,0.2,0,0.2-0.1l-0.1-0.1C588,482.6,588,482.7,588,482.8
			L588,482.8z M586.7,486.5c0,0.1,0.1,0.1,0.2,0.1c0.1,0,0.2-0.1,0.2-0.1c0-0.1-0.1-0.1-0.2-0.1
			C586.7,486.4,586.7,486.4,586.7,486.5L586.7,486.5z M605,487.8C605,487.9,605.1,487.9,605,487.8c0.2,0.1,0.2,0,0.2,0
			C605.2,487.7,605.1,487.7,605,487.8C605.1,487.7,605,487.7,605,487.8L605,487.8z M585.9,488c0,0.1,0.1,0.1,0.2,0.1
			c0.1,0,0.1-0.1,0.1-0.2C586,487.8,585.9,487.8,585.9,488z M586.2,488.4c-0.4,0.1-0.3,0.3,0.1,0.2c0.2,0,0.4-0.1,0.4-0.1
			C586.8,488.4,586.5,488.4,586.2,488.4L586.2,488.4z M585.6,489.8c0,0.1,0.1,0.2,0.1,0.2c0.1,0,0.1,0,0.1-0.1
			S585.7,489.7,585.6,489.8C585.7,489.6,585.6,489.7,585.6,489.8L585.6,489.8z M595.3,491.3c0.1,0.2,0.4,0.2,0.5,0
			c0-0.1-0.1-0.1-0.3-0.2C595.3,491.1,595.2,491.2,595.3,491.3z M596.1,491.5C596.1,491.6,596.2,491.6,596.1,491.5
			c0.2,0.1,0.2,0,0.2-0.1l-0.1-0.1C596.1,491.3,596.1,491.4,596.1,491.5L596.1,491.5z M594,491.6c0,0.1,0,0.2-0.1,0.3
			s-0.1,0.2,0,0.2s0.2-0.1,0.2-0.3S594.1,491.5,594,491.6C594,491.5,593.9,491.6,594,491.6L594,491.6z M584.1,492.3
			c0,0.1,0.1,0.1,0.2,0.1c0.1,0,0.1-0.1,0.1-0.1C584.4,492.2,584.3,492.2,584.1,492.3C584.1,492.2,584.1,492.2,584.1,492.3
			L584.1,492.3z M593.1,492.3c0,0.1,0.2,0.3,0.3,0.2c0,0,0-0.1-0.1-0.2C593.2,492.2,593.1,492.2,593.1,492.3L593.1,492.3z
			 M592.2,492.5c-0.1,0-0.2,0.1-0.2,0.2c0,0.1-0.1,0.2-0.2,0.1c-0.1,0-0.2,0-0.2,0c0,0.2,0.4,0.3,0.5,0.1c0-0.1,0.1-0.2,0.1-0.2
			s0.1-0.1,0.2-0.1c0.1,0,0.2-0.1,0.2-0.1S592.4,492.4,592.2,492.5L592.2,492.5z M594,492.6c0,0.1,0,0.2,0,0.2s0,0.1-0.1,0.2
			c-0.1,0.1-0.1,0.2,0.1,0.2c0.1,0,0.2,0,0.2-0.1c0,0,0-0.2,0.1-0.4s0.1-0.3,0-0.3C594.1,492.5,594,492.5,594,492.6L594,492.6z
			 M591.2,493.3c0,0.1,0.1,0.2,0.1,0.2c0.1,0,0.1,0,0.1-0.1S591.3,493.2,591.2,493.3C591.3,493.2,591.2,493.2,591.2,493.3z
			 M590.7,493.5c-0.1,0.1-0.1,0.1,0,0.2c0.1,0,0.2,0,0.2-0.1C591,493.5,590.9,493.4,590.7,493.5L590.7,493.5z M587.8,494.6
			c-0.4,0.5-0.4,0.5-0.1,0.4c0.2,0,0.3-0.2,0.3-0.4c0.1-0.2,0.1-0.4,0.1-0.4C588.1,494.3,588,494.4,587.8,494.6L587.8,494.6z
			 M589.3,499.7c-0.4,0.1-0.2,0.3,0.2,0.3c0.2,0,0.4-0.1,0.5-0.2C590,499.6,589.7,499.5,589.3,499.7L589.3,499.7z M587.8,499.8
			c-0.1,0.2,0.1,0.2,0.3,0c0.2-0.1,0.2-0.1,0-0.1C588,499.7,587.8,499.7,587.8,499.8L587.8,499.8z M588.5,499.8c0.1,0,0.3,0,0.4,0
			c0.1-0.1,0-0.1-0.2-0.1C588.4,499.7,588.4,499.7,588.5,499.8z M590.4,500.4c-0.1,0.2,0,0.6,0.2,0.5s0.2-0.6,0-0.6
			C590.6,500.3,590.5,500.4,590.4,500.4z M591.3,501.1c0.2,0.2,0.5,0.2,0.5,0.1c0-0.1-0.3-0.2-0.5-0.2
			C591.2,500.9,591.2,501,591.3,501.1L591.3,501.1z M590.9,501.5c0.3,0.5,0.5,0.6,0.6,0.4c0.1-0.1-0.4-0.8-0.7-0.8
			C590.6,501.2,590.6,501.2,590.9,501.5L590.9,501.5z M592,501.9C592,502,592.1,502,592,501.9c0.2,0.1,0.2,0,0.2,0
			C592.2,501.8,592.1,501.8,592,501.9C592.1,501.8,592,501.9,592,501.9L592,501.9z M599.1,502c-0.1,0.1,0,0.1,0.3,0.2
			c0.1,0,0.1,0,0.2-0.1C599.6,501.9,599.2,501.8,599.1,502L599.1,502z M593.4,502.3c0,0.1,0.1,0.2,0.2,0.2c0.1,0,0.1,0,0.1-0.1
			C593.5,502.2,593.3,502.1,593.4,502.3L593.4,502.3z M591.3,502.4c-0.2,0.1-0.2,0.1,0,0.3c0.1,0.1,0.2,0.2,0.2,0.1
			c0-0.1,0.1,0,0.2,0c0.1,0.1,0.1,0.2,0.1,0.4c-0.1,0.2,0,0.4,0.1,0.4s0.2-0.5,0.2-0.8c0,0-0.1-0.1-0.2-0.1c-0.1,0-0.2-0.1-0.2-0.1
			c0-0.1,0.1-0.1,0.2-0.1c0.1,0,0.1,0,0.1-0.1C591.9,502.3,591.6,502.3,591.3,502.4L591.3,502.4z M599.9,503.3c0,0.2,0.3,0.2,0.5,0
			c0.1-0.1,0.1-0.2-0.2-0.2C600,503.2,599.9,503.2,599.9,503.3L599.9,503.3z M600.6,503.7c0.1,0.1,0.2,0,0.2,0
			C600.8,503.6,600.8,503.6,600.6,503.7C600.5,503.6,600.5,503.6,600.6,503.7L600.6,503.7z M600.6,505c0,0.1,0,0.1,0.2,0.1
			c0.1,0,0.3-0.1,0.3-0.1c0-0.1-0.1-0.1-0.2-0.1C600.8,504.9,600.7,505,600.6,505z M587.9,505.6c0,0.1,0.1,0.2,0.1,0.2
			c0.1,0,0.1-0.1,0.1-0.2c0-0.1-0.1-0.2-0.1-0.2C587.9,505.4,587.9,505.5,587.9,505.6L587.9,505.6z M586.8,507.2
			c0.1,0.2,0.6,0.2,0.6,0c0-0.1-0.1-0.2-0.3-0.2C586.9,507.1,586.8,507.1,586.8,507.2L586.8,507.2z M585.7,507.6
			C585.7,507.7,585.7,507.7,585.7,507.6c0.2,0.1,0.3,0,0.3,0c0-0.1,0-0.1-0.1-0.1C585.8,507.5,585.7,507.6,585.7,507.6L585.7,507.6z
			 M584.5,507.7c0.1,0,0.2,0,0.3,0C584.9,507.6,584.8,507.6,584.5,507.7C584.5,507.6,584.4,507.7,584.5,507.7z M586.2,507.8
			c0,0.1,0.1,0.2,0.1,0.2c0.1,0,0.1,0,0.1-0.1S586.3,507.7,586.2,507.8C586.3,507.7,586.2,507.7,586.2,507.8L586.2,507.8z
			 M594.6,507.7c0.1,0.1,0.2,0,0.2,0C594.8,507.6,594.8,507.6,594.6,507.7C594.6,507.6,594.5,507.7,594.6,507.7L594.6,507.7z
			 M584.9,508c-0.1,0.1-0.1,0.2,0,0.2s0.2-0.1,0.2-0.2c0-0.1,0-0.2,0-0.2C585,507.8,585,507.9,584.9,508z M584.3,508.4
			c0,0.1,0.1,0.1,0.2,0.1c0.1,0,0.1-0.1,0.1-0.1C584.6,508.3,584.5,508.3,584.3,508.4C584.3,508.2,584.3,508.3,584.3,508.4z
			 M594,508.4C594,508.5,594.1,508.5,594,508.4c0.2,0.1,0.2,0,0.2,0C594.2,508.3,594.1,508.3,594,508.4
			C594.1,508.2,594,508.3,594,508.4z M583.4,508.6c0,0.1,0.1,0.1,0.3,0.1s0.3-0.1,0.2-0.1C583.9,508.4,583.4,508.4,583.4,508.6
			L583.4,508.6z M594.7,509c-0.2,0.1-0.2,0.3,0,0.3c0.1,0,0.1-0.1,0.2-0.2c0-0.1,0-0.2,0-0.2C594.8,509,594.7,509,594.7,509
			L594.7,509z M594.3,510c-0.1,0.1-0.3,0.2-0.4,0.2c-0.2,0-0.2,0,0,0.1S594.3,510.3,594.3,510c0,0,0.1-0.1,0.2-0.2
			c0.1-0.1,0.1-0.1,0.1-0.1C594.6,509.8,594.5,509.9,594.3,510L594.3,510z M583.4,510.7c-0.1,0.3,0,0.6,0.2,0.3s0.1-0.6,0-0.6
			C583.5,510.5,583.4,510.6,583.4,510.7z M582.4,511.3c-0.1,0.1-0.2,0.3-0.1,0.3c0,0,0.1,0,0.1-0.1c0.1-0.2,0.3-0.2,0.3-0.1
			c0,0.1,0,0.2,0.1,0.4s0.2,0.2,0.3,0.1c0.2-0.1,0.1-0.1-0.1-0.3c-0.2-0.2-0.2-0.2,0-0.3c0.1-0.1,0.2-0.2,0.1-0.2
			C583,511,582.7,511.1,582.4,511.3L582.4,511.3z M583.5,511.4c-0.1,0.1-0.1,0.2,0.1,0.3c0.2,0.1,0.6-0.1,0.5-0.3
			C584,511.3,583.6,511.3,583.5,511.4L583.5,511.4z"/>
		<path class="st1" d="M582.3,511.9c0,0.1,0.1,0.1,0.2,0.1c0.1,0,0.2-0.1,0.2-0.1c0-0.1-0.1-0.1-0.2-0.1S582.3,511.8,582.3,511.9z
			 M593.9,512c0,0.1,0.1,0.1,0.2,0.1c0.1-0.1,0.2-0.1,0.2-0.2c0,0-0.1-0.1-0.2-0.1C594,511.9,593.9,511.9,593.9,512L593.9,512z
			 M594.3,514.8c0,0.4,0,0.4,0.2,0.1c0.1-0.2,0.1-0.3,0-0.4C594.3,514.4,594.3,514.5,594.3,514.8L594.3,514.8z M582.9,514.8
			c0,0.1,0.1,0.1,0.2,0.1c0.1,0,0.2-0.1,0.2-0.2c0-0.1-0.1-0.1-0.2-0.1C582.9,514.7,582.9,514.7,582.9,514.8L582.9,514.8z
			 M584.2,515.2c0,0.1,0.1,0.2,0.1,0.2c0.1,0,0.1,0.1,0.1,0.2c0,0.1-0.1,0-0.2,0c-0.2-0.1-0.3-0.1-0.4,0.1c-0.2,0.2-0.2,0.2,0,0.3
			s0.2,0.1,0,0.1c-0.1,0-0.3,0-0.3,0.1c-0.1,0.1-0.3,0.2-0.5,0.2s-0.3,0.1-0.3,0.1c0,0.1-0.2,0.1-0.6,0c-0.5-0.1-0.6,0-0.6,0.1
			c0,0.2,0.3,0.5,0.6,0.6c0.1,0,0.4,0,0.6-0.1c0.2-0.1,0.3-0.1,0.3-0.1c0,0.1,0,0.1-0.1,0.1s-0.1,0.1-0.1,0.2c0,0.1,0.1,0.2,0.1,0.2
			c0.1,0,0.1,0.1,0,0.2c-0.1,0.2,0,0.2,0.1,0.2c0.2,0,0.3-0.4,0.1-0.5c-0.1,0-0.1-0.1,0-0.3c0.1-0.1,0.2-0.2,0.3-0.2s0.2,0,0.2-0.1
			s-0.1-0.2-0.1-0.2c-0.1,0-0.1-0.1,0-0.1s0.2-0.1,0.3-0.1c0.1-0.1,0.4-0.3,0.7-0.5c0.6-0.4,0.7-0.6,0.5-0.9
			C584.6,515.1,584.2,515.1,584.2,515.2L584.2,515.2z M586.3,515.4c0.1,0.2,0.4,0.1,0.4-0.1c0-0.1-0.1-0.1-0.3-0.1
			C586.2,515.3,586.2,515.3,586.3,515.4L586.3,515.4z M585.9,515.7C585.9,515.8,585.9,515.8,585.9,515.7c0.2,0.1,0.3,0,0.3,0
			c0-0.1,0-0.1-0.1-0.1C586,515.6,585.9,515.6,585.9,515.7L585.9,515.7z M579.3,515.8c0,0.1,0.3,0.4,0.4,0.4c0,0,0.1-0.1,0.1-0.2
			c0-0.2-0.1-0.2-0.2-0.2C579.4,515.7,579.3,515.8,579.3,515.8L579.3,515.8z M586.2,515.9c0,0.1,0.1,0.1,0.2,0.1
			c0.2-0.1,0.1-0.2-0.1-0.2C586.3,515.8,586.2,515.9,586.2,515.9L586.2,515.9z M580.4,516.4c0,0.2,0.2,0.3,0.5,0.2
			c0.2-0.1,0.2-0.1,0.1-0.2C580.8,516.2,580.4,516.2,580.4,516.4z M586,516.4c0,0.1,0,0.3,0,0.4c0.1,0.2,0.3,0,0.2-0.2
			c0-0.1,0-0.2,0-0.2c0.1,0,0.1-0.1,0.1-0.1C586.4,516.1,586.1,516.2,586,516.4L586,516.4z M585.4,516.7c0,0.4,0.2,0.5,0.4,0.3
			c0.1-0.1,0.1-0.1-0.1-0.1C585.6,516.9,585.5,516.8,585.4,516.7C585.4,516.4,585.4,516.4,585.4,516.7L585.4,516.7z M584.5,516.7
			c0,0.1,0.1,0.2,0.1,0.2c0.1,0,0.1,0,0.1,0C584.7,516.8,584.6,516.7,584.5,516.7C584.6,516.6,584.5,516.6,584.5,516.7L584.5,516.7z
			 M586.6,516.7c0,0,0,0.2,0,0.3s-0.1,0.2-0.2,0.2c-0.1,0-0.3,0.1-0.3,0.1c0,0.1,0,0.1,0.1,0.1s0.1,0,0.2,0.1c0,0.1,0.1,0.1,0.2,0
			C586.9,517.2,587,516.8,586.6,516.7C586.7,516.6,586.6,516.6,586.6,516.7L586.6,516.7z"/>
		<path class="st1" d="M583.8,516.8c0,0.1,0.1,0.2,0.1,0.2c0.1,0.1,0,0.1-0.1,0.2c-0.1,0.1-0.2,0.2-0.1,0.2c0.1,0,0.1,0,0.1,0
			c0-0.1,0.1-0.1,0.1-0.1c0.1,0,0.1,0.1,0.1,0.2c0,0.2,0,0.2,0.2,0c0.3-0.3,0.3-0.4,0.1-0.3c-0.1,0.1-0.2,0-0.1-0.1
			c0-0.1,0-0.2,0-0.2S584,516.9,583.8,516.8C583.9,516.7,583.8,516.7,583.8,516.8L583.8,516.8z M585,517.5c0,0.3,0,0.4-0.3,0.3
			c-0.2,0-0.3,0-0.3,0.2c0,0.3,0.2,0.3,0.3,0.1c0-0.1,0.2-0.1,0.3-0.1c0.2,0.1,0.2,0,0.2-0.4C585.1,517.1,585,517,585,517.5
			L585,517.5z M585.5,517.5c-0.2,0.2-0.2,0.5,0,0.5c0.1,0,0.1-0.1,0.1-0.1c0-0.1,0.1-0.1,0.3-0.1c0.1,0,0.2-0.1,0.2-0.2
			C586,517.4,585.7,517.4,585.5,517.5L585.5,517.5z M581.9,517.6c0,0.1,0,0.1,0,0.2c0.1,0,0.1,0,0.2,0c0-0.1,0-0.1,0-0.2
			C582,517.5,581.9,517.6,581.9,517.6L581.9,517.6z M583.4,517.6C583.4,517.7,583.5,517.7,583.4,517.6c0.2,0.1,0.2,0,0.2,0
			C583.6,517.5,583.5,517.5,583.4,517.6C583.5,517.5,583.4,517.5,583.4,517.6L583.4,517.6z M582.3,517.8c-0.1,0.1-0.1,0.2,0,0.2
			c0.2,0,0.4-0.2,0.2-0.3C582.4,517.7,582.3,517.7,582.3,517.8L582.3,517.8z M586,517.9c-0.2,0.1-0.3,0.2-0.3,0.4s0,0.3-0.7,0.2
			c-0.6,0-0.6,0-0.5,0.1s0.1,0.3,0.1,0.4c-0.1,0.1-0.1,0.3,0,0.4c0.1,0.2-0.2,0.3-0.2,0.1c0-0.1-0.1-0.1-0.2-0.1
			c-0.1,0-0.1,0.2,0.1,0.4c0.2,0.2,0.3,0.3,0.3,0.2c0-0.2,0.4-0.2,0.4,0c0,0.1,0,0.1-0.1,0.1s-0.1,0-0.1,0.1s0.2,0,0.4-0.1
			c0.4-0.2,0.4-0.5,0-0.5c-0.1,0-0.3-0.1-0.3-0.2c0-0.1,0-0.2,0.3-0.1c0.2,0,0.3,0,0.4-0.1c0-0.1,0.2-0.2,0.3-0.2
			c0.2,0,0.2,0,0.2-0.2c0-0.1,0-0.2,0-0.2c0.1,0,0.1-0.1,0.1-0.3s0-0.3,0.2-0.2c0.1,0,0.2,0,0.2,0
			C586.4,517.8,586.3,517.8,586,517.9L586,517.9z M583.3,518C583.3,518.1,583.3,518.1,583.3,518c0.2,0.1,0.3,0,0.3,0
			c0-0.1,0-0.1-0.1-0.1C583.4,517.8,583.3,517.9,583.3,518L583.3,518z"/>
		<path class="st1" d="M585.6,519.4C585.6,519.5,585.6,519.5,585.6,519.4c0.2,0.1,0.3,0,0.3,0c0-0.1,0-0.1-0.1-0.1
			C585.7,519.3,585.6,519.3,585.6,519.4L585.6,519.4z M583.4,520.2c0,0.1,0.1,0.2,0.1,0.2s0.1,0,0.2,0c0.3,0,0.3,0.2,0,0.3
			c-0.1,0-0.1,0,0.1,0c0.2,0,0.3-0.1,0.3-0.4c0-0.3-0.1-0.4-0.2-0.2c0,0.1-0.1,0.1-0.2-0.1C583.5,520,583.3,519.9,583.4,520.2
			L583.4,520.2z M583.9,521.1c0,0.1,0,0.1,0,0.2c0.1,0,0.1,0,0.2,0c0-0.1,0-0.1,0-0.2C584,521,583.9,521,583.9,521.1L583.9,521.1z
			 M584.8,522c-0.2,0.2-0.3,0.2-0.4,0.1c-0.3-0.2-0.3-0.2-0.3,0.1c0,0.2,0,0.2,0.4,0.2c0.4-0.1,0.6-0.2,0.6-0.5
			C585.1,521.7,585.1,521.8,584.8,522L584.8,522z M585.8,522.4c0,0.1,0.1,0.1,0.2,0.1c0.1,0,0.1-0.1,0.1-0.1
			C586.1,522.3,586,522.3,585.8,522.4C585.9,522.2,585.8,522.3,585.8,522.4z M586.4,522.3c0.1,0.1,0.2,0,0.2,0
			C586.6,522.2,586.6,522.2,586.4,522.3C586.3,522.2,586.3,522.3,586.4,522.3L586.4,522.3z M584.9,522.4c0,0.1,0.1,0.1,0.2,0.1
			c0.1,0,0.2-0.1,0.2-0.1c0-0.1-0.1-0.1-0.2-0.1C585,522.3,584.9,522.4,584.9,522.4z M586.1,522.6c0,0.1,0,0.2,0,0.2
			c0.1,0,0.1,0.1,0.1,0.2c0,0.1,0,0,0.1-0.1c0.2-0.2,0.2-0.4,0-0.4C586.2,522.5,586.2,522.6,586.1,522.6L586.1,522.6z M585.5,523.3
			C585.5,523.4,585.5,523.4,585.5,523.3c0.2,0.1,0.3,0,0.3,0c0-0.1,0-0.1-0.1-0.1C585.6,523.2,585.6,523.2,585.5,523.3L585.5,523.3z
			 M586.5,523.3c0,0.1,0.1,0.1,0.2,0.1c0.1,0,0.1-0.1,0.1-0.1C586.8,523.2,586.7,523.2,586.5,523.3
			C586.6,523.2,586.5,523.2,586.5,523.3z M585,523.4C585,523.5,585.1,523.5,585,523.4c0.2,0.1,0.2,0,0.2,0
			C585.2,523.3,585.1,523.3,585,523.4C585.1,523.3,585,523.4,585,523.4L585,523.4z M587.1,523.4
			C587.1,523.5,587.1,523.5,587.1,523.4c0.2,0.1,0.3,0,0.3,0c0-0.1,0-0.1-0.1-0.1C587.2,523.3,587.1,523.4,587.1,523.4L587.1,523.4z
			 M586.1,524.8c-0.2,0.2-0.2,0.5,0.1,0.3c0.1,0,0.2,0,0.4,0.1c0.1,0.1,0.3,0.2,0.3,0.1c0.1,0,0-0.1-0.1-0.2
			c-0.1-0.1-0.2-0.2-0.2-0.3C586.5,524.6,586.4,524.6,586.1,524.8L586.1,524.8z M590,525.7c0,0.1,0.1,0.2,0.1,0.2
			c0.2-0.1,0.2-0.3,0-0.4C590.1,525.5,590,525.6,590,525.7z M587.6,525.9c0,0.1,0,0.2-0.1,0.3c-0.1,0-0.1,0.1,0,0.1
			C587.8,526.2,587.9,525.9,587.6,525.9C587.6,525.7,587.6,525.7,587.6,525.9L587.6,525.9z M591.1,526.4c0,0.1,0.1,0.2,0.1,0.2
			s0.1,0,0.2,0c0.2,0,0.2,0,0-0.2C591.2,526.1,591,526.1,591.1,526.4z M589.5,527.1C589.5,527.2,589.5,527.2,589.5,527.1
			c0.1,0.1,0.2,0,0.2,0c0-0.1,0-0.1,0-0.1C589.6,527,589.5,527,589.5,527.1L589.5,527.1z M588.4,527.6c0,0.1,0.1,0.2,0.1,0.2
			c0.1,0,0.1,0,0.1-0.1S588.5,527.5,588.4,527.6C588.5,527.5,588.4,527.5,588.4,527.6L588.4,527.6z M588.1,527.8
			c0,0.1,0.1,0.2,0.1,0.2c0.1,0,0.1,0,0.1-0.1S588.2,527.7,588.1,527.8C588.2,527.6,588.1,527.7,588.1,527.8L588.1,527.8z
			 M589.8,528.1C589.8,528.2,589.9,528.2,589.8,528.1c0.2,0.1,0.2,0,0.2,0C590,528,589.9,528,589.8,528.1
			C589.8,527.9,589.8,528,589.8,528.1L589.8,528.1z M590.9,529.9C590.9,530,591,530,590.9,529.9c0.2,0.1,0.2,0,0.2,0
			C591.1,529.8,591,529.8,590.9,529.9C591,529.7,590.9,529.8,590.9,529.9L590.9,529.9z M590.6,530.4c0,0.1,0,0.2,0.2,0.2
			c0.1,0.1,0.2,0.2,0.2,0.3c-0.1,0.2,0.5,0.5,0.6,0.3c0.2-0.2-0.2-0.7-0.4-0.7c-0.1,0-0.2-0.1-0.2-0.1
			C591.1,530.3,590.7,530.3,590.6,530.4L590.6,530.4z M592.3,531.3c0,0.1-0.1,0.2-0.2,0.2c-0.1,0-0.2,0.1-0.1,0.1
			C592.1,531.7,592.4,531.5,592.3,531.3C592.3,531.2,592.3,531.2,592.3,531.3L592.3,531.3z M592.6,531.9
			C592.6,532,592.7,532,592.6,531.9c0.2,0.1,0.2,0,0.2,0C592.8,531.8,592.7,531.8,592.6,531.9C592.7,531.7,592.6,531.8,592.6,531.9
			L592.6,531.9z M592.4,532.3c0,0.1,0.1,0.1,0.2,0.1c0.1,0,0.2-0.1,0.3-0.1c0-0.1,0-0.1-0.2-0.1S592.4,532.3,592.4,532.3
			L592.4,532.3z M591.5,532.8c-0.1,0.1,0,0.3,0.2,0.3c0.1,0,0.2-0.1,0.2-0.1c0-0.1,0.1-0.1,0.2-0.1s0.2,0,0.2,0
			C592.4,532.7,591.6,532.7,591.5,532.8L591.5,532.8z M592.3,533.2c0.1,0,0.3,0.1,0.3,0.2c0,0.1,0.2,0.1,0.3,0
			C593.2,533.3,592.9,533.1,592.3,533.2C592.2,533.1,592.1,533.1,592.3,533.2L592.3,533.2z M593.4,533.3c0.1,0.1,0.1,0.1,0.2,0.2
			c0,0.1,0.1,0,0.1-0.1C593.7,533.3,593.6,533.2,593.4,533.3C593.4,533.2,593.3,533.2,593.4,533.3L593.4,533.3z M594.2,534.9
			c-0.1,0.4,0,0.5,0.1,0.3c0.1-0.1,0.2-0.1,0.2-0.1c0.1,0,0.2,0,0.3-0.1s0.1-0.2-0.1-0.3C594.4,534.5,594.3,534.6,594.2,534.9
			L594.2,534.9z M595.2,534.8c0.1,0,0.2,0,0.3,0C595.6,534.7,595.5,534.7,595.2,534.8C595.2,534.7,595.1,534.7,595.2,534.8
			L595.2,534.8z M595.6,535c-0.1,0.1,0,0.3,0.2,0.3c0.1,0,0.1-0.1,0.1-0.2C595.8,535,595.7,534.9,595.6,535z M596.1,535.4
			c0,0.1,0.2,0.3,0.3,0.2c0,0,0-0.1-0.1-0.2C596.1,535.4,596.1,535.4,596.1,535.4L596.1,535.4z M590.6,538.2c-0.2,0.1-0.2,0.2,0,0.2
			c0.1,0,0.3,0.1,0.5,0.1c0.2,0.1,0.3,0.2,0.2,0.3c-0.2,0.2-0.2,0.3,0,0.3c0.1,0,0.1-0.1,0.1-0.2c0-0.2,0.4-0.5,0.5-0.3
			c0,0,0.1,0,0.1-0.1s-0.1-0.2-0.2-0.1c-0.1,0.1-0.2,0-0.1-0.1c0.1-0.2,0-0.2-0.4-0.2C591.1,538.1,590.8,538.1,590.6,538.2
			L590.6,538.2z M593.4,538.9C593.4,539,593.4,539,593.4,538.9c0.1,0.1,0.2,0,0.2,0c0-0.1,0-0.1,0-0.1
			C593.5,538.7,593.4,538.8,593.4,538.9L593.4,538.9z M591.6,539.3c-0.2,0.2-0.2,0.2,0,0.2c0.1,0,0.2-0.1,0.3-0.2
			C592,539,591.9,539,591.6,539.3L591.6,539.3z M590.4,539.4c0,0.2,0.1,0.3,0.2,0.3c0.2,0,0.2-0.1,0-0.4
			C590.4,539.1,590.4,539.1,590.4,539.4L590.4,539.4z M594.1,539.4c0,0.1-0.1,0.2-0.2,0.2c-0.1,0-0.2,0-0.2,0.1c0,0.3,0.2,0.2,0.5,0
			c0.2-0.2,0.2-0.3,0.1-0.4C594.2,539.2,594.1,539.2,594.1,539.4L594.1,539.4z M591,539.5c0,0.1,0,0.2-0.1,0.3s-0.1,0.1,0.1,0.1
			c0.3,0,0.4-0.4,0.1-0.5C591,539.3,591,539.3,591,539.5L591,539.5z M594.4,539.6c0,0.1,0.3,0.5,0.4,0.5c0.2,0,0-0.5-0.2-0.6
			C594.5,539.5,594.4,539.5,594.4,539.6L594.4,539.6z M595.4,540c0,0.4,0.1,0.5,0.2,0.2c0.1-0.2,0-0.6-0.2-0.6
			C595.5,539.6,595.4,539.8,595.4,540z M590,539.9C590,540,590.1,540.1,590,539.9c0.2,0,0.1-0.1,0.1-0.1
			C590,539.7,590,539.8,590,539.9z M592.3,539.9c-0.2,0.2,0.1,0.3,0.5,0.1c0.2-0.1,0.3-0.2,0.3-0.2
			C593.1,539.7,592.4,539.8,592.3,539.9L592.3,539.9z M591.3,540.1c-0.3,0.1-0.3,0.1-0.2,0.6s0.3,0.5,0.3,0c-0.1-0.3,0-0.4,0.2-0.5
			C591.9,540,591.8,539.9,591.3,540.1L591.3,540.1z M593.5,540.4c0,0.2,0,0.4-0.1,0.5s-0.1,0.2,0.1,0.1c0.3-0.1,0.4-0.5,0.1-0.7
			C593.5,540.1,593.5,540.1,593.5,540.4L593.5,540.4z M592.1,540.4C592.1,540.5,592.1,540.5,592.1,540.4c0.2,0.1,0.3,0,0.3,0
			c0-0.1,0-0.1-0.1-0.1C592.2,540.3,592.1,540.3,592.1,540.4L592.1,540.4z M592.7,540.4C592.7,540.5,592.7,540.5,592.7,540.4
			c0.2,0.1,0.3,0,0.3,0c0-0.1,0-0.1-0.1-0.1C592.8,540.3,592.7,540.3,592.7,540.4L592.7,540.4z M594.8,540.5c0,0.1-0.1,0.1-0.2,0.1
			c-0.1,0-0.2,0.1-0.2,0.2s0,0.1,0.1,0.1c0,0,0.1,0,0.2,0.1c0.1,0.2,0.4,0.1,0.4-0.1C595,540.6,594.8,540.3,594.8,540.5L594.8,540.5
			z M590.2,540.7C590.2,540.8,590.3,540.9,590.2,540.7c0.2,0,0.1-0.1,0.1-0.1C590.3,540.5,590.2,540.6,590.2,540.7L590.2,540.7z
			 M591.9,541.2c-0.2,0.2-0.1,0.5,0.2,0.5c0.1,0,0.2,0,0.2-0.1s0-0.2,0.1-0.3C592.4,541.1,592.1,541,591.9,541.2L591.9,541.2z
			 M593.3,541.3C593.1,541.4,593.1,541.4,593.3,541.3c0.3,0.1,0.5,0.2,0.5,0.3c0.1,0.1,0.2,0.2,0.3,0.2s0.1-0.1-0.2-0.3
			S593.4,541.2,593.3,541.3z M591.1,541.3c0,0.2,0.3,0.4,0.5,0.3c0.2-0.1,0.1-0.3-0.1-0.3C591.3,541.5,591.2,541.4,591.1,541.3
			C591.1,541.2,591.1,541.2,591.1,541.3L591.1,541.3z M589.6,541.7c0,0.1,0.1,0.1,0.2,0.1l0.1-0.1
			C589.9,541.6,589.8,541.6,589.6,541.7C589.6,541.6,589.5,541.6,589.6,541.7z M617.9,534.7c-1.7,0.5-3,2.1-3.3,3.9
			c-0.3,1.7,0.5,3.5,1.9,4.5c3.1,2.2,7.3,0.2,7.6-3.5c0.2-2.2-1.2-4.2-3.2-4.9C620.2,534.5,618.6,534.5,617.9,534.7L617.9,534.7z
			 M621,535.6c0.8,0.4,1.5,1.2,1.9,2c0.4,0.9,0.5,2.4,0,3.3c-0.9,2-3.3,2.9-5.2,2.1c-2.6-1.2-3.2-4.5-1.2-6.6
			c0.8-0.8,1.7-1.2,2.9-1.1C620.1,535.3,620.6,535.4,621,535.6L621,535.6z"/>
		<path class="st1" d="M617.6,539.2v2.8h0.8v-2.4h0.4c0.4,0,0.5,0.1,1.2,1.2c0.7,1.1,0.7,1.2,1.2,1.2c0.2,0,0.4,0,0.4-0.1
			c0,0-0.1-0.3-0.3-0.5s-0.5-0.7-0.7-1.1l-0.4-0.7l0.4-0.2c0.6-0.2,0.9-0.7,0.9-1.4c0-1.3-0.6-1.6-2.6-1.6h-1.3L617.6,539.2
			L617.6,539.2z M620.2,537.3c0.3,0.2,0.4,0.3,0.5,0.6c0,0.6-0.2,0.8-1.3,0.9l-0.9,0.1v-1.8h0.7C619.5,537.1,620,537.2,620.2,537.3
			L620.2,537.3z"/>
	</g>
</g>
</svg>
