<?xml version="1.0" encoding="utf-8"?>
<!-- Generator: Adobe Illustrator 22.1.0, SVG Export Plug-In . SVG Version: 6.00 Build 0)  -->
<!DOCTYPE svg PUBLIC "-//W3C//DTD SVG 1.1//EN" "http://www.w3.org/Graphics/SVG/1.1/DTD/svg11.dtd">
<svg version="1.1" id="Layer_1" xmlns="http://www.w3.org/2000/svg" xmlns:xlink="http://www.w3.org/1999/xlink" x="0px" y="0px"
	 viewBox="0 0 21 15" style="enable-background:new 0 0 21 15;" xml:space="preserve">
<style type="text/css">
	.st0{fill:#ffffff;}
</style>
<path class="st0" d="M8.1,9.7l0-5.7l5.5,2.8C13.6,6.9,8.1,9.7,8.1,9.7z M20.2,3.1c0,0-0.2-1.4-0.8-2c-0.8-0.8-1.6-0.8-2-0.9
	C14.5,0,10.2,0,10.2,0h0c0,0-4.3,0-7.2,0.2c-0.4,0-1.3,0.1-2,0.9c-0.6,0.6-0.8,2-0.8,2S0,4.7,0,6.3v1.5c0,1.6,0.2,3.3,0.2,3.3
	s0.2,1.4,0.8,2C1.8,14,2.8,13.9,3.3,14c1.6,0.2,6.9,0.2,6.9,0.2s4.3,0,7.2-0.2c0.4,0,1.3-0.1,2-0.9c0.6-0.6,0.8-2,0.8-2
	s0.2-1.6,0.2-3.3V6.3C20.4,4.7,20.2,3.1,20.2,3.1L20.2,3.1z"/>
</svg>
