<?xml version="1.0" encoding="utf-8"?>
<!-- Generator: Adobe Illustrator 22.1.0, SVG Export Plug-In . SVG Version: 6.00 Build 0)  -->
<!DOCTYPE svg PUBLIC "-//W3C//DTD SVG 1.1//EN" "http://www.w3.org/Graphics/SVG/1.1/DTD/svg11.dtd">
<svg version="1.1" id="Layer_1" xmlns="http://www.w3.org/2000/svg" xmlns:xlink="http://www.w3.org/1999/xlink" x="0px" y="0px"
	 viewBox="0 0 18 17" style="enable-background:new 0 0 18 17;" xml:space="preserve">
<style type="text/css">
	.st0{fill:#ffffff;}
</style>
<path class="st0" d="M1,16.9c-0.5,0-1-0.4-1-0.9v-15C0,0.4,0.4,0,1,0h15.7c0.5,0,1,0.4,1,0.9v15c0,0.5-0.4,0.9-1,0.9h-4.5v-6.6h2.3
	l0.3-2.6h-2.6V6.2c0-0.7,0.2-1.2,1.3-1.2l1.4,0V2.7c-0.2,0-1.1-0.1-2.1-0.1c-2,0-3.4,1.2-3.4,3.4v1.9H7.1v2.6h2.3v6.6
	C9.4,16.9,1,16.9,1,16.9z"/>
</svg>
